<svg id="primary_Logo" data-name="primary Logo" xmlns="http://www.w3.org/2000/svg" viewBox="0 0 50 50"><title>quizzly-create-question</title><path d="M27.51,17.47c9.78-3.86,13.77-9.65,13.77-9.78l0.13-.26A23.77,23.77,0,0,0,25.19,1a23,23,0,0,0-7.34,1.16C18.76,3.7,23.39,10.27,27.51,17.47Zm-2.57.77c-4.5-7.85-9.52-14.8-9.52-14.93l-0.13-.13a23.77,23.77,0,0,0-13.77,18C3.06,21.2,15.93,21.08,24.94,18.24ZM48.36,28.54A33.92,33.92,0,0,0,32,27a82.62,82.62,0,0,1,5,18.79A23.59,23.59,0,0,0,48.61,28.67ZM28.67,19.66a11.77,11.77,0,0,1,.9,1.8c0.51,1,1,2.06,1.42,3a35.55,35.55,0,0,1,17.89,1.42v-0.9A23.5,23.5,0,0,0,43,9.24C42.31,10.65,38.06,15.93,28.67,19.66ZM8.08,42.05c1.16-2.19,8-13.9,20.46-17l-1.16-2.32c-0.39-.64-0.77-1.42-1.16-2.06-9.27,3-22.39,3.09-24.71,3.09H1.13v1.29A24.48,24.48,0,0,0,8.08,42.05Zm26.64,4.5a89.15,89.15,0,0,0-5.15-19.17c-12.48,3-19.17,16-19.3,16.09l-0.13.26a23.72,23.72,0,0,0,24.58,3.22V46.55Z"/></svg>