<svg id="primary_Logo" data-name="primary Logo" xmlns="http://www.w3.org/2000/svg" viewBox="0 0 50 50"><title>quizzly-create-question</title><path d="M46.42,1.27L1.88,27A1.69,1.69,0,0,0,2.09,30l12.64,5.17v12.1a1.72,1.72,0,0,0,.29,1,1.6,1.6,0,0,0,.8.63,1.52,1.52,0,0,0,.62.11,1.58,1.58,0,0,0,1.26-.56l8-8.75,14.11,5.76a1.82,1.82,0,0,0,.64.13,1.65,1.65,0,0,0,.83-0.21,1.69,1.69,0,0,0,.86-1.21L49,3a1.68,1.68,0,0,0-.72-1.71,1.56,1.56,0,0,0-1.82-.05h0ZM25.91,36.07l12.8-21.34L15.61,31.84l-9-3.67L45,6,39.09,41.45Z"/></svg>