<svg id="primary_Logo" data-name="primary Logo" xmlns="http://www.w3.org/2000/svg" viewBox="0 0 50 50">
  <defs>
    <style>
      .cls-1 {
        fill: #a2afb4;
      }
    </style>
  </defs>
  <title>Portfolio Nav Icons</title>
  <path id="github" class="nav-fill" d="M25.12,1a24.6,24.6,0,0,0-7.74,48A1.16,1.16,0,0,0,19,47.83V43.71c-6.87,1.5-8.24-3.25-8.24-3.25C9.64,37.59,8,36.84,8,36.84c-2.25-1.5.12-1.5,0.12-1.5a4.91,4.91,0,0,1,3.75,2.5c2.25,3.75,5.74,2.62,7.12,2a5.63,5.63,0,0,1,1.5-3.25C15,36,9.26,33.84,9.26,24.48a10.06,10.06,0,0,1,2.5-6.62A8.66,8.66,0,0,1,12,11.36s2.12-.62,6.74,2.5A25.84,25.84,0,0,1,24.87,13a19.6,19.6,0,0,1,6.12.87c4.75-3.12,6.74-2.5,6.74-2.5A8.66,8.66,0,0,1,38,17.86a9.25,9.25,0,0,1,2.5,6.62C40.48,34,34.74,36,29.24,36.59a5.81,5.81,0,0,1,1.62,4.5v6.74A1.26,1.26,0,0,0,32.62,49,24.69,24.69,0,0,0,49.47,25.6,24.2,24.2,0,0,0,25.12,1Z"/>
</svg>
