<svg id="primary_Logo" data-name="primary Logo" xmlns="http://www.w3.org/2000/svg" viewBox="0 0 50 50">
  <defs>
    <style>
      .cls-1 {
        fill: #a2afb4;
      }
    </style>
  </defs>
  <title>Portfolio Nav Icons</title>
  <path id="linkedin" class="cls-1" d="M46.41,1h-41A3.43,3.43,0,0,0,2,4.46V45.54A3.55,3.55,0,0,0,5.59,49H46.41A3.55,3.55,0,0,0,50,45.54V4.46A3.63,3.63,0,0,0,46.41,1ZM16.49,42.09H9.31V19.22h7.18V42.09ZM12.9,16A4.12,4.12,0,1,1,17,11.9,4.14,4.14,0,0,1,12.9,16ZM43.09,42.09H36V30.92c0-2.66,0-6.12-3.72-6.12s-4.25,2.93-4.25,5.85V42H21V19.22H27.8v3.06h0.13a7.44,7.44,0,0,1,6.78-3.72c7.18,0,8.51,4.79,8.51,10.9V42.09H43.09Z"/>
</svg>
