<svg id="primary_Logo" data-name="primary Logo" xmlns="http://www.w3.org/2000/svg" viewBox="0 0 50 50">
  <defs>
    <style>
      .cls-1 {
        fill: #fff;
      }
    </style>
  </defs>
  <title>nav</title>
  <path id="twitter" class="cls-1" d="M49,9.92a21.88,21.88,0,0,1-5.67,1.57,9.72,9.72,0,0,0,4.34-5.43A21.85,21.85,0,0,1,41.4,8.48a9.82,9.82,0,0,0-7.24-3.14,9.93,9.93,0,0,0-9.89,9.89,14.78,14.78,0,0,0,.24,2.29A27.75,27.75,0,0,1,4.26,7.27a9.78,9.78,0,0,0-1.33,4.94,9.9,9.9,0,0,0,4.34,8.2,9.5,9.5,0,0,1-4.46-1.21v0.12a9.73,9.73,0,0,0,8,9.65,9.41,9.41,0,0,1-2.65.36c-0.6,0-1.21-.12-1.81-0.12a10,10,0,0,0,9.17,6.87A19.63,19.63,0,0,1,3.29,40.32,13.85,13.85,0,0,1,1,40.2a28,28,0,0,0,15.08,4.46c18.09,0,28-15,28-28V15.35A34.16,34.16,0,0,0,49,9.92Z"/>
</svg>
