<svg id="Layer_1" data-name="Layer 1" xmlns="http://www.w3.org/2000/svg" viewBox="0 0 601.29 446.46"><defs><style>.cls-1{fill:#ff931e;}.cls-2{fill:#4d4d4d;}.cls-3{fill:#f9f9f9;}.cls-4{fill:#d4d5d8;}</style></defs><title>book</title><path class="cls-1" d="M990.27,416.55c.57-45.33,1.28-90.65.72-136-.65-53.22-2.66-106.43-3.09-159.65,0-3.63-3.07-10.34-4.26-13.76-2.62-7.55-9.93-3.08-17.76-1.5,1.28-7,8.45-21.1,19-11.14,5.2,4.91,7.9,11.76,9.2,18.79,3.21,17.39,3.69,35.16,4.16,52.85q1.23,47,2.48,93.91.84,32.18,1.69,64.35l1,37.24c.46,17.51.83,35.58-5.62,51.86,0,0-5.54,15.13-8,12.3S990.27,416.55,990.27,416.55Z" transform="translate(-402.35 -84.57)"/><path class="cls-2" d="M961.78,531c-1.84,0-3.62-.11-5.2-.21-88.79-5.4-179-12-268.19-19.6l-4-.2c-88.63-3-178.58-8.48-267.26-16.33-2.66-.25-6.27-.58-9.36-2.86-6.21-4.56-5.55-13.1-5.28-16.74l28-359.29c.83-10.85,9.13-21,21.14-25.78,10.11-4.06,21.18-4.18,30.94-4.29l89-.93c10.71-.12,21.78-.23,32.91-.23,27.33,0,59.67.62,92.31,5.21a106.66,106.66,0,0,0,15,1c6.47,0,13.15-.42,19.6-.83l4.39-.27c15.22-.92,31.28-1.38,47.75-1.38,59.82,0,120.06,6,178.31,11.83,16.94,1.7,26.89,9.13,26.62,19.88-3,118.13-1.33,237.94,4.95,356.09.55,10.26,1.12,20.88-2.14,31.2-3.86,12.27-13.23,21.43-23.88,23.33A32.44,32.44,0,0,1,961.78,531Z" transform="translate(-402.35 -84.57)"/><path d="M701.34,489.5l257.59,16.93c1.71.11,3.8.5,4.31,2.14q-129.09-6.46-257.93-16.95C703.7,491.49,701.72,491.06,701.34,489.5Z" transform="translate(-402.35 -84.57)"/><path class="cls-3" d="M988.44,476.27c.53,9.88,1.06,20-1.92,29.43s-10.26,18.17-20,19.91a40.89,40.89,0,0,1-9.64.17q-134.21-8.16-268.16-19.6l17.91-360.69q-11,180.24-22,360.49-133.73-4.5-267.07-16.32c-2.39-.22-4.91-.48-6.84-1.9-3.59-2.64-3.59-7.9-3.25-12.34q14-179.64,28-359.28c.76-9.83,8.86-17.86,18-21.53s19.28-3.82,29.14-3.93l89-.93c41.56-.44,83.31-.86,124.47,4.93,13.22,1.87,26.66.69,40-.11,75.12-4.52,150.38,3,225.26,10.44,9.76,1,22.37,5,22.12,14.77Q979,298,988.44,476.27Z" transform="translate(-402.35 -84.57)"/><path d="M709.57,101.49,708.73,122c-.07,1.67-.21,3.5-1.39,4.69l.81-20.1C708.23,104.82,708.36,102.84,709.57,101.49Z" transform="translate(-402.35 -84.57)"/><path d="M706,137.37a6.91,6.91,0,0,1,1.85-4.34,16.2,16.2,0,0,1-1.48,10.62c-.24-2.08-.38-4.18-.42-6.28Z" transform="translate(-402.35 -84.57)"/><path class="cls-4" d="M484.3,231.11l-2.93-.33a2.72,2.72,0,0,1,3.12,0Z" transform="translate(-402.35 -84.57)"/><path class="cls-4" d="M453.8,309.57a2.71,2.71,0,0,1-3.11,0l2.94-.32Z" transform="translate(-402.35 -84.57)"/><path class="cls-4" d="M461.14,179.14a3.87,3.87,0,0,1-3.26,0,3.87,3.87,0,0,1,3.26,0Z" transform="translate(-402.35 -84.57)"/><path class="cls-4" d="M487.9,464.36a3.86,3.86,0,0,1,3.27,0,3.89,3.89,0,0,1-3.27,0Z" transform="translate(-402.35 -84.57)"/><path class="cls-4" d="M439.11,377a2.72,2.72,0,0,1,3.12,0l-2.94.32Z" transform="translate(-402.35 -84.57)"/><path class="cls-4" d="M580.24,230.88c.32-.37.91.38.58.75s-.93.29-1.4.11a2.24,2.24,0,0,0-1.43-.31,2.54,2.54,0,0,1,2.25-.35Z" transform="translate(-402.35 -84.57)"/><path class="cls-4" d="M578.94,258.52l-2.93-.33a2.74,2.74,0,0,1,3.12,0Z" transform="translate(-402.35 -84.57)"/><path class="cls-4" d="M451.67,270.27l-2.94-.33a2.72,2.72,0,0,1,3.12,0Z" transform="translate(-402.35 -84.57)"/><path class="cls-4" d="M561.79,485.21l-125-8.72c-4.43-.3-9-.64-13-2.51l251.17,15.79C637.18,490.47,599.46,487.84,561.79,485.21Z" transform="translate(-402.35 -84.57)"/><path class="cls-4" d="M604.08,139.3c.33.87-1.18,1.18-2,.72-.31-.88,1.19-1.19,2-.76Z" transform="translate(-402.35 -84.57)"/><path class="cls-4" d="M679.3,390l-167-9.66-14.63-.84q78.95,2.27,157.77,7.15C663.45,387.11,671.57,387.65,679.3,390Z" transform="translate(-402.35 -84.57)"/><path class="cls-4" d="M516.87,283.44c.8-.27.45,1.41-.39,1.36s-1.64-.75-2.45-.51a4.67,4.67,0,0,1,2.92-.39Z" transform="translate(-402.35 -84.57)"/><path class="cls-4" d="M484.16,378.91a4.19,4.19,0,0,1,3.75,0,8.89,8.89,0,0,1-3.59.26Z" transform="translate(-402.35 -84.57)"/><path class="cls-4" d="M520.52,437.25l136,6.79c6.89.35,13.88.71,20.43,2.87Q598.65,444.26,520.52,437.25Z" transform="translate(-402.35 -84.57)"/><path class="cls-4" d="M496.79,258.24c-.8.27-.45-1.4.39-1.36s1.64.76,2.45.51a4.75,4.75,0,0,1-2.92.4Z" transform="translate(-402.35 -84.57)"/><path class="cls-4" d="M526.08,353.17l-3.59-.35a4.35,4.35,0,0,1,3.76-.07Z" transform="translate(-402.35 -84.57)"/><path class="cls-4" d="M665.44,114.62c10.09.69,20.3,1.68,29.75,5.27a683.26,683.26,0,0,0-81.13-5c-8.39,0-16.77.12-25.16.26l-127.42,2.07c-1.06-.45.44-1.83,1.59-1.85l98.13-1.82C596,112.89,630.76,112.24,665.44,114.62Z" transform="translate(-402.35 -84.57)"/><path class="cls-4" d="M486.43,283.52a4.21,4.21,0,0,1-3.76,0,8.94,8.94,0,0,1,3.6-.26Z" transform="translate(-402.35 -84.57)"/><path class="cls-4" d="M679.4,375.55l-146.24-7.94A56.5,56.5,0,0,1,520.44,366q60.67,2.25,121.31,5.57c12.62.69,25.29,1.43,37.65,4Z" transform="translate(-402.35 -84.57)"/><path class="cls-4" d="M572.43,140.3a5.16,5.16,0,0,1-2.93-.37c.8.18,1.56-.46,2.38-.51s1.39,1.43.57,1.42Z" transform="translate(-402.35 -84.57)"/><path class="cls-4" d="M682.18,333.52l-146-7.91c-4.61-.25-9.24-.5-13.82-1.11q66.17,1.19,132.23,5.07C663.89,330.12,673.29,330.73,682.18,333.52Z" transform="translate(-402.35 -84.57)"/><path class="cls-4" d="M504.7,365.76a4.19,4.19,0,0,1-3.75,0,8.88,8.88,0,0,1,3.59-.26Z" transform="translate(-402.35 -84.57)"/><path class="cls-4" d="M521.75,423.13l79.16,3.78,75.27,3.6c1.18,1.37-1.48,2.74-3.28,2.63Z" transform="translate(-402.35 -84.57)"/><path class="cls-4" d="M460.89,434.47c-.8.27-.45-1.41.39-1.36s1.64.75,2.45.51a4.63,4.63,0,0,1-2.91.39Z" transform="translate(-402.35 -84.57)"/><path class="cls-4" d="M668.77,403.7,539.5,396.18c-4-.24-8.16-.48-12-1.88q75.75,3.6,151.45,8.15C675.91,404.07,672.24,403.9,668.77,403.7Z" transform="translate(-402.35 -84.57)"/><path class="cls-4" d="M528,453c-.56-.87,1.12-1.91,1.65-1,.42.65-.8,1.06-1.55.89Z" transform="translate(-402.35 -84.57)"/><path class="cls-4" d="M650.08,417.07l-106.74-6.33c-3.82-.22-7.72-.47-11.3-1.84q72.76,3.25,145.44,8C668.42,418.15,659.22,417.61,650.08,417.07Z" transform="translate(-402.35 -84.57)"/><path class="cls-4" d="M552.52,140.66c-.33-.84,1.14-1.2,1.92-.75a1.45,1.45,0,0,1-1.94.77Z" transform="translate(-402.35 -84.57)"/><path class="cls-4" d="M537.36,353.16c45.48.16,90.89,3.16,136.27,6.16,2.51.17,5.3.46,7,2.34Z" transform="translate(-402.35 -84.57)"/><path class="cls-4" d="M520.51,217.37c0-.31.59-.09.5.2s-.45.39-.76.42a9.82,9.82,0,0,1-3.66-.34,7.93,7.93,0,0,1,3.62-.31Z" transform="translate(-402.35 -84.57)"/><path class="cls-4" d="M533,140.66a7.41,7.41,0,0,1-4.61,0,7.59,7.59,0,0,1,4.62-.12Z" transform="translate(-402.35 -84.57)"/><path class="cls-4" d="M536.07,467.72l135.69,6.37c1.35.07,3.14.61,3,2Q605.3,474.17,536.07,467.72Z" transform="translate(-402.35 -84.57)"/><path class="cls-4" d="M451.68,322.33l4.26.25a5.19,5.19,0,0,1-4.39.14Z" transform="translate(-402.35 -84.57)"/><path class="cls-4" d="M541.21,339.44c44.76-.17,89.46,3,134.11,6.12,2.13.15,4.48.41,5.88,2Z" transform="translate(-402.35 -84.57)"/><path class="cls-4" d="M540.61,453.11l130.14,6.23c1.86.09,4.18.54,4.63,2.34C630.41,459.68,585.4,457.67,540.61,453.11Z" transform="translate(-402.35 -84.57)"/><path class="cls-4" d="M467,128.86a7.41,7.41,0,0,1,4.61,0A7.55,7.55,0,0,1,467,129Z" transform="translate(-402.35 -84.57)"/><path class="cls-4" d="M612.39,273.77l-22.17-1.25c-8-.46-16-.91-24-1a781.46,781.46,0,0,1,118.32,6.65C660.49,276.49,636.44,275.13,612.39,273.77Z" transform="translate(-402.35 -84.57)"/><path class="cls-4" d="M683.3,306.08l-96-6a145.37,145.37,0,0,1-16.55-1.65q53.46.52,106.73,5.57C679.55,304.24,681.85,304.54,683.3,306.08Z" transform="translate(-402.35 -84.57)"/><path class="cls-4" d="M686.09,251l-84-5.62a6,6,0,0,1-2.72-.61C628.34,245.56,657.45,246.33,686.09,251Z" transform="translate(-402.35 -84.57)"/><path class="cls-4" d="M686.67,237.53l-72.49-5a9.24,9.24,0,0,1-3.73-.79A511.75,511.75,0,0,1,686.67,237.53Z" transform="translate(-402.35 -84.57)"/><path class="cls-4" d="M516,298.19c0,.33-.63.07-.52-.24s.51-.38.84-.4a15.87,15.87,0,0,1,4.23.36,10.28,10.28,0,0,1-4.27.32Z" transform="translate(-402.35 -84.57)"/><path class="cls-4" d="M682.56,319.42c-.61.81-1.8.81-2.81.73l-64.57-4.92c.29-1.38,2.14-1.62,3.55-1.54q28.66,1.56,57.26,3.92C678.29,317.8,680.71,318,682.56,319.42Z" transform="translate(-402.35 -84.57)"/><path class="cls-4" d="M554.82,257.7l2.31.32a8,8,0,0,1-5.27.1,5.58,5.58,0,0,1,2.94-.33Z" transform="translate(-402.35 -84.57)"/><path class="cls-4" d="M681.77,292.55l-58.85-4.86a5.14,5.14,0,0,1-3.5-1.2,636.51,636.51,0,0,1,64,4.55C684.29,291.55,682.81,292.63,681.77,292.55Z" transform="translate(-402.35 -84.57)"/><path class="cls-4" d="M685,265.15l-40.07-3.5c-3.86-.34-7.73-.68-11.6-.91q-6.76-.4-13.57-.4c2-1.37,4.66-1.31,7.11-1.19q28.15,1.38,56.2,4.46C684,263.72,685.22,264.24,685,265.15Z" transform="translate(-402.35 -84.57)"/><path class="cls-4" d="M519.85,256.78a1.29,1.29,0,0,1,1.84.62,1.24,1.24,0,0,1-2.18-.62Z" transform="translate(-402.35 -84.57)"/><path class="cls-4" d="M597.86,178.28c.61-.14.74,1,.17,1.26a2,2,0,0,1-1.75-.41,2.4,2.4,0,0,1,1.61-1Z" transform="translate(-402.35 -84.57)"/><path class="cls-4" d="M477.31,243.41c-.2.93-1.56.78-2.43.41a2.1,2.1,0,0,1,2.32-.55Z" transform="translate(-402.35 -84.57)"/><path class="cls-4" d="M621.3,219.06c21-.64,42,1.79,62.92,4.21.84.1,1.87.34,2.09,1.16Z" transform="translate(-402.35 -84.57)"/><path class="cls-4" d="M549.38,244c.28-.52,1,.4.6.79s-1.13.15-1.66-.11c-.37-.45.45-1.17.84-.75Z" transform="translate(-402.35 -84.57)"/><path class="cls-4" d="M680.63,170.24l-34.57-2.59a7.13,7.13,0,0,1-4.24-1.25C654.84,166.78,668,167.18,680.63,170.24Z" transform="translate(-402.35 -84.57)"/><path class="cls-4" d="M607,315.15l-39-1.89c-.71,0-1.62-.26-1.69-1a346,346,0,0,1,46.43,1.51C611.33,315.25,609.05,315.25,607,315.15Z" transform="translate(-402.35 -84.57)"/><path class="cls-4" d="M528.68,257.89l-3.59-.4a10.66,10.66,0,0,1,5.9,0,3.28,3.28,0,0,1-2.28.27Z" transform="translate(-402.35 -84.57)"/><path class="cls-4" d="M619.82,286.88c-13.85.29-27.71-.34-41.55-1a54.9,54.9,0,0,1-8.3-.81A280.56,280.56,0,0,1,619.82,286.88Z" transform="translate(-402.35 -84.57)"/><path class="cls-4" d="M586.12,218.6a3.15,3.15,0,0,1-2.31-.3,11,11,0,0,1,5.92,0,8.23,8.23,0,0,1-3.59.27Z" transform="translate(-402.35 -84.57)"/><path class="cls-4" d="M489.53,407.25a5.38,5.38,0,0,1-2.94-.36,11.94,11.94,0,0,1,5.88,0,5.56,5.56,0,0,1-2.94.33Z" transform="translate(-402.35 -84.57)"/><path class="cls-4" d="M455.25,336.13c0-.33.61-.12.52.19s-.49.4-.81.43a20.61,20.61,0,0,1-5.6-.29,16.9,16.9,0,0,1,5.58-.33Z" transform="translate(-402.35 -84.57)"/><path class="cls-4" d="M674.07,182.82l-14.93-1.14-17.54-1.33A99.4,99.4,0,0,1,674.07,182.82Z" transform="translate(-402.35 -84.57)"/><path class="cls-4" d="M594.33,245a13.69,13.69,0,0,1-6.61.06A13.69,13.69,0,0,1,594.33,245Z" transform="translate(-402.35 -84.57)"/><path class="cls-4" d="M598.16,139.92a2.33,2.33,0,0,1-3.31-.5,2.63,2.63,0,0,1,3.53.4Z" transform="translate(-402.35 -84.57)"/><path class="cls-4" d="M675.82,156.62,647,154.45c-.74,0-1.54-1.16-.8-1.2l27.59,2C674.7,155.32,675.91,155.71,675.82,156.62Z" transform="translate(-402.35 -84.57)"/><path class="cls-4" d="M529.88,127.63c-.47,1.27-2.31,1.05-3.59.59.29-1.28,2.15-1.12,3.38-.66Z" transform="translate(-402.35 -84.57)"/><path class="cls-4" d="M495.35,179.37a1,1,0,0,1-1.55-.88,2.4,2.4,0,0,1,3.24.66,2.22,2.22,0,0,1-1.63.29Z" transform="translate(-402.35 -84.57)"/><path class="cls-4" d="M647.33,207.59l-3.75-.26c-.58,0-1.37-.58-1-1,9.94.24,20,.5,29.6,3Z" transform="translate(-402.35 -84.57)"/><path class="cls-4" d="M680.06,131.07a1,1,0,0,1-1.55-.87,2.39,2.39,0,0,1,3.24.65,2.21,2.21,0,0,1-1.63.3Z" transform="translate(-402.35 -84.57)"/><path class="cls-4" d="M470.55,464.05c-.3-.63.33-1.39,1-1.49a3.41,3.41,0,0,1,2,.55c0,1.09-1.64,1.08-2.64.65Z" transform="translate(-402.35 -84.57)"/><path class="cls-4" d="M674.53,182.27a3.41,3.41,0,0,1,3.24.81,2.64,2.64,0,0,1-3.39-.54Z" transform="translate(-402.35 -84.57)"/><path class="cls-4" d="M467.45,229.45l2.17,1.06a2.63,2.63,0,0,1-2.08.71c-.73-.2-.94-1.5-.2-1.63Z" transform="translate(-402.35 -84.57)"/><path class="cls-4" d="M562.9,258a1.57,1.57,0,0,1,2.65.18,3,3,0,0,1-3.09-.09Z" transform="translate(-402.35 -84.57)"/><path class="cls-4" d="M445.88,295.74a2.24,2.24,0,0,1,2.84.25,3,3,0,0,1-3.09-.09Z" transform="translate(-402.35 -84.57)"/><path class="cls-4" d="M628.55,180.1a3.51,3.51,0,0,1-2.3-.27l1.68-.84c.47,0,1,.12,1.24.55s-.55,1-.72.52Z" transform="translate(-402.35 -84.57)"/><path class="cls-4" d="M503.7,451.46c-1.07-.06-2.28-.21-2.89-1.09A191,191,0,0,1,526.55,452a7.63,7.63,0,0,1-4.5.65Z" transform="translate(-402.35 -84.57)"/><path class="cls-4" d="M676.71,196.07c-6.37.59-12.76-.32-19.09-1.22-.59-.08-1.31-.29-1.41-.87A85.19,85.19,0,0,1,676.71,196.07Z" transform="translate(-402.35 -84.57)"/><path class="cls-4" d="M640.1,206.53a125.76,125.76,0,0,1-25.06-1A111.78,111.78,0,0,1,640.1,206.53Z" transform="translate(-402.35 -84.57)"/><path class="cls-4" d="M470.6,364.8a3,3,0,0,1-2.32-.33,20.15,20.15,0,0,1,7.89,0,18.53,18.53,0,0,1-5.56.3Z" transform="translate(-402.35 -84.57)"/><path class="cls-4" d="M583.55,204.36c.94-.24,2.41-.05,2.26.9a5.36,5.36,0,0,1-3.92,0,2.56,2.56,0,0,1,1.63-1Z" transform="translate(-402.35 -84.57)"/><path class="cls-4" d="M591.05,205.26a2.45,2.45,0,0,1,3.9,0,5.36,5.36,0,0,1-3.92,0Z" transform="translate(-402.35 -84.57)"/><path class="cls-4" d="M481.56,350.73l3.69-.19a2.88,2.88,0,0,1-3.26,1Z" transform="translate(-402.35 -84.57)"/><path class="cls-4" d="M508,408.35c6.74-.71,13.55-.13,20.3.45.62.05,1.42.27,1.46.89A174,174,0,0,1,508,408.35Z" transform="translate(-402.35 -84.57)"/><path class="cls-4" d="M535.87,271.57l-2.94-.31a2.09,2.09,0,0,1,3.53.05Z" transform="translate(-402.35 -84.57)"/><path class="cls-4" d="M564.26,298.56a5.36,5.36,0,0,1,3.94,0,2.43,2.43,0,0,1-3.77-.13Z" transform="translate(-402.35 -84.57)"/><path class="cls-4" d="M515,437.91l-2.88-.88a3.34,3.34,0,0,1,2.41-.6c.82.23,1.29,1.48.57,1.93Z" transform="translate(-402.35 -84.57)"/><path class="cls-4" d="M462,336.61h13.43a39.69,39.69,0,0,1,7.23.45A63.12,63.12,0,0,1,462,336.61Z" transform="translate(-402.35 -84.57)"/><path class="cls-4" d="M570.21,231.41a2.7,2.7,0,0,1,3.83,0,5.41,5.41,0,0,1-3.9,0Z" transform="translate(-402.35 -84.57)"/><path class="cls-4" d="M549.75,152.94a184.82,184.82,0,0,1,28.81-.75c.67,0,1.58.38,1.4,1C569.89,153.44,559.8,153.67,549.75,152.94Z" transform="translate(-402.35 -84.57)"/><path class="cls-4" d="M603.78,126c.54-.42,1.07.72.62,1.23a12.89,12.89,0,0,1-4.29-.25,3.34,3.34,0,0,1,3.6-.93Z" transform="translate(-402.35 -84.57)"/><path class="cls-4" d="M496.39,450a3.13,3.13,0,0,1-4.6,0,8.25,8.25,0,0,1,4.62-.09Z" transform="translate(-402.35 -84.57)"/><path class="cls-4" d="M652,127.73a3.69,3.69,0,0,1,4.29.57,7,7,0,0,1-4.34-.05Z" transform="translate(-402.35 -84.57)"/><path class="cls-4" d="M549.57,312.71l-3.64-.4a2.92,2.92,0,0,1,4.24.15Z" transform="translate(-402.35 -84.57)"/><path class="cls-4" d="M534.67,284.86c8.67-1.47,17.54-1.09,26.32-.7a3.81,3.81,0,0,1,2.73.85Q549.2,285.61,534.67,284.86Z" transform="translate(-402.35 -84.57)"/><path class="cls-4" d="M541.09,271.57l-3.53-.29a3.22,3.22,0,0,1,4.24-.06Z" transform="translate(-402.35 -84.57)"/><path class="cls-4" d="M687.84,211c-4.22.85-8.56-.27-12.71-1.38l-1.23-.33A34,34,0,0,1,687.84,211Z" transform="translate(-402.35 -84.57)"/><path class="cls-4" d="M519.14,166l21.49-.95c1.87-.09,4-.09,5.32,1.21A216.07,216.07,0,0,1,519.14,166Z" transform="translate(-402.35 -84.57)"/><path class="cls-4" d="M661.73,142.08a2.13,2.13,0,0,1-2.9-.71,5.26,5.26,0,0,1,5.39.48,2.81,2.81,0,0,1-2.36.36Z" transform="translate(-402.35 -84.57)"/><path class="cls-4" d="M483.49,463.84a3.85,3.85,0,0,1-5.3-.33l4.82-.18Z" transform="translate(-402.35 -84.57)"/><path class="cls-4" d="M470.73,309.87l11.59-.22a11.18,11.18,0,0,1,5.63.87A56.87,56.87,0,0,1,470.73,309.87Z" transform="translate(-402.35 -84.57)"/><path class="cls-4" d="M485.57,435.85a4.05,4.05,0,0,1-4.25-.93c1,.26,2.06-.43,3.13-.51s2.24,1.32,1.35,1.91Z" transform="translate(-402.35 -84.57)"/><path class="cls-4" d="M459.79,256.55c0-.33.63-.06.51.25s-.52.38-.85.39a19.91,19.91,0,0,1-4.22-.32,3.2,3.2,0,0,1,4.33-.45Z" transform="translate(-402.35 -84.57)"/><path class="cls-4" d="M679.49,157.33a3.13,3.13,0,0,1-1.31-.66,1.8,1.8,0,0,1-.34-.52,38.69,38.69,0,0,1,12.66,2A26.1,26.1,0,0,1,679.49,157.33Z" transform="translate(-402.35 -84.57)"/><path class="cls-4" d="M535.88,178.42a30.43,30.43,0,0,1,5,.41,4.71,4.71,0,0,1-5.39-.16Z" transform="translate(-402.35 -84.57)"/><path class="cls-4" d="M631.18,140.9l-3.62-.93a9.25,9.25,0,0,1,5.24,0c.36.7-.84,1.09-1.62,1Z" transform="translate(-402.35 -84.57)"/><path class="cls-4" d="M594,217.25a6.57,6.57,0,0,1,2.93,1.09,9.88,9.88,0,0,1-5.23,0l2.34-.88Z" transform="translate(-402.35 -84.57)"/><path class="cls-4" d="M459.87,296.71a40.16,40.16,0,0,1,15.14-.19A53.7,53.7,0,0,1,459.87,296.71Z" transform="translate(-402.35 -84.57)"/><path class="cls-4" d="M511.89,217.79l-5.09,0,4.5-1.15Z" transform="translate(-402.35 -84.57)"/><path class="cls-4" d="M483.19,420.22c1.67,0,3.54.06,4.72,1.25a61.33,61.33,0,0,1-14.56-1.21Z" transform="translate(-402.35 -84.57)"/><path class="cls-4" d="M505.82,422.82a5.68,5.68,0,0,1-5-.86,17.58,17.58,0,0,1,5.65-.32c.55.38,0,1.46-.64,1.23Z" transform="translate(-402.35 -84.57)"/><path class="cls-4" d="M552.54,217.69a7,7,0,0,1,6,.38,6.42,6.42,0,0,1-6.12-.24Z" transform="translate(-402.35 -84.57)"/><path class="cls-4" d="M677,196.47a17.71,17.71,0,0,1,8.91.3,2.32,2.32,0,0,1,1.73,1.27A39.53,39.53,0,0,1,677,196.47Z" transform="translate(-402.35 -84.57)"/><path class="cls-4" d="M648.1,194c1.64-1.52,4.32-.93,6.25.21a12.35,12.35,0,0,1-5.89,0Z" transform="translate(-402.35 -84.57)"/><path class="cls-4" d="M475.17,449.76a13.54,13.54,0,0,1-4.24-1.1,12.14,12.14,0,0,1,5.87,0c.35.7-.85,1.08-1.62.94Z" transform="translate(-402.35 -84.57)"/><path class="cls-4" d="M639.32,192.82a5.62,5.62,0,0,1,5.2.72,9.08,9.08,0,0,1-5.53-.12Z" transform="translate(-402.35 -84.57)"/><path class="cls-4" d="M525,338.82a36,36,0,0,1,14.05.56A24,24,0,0,1,525,338.82Z" transform="translate(-402.35 -84.57)"/><path class="cls-4" d="M481.72,364.24c1.33-.19,3-.19,3.6,1a8.65,8.65,0,0,1-5.88-.92l2.25-.25Z" transform="translate(-402.35 -84.57)"/><path class="cls-4" d="M563.78,312.33a17.3,17.3,0,0,1-11.91,0A15.65,15.65,0,0,1,563.78,312.33Z" transform="translate(-402.35 -84.57)"/><path class="cls-4" d="M602.29,258.61a86.44,86.44,0,0,1-19.95.05A53.12,53.12,0,0,1,602.29,258.61Z" transform="translate(-402.35 -84.57)"/><path class="cls-4" d="M490.24,282.87l4.88.68a23,23,0,0,1-4.82.45c-.31,0-.68-.06-.81-.34s.4-.61.48-.31Z" transform="translate(-402.35 -84.57)"/><path class="cls-4" d="M507.93,311.46A2.28,2.28,0,0,1,505,311a2.33,2.33,0,0,1,3.44.11Z" transform="translate(-402.35 -84.57)"/><path class="cls-4" d="M586.07,245l-15.89.55c-.88,0-2.1-.29-2-1.16A70.82,70.82,0,0,1,586.07,245Z" transform="translate(-402.35 -84.57)"/><path class="cls-4" d="M622.52,153a118.37,118.37,0,0,1-15.53.36c-.7,0-1.61-.26-1.65-1A50.09,50.09,0,0,1,622.52,153Z" transform="translate(-402.35 -84.57)"/><path class="cls-4" d="M517.32,338.4a20.24,20.24,0,0,1-11.36-.3A53.92,53.92,0,0,1,517.32,338.4Z" transform="translate(-402.35 -84.57)"/><path class="cls-4" d="M460.45,323.37a52.92,52.92,0,0,1,13.13,0A52.45,52.45,0,0,1,460.45,323.37Z" transform="translate(-402.35 -84.57)"/><path class="cls-4" d="M651.28,141.43a2.12,2.12,0,0,1-2.9-.73,8.09,8.09,0,0,1,6.73.46,6.26,6.26,0,0,1-3.7.42Z" transform="translate(-402.35 -84.57)"/><path class="cls-4" d="M506.89,352.16l-9.32.18c-2.39.05-4.88.08-7-.95A46.58,46.58,0,0,1,506.89,352.16Z" transform="translate(-402.35 -84.57)"/><path class="cls-4" d="M508.39,365.77a11,11,0,0,1,6.49.24,7,7,0,0,1-6.48.25Z" transform="translate(-402.35 -84.57)"/><path class="cls-4" d="M503.57,270.53a53.58,53.58,0,0,1-15.89-.32A87,87,0,0,1,503.57,270.53Z" transform="translate(-402.35 -84.57)"/><path class="cls-4" d="M514.34,351.77a5.27,5.27,0,0,1,3,.4,5.84,5.84,0,0,1-6.67,0,7.32,7.32,0,0,1,3.68-.35Z" transform="translate(-402.35 -84.57)"/><path class="cls-4" d="M491,297.3c3.05-1.36,6.57-1,9.89-.64l5.95.67A87.3,87.3,0,0,1,491,297.3Z" transform="translate(-402.35 -84.57)"/><path class="cls-4" d="M537.82,453.53a9.92,9.92,0,0,1-6.23-.85,9.17,9.17,0,0,1,6.64.23Z" transform="translate(-402.35 -84.57)"/><path class="cls-4" d="M579.25,127a62.07,62.07,0,0,1,13.54-1.1c.88,0,2,.28,2.13,1.16A128,128,0,0,1,579.25,127Z" transform="translate(-402.35 -84.57)"/><path class="cls-4" d="M468.67,243c.46-.18.77.63.43,1a1.75,1.75,0,0,1-1.41.29L463,243.8a6.76,6.76,0,0,1,5.66-.91Z" transform="translate(-402.35 -84.57)"/><path class="cls-4" d="M537.52,244.51a5.54,5.54,0,0,1,6.62-.14A15.25,15.25,0,0,1,537.52,244.51Z" transform="translate(-402.35 -84.57)"/><path class="cls-4" d="M624,166.11a55.23,55.23,0,0,1-15.62-.33A35.8,35.8,0,0,1,624,166.11Z" transform="translate(-402.35 -84.57)"/><path class="cls-4" d="M521.51,395.58a6.34,6.34,0,0,1-2.93-1.12,17.6,17.6,0,0,1,6.59,0,3.3,3.3,0,0,1-3.61.95Z" transform="translate(-402.35 -84.57)"/><path class="cls-4" d="M483,448.92l3.66.44a5.48,5.48,0,0,1-6.55-.15L483,449Z" transform="translate(-402.35 -84.57)"/><path class="cls-4" d="M472.47,283.08a3.62,3.62,0,0,1,4.28.59,18.49,18.49,0,0,1-6.51,0,2.62,2.62,0,0,1,2.3-.36Z" transform="translate(-402.35 -84.57)"/><path class="cls-4" d="M527.4,466.68a18.07,18.07,0,0,1,6.3.42,6.33,6.33,0,0,1-6.39-.35Z" transform="translate(-402.35 -84.57)"/><path class="cls-4" d="M505.58,284.37a7.17,7.17,0,0,1,6.56-.19A15.94,15.94,0,0,1,505.58,284.37Z" transform="translate(-402.35 -84.57)"/><path class="cls-4" d="M563.27,179l-5.71.21a7.76,7.76,0,0,1,5.71-1.08c.42.09.92.34.89.77s-.92.15-.58-.12Z" transform="translate(-402.35 -84.57)"/><path class="cls-4" d="M483.55,129a1.45,1.45,0,0,1-2.2-.77,9.71,9.71,0,0,1,7.35.48,11,11,0,0,1-5,.43Z" transform="translate(-402.35 -84.57)"/><path class="cls-4" d="M523.24,311.65a16.34,16.34,0,0,1,9.22-.1A15.66,15.66,0,0,1,523.24,311.65Z" transform="translate(-402.35 -84.57)"/><path class="cls-4" d="M509.78,393.44l3.65.44a6.22,6.22,0,0,1-7.23-.16l3.56-.24Z" transform="translate(-402.35 -84.57)"/><path class="cls-4" d="M576.34,218.72l-6.27-.32a5.68,5.68,0,0,1,7-.1Z" transform="translate(-402.35 -84.57)"/><path class="cls-4" d="M681.89,143.89a14.87,14.87,0,0,1-9.43-1.08A12.69,12.69,0,0,1,681.89,143.89Z" transform="translate(-402.35 -84.57)"/><path class="cls-4" d="M514.35,422.16l3.65.44a6.24,6.24,0,0,1-7.24-.16l3.57-.25Z" transform="translate(-402.35 -84.57)"/><path class="cls-4" d="M492.47,217.71a6.65,6.65,0,0,1,7.31-.1A17.16,17.16,0,0,1,492.47,217.71Z" transform="translate(-402.35 -84.57)"/><path class="cls-4" d="M497.16,435.66a6.49,6.49,0,0,1-7.27-.09A18.16,18.16,0,0,1,497.16,435.66Z" transform="translate(-402.35 -84.57)"/><path class="cls-4" d="M498.37,337.7a37.31,37.31,0,0,1-13.12,0A59.33,59.33,0,0,1,498.37,337.7Z" transform="translate(-402.35 -84.57)"/><path class="cls-4" d="M536.88,352.7a6.48,6.48,0,0,1-7.2,0A19.58,19.58,0,0,1,536.88,352.7Z" transform="translate(-402.35 -84.57)"/><path class="cls-4" d="M684.91,171a3.9,3.9,0,0,1-4.06-1.08,18.58,18.58,0,0,1,8.85,1.2,6.27,6.27,0,0,1-4.7.24Z" transform="translate(-402.35 -84.57)"/><path class="cls-4" d="M687.75,184.37a13.43,13.43,0,0,1-8.77-1.09A11.26,11.26,0,0,1,687.75,184.37Z" transform="translate(-402.35 -84.57)"/><path class="cls-4" d="M534.16,297.94a10.36,10.36,0,0,1-8.43-.08A9.19,9.19,0,0,1,534.16,297.94Z" transform="translate(-402.35 -84.57)"/><path class="cls-4" d="M612.11,179a36,36,0,0,1-12.8,0A20.38,20.38,0,0,1,612.11,179Z" transform="translate(-402.35 -84.57)"/><path class="cls-4" d="M461.08,282.91a9.94,9.94,0,0,1,7.88.66A11,11,0,0,1,461.08,282.91Z" transform="translate(-402.35 -84.57)"/><path class="cls-4" d="M501.25,393.33a17.67,17.67,0,0,1-12-.21A44,44,0,0,1,501.25,393.33Z" transform="translate(-402.35 -84.57)"/><path class="cls-4" d="M458.35,166.66a11.78,11.78,0,0,1,7.56-.73.6.6,0,0,1,.24,1A23,23,0,0,1,458.35,166.66Z" transform="translate(-402.35 -84.57)"/><path class="cls-4" d="M656.86,128.47a8.44,8.44,0,0,1,7.74.41A12.43,12.43,0,0,1,656.86,128.47Z" transform="translate(-402.35 -84.57)"/><path class="cls-4" d="M464.32,192.07a13.38,13.38,0,0,1,7-.37,1.25,1.25,0,0,1,.94.54A17.84,17.84,0,0,1,464.32,192.07Z" transform="translate(-402.35 -84.57)"/><path class="cls-4" d="M501.41,325c-3.23-.19-6.44-.54-9.63-1a43.27,43.27,0,0,1,11.14,0C503.25,324.66,502.16,325.09,501.41,325Z" transform="translate(-402.35 -84.57)"/><path class="cls-4" d="M483.33,257.6l-4.44-.67a3.46,3.46,0,0,1,4.95.21Z" transform="translate(-402.35 -84.57)"/><path class="cls-4" d="M517,311.69a9.2,9.2,0,0,1-4.94-.71,8.92,8.92,0,0,1,7.16,0,3.43,3.43,0,0,1-2.29.26Z" transform="translate(-402.35 -84.57)"/><path class="cls-4" d="M686.12,144.12a6.4,6.4,0,0,1,5.09,1.08,15.79,15.79,0,0,1-7.5-.76c-.05-.93,1.34-1,2.23-.76Z" transform="translate(-402.35 -84.57)"/><path class="cls-4" d="M539.14,310.66l3,1a6.73,6.73,0,0,1-7.17,0,5.68,5.68,0,0,1,4.22-.93Z" transform="translate(-402.35 -84.57)"/><path class="cls-4" d="M517.29,324.65a19.16,19.16,0,0,1-10.46-.06A42.57,42.57,0,0,1,517.29,324.65Z" transform="translate(-402.35 -84.57)"/><path class="cls-4" d="M585.48,139c1.11-.12,2.53,0,2.92,1a19.54,19.54,0,0,1-8.64-.26,7.86,7.86,0,0,1,5.69-.66Z" transform="translate(-402.35 -84.57)"/><path class="cls-4" d="M549,178.26c.35.07.75.2.86.53a.54.54,0,0,1-.25.63,30.15,30.15,0,0,1-8.32-.38A13.39,13.39,0,0,1,549,178.26Z" transform="translate(-402.35 -84.57)"/><path class="cls-4" d="M497,407.6a25.94,25.94,0,0,1,10.71.22A14.67,14.67,0,0,1,497,407.6Z" transform="translate(-402.35 -84.57)"/><path class="cls-4" d="M620.72,178.16l4.88,1a7,7,0,0,1-6.46-.05l1.62-.89Z" transform="translate(-402.35 -84.57)"/><path class="cls-4" d="M525.84,466.41a9.07,9.07,0,0,1-8.61-.11A21.52,21.52,0,0,1,525.84,466.41Z" transform="translate(-402.35 -84.57)"/><path class="cls-4" d="M625.82,192.91a11,11,0,0,1,9.51.14A52.1,52.1,0,0,1,625.82,192.91Z" transform="translate(-402.35 -84.57)"/><path class="cls-4" d="M500.3,311a18.14,18.14,0,0,1-9.79-.73A17.22,17.22,0,0,1,500.3,311Z" transform="translate(-402.35 -84.57)"/><path class="cls-4" d="M615.4,192.23a12.85,12.85,0,0,1,8.23.65A12.66,12.66,0,0,1,615.4,192.23Z" transform="translate(-402.35 -84.57)"/><path class="cls-4" d="M505.66,437.28A14.46,14.46,0,0,1,499,436.2a54.63,54.63,0,0,1,8.19-.21c.28.72-.73,1.23-1.5,1.29Z" transform="translate(-402.35 -84.57)"/><path class="cls-4" d="M469.62,179.17a9.27,9.27,0,0,1,8.47.09A29.32,29.32,0,0,1,469.62,179.17Z" transform="translate(-402.35 -84.57)"/><path class="cls-4" d="M552.13,298.12a6.09,6.09,0,0,1,6.26.57,44.76,44.76,0,0,1-9.75,0,2.85,2.85,0,0,1,3.64-.6Z" transform="translate(-402.35 -84.57)"/><path class="cls-4" d="M481.65,324.26a2.36,2.36,0,0,1-2.92-1,19.65,19.65,0,0,1,8.51.91,25,25,0,0,1-5.54.22Z" transform="translate(-402.35 -84.57)"/><path class="cls-4" d="M598.14,232a11.47,11.47,0,0,1,9.94,0A31.86,31.86,0,0,1,598.14,232Z" transform="translate(-402.35 -84.57)"/><path class="cls-4" d="M607.37,259.52a12.53,12.53,0,0,1,9.85-.12A33.87,33.87,0,0,1,607.37,259.52Z" transform="translate(-402.35 -84.57)"/><path class="cls-4" d="M506.1,165.93a13.6,13.6,0,0,1,8.53.26A21.69,21.69,0,0,1,506.1,165.93Z" transform="translate(-402.35 -84.57)"/><path class="cls-4" d="M635.06,153.9a10,10,0,0,1-6.41-.65,14.67,14.67,0,0,1,10,.51,9.77,9.77,0,0,1-3.57.23Z" transform="translate(-402.35 -84.57)"/><path class="cls-4" d="M456.6,350a11.64,11.64,0,0,1-8.53-.35Z" transform="translate(-402.35 -84.57)"/><path class="cls-4" d="M464.5,309.79a4.89,4.89,0,0,1-5.88-.14,5.13,5.13,0,0,1,5.9-.12Z" transform="translate(-402.35 -84.57)"/><path class="cls-4" d="M510.48,153.39a21,21,0,0,1,9.08-.56c.5.08,1.14.41,1,.88A22.59,22.59,0,0,1,510.48,153.39Z" transform="translate(-402.35 -84.57)"/><path class="cls-4" d="M594.85,192.52c-.44-.06-1-.19-1.08-.61a.6.6,0,0,1,.2-.65,25.65,25.65,0,0,1,9,.57A20,20,0,0,1,594.85,192.52Z" transform="translate(-402.35 -84.57)"/><path class="cls-4" d="M556.1,127.88a10.48,10.48,0,0,1-4.31-.31,11.34,11.34,0,0,1,9.35-.2l-5,.77Z" transform="translate(-402.35 -84.57)"/><path class="cls-4" d="M606,218.85a10.33,10.33,0,0,1,9.24.14A24.55,24.55,0,0,1,606,218.85Z" transform="translate(-402.35 -84.57)"/><path class="cls-4" d="M640.59,166.78a18.35,18.35,0,0,1-9.39-.41A13.39,13.39,0,0,1,640.59,166.78Z" transform="translate(-402.35 -84.57)"/><path class="cls-4" d="M719.92,320.41a1.86,1.86,0,0,1-1.63-.28,3.81,3.81,0,0,1,3.28,0,2.13,2.13,0,0,1-1.63.29Z" transform="translate(-402.35 -84.57)"/><path class="cls-4" d="M716.18,320a2.67,2.67,0,0,1-3.11,0l2.94-.31Z" transform="translate(-402.35 -84.57)"/><path class="cls-4" d="M703.3,475.2l255.19,16.55c1.54.1,3.32.34,4.12,1.65q-125.24-6.31-250.26-16.11C709.24,477,706,476.76,703.3,475.2Z" transform="translate(-402.35 -84.57)"/><path class="cls-4" d="M703.76,460.54l254.69,16.38c1.59.11,3.46.39,4.16,1.81q-116.15-6.5-232.19-14.7C721.47,463.39,712.46,462.74,703.76,460.54Z" transform="translate(-402.35 -84.57)"/><path class="cls-4" d="M704.43,445.93l253.93,16.19c1.65.11,3.63.45,4.24,2q-114.2-6.66-228.33-14.27C724.24,449.16,714.15,448.48,704.43,445.93Z" transform="translate(-402.35 -84.57)"/><path class="cls-4" d="M704.86,431.84l231.32,14c8.83.53,17.72,1.08,26.3,3.25C876.52,444.54,790.54,440,704.86,431.84Z" transform="translate(-402.35 -84.57)"/><path class="cls-4" d="M962.57,434.58q-124.94-7-249.77-15.34c-2.35-.15-4.94-.42-6.54-2.15L928.7,431C940,431.7,951.41,432.41,962.57,434.58Z" transform="translate(-402.35 -84.57)"/><path class="cls-4" d="M962.91,419.89,722.22,405.82c-5.1-.3-10.32-.63-15-2.59C792.48,407.83,877.81,412.42,962.91,419.89Z" transform="translate(-402.35 -84.57)"/><path class="cls-4" d="M708.79,389.94c81,2.5,161.85,8.2,242.68,13.91,3.61.25,7.32.53,10.62,2Z" transform="translate(-402.35 -84.57)"/><path class="cls-4" d="M709.16,375.21l236.73,14.35,15.91,1-27.93-1.69Z" transform="translate(-402.35 -84.57)"/><path class="cls-4" d="M728.51,116.91c40-3.51,80.32-.59,120.39,2.34l114.64,8.38c2,.15,4.52.69,5,2.66l-105.12-7.92c-47.46-3.57-95.18-7.15-142.6-3C722.83,117.51,725.77,117.15,728.51,116.91Z" transform="translate(-402.35 -84.57)"/><path class="cls-4" d="M733,347.28q103.2,5.16,206.27,12.92c7.52.57,15,1.15,22.5,2.3l-243-14.27C723.29,346.82,728.19,347,733,347.28Z" transform="translate(-402.35 -84.57)"/><path class="cls-4" d="M714.88,362c61.45,1.17,122.8,5.38,184.12,9.59,18.79,1.29,37.6,2.58,56.29,5Z" transform="translate(-402.35 -84.57)"/><path class="cls-4" d="M741.86,319.23Q841,324.5,940.07,331.77a182.48,182.48,0,0,1,22.51,2.59L734,320.72c2.16-1.7,5.17-1.63,7.91-1.49Z" transform="translate(-402.35 -84.57)"/><path class="cls-4" d="M962.45,320,744.93,307.3c-4.25-.25-8.57-.51-12.59-1.92Q847.56,309.8,962.45,320Z" transform="translate(-402.35 -84.57)"/><path class="cls-4" d="M722,131.84c42.49-5.43,85.55-2.07,128.24,1.29l116.86,9.21-124-8.22C802.8,131.44,762.31,128.77,722,131.84Z" transform="translate(-402.35 -84.57)"/><path class="cls-4" d="M962.49,348.36,769.6,337q-13.58-.8-27.17-1.61c8.15-1.71,16.57-1.24,24.88-.77C832.43,338.34,897.54,342.42,962.49,348.36Z" transform="translate(-402.35 -84.57)"/><path class="cls-4" d="M871.84,161.55l67.68,5.32c3.8.3,7.66.61,11.23,2-76.51-6.31-153.18-12.62-229.93-11.24C771.08,153.64,821.58,157.6,871.84,161.55Z" transform="translate(-402.35 -84.57)"/><path class="cls-4" d="M843.06,146l116.32,8.55a15,15,0,0,1,6.5,1.48L773.77,143C796.9,142.59,820,144.29,843.06,146Z" transform="translate(-402.35 -84.57)"/><path class="cls-4" d="M747.58,265c53.95,0,107.77,4.72,161.51,9.42l8.35.73Z" transform="translate(-402.35 -84.57)"/><path class="cls-4" d="M923.89,248.31a5.34,5.34,0,0,1,3.93,0,5.31,5.31,0,0,1-3.92,0Z" transform="translate(-402.35 -84.57)"/><path class="cls-4" d="M764.55,210.37q71.66,1.51,143,8.82c5,.51,10,1,15,1.62Z" transform="translate(-402.35 -84.57)"/><path class="cls-4" d="M821.69,254l67.49,4.64A211.57,211.57,0,0,1,911.53,261L736.62,250.8C765,250.09,793.37,252,821.69,254Z" transform="translate(-402.35 -84.57)"/><path class="cls-4" d="M897.38,302l-123-7.23-26.94-1.58A1223.74,1223.74,0,0,1,897.38,302Z" transform="translate(-402.35 -84.57)"/><path class="cls-4" d="M890.74,287.17l-127.61-7A57.69,57.69,0,0,1,750,278.44Q820.52,280,890.74,287.17Z" transform="translate(-402.35 -84.57)"/><path class="cls-4" d="M942.2,208.79c0,.31-.59.09-.5-.21s.45-.39.76-.41a9.82,9.82,0,0,1,3.66.34,7.79,7.79,0,0,1-3.62.3Z" transform="translate(-402.35 -84.57)"/><path class="cls-4" d="M748.91,237.4q57.38.6,114.57,5.66a158.36,158.36,0,0,1,17.39,2.23Z" transform="translate(-402.35 -84.57)"/><path class="cls-4" d="M897.93,191.66l-118.39-7.42c-1.49-.09-3.13-.25-4.17-1.33C816.3,184.74,857.28,186.58,897.93,191.66Z" transform="translate(-402.35 -84.57)"/><path class="cls-4" d="M891.32,204.84l-125.48-7.9A1061.2,1061.2,0,0,1,891.32,204.84Z" transform="translate(-402.35 -84.57)"/><path class="cls-4" d="M778.62,224.74c35.13.1,70.18,3.13,105.18,6.16a32.23,32.23,0,0,1,9.52,1.79Z" transform="translate(-402.35 -84.57)"/><path class="cls-4" d="M890,177.31l-111.85-6.66a44.21,44.21,0,0,1-7.79-.94Q830.32,170.58,890,177.31Z" transform="translate(-402.35 -84.57)"/><path class="cls-4" d="M723.22,144.28c.54-.42,1.07.71.62,1.23a4.08,4.08,0,0,1-2.29-.22c-.37-.72.84-1.16,1.63-1Z" transform="translate(-402.35 -84.57)"/><path class="cls-4" d="M897.46,246.67a3.28,3.28,0,0,1-2.32-.3,9.18,9.18,0,0,1,5.27,0,5.49,5.49,0,0,1-2.94.34Z" transform="translate(-402.35 -84.57)"/><path class="cls-4" d="M935.87,289.87c-9.78.5-19.56-.27-29.32-1.05l-14.83-1.19c2.31-1.27,5.12-1.08,7.75-.86Z" transform="translate(-402.35 -84.57)"/><path class="cls-4" d="M935.67,207.88a2.84,2.84,0,0,1-2.57.07,1.67,1.67,0,0,1,2.6-.14Z" transform="translate(-402.35 -84.57)"/><path class="cls-4" d="M945,304.27c-6.14,1.13-12.45.63-18.68.13l-19.05-1.54c-.54-.65.7-1.3,1.55-1.27Q927,302.34,945,304.27Z" transform="translate(-402.35 -84.57)"/><path class="cls-4" d="M773.32,143.21l-39.67,1.45a29.87,29.87,0,0,1-7.62-.36A214.92,214.92,0,0,1,773.32,143.21Z" transform="translate(-402.35 -84.57)"/><path class="cls-4" d="M924.25,180.42l-18.64-1.36L891.06,178c1.1-1,2.79-1,4.28-.88l26.34,1.8C922.77,179,924.15,179.34,924.25,180.42Z" transform="translate(-402.35 -84.57)"/><path class="cls-4" d="M939.91,275.86l21.32,1.65c1,.08,2.16.29,2.55,1.2q-15.82-.84-31.6-2.32C934.62,275.47,937.31,275.66,939.91,275.86Z" transform="translate(-402.35 -84.57)"/><path class="cls-4" d="M722.58,184.54c16.11-2.66,32.58-2,48.9-1.31.48,0,1.12.23,1.06.7Z" transform="translate(-402.35 -84.57)"/><path class="cls-4" d="M960.55,181.81l3.47.39c.54.06,1.27.49,1,.93a262.7,262.7,0,0,1-29.79-2.42C943.63,179.9,952.13,180.85,960.55,181.81Z" transform="translate(-402.35 -84.57)"/><path class="cls-4" d="M905.57,233.19a182.82,182.82,0,0,1,27.18,1.07,15.35,15.35,0,0,1,5.52,1.36Q921.88,235,905.57,233.19Z" transform="translate(-402.35 -84.57)"/><path class="cls-4" d="M761.72,197.29l-35.87.92a25.85,25.85,0,0,1-7.76-.58A195.85,195.85,0,0,1,761.72,197.29Z" transform="translate(-402.35 -84.57)"/><path class="cls-4" d="M717.53,225.06c9.76-2.37,20-2.11,30-1.82a11.9,11.9,0,0,1,5.43,1Q735.25,224.93,717.53,225.06Z" transform="translate(-402.35 -84.57)"/><path class="cls-4" d="M943.38,235.92a71.1,71.1,0,0,1,18.49.38c.67.11,1.56.68,1.16,1.23Z" transform="translate(-402.35 -84.57)"/><path class="cls-4" d="M957.51,291.92l-18.74-1.13C945,289.85,951.68,289.43,957.51,291.92Z" transform="translate(-402.35 -84.57)"/><path class="cls-4" d="M945,304.3l15.39.48a2.79,2.79,0,0,1,2.11,1.1A33.24,33.24,0,0,1,945,304.3Z" transform="translate(-402.35 -84.57)"/><path class="cls-4" d="M718.71,211a61,61,0,0,1,21.35-.28A78.69,78.69,0,0,1,718.71,211Z" transform="translate(-402.35 -84.57)"/><path class="cls-4" d="M776.53,224.61A51.58,51.58,0,0,1,755.9,224,61.09,61.09,0,0,1,776.53,224.61Z" transform="translate(-402.35 -84.57)"/><path class="cls-4" d="M939.65,262.77a81.07,81.07,0,0,1-19.8-1.11A50.08,50.08,0,0,1,939.65,262.77Z" transform="translate(-402.35 -84.57)"/><path class="cls-4" d="M763.36,170.86l-17.62-.21A44.12,44.12,0,0,1,765,169.5C765.51,170.19,764.24,170.87,763.36,170.86Z" transform="translate(-402.35 -84.57)"/><path class="cls-4" d="M925.58,275.54c1.29-.31,3-.45,3.61.73L925,276c-.43,0,.09-.82.29-.44Z" transform="translate(-402.35 -84.57)"/><path class="cls-4" d="M749,279.42l-10.36,0a24,24,0,0,1-8.11-.88q6.44-.45,12.89-.65C745.42,277.87,747.69,277.93,749,279.42Z" transform="translate(-402.35 -84.57)"/><path class="cls-4" d="M920.65,247.73a52,52,0,0,1-18-1.08A45.94,45.94,0,0,1,920.65,247.73Z" transform="translate(-402.35 -84.57)"/><path class="cls-4" d="M922.68,194l-3.68-.37c-.59-.06-1.39-.62-1-1a82.79,82.79,0,0,1,17.77,1.47C931.49,194.87,927.05,194.43,922.68,194Z" transform="translate(-402.35 -84.57)"/><path class="cls-4" d="M916.91,192.88a69.38,69.38,0,0,1-14.26-.36,5.38,5.38,0,0,1-3-1A42.26,42.26,0,0,1,916.91,192.88Z" transform="translate(-402.35 -84.57)"/><path class="cls-4" d="M724.56,333.65l17.68.61A23.72,23.72,0,0,1,724.56,333.65Z" transform="translate(-402.35 -84.57)"/><path class="cls-4" d="M945.76,263.73l-2.28-.24a3.75,3.75,0,0,1,5.19,0l-2.9.28Z" transform="translate(-402.35 -84.57)"/><path class="cls-4" d="M909.22,206a51,51,0,0,1-15.63-1.13A39.63,39.63,0,0,1,909.22,206Z" transform="translate(-402.35 -84.57)"/><path class="cls-4" d="M944.9,249.73a3.8,3.8,0,0,1,5,.09l-4.83.19Z" transform="translate(-402.35 -84.57)"/><path class="cls-4" d="M742.12,238.18a12.42,12.42,0,0,1-5-.37,7.5,7.5,0,0,1,5.63-.82c.57.34,0,1.43-.61,1.15Z" transform="translate(-402.35 -84.57)"/><path class="cls-4" d="M937.76,221.47a30.58,30.58,0,0,1-14.59-.95A39.2,39.2,0,0,1,937.76,221.47Z" transform="translate(-402.35 -84.57)"/><path class="cls-4" d="M915.09,260.43c1.11-.13,2.53,0,2.92,1a12.71,12.71,0,0,1-5.85,0,4.94,4.94,0,0,1,2.93-1Z" transform="translate(-402.35 -84.57)"/><path class="cls-4" d="M714.05,334.88a6.58,6.58,0,0,1-2.93-1.1,12.48,12.48,0,0,1,5.86,0,4.56,4.56,0,0,1-2.92,1Z" transform="translate(-402.35 -84.57)"/><path class="cls-4" d="M964.61,209.75a39.16,39.16,0,0,1-14.06-.94A31.84,31.84,0,0,1,964.61,209.75Z" transform="translate(-402.35 -84.57)"/><path class="cls-4" d="M715.13,293.1c.29.21-.38.53-.49.2s.21-.64.51-.81a5.24,5.24,0,0,1,5.26.12,11.94,11.94,0,0,1-5,.4Z" transform="translate(-402.35 -84.57)"/><path class="cls-4" d="M717,251.6a44,44,0,0,1,18.53-.28A75.6,75.6,0,0,1,717,251.6Z" transform="translate(-402.35 -84.57)"/><path class="cls-4" d="M936.34,248.13l4.56.85a19.3,19.3,0,0,1-5.62.32.76.76,0,0,1,1-.84Z" transform="translate(-402.35 -84.57)"/><path class="cls-4" d="M964.84,168.64c.28.08.61.21.68.5a.46.46,0,0,1-.18.45,22.85,22.85,0,0,1-10.94-1.1A20.86,20.86,0,0,1,964.84,168.64Z" transform="translate(-402.35 -84.57)"/><path class="cls-4" d="M717.59,237.88l13.48-1.11c1.14-.09,2.67.11,2.82,1.24A100.81,100.81,0,0,1,717.59,237.88Z" transform="translate(-402.35 -84.57)"/><path class="cls-4" d="M895.52,231.74a6.48,6.48,0,0,1,4.9,1,16.84,16.84,0,0,1-6.56.06,2.23,2.23,0,0,1,1.64-1.06Z" transform="translate(-402.35 -84.57)"/><path class="cls-4" d="M745.39,293a40.57,40.57,0,0,1-10.15-.28A10.66,10.66,0,0,1,745.39,293Z" transform="translate(-402.35 -84.57)"/><path class="cls-4" d="M730,170.6a28.49,28.49,0,0,1,14.75-.23A44.27,44.27,0,0,1,730,170.6Z" transform="translate(-402.35 -84.57)"/><path class="cls-4" d="M729,265.15a48.21,48.21,0,0,1-14.88,0A27.26,27.26,0,0,1,729,265.15Z" transform="translate(-402.35 -84.57)"/><path class="cls-4" d="M932,180.71a12.72,12.72,0,0,1-7-.71A6.92,6.92,0,0,1,932,180.71Z" transform="translate(-402.35 -84.57)"/><path class="cls-4" d="M914.79,206.51a36.19,36.19,0,0,1,13.87.54A30.52,30.52,0,0,1,914.79,206.51Z" transform="translate(-402.35 -84.57)"/><path class="cls-4" d="M949.67,195.76a3.45,3.45,0,0,1-2.32-.28,6.36,6.36,0,0,1,7.21.15l-4.88.22Z" transform="translate(-402.35 -84.57)"/><path class="cls-4" d="M942.2,193.89l4.6.94a27.87,27.87,0,0,1-6.89.25C939.52,194.1,941.16,193.67,942.2,193.89Z" transform="translate(-402.35 -84.57)"/><path class="cls-4" d="M901.38,300.87l4.88,1a14.15,14.15,0,0,1-8.47,0l3.62-.85Z" transform="translate(-402.35 -84.57)"/><path class="cls-4" d="M747.44,209.18l4.26,1.18a9.23,9.23,0,0,1-8.62.31,7.11,7.11,0,0,1,4.27-1.23Z" transform="translate(-402.35 -84.57)"/><path class="cls-4" d="M714.11,278.85a26.33,26.33,0,0,1,10.78-.72c.58.08,1.31.36,1.28.94A40,40,0,0,1,714.11,278.85Z" transform="translate(-402.35 -84.57)"/><path class="cls-4" d="M964.5,196a14.43,14.43,0,0,1-8.16-.12A8.9,8.9,0,0,1,964.5,196Z" transform="translate(-402.35 -84.57)"/><path class="cls-4" d="M737.55,265.59a13,13,0,0,1-5.67-.48,9.26,9.26,0,0,1,7.88.38l-2.2.19Z" transform="translate(-402.35 -84.57)"/><path class="cls-4" d="M759.1,211.32l-5.58-.9a37.07,37.07,0,0,1,7.52-.25C761.44,211,760,211.47,759.1,211.32Z" transform="translate(-402.35 -84.57)"/><path class="cls-4" d="M954.91,221.94a8.17,8.17,0,0,1,5.56.92,25.33,25.33,0,0,1-11.26-.36,10.49,10.49,0,0,1,5.68-.57Z" transform="translate(-402.35 -84.57)"/><path class="cls-4" d="M962.44,376c-.89,1.78-3.53.57-5.3-.35l4.94.19Z" transform="translate(-402.35 -84.57)"/><path class="cls-4" d="M726.14,319.17a9,9,0,0,1,3.92,1.14,13.36,13.36,0,0,0-2.25.86,2.1,2.1,0,0,1-2.25-.29c-.54-.59-.08-1.84.7-1.67Z" transform="translate(-402.35 -84.57)"/><path class="cls-4" d="M893.79,245.85a27.67,27.67,0,0,1-10.61-.46A17.12,17.12,0,0,1,893.79,245.85Z" transform="translate(-402.35 -84.57)"/><path class="cls-4" d="M721.86,170.4a12.79,12.79,0,0,1,7.16.7,25.47,25.47,0,0,1-8.44.49C720.41,171,721.21,170.52,721.86,170.4Z" transform="translate(-402.35 -84.57)"/><path class="cls-4" d="M959.82,250.16a10.42,10.42,0,0,1-8.33-.51A13.42,13.42,0,0,1,959.82,250.16Z" transform="translate(-402.35 -84.57)"/></svg>