<svg width="28" height="28" viewBox="0 0 28 28" fill="none" xmlns="http://www.w3.org/2000/svg">
<g clip-path="url(#clip0_51_2)">
<path fill-rule="evenodd" clip-rule="evenodd" d="M0 13.9975C0 6.27073 6.26618 0 14 0C21.7344 0 28 6.27637 28 14.0025C28 21.7293 21.7338 28 14 28H12.8644V27.9495C5.66646 27.371 0 21.3423 0 13.9975ZM14.3482 25.7241C20.6659 25.5399 25.7288 20.3594 25.7288 14.0025C25.7288 7.52872 20.4783 2.2708 14 2.2708C7.52115 2.2708 2.27121 7.52426 2.27121 13.9975C2.27121 20.4704 7.52592 25.7241 14 25.7241H14.3482Z" fill="#060318"/>
<path fill-rule="evenodd" clip-rule="evenodd" d="M8.33192 3.7408C8.17622 3.6918 8.01482 3.64101 7.84665 3.58397L8.5764 1.43357C8.64342 1.45632 8.76413 1.4948 8.90505 1.53974C9.15823 1.62047 9.47664 1.722 9.6663 1.79039L9.67649 1.79406L9.6866 1.79793C9.73849 1.81777 9.79409 1.8388 9.85241 1.86086C10.1462 1.97196 10.5087 2.10904 10.8114 2.25062L10.8248 2.25691L10.8848 2.28689C11.0273 2.35331 11.2412 2.45528 11.4194 2.5402C11.5194 2.58788 11.6082 2.63019 11.6667 2.65782L11.6938 2.67061L11.7202 2.68481C11.7263 2.68812 11.7335 2.69197 11.7417 2.69632C11.803 2.7292 11.9175 2.79046 12.0274 2.85758L12.0575 2.876L12.0661 2.88197C12.0785 2.88918 12.0954 2.89881 12.1164 2.91049C12.1348 2.9207 12.1524 2.93041 12.17 2.94011C12.1735 2.94201 12.1769 2.94392 12.1804 2.94582C12.1901 2.95117 12.2012 2.95726 12.2111 2.96279L12.2118 2.96318C12.2168 2.96598 12.2297 2.97314 12.2445 2.9818C12.2579 2.98951 12.2785 3.00128 12.3043 3.01603C12.3833 3.06109 12.5109 3.13392 12.6294 3.2033C12.7515 3.27478 12.9377 3.38487 13.0756 3.4815C13.2233 3.5722 13.3857 3.68467 13.4938 3.75954C13.5132 3.77304 13.531 3.78531 13.5465 3.79601C13.6296 3.84662 13.711 3.90402 13.7676 3.94459C13.8486 4.00265 13.9368 4.06842 14.0172 4.12889C14.0544 4.15682 14.0884 4.18245 14.1204 4.20667C14.1631 4.23889 14.2025 4.26862 14.2418 4.29798C14.2741 4.32223 14.3011 4.34221 14.3229 4.35804C14.3337 4.36586 14.3421 4.37186 14.3484 4.37631C14.3538 4.38012 14.3563 4.38183 14.3564 4.38191L14.386 4.40165L14.4145 4.42335C15.6679 5.3781 16.784 6.49981 17.7367 7.75001L17.7376 7.75115L17.7385 7.75233C18.7916 9.14178 19.6231 10.6842 20.1998 12.3256C21.9179 17.1245 21.4126 22.6687 18.7123 27.0452L16.7793 25.8529C19.1065 22.0813 19.5545 17.2584 18.0604 13.088L18.0592 13.0846L18.058 13.0812C17.5603 11.6634 16.8415 10.3289 15.9292 9.1249C15.1037 8.04195 14.1397 7.0721 13.061 6.24711C13.0013 6.20572 12.9351 6.15659 12.881 6.11612C12.8401 6.0855 12.792 6.04918 12.7445 6.01335C12.7126 5.98929 12.6811 5.96549 12.6522 5.94379C12.5742 5.88516 12.5034 5.83245 12.4447 5.79045C12.3924 5.753 12.3707 5.73917 12.3708 5.73895C12.3707 5.73886 12.3709 5.73895 12.3708 5.73895L12.3373 5.72005L12.2979 5.69332C12.2399 5.65395 12.1882 5.6182 12.1409 5.58543C12.0369 5.51351 11.9537 5.45589 11.8692 5.40575L11.8139 5.3729L11.7626 5.33404C11.7658 5.33645 11.7656 5.33632 11.7611 5.3333C11.7526 5.3277 11.7293 5.31217 11.6855 5.285C11.6279 5.24926 11.5572 5.20704 11.4816 5.16276C11.3744 5.10003 11.2768 5.04433 11.1996 5.00028C11.1636 4.97971 11.132 4.96169 11.106 4.94668L11.1036 4.94533C11.0996 4.94314 11.0938 4.93986 11.0849 4.935C11.0822 4.93351 11.0792 4.9319 11.0761 4.93015C11.0586 4.92052 11.0351 4.90761 11.0113 4.89436C10.9834 4.87883 10.9495 4.85975 10.9166 4.84046C10.8986 4.82991 10.865 4.81014 10.8273 4.78573C10.7811 4.75816 10.7315 4.73152 10.6724 4.6998C10.6715 4.69932 10.6707 4.69884 10.6698 4.69836C10.5991 4.66493 10.5112 4.62302 10.4179 4.57848C10.2423 4.49475 10.0474 4.40186 9.91217 4.33897L9.89761 4.3322L9.83649 4.30165C9.62207 4.20224 9.36534 4.10492 9.07782 3.9959C9.0153 3.9722 8.95134 3.94795 8.88602 3.92301C8.70879 3.85939 8.52473 3.80148 8.33192 3.7408ZM11.106 4.94668C11.1072 4.94738 11.108 4.94778 11.108 4.94778L11.106 4.94668ZM11.106 4.94668C11.1072 4.94738 11.108 4.94778 11.108 4.94778L11.106 4.94668Z" fill="#060318"/>
<path fill-rule="evenodd" clip-rule="evenodd" d="M13.1142 9.14511C16.5417 8.52626 19.7046 6.6038 21.8678 3.86732L23.6497 5.27542C21.1498 8.4378 17.5004 10.6607 13.5175 11.3798C11.5344 11.7374 9.49652 11.7495 7.50756 11.3848C5.52402 11.0313 3.61001 10.3192 1.87891 9.27964L3.04833 7.33302C4.54004 8.22881 6.19331 8.84433 7.90883 9.14974L7.91181 9.15027L7.91478 9.15084C9.62501 9.4647 11.3881 9.4563 13.1142 9.14511Z" fill="#060318"/>
<path fill-rule="evenodd" clip-rule="evenodd" d="M7.04642 25.5111C8.98542 15.617 19.0687 10.1527 27.3151 12.4003L26.7178 14.5912C19.7176 12.6833 10.9553 17.3749 9.27526 25.9477L7.04642 25.5111Z" fill="#060318"/>
</g>
<defs>
<clipPath id="clip0_51_2">
<rect width="28" height="28" fill="white"/>
</clipPath>
</defs>
</svg>
