<svg id="icon-dribbble" data-name="icon-dribbble" xmlns="http://www.w3.org/2000/svg" viewBox="0 0 218 218">
  <title>Mail Attachment</title>
  <g>
    <circle cx="109" cy="109" r="109" style="fill: #f3a6c4"/>
    <g>
      <rect x="44.56" y="78.04" width="128.88" height="80.55" style="fill: #f2f2f2"/>
      <polygon points="173.44 78.04 173.44 78.04 173.44 78.04 173.44 78.04" style="fill: #f2f2f2"/>
      <path d="M115.57,33.31,173.44,78H44.56l57.87-44.73A10.74,10.74,0,0,1,115.57,33.31Z" style="fill: #c5ced1"/>
      <path d="M102.43,122.78,44.56,78H173.44l-57.87,44.73A10.74,10.74,0,0,1,102.43,122.78Z" style="fill: #d0dadf"/>
      <path d="M115.57,33.31a10.74,10.74,0,0,0-13.14,0L44.56,78h0l10.54,8.14V78h0l51.28-39.64a4.3,4.3,0,0,1,5.25,0L162.91,78v8.15L173.44,78h0Z" style="fill: #fff;opacity: 0.6000000000000001"/>
      <path d="M163,56.88H56.74A2.15,2.15,0,0,0,54.59,59V85.8l47.84,37a10.74,10.74,0,0,0,13.14,0l49.61-38.35V59A2.15,2.15,0,0,0,163,56.88Z" style="fill: #efebde"/>
      <line x1="72.29" y1="74.08" x2="147.48" y2="74.08" style="fill: none;stroke: #b8b6ae;stroke-miterlimit: 10;stroke-width: 4.310453000703217px"/>
      <line x1="77.66" y1="81.87" x2="142.11" y2="81.87" style="fill: none;stroke: #b8b6ae;stroke-miterlimit: 10;stroke-width: 3.9907040271759473px"/>
      <path d="M109,131.46a17.16,17.16,0,0,0,10.51-3.59l53.93-41.69V78h0l-57.87,44.73a10.74,10.74,0,0,1-13.14,0L44.56,78v8.14l53.93,41.69A17.16,17.16,0,0,0,109,131.46Z" style="fill: #fff"/>
      <path d="M109,131.46a17.16,17.16,0,0,0,10.51-3.59l53.93-41.69V78h0l-57.87,44.73a10.74,10.74,0,0,1-13.14,0L44.56,78v8.14l53.93,41.69A17.16,17.16,0,0,0,109,131.46Z" style="fill: #fff;opacity: 0.8"/>
      <path d="M115.57,117.9l57.87,40.69H44.56l57.87-40.69A11.59,11.59,0,0,1,115.57,117.9Z" style="fill: #e6e6e6"/>
      <path d="M115.57,117.9a11.59,11.59,0,0,0-13.14,0L44.56,158.59h11.2l50.38-35.42a5.19,5.19,0,0,1,5.72,0l50.38,35.42h11.2Z" style="fill: #fff"/>
      <polygon points="49.93 110.73 44.56 117.57 44.56 128 49.93 121.16 49.93 110.73" style="fill: #91dbbf"/>
      <polygon points="110 153.22 105.78 158.59 113.97 158.59 118.19 153.22 110 153.22" style="fill: #f58470"/>
      <polygon points="156.72 153.22 152.5 158.59 160.69 158.59 164.91 153.22 156.72 153.22" style="fill: #fed167"/>
      <polygon points="173.44 151.76 168.07 158.59 173.44 158.59 173.44 151.76" style="fill: #f58470"/>
      <polygon points="49.93 130.56 44.56 137.4 44.56 147.83 49.93 140.99 49.93 130.56" style="fill: #fed167"/>
      <polygon points="168.07 129.37 173.44 122.53 173.44 112.1 168.07 118.94 168.07 129.37" style="fill: #91dbbf"/>
      <polygon points="49.93 90.9 44.56 97.74 44.56 108.17 49.93 101.33 49.93 90.9" style="fill: #9bd4e9"/>
      <polygon points="125.57 153.22 121.35 158.59 129.55 158.59 133.76 153.22 125.57 153.22" style="fill: #9bd4e9"/>
      <polygon points="141.14 153.22 136.93 158.59 145.12 158.59 149.34 153.22 141.14 153.22" style="fill: #91dbbf"/>
      <polyline points="44.56 78.04 44.56 88.34 49.59 81.93 44.56 78.04" style="fill: #f58470"/>
      <polygon points="166.5 83.41 168.07 83.41 168.07 89.71 173.44 82.87 173.44 78.04 166.5 83.41" style="fill: #f58470"/>
      <polygon points="168.07 149.2 173.44 142.36 173.44 131.93 168.07 138.76 168.07 149.2" style="fill: #fed167"/>
      <polygon points="94.42 153.22 90.2 158.59 98.4 158.59 102.62 153.22 94.42 153.22" style="fill: #fed167"/>
      <polygon points="49.93 153.22 49.93 150.39 44.56 157.23 44.56 158.59 51.68 158.59 55.9 153.22 49.93 153.22" style="fill: #f58470"/>
      <polygon points="168.07 109.54 173.44 102.7 173.44 92.27 168.07 99.1 168.07 109.54" style="fill: #9bd4e9"/>
      <polygon points="78.85 153.22 74.63 158.59 82.83 158.59 87.04 153.22 78.85 153.22" style="fill: #91dbbf"/>
      <polygon points="63.28 153.22 59.06 158.59 67.25 158.59 71.47 153.22 63.28 153.22" style="fill: #9bd4e9"/>
    </g>
  </g>
</svg>
