<svg width="28" height="28" viewBox="0 0 28 28" fill="none" xmlns="http://www.w3.org/2000/svg">
<path fill-rule="evenodd" clip-rule="evenodd" d="M3.32033 8.03483C3.35533 7.69067 3.2235 7.35117 2.96683 7.12017L0.3535 3.97017V3.5H8.47117L14.7455 17.2608L20.2615 3.5H28V3.97017L25.7647 6.11333C25.5722 6.26033 25.4765 6.50183 25.5162 6.741V22.4887C25.4765 22.7267 25.5722 22.9682 25.7647 23.1152L27.9475 25.2583V25.7285H16.9668V25.2583L19.229 23.0627C19.4507 22.841 19.4507 22.7757 19.4507 22.4362V9.70783L13.1635 25.6772H12.3142L4.99333 9.70783V20.4108C4.93267 20.86 5.082 21.3138 5.39817 21.6382L8.33933 25.2058V25.6772H0V25.2058L2.94117 21.6382C3.25617 21.3127 3.39617 20.8565 3.32033 20.4108V8.03483Z" fill="black"/>
</svg>
