<?xml version="1.0" encoding="utf-8"?>
<!-- Generator: Adobe Illustrator 23.0.2, SVG Export Plug-In . SVG Version: 6.00 Build 0)  -->
<svg version="1.1" id="Layer_1" xmlns="http://www.w3.org/2000/svg" xmlns:xlink="http://www.w3.org/1999/xlink" x="0px" y="0px"
	 viewBox="0 0 1053 690.5" style="enable-background:new 0 0 1053 690.5;" xml:space="preserve">
<style type="text/css">
	.st0{opacity:0.5;fill:#F6F6F6;stroke:#BAC4CC;stroke-miterlimit:10;enable-background:new    ;}
	.st1{opacity:0.5;fill:#CBF0FE;stroke:#BAC4CC;stroke-miterlimit:10;enable-background:new    ;}
	.st2{fill:#FAD46B;}
	.st3{fill:#0084D8;}
	.st4{fill:#FFFFFF;}
	.st5{fill:#FFFFFF;stroke:#CCCCCC;stroke-miterlimit:10;}
	.st6{fill:#FFFFFF;stroke:#C2C2C2;stroke-miterlimit:10;}
	.st7{enable-background:new    ;}
	.st8{fill:#444444;}
	.st9{fill:#BAC4CC;}
	.st10{fill:#9E9F9F;}
	.st11{fill:#5E696D;}
	.st12{fill:#EBF8FC;}
	.st13{fill:url(#SVGID_1_);}
	.st14{fill:#EC4324;}
	.st15{opacity:0.8;}
	.st16{fill:#F9D36A;}
	.st17{fill:#424143;}
</style>
<symbol  id="Create_Attribute" viewBox="-152.7 -84.9 305.4 169.8">
	<path class="st0" d="M-152.2-54h304.4l0,0V80.4c0,2.2-1.8,4-4,4h-296.4c-2.2,0-4-1.8-4-4V-54L-152.2-54z"/>
	<path class="st1" d="M-148.2-84.4h296.4c2.2,0,4,1.8,4,4V-54l0,0h-304.4l0,0v-26.4C-152.2-82.6-150.4-84.4-148.2-84.4z"/>
	<text transform="matrix(1 0 0 1 -136.2051 -64.1016)" style="fill:#414042; font-family:'Apercu-Bold'; font-size:15px;">C</text>
	<text transform="matrix(1 0 0 1 -125.7051 -64.1016)" style="fill:#414042; font-family:'Apercu-Bold'; font-size:15px;">r</text>
	<text transform="matrix(1 0 0 1 -119.3447 -64.1016)" style="fill:#414042; font-family:'Apercu-Bold'; font-size:15px;">e</text>
	<text transform="matrix(1 0 0 1 -110.8408 -64.1016)" style="fill:#414042; font-family:'Apercu-Bold'; font-size:15px;">a</text>
	<text transform="matrix(1 0 0 1 -103.041 -64.1016)" style="fill:#414042; font-family:'Apercu-Bold'; font-size:15px;">t</text>
	<text transform="matrix(1 0 0 1 -97.2354 -64.1016)" style="fill:#414042; font-family:'Apercu-Bold'; font-size:15px;">e A</text>
	<text transform="matrix(1 0 0 1 -75.9658 -64.1016)" style="fill:#414042; font-family:'Apercu-Bold'; font-size:15px;">t</text>
	<text transform="matrix(1 0 0 1 -69.8457 -64.1016)" style="fill:#414042; font-family:'Apercu-Bold'; font-size:15px;">t</text>
	<text transform="matrix(1 0 0 1 -63.9658 -64.1016)" style="fill:#414042; font-family:'Apercu-Bold'; font-size:15px;">r</text>
	<text transform="matrix(1 0 0 1 -57.3809 -64.1016)" style="fill:#414042; font-family:'Apercu-Bold'; font-size:15px;">i</text>
	<text transform="matrix(1 0 0 1 -53.7959 -64.1016)" style="fill:#414042; font-family:'Apercu-Bold'; font-size:15px;">b</text>
	<text transform="matrix(1 0 0 1 -44.8555 -64.1016)" style="fill:#414042; font-family:'Apercu-Bold'; font-size:15px;">u</text>
	<text transform="matrix(1 0 0 1 -36.0811 -64.1016)" style="fill:#414042; font-family:'Apercu-Bold'; font-size:15px;">t</text>
	<text transform="matrix(1 0 0 1 -30.2754 -64.1016)" style="fill:#414042; font-family:'Apercu-Bold'; font-size:15px;">e</text>
	<g>
		<path class="st2" d="M-134.2,46h66c1.1,0,2,0.9,2,2v14c0,1.1-0.9,2-2,2h-66c-1.1,0-2-0.9-2-2V48C-136.2,46.9-135.3,46-134.2,46z"
			/>
		<text transform="matrix(1 0 0 1 -128.7363 57.7793)" style="fill:#414042; font-family:'Apercu-Regular'; font-size:9px;">A</text>
		<text transform="matrix(1 0 0 1 -123.4717 57.7793)" style="fill:#414042; font-family:'Apercu-Regular'; font-size:9px;">d</text>
		<text transform="matrix(1 0 0 1 -118.2061 57.7793)" style="fill:#414042; font-family:'Apercu-Regular'; font-size:9px;">d A</text>
		<text transform="matrix(1 0 0 1 -105.1387 57.7793)" style="fill:#414042; font-family:'Apercu-Regular'; font-size:9px;">t</text>
		<text transform="matrix(1 0 0 1 -101.6914 57.7793)" style="fill:#414042; font-family:'Apercu-Regular'; font-size:9px;">t</text>
		<text transform="matrix(1 0 0 1 -98.3164 57.7793)" style="fill:#414042; font-family:'Apercu-Regular'; font-size:9px;">r</text>
		<text transform="matrix(1 0 0 1 -94.7168 57.7793)" style="fill:#414042; font-family:'Apercu-Regular'; font-size:9px;">i</text>
		<text transform="matrix(1 0 0 1 -92.4932 57.7793)" style="fill:#414042; font-family:'Apercu-Regular'; font-size:9px;">b</text>
		<text transform="matrix(1 0 0 1 -87.1748 57.7793)" style="fill:#414042; font-family:'Apercu-Regular'; font-size:9px;">u</text>
		<text transform="matrix(1 0 0 1 -81.9814 57.7793)" style="fill:#414042; font-family:'Apercu-Regular'; font-size:9px;">t</text>
		<text transform="matrix(1 0 0 1 -78.6875 57.7793)" style="fill:#414042; font-family:'Apercu-Regular'; font-size:9px;">e</text>
	</g>
	<path class="st3" d="M-132.2,6h261c2.2,0,4,1.8,4,4v22c0,2.2-1.8,4-4,4h-261c-2.2,0-4-1.8-4-4V10C-136.2,7.8-134.4,6-132.2,6z"/>
	<text transform="matrix(1 0 0 1 -126.2866 24.2461)" class="st4" style="font-family:'Apercu-Regular'; font-size:13px;">C</text>
	<text transform="matrix(1 0 0 1 -117.3428 24.2461)" class="st4" style="font-family:'Apercu-Regular'; font-size:13px;">h</text>
	<text transform="matrix(1 0 0 1 -109.9067 24.2461)" class="st4" style="font-family:'Apercu-Regular'; font-size:13px;">o</text>
	<text transform="matrix(1 0 0 1 -102.2368 24.2461)" class="st4" style="font-family:'Apercu-Regular'; font-size:13px;">o</text>
	<text transform="matrix(1 0 0 1 -94.6577 24.2461)" class="st4" style="font-family:'Apercu-Regular'; font-size:13px;">s</text>
	<text transform="matrix(1 0 0 1 -88.7036 24.2461)" class="st4" style="font-family:'Apercu-Regular'; font-size:13px;">e </text>
	<text transform="matrix(1 0 0 1 -77.9399 24.2461)" class="st4" style="font-family:'Apercu-Regular'; font-size:13px;">P</text>
	<text transform="matrix(1 0 0 1 -70.5688 24.2461)" class="st4" style="font-family:'Apercu-Regular'; font-size:13px;">a</text>
	<text transform="matrix(1 0 0 1 -64.0688 24.2461)" class="st4" style="font-family:'Apercu-Regular'; font-size:13px;">r</text>
	<text transform="matrix(1 0 0 1 -58.9595 24.2461)" class="st4" style="font-family:'Apercu-Regular'; font-size:13px;">e</text>
	<text transform="matrix(1 0 0 1 -51.6538 24.2461)" class="st4" style="font-family:'Apercu-Regular'; font-size:13px;">n</text>
	<text transform="matrix(1 0 0 1 -44.1914 24.2461)" class="st4" style="font-family:'Apercu-Regular'; font-size:13px;">t </text>
	<text transform="matrix(1 0 0 1 -35.7939 24.2461)" class="st4" style="font-family:'Apercu-Regular'; font-size:13px;">G</text>
	<text transform="matrix(1 0 0 1 -26.707 24.2461)" class="st4" style="font-family:'Apercu-Regular'; font-size:13px;">r</text>
	<text transform="matrix(1 0 0 1 -21.5981 24.2461)" class="st4" style="font-family:'Apercu-Regular'; font-size:13px;">o</text>
	<text transform="matrix(1 0 0 1 -13.9927 24.2461)" class="st4" style="font-family:'Apercu-Regular'; font-size:13px;">u</text>
	<text transform="matrix(1 0 0 1 -6.7129 24.2461)" class="st4" style="font-family:'Apercu-Regular'; font-size:13px;">p</text>
	<path class="st4" d="M122.9,18.9l-5,5c-0.2,0.2-0.4,0.2-0.6,0l0,0l-5-5c-0.2-0.2-0.2-0.4,0-0.6l0,0l1.1-1.1c0.2-0.2,0.4-0.2,0.6,0
		l0,0l3.6,3.6l3.6-3.6c0.2-0.2,0.4-0.2,0.6,0l0,0l1.1,1.1C123.1,18.5,123.1,18.8,122.9,18.9L122.9,18.9L122.9,18.9z"/>
	<path class="st5" d="M-132.2-34h261c2.2,0,4,1.8,4,4v22c0,2.2-1.8,4-4,4h-261c-2.2,0-4-1.8-4-4v-22C-136.2-32.2-134.4-34-132.2-34z
		"/>
	<text transform="matrix(1 0 0 1 -126.873 -15.0098)" class="st10" style="font-family:'Apercu-Regular'; font-size:13px;">A</text>
	<text transform="matrix(1 0 0 1 -119.1772 -15.0098)" class="st10" style="font-family:'Apercu-Regular'; font-size:13px;">t</text>
	<text transform="matrix(1 0 0 1 -114.1592 -15.0098)" class="st10" style="font-family:'Apercu-Regular'; font-size:13px;">t</text>
	<text transform="matrix(1 0 0 1 -109.2456 -15.0098)" class="st10" style="font-family:'Apercu-Regular'; font-size:13px;">r</text>
	<text transform="matrix(1 0 0 1 -104.0063 -15.0098)" class="st10" style="font-family:'Apercu-Regular'; font-size:13px;">i</text>
	<text transform="matrix(1 0 0 1 -100.7563 -15.0098)" class="st10" style="font-family:'Apercu-Regular'; font-size:13px;">b</text>
	<text transform="matrix(1 0 0 1 -93.0342 -15.0098)" class="st10" style="font-family:'Apercu-Regular'; font-size:13px;">u</text>
	<text transform="matrix(1 0 0 1 -85.4946 -15.0098)" class="st10" style="font-family:'Apercu-Regular'; font-size:13px;">t</text>
	<text transform="matrix(1 0 0 1 -80.6973 -15.0098)" class="st10" style="font-family:'Apercu-Regular'; font-size:13px;">e </text>
	<text transform="matrix(1 0 0 1 -69.9336 -15.0098)" class="st10" style="font-family:'Apercu-Regular'; font-size:13px;">Na</text>
	<text transform="matrix(1 0 0 1 -54.4243 -15.0098)" class="st10" style="font-family:'Apercu-Regular'; font-size:13px;">m</text>
	<text transform="matrix(1 0 0 1 -43.3613 -15.0098)" class="st10" style="font-family:'Apercu-Regular'; font-size:13px;">e</text>
</symbol>
<symbol  id="Create_Group" viewBox="-152.7 -64.7 305.4 129.4">
	<path class="st0" d="M-152.2-33.8h304.4l0,0v94c0,2.2-1.8,4-4,4h-296.4c-2.2,0-4-1.8-4-4V-33.8L-152.2-33.8z"/>
	<path class="st1" d="M-148.2-64.2h296.4c2.2,0,4,1.8,4,4v26.4l0,0h-304.4l0,0v-26.4C-152.2-62.4-150.4-64.2-148.2-64.2z"/>
	<path class="st5" d="M-133.2-13.8h258.9c1.7,0,3,1.3,3,3v24c0,1.7-1.3,3-3,3h-258.9c-1.7,0-3-1.3-3-3v-24
		C-136.2-12.4-134.9-13.8-133.2-13.8z"/>
	<text transform="matrix(1 0 0 1 -126.873 5.2139)" class="st10" style="font-family:'Apercu-Regular'; font-size:13px;">G</text>
	<text transform="matrix(1 0 0 1 -117.7861 5.2139)" class="st10" style="font-family:'Apercu-Regular'; font-size:13px;">r</text>
	<text transform="matrix(1 0 0 1 -112.6772 5.2139)" class="st10" style="font-family:'Apercu-Regular'; font-size:13px;">o</text>
	<text transform="matrix(1 0 0 1 -105.0723 5.2139)" class="st10" style="font-family:'Apercu-Regular'; font-size:13px;">u</text>
	<text transform="matrix(1 0 0 1 -97.792 5.2139)" class="st10" style="font-family:'Apercu-Regular'; font-size:13px;">p </text>
	<text transform="matrix(1 0 0 1 -86.4951 5.2139)" class="st10" style="font-family:'Apercu-Regular'; font-size:13px;">Na</text>
	<text transform="matrix(1 0 0 1 -70.9863 5.2139)" class="st10" style="font-family:'Apercu-Regular'; font-size:13px;">m</text>
	<text transform="matrix(1 0 0 1 -59.9229 5.2139)" class="st10" style="font-family:'Apercu-Regular'; font-size:13px;">e</text>
	<text transform="matrix(1 0 0 1 -136.2051 -43.8799)" style="fill:#414042; font-family:'Apercu-Bold'; font-size:15px;">C</text>
	<text transform="matrix(1 0 0 1 -125.7051 -43.8799)" style="fill:#414042; font-family:'Apercu-Bold'; font-size:15px;">r</text>
	<text transform="matrix(1 0 0 1 -119.3447 -43.8799)" style="fill:#414042; font-family:'Apercu-Bold'; font-size:15px;">e</text>
	<text transform="matrix(1 0 0 1 -110.8408 -43.8799)" style="fill:#414042; font-family:'Apercu-Bold'; font-size:15px;">a</text>
	<text transform="matrix(1 0 0 1 -103.041 -43.8799)" style="fill:#414042; font-family:'Apercu-Bold'; font-size:15px;">t</text>
	<text transform="matrix(1 0 0 1 -97.2354 -43.8799)" style="fill:#414042; font-family:'Apercu-Bold'; font-size:15px;">e </text>
	<text transform="matrix(1 0 0 1 -85.1758 -43.8799)" style="fill:#414042; font-family:'Apercu-Bold'; font-size:15px;">G</text>
	<text transform="matrix(1 0 0 1 -74.3457 -43.8799)" style="fill:#414042; font-family:'Apercu-Bold'; font-size:15px;">r</text>
	<text transform="matrix(1 0 0 1 -67.9854 -43.8799)" style="fill:#414042; font-family:'Apercu-Bold'; font-size:15px;">o</text>
	<text transform="matrix(1 0 0 1 -59.0605 -43.8799)" style="fill:#414042; font-family:'Apercu-Bold'; font-size:15px;">u</text>
	<text transform="matrix(1 0 0 1 -50.6006 -43.8799)" style="fill:#414042; font-family:'Apercu-Bold'; font-size:15px;">p</text>
	<g>
		<path class="st2" d="M-134.2,26.2h50c1.1,0,2,0.9,2,2v14c0,1.1-0.9,2-2,2h-50c-1.1,0-2-0.9-2-2v-14
			C-136.2,27.1-135.3,26.2-134.2,26.2z"/>
		<text transform="matrix(1 0 0 1 -131.0566 38.001)" style="fill:#414042; font-family:'Apercu-Regular'; font-size:9px;">A</text>
		<text transform="matrix(1 0 0 1 -125.792 38.001)" style="fill:#414042; font-family:'Apercu-Regular'; font-size:9px;">d</text>
		<text transform="matrix(1 0 0 1 -120.5264 38.001)" style="fill:#414042; font-family:'Apercu-Regular'; font-size:9px;">d </text>
		<text transform="matrix(1 0 0 1 -112.7598 38.001)" style="fill:#414042; font-family:'Apercu-Regular'; font-size:9px;">G</text>
		<text transform="matrix(1 0 0 1 -106.4961 38.001)" style="fill:#414042; font-family:'Apercu-Regular'; font-size:9px;">r</text>
		<text transform="matrix(1 0 0 1 -102.9854 38.001)" style="fill:#414042; font-family:'Apercu-Regular'; font-size:9px;">o</text>
		<text transform="matrix(1 0 0 1 -97.748 38.001)" style="fill:#414042; font-family:'Apercu-Regular'; font-size:9px;">u</text>
		<text transform="matrix(1 0 0 1 -92.7344 38.001)" style="fill:#414042; font-family:'Apercu-Regular'; font-size:9px;">p</text>
	</g>
</symbol>
<title>Asset 1</title>
<rect x="0.5" y="0.5" class="st6" width="1052" height="688"/>
<use xlink:href="#Create_Group"  width="305.4" height="129.4" x="-152.7" y="-64.7" transform="matrix(1 0 0 1 855.5325 275.7124)" style="overflow:visible;"/>
<use xlink:href="#Create_Attribute"  width="305.4" height="169.8" id="Create_Attribute-3" x="-152.7" y="-84.9" transform="matrix(1 0 0 1 855.5325 445.4691)" style="overflow:visible;"/>
<g class="st7">
	<path class="st8" d="M59.5,163.9H67v11.3h-2.4l-0.3-3.1c-1.1,1.9-3.3,3.3-6.3,3.3c-5.1,0-10-3.7-10-11.5s4.9-11.5,10.1-11.5
		c4.7,0,7.8,2.7,8.8,6.8l-2.7,0.8c-1-3.1-3.1-4.9-6.1-4.9c-4.1,0-7.2,3-7.2,8.8s3.1,8.8,7.2,8.8c3.9,0,5.9-2.6,6.2-6.2h-4.8
		C59.5,166.5,59.5,163.9,59.5,163.9z"/>
</g>
<g class="st7">
	<path class="st8" d="M80.4,161.7c-0.6-0.3-1.2-0.4-1.9-0.4c-2.2,0-4.5,2.6-4.5,7.8v6.1h-2.7v-16.1H74v2.8c1-1.8,2.9-3,4.7-3
		c0.9,0,1.7,0.2,2.2,0.5L80.4,161.7z"/>
</g>
<g class="st7">
	<path class="st8" d="M90.1,158.9c4.8,0,7.7,3.9,7.7,8.3s-2.9,8.3-7.7,8.3s-7.7-3.9-7.7-8.3S85.3,158.9,90.1,158.9z M90.1,173.1
		c3.3,0,5-2.9,5-5.9s-1.7-5.9-5-5.9s-5,2.9-5,5.9S86.8,173.1,90.1,173.1z"/>
</g>
<g class="st7">
	<path class="st8" d="M101.8,159.1h2.7v10.7c0,2.2,1,3.3,2.8,3.3c2.4,0,4.6-2.7,4.6-7.2v-6.8h2.7v16.1h-2.7v-3
		c-1.2,2.1-3.1,3.2-5.3,3.2c-2.9,0-4.7-1.8-4.7-5L101.8,159.1L101.8,159.1z"/>
</g>
<g class="st7">
	<path class="st8" d="M127,175.5c-2,0-4.2-1.2-4.7-2.2v8.4h-2.7V159h2.7v2c0.8-1.2,2.8-2.2,4.7-2.2c4.7,0,7.2,3.5,7.2,8.3
		S131.7,175.5,127,175.5z M126.7,161.3c-2.9,0-4.7,2.4-4.7,5.9s1.7,5.9,4.7,5.9c2.8,0,4.7-2.4,4.7-5.9S129.6,161.3,126.7,161.3z"/>
</g>
<g class="st7">
	<path class="st8" d="M147.5,161.3l-1.8,1.6c-1.1-1.2-1.8-1.6-2.9-1.6c-1.1,0-2,0.7-2,2c0,2.9,7.5,2.3,7.5,7c0,3.2-2.1,5.1-5.3,5.1
		c-3.3,0-5.2-2.2-6-4.4l2.3-1.2c0.7,1.7,2,3.2,3.7,3.2c1.6,0,2.6-0.8,2.6-2.5c0-3-7.4-2-7.4-7.2c0-2.5,1.8-4.4,4.7-4.4
		C144.8,158.9,146.4,159.7,147.5,161.3z"/>
</g>
<rect x="46.3" y="263.5" class="st9" width="632" height="1"/>
<rect x="46.3" y="211.5" class="st9" width="632" height="1"/>
<g class="st7">
	<path class="st8" d="M82.3,230.5c-0.5,1.8-1.9,3.2-4.1,3.2c-2.4,0-4.7-1.8-4.7-5.4s2.3-5.4,4.7-5.4c2.2,0,3.6,1.3,4.1,3.2l-1.3,0.4
		c-0.5-1.5-1.5-2.3-2.8-2.3c-1.9,0-3.4,1.4-3.4,4.1s1.4,4.1,3.4,4.1c1.4,0,2.4-0.8,2.8-2.3L82.3,230.5z"/>
</g>
<g class="st7">
	<path class="st8" d="M87.1,225.9c2.3,0,3.6,1.8,3.6,3.9c0,2.1-1.4,3.9-3.6,3.9c-2.3,0-3.6-1.8-3.6-3.9S84.9,225.9,87.1,225.9z
		 M87.1,232.5c1.5,0,2.3-1.4,2.3-2.8c0-1.4-0.8-2.8-2.3-2.8s-2.3,1.4-2.3,2.8C84.8,231.2,85.6,232.5,87.1,232.5z"/>
</g>
<g class="st7">
	<path class="st8" d="M98.7,233.5h-1.3v-5c0-1-0.5-1.5-1.3-1.5c-1.1,0-2.2,1.3-2.2,3.4v3.2h-1.3V226h1.3v1.4c0.6-1,1.5-1.5,2.5-1.5
		c1.4,0,2.2,0.9,2.2,2.4v5.2H98.7z"/>
</g>
<g class="st7">
	<path class="st8" d="M103.8,225.9c1,0,1.9,0.6,2.2,1v-4h1.3v10.6H106v-0.9c-0.4,0.6-1.3,1-2.2,1c-2.2,0-3.4-1.6-3.4-3.9
		C100.4,227.5,101.6,225.9,103.8,225.9z M103.9,232.5c1.4,0,2.2-1.1,2.2-2.8c0-1.6-0.8-2.8-2.2-2.8c-1.3,0-2.2,1.1-2.2,2.8
		C101.7,231.4,102.6,232.5,103.9,232.5z"/>
</g>
<g class="st7">
	<path class="st8" d="M110.2,222.9c0.5,0,0.9,0.4,0.9,1c0,0.5-0.4,0.9-0.9,0.9s-0.9-0.4-0.9-0.9
		C109.2,223.3,109.6,222.9,110.2,222.9z M110.8,226v7.6h-1.3V226H110.8z"/>
</g>
<g class="st7">
	<path class="st8" d="M112.4,226h1.3v-2.3l1.3-0.8v3.1h2v1.1h-2v4.2c0,0.8,0.4,1.2,1,1.2c0.3,0,0.6-0.1,0.9-0.2l0.3,1.1
		c-0.4,0.2-0.8,0.3-1.2,0.3c-1.3,0-2.2-0.8-2.2-2.5v-4h-1.3V226H112.4z"/>
</g>
<g class="st7">
	<path class="st8" d="M119.5,222.9c0.5,0,0.9,0.4,0.9,1c0,0.5-0.4,0.9-0.9,0.9s-0.9-0.4-0.9-0.9C118.6,223.3,119,222.9,119.5,222.9z
		 M120.1,226v7.6h-1.3V226H120.1z"/>
</g>
<g class="st7">
	<path class="st8" d="M125.6,225.9c2.3,0,3.6,1.8,3.6,3.9c0,2.1-1.4,3.9-3.6,3.9c-2.3,0-3.6-1.8-3.6-3.9S123.3,225.9,125.6,225.9z
		 M125.6,232.5c1.5,0,2.3-1.4,2.3-2.8c0-1.4-0.8-2.8-2.3-2.8s-2.3,1.4-2.3,2.8C123.3,231.2,124.1,232.5,125.6,232.5z"/>
</g>
<g class="st7">
	<path class="st8" d="M137.2,233.5h-1.3v-5c0-1-0.5-1.5-1.3-1.5c-1.1,0-2.2,1.3-2.2,3.4v3.2h-1.3V226h1.3v1.4c0.6-1,1.5-1.5,2.5-1.5
		c1.4,0,2.2,0.9,2.2,2.4v5.2H137.2z"/>
</g>
<g class="st7">
	<path class="st8" d="M143.8,227l-0.9,0.7c-0.5-0.5-0.9-0.8-1.4-0.8s-0.9,0.3-0.9,1c0,1.4,3.5,1.1,3.5,3.3c0,1.5-1,2.4-2.5,2.4
		s-2.4-1-2.8-2l1.1-0.6c0.3,0.8,0.9,1.5,1.8,1.5c0.8,0,1.2-0.4,1.2-1.2c0-1.4-3.5-0.9-3.5-3.4c0-1.2,0.9-2.1,2.2-2.1
		C142.5,225.9,143.2,226.3,143.8,227z"/>
</g>
<g class="st7">
	<path class="st10" d="M152.6,222.3c-1,1.6-1.6,3.4-1.6,6s0.6,4.4,1.6,6h-1.3c-0.9-1.4-1.6-3.2-1.6-6s0.7-4.6,1.6-6H152.6z"/>
</g>
<g class="st7">
	<path class="st10" d="M157.2,223v10.5H156v-8.6l-1.9,1.1v-1.4l2.7-1.6H157.2z"/>
</g>
<g class="st7">
	<path class="st10" d="M160,233.5l3.9-9.3h-4.4V223h6v0.6l-4.1,9.9H160z"/>
	<path class="st10" d="M167.5,222.3c0.9,1.4,1.6,3.2,1.6,6s-0.7,4.6-1.6,6h-1.3c1-1.6,1.6-3.4,1.6-6s-0.6-4.4-1.6-6H167.5z"/>
</g>
<polygon class="st11" points="63.7,228.5 58.4,233.9 56.5,232 60,228.5 56.5,225.1 58.4,223.2 "/>
<g class="st7">
	<path class="st3" d="M75.8,246.6h-1.2v3.6h-1v-7.7h2.6c1.4,0,2.3,0.7,2.3,2c0,1.1-0.6,1.8-1.6,2l2.3,3.7h-1.1L75.8,246.6z
		 M74.7,243.4v2.2h1.6c0.8,0,1.2-0.3,1.2-1.1s-0.4-1.1-1.2-1.1L74.7,243.4L74.7,243.4z"/>
</g>
<g class="st7">
	<path class="st3" d="M84.9,247.6h-4.1c0.1,1,0.6,1.8,1.6,1.8c0.8,0,1.2-0.4,1.5-1.1l0.8,0.4c-0.5,1.1-1.2,1.5-2.4,1.5
		c-1.7,0-2.5-1.4-2.5-2.9s0.8-2.9,2.5-2.9c1.6,0,2.5,1.3,2.5,2.6L84.9,247.6L84.9,247.6z M80.9,246.8h3c-0.2-0.8-0.6-1.4-1.5-1.4
		C81.6,245.4,81.1,246,80.9,246.8z"/>
</g>
<g class="st7">
	<path class="st3" d="M89.6,245.4l-0.6,0.5c-0.4-0.4-0.6-0.5-1-0.5s-0.7,0.3-0.7,0.7c0,1,2.6,0.8,2.6,2.4c0,1.1-0.7,1.8-1.8,1.8
		c-1.1,0-1.8-0.7-2.1-1.5l0.8-0.4c0.2,0.6,0.7,1.1,1.3,1.1c0.6,0,0.9-0.3,0.9-0.9c0-1-2.6-0.7-2.6-2.5c0-0.9,0.6-1.5,1.6-1.5
		C88.7,244.6,89.2,244.9,89.6,245.4z"/>
</g>
<g class="st7">
	<path class="st3" d="M91.3,244.7h0.9v3.7c0,0.8,0.3,1.1,1,1.1c0.8,0,1.6-0.9,1.6-2.5v-2.3h0.9v5.5h-0.9v-1
		c-0.4,0.7-1.1,1.1-1.8,1.1c-1,0-1.6-0.6-1.6-1.7L91.3,244.7L91.3,244.7z"/>
</g>
<g class="st7">
	<path class="st3" d="M98.4,242.4v7.8h-0.9v-7.8H98.4z"/>
</g>
<g class="st7">
	<path class="st3" d="M99.9,244.7h1V243l0.9-0.6v2.2h1.5v0.8h-1.5v3c0,0.6,0.3,0.9,0.7,0.9c0.2,0,0.4,0,0.6-0.2l0.2,0.8
		c-0.3,0.2-0.6,0.2-0.9,0.2c-0.9,0-1.6-0.6-1.6-1.8v-3h-1v-0.6H99.9z"/>
</g>
<g class="st7">
	<path class="st3" d="M107.9,245.4l-0.6,0.5c-0.4-0.4-0.6-0.5-1-0.5s-0.7,0.3-0.7,0.7c0,1,2.6,0.8,2.6,2.4c0,1.1-0.7,1.8-1.8,1.8
		c-1.1,0-1.8-0.7-2.1-1.5l0.8-0.4c0.2,0.6,0.7,1.1,1.3,1.1c0.6,0,0.9-0.3,0.9-0.9c0-1-2.6-0.7-2.6-2.5c0-0.9,0.6-1.5,1.6-1.5
		C107,244.6,107.5,244.9,107.9,245.4z"/>
</g>
<g class="st7">
	<path class="st8" d="M113.8,241.2v9.6h-1v-9.6H113.8z"/>
</g>
<g class="st7">
	<path class="st3" d="M124.3,242.5l-2.7,7.7h-1l-2.7-7.7h1l2.1,6.3l2.1-6.3H124.3z"/>
</g>
<g class="st7">
	<path class="st3" d="M125.8,242.4c0.4,0,0.7,0.3,0.7,0.7s-0.3,0.7-0.7,0.7s-0.7-0.3-0.7-0.7C125.1,242.7,125.4,242.4,125.8,242.4z
		 M126.2,244.7v5.5h-0.9v-5.5H126.2z"/>
</g>
<g class="st7">
	<path class="st3" d="M132.7,247.6h-4.1c0.1,1,0.6,1.8,1.6,1.8c0.8,0,1.2-0.4,1.5-1.1l0.8,0.4c-0.5,1.1-1.2,1.5-2.4,1.5
		c-1.7,0-2.5-1.4-2.5-2.9s0.8-2.9,2.5-2.9c1.6,0,2.5,1.3,2.5,2.6L132.7,247.6L132.7,247.6z M128.7,246.8h3c-0.2-0.8-0.6-1.4-1.5-1.4
		C129.3,245.4,128.8,246,128.7,246.8z"/>
</g>
<g class="st7">
	<path class="st3" d="M140.9,244.7l-1.7,5.5h-0.9l-1.1-4.2l-1.1,4.2h-0.9l-1.7-5.5h1l1.1,4.3l1.1-4.3h0.9l1.1,4.3l1.1-4.3H140.9z"/>
	<path class="st3" d="M151.7,246.3c0,1-0.3,1.9-0.7,2.5l0.7,0.7l-0.7,0.7l-0.7-0.7c-0.6,0.5-1.3,0.7-2.1,0.7c-1.8,0-3.5-1.4-3.5-3.9
		s1.6-3.9,3.5-3.9S151.7,243.8,151.7,246.3z M149.5,247.3l0.8,0.8c0.3-0.5,0.4-1.1,0.4-1.8c0-2-1.1-3-2.5-3s-2.5,1-2.5,3
		s1.1,3,2.5,3c0.5,0,1-0.1,1.4-0.5l-0.9-0.9L149.5,247.3z"/>
</g>
<g class="st7">
	<path class="st3" d="M153.3,244.7h0.9v3.7c0,0.8,0.3,1.1,1,1.1c0.8,0,1.6-0.9,1.6-2.5v-2.3h0.9v5.5h-0.9v-1
		c-0.4,0.7-1.1,1.1-1.8,1.1c-1,0-1.6-0.6-1.6-1.7L153.3,244.7L153.3,244.7z"/>
</g>
<g class="st7">
	<path class="st3" d="M164.2,247.6h-4.1c0.1,1,0.6,1.8,1.6,1.8c0.8,0,1.2-0.4,1.5-1.1l0.8,0.4c-0.5,1.1-1.2,1.5-2.4,1.5
		c-1.7,0-2.5-1.4-2.5-2.9s0.8-2.9,2.5-2.9c1.6,0,2.5,1.3,2.5,2.6L164.2,247.6L164.2,247.6z M160.2,246.8h3c-0.2-0.8-0.6-1.4-1.5-1.4
		C160.8,245.4,160.4,246,160.2,246.8z"/>
</g>
<g class="st7">
	<path class="st3" d="M168.9,245.4l-0.6,0.5c-0.4-0.4-0.6-0.5-1-0.5s-0.7,0.3-0.7,0.7c0,1,2.6,0.8,2.6,2.4c0,1.1-0.7,1.8-1.8,1.8
		s-1.8-0.7-2.1-1.5l0.8-0.4c0.2,0.6,0.7,1.1,1.3,1.1s0.9-0.3,0.9-0.9c0-1-2.6-0.7-2.6-2.5c0-0.9,0.6-1.5,1.6-1.5
		C168,244.6,168.5,244.9,168.9,245.4z"/>
</g>
<g class="st7">
	<path class="st3" d="M169.9,244.7h1V243l0.9-0.6v2.2h1.5v0.8h-1.5v3c0,0.6,0.3,0.9,0.7,0.9c0.2,0,0.4,0,0.6-0.2l0.2,0.8
		c-0.3,0.2-0.6,0.2-0.9,0.2c-0.9,0-1.6-0.6-1.6-1.8v-3h-1v-0.6H169.9z"/>
</g>
<g class="st7">
	<path class="st3" d="M175.3,242.4c0.4,0,0.7,0.3,0.7,0.7s-0.3,0.7-0.7,0.7s-0.7-0.3-0.7-0.7S174.9,242.4,175.3,242.4z M175.7,244.7
		v5.5h-0.9v-5.5H175.7z"/>
</g>
<g class="st7">
	<path class="st3" d="M179.9,244.6c1.7,0,2.7,1.4,2.7,2.9s-1,2.9-2.7,2.9s-2.7-1.4-2.7-2.9S178.2,244.6,179.9,244.6z M179.9,249.4
		c1.1,0,1.7-1,1.7-2s-0.6-2-1.7-2c-1.1,0-1.7,1-1.7,2S178.7,249.4,179.9,249.4z"/>
</g>
<g class="st7">
	<path class="st3" d="M188.4,250.2h-0.9v-3.7c0-0.8-0.3-1.1-1-1.1c-0.8,0-1.6,0.9-1.6,2.5v2.3H184v-5.5h0.9v1
		c0.4-0.7,1.1-1.1,1.8-1.1c1,0,1.6,0.6,1.6,1.7L188.4,250.2L188.4,250.2z"/>
</g>
<g class="st7">
	<path class="st3" d="M193.4,245.4l-0.6,0.5c-0.4-0.4-0.6-0.5-1-0.5s-0.7,0.3-0.7,0.7c0,1,2.6,0.8,2.6,2.4c0,1.1-0.7,1.8-1.8,1.8
		s-1.8-0.7-2.1-1.5l0.8-0.4c0.2,0.6,0.7,1.1,1.3,1.1s0.9-0.3,0.9-0.9c0-1-2.6-0.7-2.6-2.5c0-0.9,0.6-1.5,1.6-1.5
		C192.5,244.6,193,244.9,193.4,245.4z"/>
</g>
<rect x="46.3" y="264.5" class="st12" width="632" height="51"/>
<rect x="46.3" y="315.5" class="st9" width="632" height="1"/>
<rect x="46.3" y="263.5" class="st9" width="632" height="1"/>
<g class="st7">
	<path class="st8" d="M75.4,281v4.5h-1.3V275h3.7c2,0,3.1,1.2,3.1,3s-1.2,3-3.1,3H75.4z M79.5,278c0-1.1-0.6-1.7-1.7-1.7h-2.4v3.5
		h2.4C78.9,279.8,79.5,279.1,79.5,278z"/>
</g>
<g class="st7">
	<path class="st8" d="M86.8,279.2c-0.3-0.1-0.6-0.2-0.9-0.2c-1,0-2.1,1.2-2.1,3.7v2.9h-1.3V278h1.3v1.3c0.5-0.8,1.4-1.4,2.2-1.4
		c0.4,0,0.8,0.1,1,0.2L86.8,279.2z"/>
</g>
<g class="st7">
	<path class="st8" d="M93.8,285.5h-1l-0.2-1.1c-0.5,0.7-1.2,1.2-2.4,1.2c-1.3,0-2.3-0.7-2.3-2.3s1.4-2.5,3.4-2.5h1.2v-0.3
		c0-1.2-0.7-1.6-1.6-1.6c-0.8,0-1.4,0.4-1.6,1.2l-1.1-0.3c0.2-1.3,1.3-2.1,2.7-2.1c1.7,0,2.9,0.8,2.9,2.8V285.5z M90.4,284.5
		c1,0,2.1-0.6,2.1-2.3V282h-1.4c-1.3,0-2,0.5-2,1.3C89.2,284.1,89.6,284.5,90.4,284.5z"/>
</g>
<g class="st7">
	<path class="st8" d="M102.2,283.6c-0.6,1.4-1.6,2.1-3.2,2.1c-2.3,0-3.4-1.9-3.4-3.9s1.1-3.9,3.4-3.9c1.6,0,2.6,0.7,3.2,2.1
		l-1.1,0.5c-0.4-0.9-1-1.4-2.1-1.4c-1.5,0-2.1,1.2-2.1,2.8c0,1.5,0.7,2.8,2.1,2.8c1,0,1.7-0.5,2.1-1.4L102.2,283.6z"/>
</g>
<g class="st7">
	<path class="st8" d="M103.3,278h1.3v-2.3l1.3-0.8v3.1h2v1.1h-2v4.2c0,0.8,0.4,1.2,1,1.2c0.3,0,0.6-0.1,0.9-0.2l0.3,1.1
		c-0.4,0.2-0.8,0.3-1.2,0.3c-1.3,0-2.2-0.8-2.2-2.5v-4h-1.3V278H103.3z"/>
</g>
<g class="st7">
	<path class="st8" d="M110.4,274.9c0.5,0,0.9,0.4,0.9,1c0,0.5-0.4,0.9-0.9,0.9s-0.9-0.4-0.9-0.9
		C109.5,275.3,109.9,274.9,110.4,274.9z M111.1,278v7.6h-1.3V278H111.1z"/>
</g>
<g class="st7">
	<path class="st8" d="M119.5,283.6c-0.6,1.4-1.6,2.1-3.2,2.1c-2.3,0-3.4-1.9-3.4-3.9s1.1-3.9,3.4-3.9c1.6,0,2.6,0.7,3.2,2.1
		l-1.1,0.5c-0.4-0.9-1-1.4-2.1-1.4c-1.5,0-2.1,1.2-2.1,2.8c0,1.5,0.7,2.8,2.1,2.8c1,0,1.7-0.5,2.1-1.4L119.5,283.6z"/>
</g>
<g class="st7">
	<path class="st8" d="M127.7,282h-5.5c0.1,1.4,0.8,2.5,2.1,2.5c1.1,0,1.7-0.5,2.1-1.4l1.1,0.5c-0.7,1.5-1.6,2.1-3.2,2.1
		c-2.3,0-3.4-1.9-3.4-3.9s1.1-3.9,3.4-3.9c2.2,0,3.4,1.7,3.4,3.6V282z M122.2,280.9h4.2c-0.2-1.1-0.9-1.9-2.1-1.9
		S122.5,279.8,122.2,280.9z"/>
	<path class="st8" d="M138,277.3c-0.5-0.9-1-1.1-1.7-1.1s-1.3,0.6-1.3,1.3c0,1,0.9,1.5,2,2c1.2,0.6,2.5,1.3,2.5,3
		c0,0.9-0.3,1.6-0.8,2.1c-0.6,0.6-1.4,1-2.3,1c-1.7,0-3-1.2-3.4-2.8l1.1-0.7c0.3,1.2,0.9,2.3,2.2,2.3c0.5,0,1.1-0.2,1.4-0.6
		c0.3-0.3,0.4-0.8,0.4-1.2c0-1-1-1.6-2-2c-1.4-0.6-2.5-1.3-2.5-2.9s1.2-2.7,2.6-2.7c1.5,0,2.2,0.7,2.7,1.7L138,277.3z"/>
</g>
<g class="st7">
	<path class="st8" d="M147.5,282H142c0.1,1.4,0.8,2.5,2.1,2.5c1.1,0,1.7-0.5,2.1-1.4l1.1,0.5c-0.7,1.5-1.6,2.1-3.2,2.1
		c-2.3,0-3.4-1.9-3.4-3.9s1.1-3.9,3.4-3.9c2.2,0,3.4,1.7,3.4,3.6L147.5,282L147.5,282z M142.1,280.9h4.2c-0.2-1.1-0.9-1.9-2.1-1.9
		C142.9,279,142.3,279.8,142.1,280.9z"/>
</g>
<g class="st7">
	<path class="st8" d="M148.6,278h1.3v-2.3l1.3-0.8v3.1h2v1.1h-2v4.2c0,0.8,0.4,1.2,1,1.2c0.3,0,0.6-0.1,0.9-0.2l0.3,1.1
		c-0.4,0.2-0.8,0.3-1.2,0.3c-1.3,0-2.2-0.8-2.2-2.5v-4h-1.3V278H148.6z"/>
</g>
<g class="st7">
	<path class="st8" d="M154.2,278h1.3v-2.3l1.3-0.8v3.1h2v1.1h-2v4.2c0,0.8,0.4,1.2,1,1.2c0.3,0,0.6-0.1,0.9-0.2l0.3,1.1
		c-0.4,0.2-0.8,0.3-1.2,0.3c-1.3,0-2.2-0.8-2.2-2.5v-4h-1.3V278H154.2z"/>
</g>
<g class="st7">
	<path class="st8" d="M161.4,274.9c0.5,0,0.9,0.4,0.9,1c0,0.5-0.4,0.9-0.9,0.9s-0.9-0.4-0.9-0.9
		C160.4,275.3,160.8,274.9,161.4,274.9z M162,278v7.6h-1.3V278H162z"/>
</g>
<g class="st7">
	<path class="st8" d="M170.1,285.5h-1.3v-5c0-1-0.5-1.5-1.3-1.5c-1.1,0-2.2,1.3-2.2,3.4v3.2H164V278h1.3v1.4c0.6-1,1.5-1.5,2.5-1.5
		c1.4,0,2.2,0.9,2.2,2.4v5.2H170.1z"/>
</g>
<g class="st7">
	<path class="st8" d="M175,277.9c0.5,0,1,0.1,1.4,0.3l1.3-0.8l0.6,1l-1,0.6c0.2,0.4,0.4,0.8,0.4,1.4c0,1.6-1.2,2.5-2.6,2.5
		c-0.5,0-0.9-0.1-1.3-0.3c-0.3,0.2-0.5,0.4-0.5,0.7c0,0.4,0.3,0.6,0.9,0.6h1.8c1.4,0,2.4,0.7,2.4,2.1c0,1.9-1.5,2.6-3.2,2.6
		c-1.9,0-3.2-0.9-3.2-2.5c0-0.7,0.3-1.2,0.7-1.6c-0.3-0.3-0.5-0.7-0.5-1.2c0-0.6,0.4-1.1,0.9-1.4c-0.3-0.4-0.6-1-0.6-1.7
		C172.4,278.8,173.5,277.9,175,277.9z M174.1,285.1c-0.2,0-0.4,0-0.6,0c-0.4,0.3-0.5,0.7-0.5,1.1c0,0.8,0.7,1.4,2,1.4
		s1.9-0.6,1.9-1.4s-0.5-1.1-1.3-1.1H174.1z M175,281.8c0.8,0,1.4-0.5,1.4-1.4s-0.6-1.5-1.4-1.5c-0.8,0-1.4,0.5-1.4,1.5
		S174.3,281.8,175,281.8z"/>
</g>
<g class="st7">
	<path class="st10" d="M186.3,274.3c-1,1.6-1.6,3.4-1.6,6s0.6,4.4,1.6,6H185c-0.9-1.4-1.6-3.2-1.6-6s0.7-4.6,1.6-6H186.3z"/>
	<path class="st10" d="M192.3,283.3h-4.6v-0.5l4.4-7.7h1.4v7.1h1.3v1.2h-1.3v2.2h-1.3v-2.3H192.3z M192.3,282.1V277l-2.8,5.1H192.3z
		"/>
	<path class="st10" d="M197.4,274.3c0.9,1.4,1.6,3.2,1.6,6s-0.7,4.6-1.6,6h-1.3c1-1.6,1.6-3.4,1.6-6s-0.6-4.4-1.6-6H197.4z"/>
</g>
<polygon class="st11" points="60.1,284.1 54.8,278.8 56.6,276.9 60.1,280.4 63.6,276.9 65.4,278.8 "/>
<g class="st7">
	<path class="st3" d="M75.8,298.6h-1.2v3.6h-1v-7.7h2.6c1.4,0,2.3,0.7,2.3,2c0,1.1-0.6,1.8-1.6,2l2.3,3.7h-1.1L75.8,298.6z
		 M74.7,295.4v2.2h1.6c0.8,0,1.2-0.3,1.2-1.1c0-0.8-0.4-1.1-1.2-1.1H74.7z"/>
</g>
<g class="st7">
	<path class="st3" d="M84.9,299.6h-4.1c0.1,1,0.6,1.8,1.6,1.8c0.8,0,1.2-0.4,1.5-1.1l0.8,0.4c-0.5,1.1-1.2,1.5-2.4,1.5
		c-1.7,0-2.5-1.4-2.5-2.9s0.8-2.9,2.5-2.9c1.6,0,2.5,1.3,2.5,2.6L84.9,299.6L84.9,299.6z M80.9,298.8h3c-0.2-0.8-0.6-1.4-1.5-1.4
		C81.6,297.4,81.1,298,80.9,298.8z"/>
</g>
<g class="st7">
	<path class="st3" d="M89.6,297.4l-0.6,0.5c-0.4-0.4-0.6-0.5-1-0.5s-0.7,0.3-0.7,0.7c0,1,2.6,0.8,2.6,2.4c0,1.1-0.7,1.8-1.8,1.8
		c-1.1,0-1.8-0.7-2.1-1.5l0.8-0.4c0.2,0.6,0.7,1.1,1.3,1.1c0.6,0,0.9-0.3,0.9-0.9c0-1-2.6-0.7-2.6-2.5c0-0.9,0.6-1.5,1.6-1.5
		C88.7,296.6,89.2,296.9,89.6,297.4z"/>
</g>
<g class="st7">
	<path class="st3" d="M91.3,296.7h0.9v3.7c0,0.8,0.3,1.1,1,1.1c0.8,0,1.6-0.9,1.6-2.5v-2.3h0.9v5.5h-0.9v-1
		c-0.4,0.7-1.1,1.1-1.8,1.1c-1,0-1.6-0.6-1.6-1.7L91.3,296.7L91.3,296.7z"/>
</g>
<g class="st7">
	<path class="st3" d="M98.4,294.4v7.8h-0.9v-7.8H98.4z"/>
</g>
<g class="st7">
	<path class="st3" d="M99.9,296.7h1V295l0.9-0.6v2.2h1.5v0.8h-1.5v3c0,0.6,0.3,0.9,0.7,0.9c0.2,0,0.4,0,0.6-0.2l0.2,0.8
		c-0.3,0.2-0.6,0.2-0.9,0.2c-0.9,0-1.6-0.6-1.6-1.8v-3h-1v-0.6H99.9z"/>
</g>
<g class="st7">
	<path class="st3" d="M107.9,297.4l-0.6,0.5c-0.4-0.4-0.6-0.5-1-0.5s-0.7,0.3-0.7,0.7c0,1,2.6,0.8,2.6,2.4c0,1.1-0.7,1.8-1.8,1.8
		c-1.1,0-1.8-0.7-2.1-1.5l0.8-0.4c0.2,0.6,0.7,1.1,1.3,1.1c0.6,0,0.9-0.3,0.9-0.9c0-1-2.6-0.7-2.6-2.5c0-0.9,0.6-1.5,1.6-1.5
		C107,296.6,107.5,296.9,107.9,297.4z"/>
</g>
<g class="st7">
	<path class="st8" d="M113.8,293.2v9.6h-1v-9.6H113.8z"/>
</g>
<g class="st7">
	<path class="st3" d="M124.3,294.5l-2.7,7.7h-1l-2.7-7.7h1l2.1,6.3l2.1-6.3H124.3z"/>
</g>
<g class="st7">
	<path class="st3" d="M125.8,294.4c0.4,0,0.7,0.3,0.7,0.7c0,0.4-0.3,0.7-0.7,0.7s-0.7-0.3-0.7-0.7
		C125.1,294.7,125.4,294.4,125.8,294.4z M126.2,296.7v5.5h-0.9v-5.5H126.2z"/>
</g>
<g class="st7">
	<path class="st3" d="M132.7,299.6h-4.1c0.1,1,0.6,1.8,1.6,1.8c0.8,0,1.2-0.4,1.5-1.1l0.8,0.4c-0.5,1.1-1.2,1.5-2.4,1.5
		c-1.7,0-2.5-1.4-2.5-2.9s0.8-2.9,2.5-2.9c1.6,0,2.5,1.3,2.5,2.6L132.7,299.6L132.7,299.6z M128.7,298.8h3c-0.2-0.8-0.6-1.4-1.5-1.4
		S128.8,298,128.7,298.8z"/>
</g>
<g class="st7">
	<path class="st3" d="M140.9,296.7l-1.7,5.5h-0.9l-1.1-4.2l-1.1,4.2h-0.9l-1.7-5.5h1l1.1,4.3l1.1-4.3h0.9l1.1,4.3l1.1-4.3H140.9z"/>
	<path class="st3" d="M151.7,298.3c0,1-0.3,1.9-0.7,2.5l0.7,0.7l-0.7,0.7l-0.7-0.7c-0.6,0.5-1.3,0.7-2.1,0.7c-1.8,0-3.5-1.4-3.5-3.9
		s1.6-3.9,3.5-3.9S151.7,295.8,151.7,298.3z M149.5,299.3l0.8,0.8c0.3-0.5,0.4-1.1,0.4-1.8c0-2-1.1-3-2.5-3s-2.5,1-2.5,3
		s1.1,3,2.5,3c0.5,0,1-0.1,1.4-0.5l-0.9-0.9L149.5,299.3z"/>
</g>
<g class="st7">
	<path class="st3" d="M153.3,296.7h0.9v3.7c0,0.8,0.3,1.1,1,1.1c0.8,0,1.6-0.9,1.6-2.5v-2.3h0.9v5.5h-0.9v-1
		c-0.4,0.7-1.1,1.1-1.8,1.1c-1,0-1.6-0.6-1.6-1.7L153.3,296.7L153.3,296.7z"/>
</g>
<g class="st7">
	<path class="st3" d="M164.2,299.6h-4.1c0.1,1,0.6,1.8,1.6,1.8c0.8,0,1.2-0.4,1.5-1.1l0.8,0.4c-0.5,1.1-1.2,1.5-2.4,1.5
		c-1.7,0-2.5-1.4-2.5-2.9s0.8-2.9,2.5-2.9c1.6,0,2.5,1.3,2.5,2.6L164.2,299.6L164.2,299.6z M160.2,298.8h3c-0.2-0.8-0.6-1.4-1.5-1.4
		S160.4,298,160.2,298.8z"/>
</g>
<g class="st7">
	<path class="st3" d="M168.9,297.4l-0.6,0.5c-0.4-0.4-0.6-0.5-1-0.5s-0.7,0.3-0.7,0.7c0,1,2.6,0.8,2.6,2.4c0,1.1-0.7,1.8-1.8,1.8
		s-1.8-0.7-2.1-1.5l0.8-0.4c0.2,0.6,0.7,1.1,1.3,1.1s0.9-0.3,0.9-0.9c0-1-2.6-0.7-2.6-2.5c0-0.9,0.6-1.5,1.6-1.5
		C168,296.6,168.5,296.9,168.9,297.4z"/>
</g>
<g class="st7">
	<path class="st3" d="M169.9,296.7h1V295l0.9-0.6v2.2h1.5v0.8h-1.5v3c0,0.6,0.3,0.9,0.7,0.9c0.2,0,0.4,0,0.6-0.2l0.2,0.8
		c-0.3,0.2-0.6,0.2-0.9,0.2c-0.9,0-1.6-0.6-1.6-1.8v-3h-1v-0.6H169.9z"/>
</g>
<g class="st7">
	<path class="st3" d="M175.3,294.4c0.4,0,0.7,0.3,0.7,0.7c0,0.4-0.3,0.7-0.7,0.7s-0.7-0.3-0.7-0.7
		C174.6,294.7,174.9,294.4,175.3,294.4z M175.7,296.7v5.5h-0.9v-5.5H175.7z"/>
</g>
<g class="st7">
	<path class="st3" d="M179.9,296.6c1.7,0,2.7,1.4,2.7,2.9s-1,2.9-2.7,2.9s-2.7-1.4-2.7-2.9S178.2,296.6,179.9,296.6z M179.9,301.4
		c1.1,0,1.7-1,1.7-2s-0.6-2-1.7-2c-1.1,0-1.7,1-1.7,2S178.7,301.4,179.9,301.4z"/>
</g>
<g class="st7">
	<path class="st3" d="M188.4,302.2h-0.9v-3.7c0-0.8-0.3-1.1-1-1.1c-0.8,0-1.6,0.9-1.6,2.5v2.3H184v-5.5h0.9v1
		c0.4-0.7,1.1-1.1,1.8-1.1c1,0,1.6,0.6,1.6,1.7L188.4,302.2L188.4,302.2z"/>
</g>
<g class="st7">
	<path class="st3" d="M193.4,297.4l-0.6,0.5c-0.4-0.4-0.6-0.5-1-0.5s-0.7,0.3-0.7,0.7c0,1,2.6,0.8,2.6,2.4c0,1.1-0.7,1.8-1.8,1.8
		s-1.8-0.7-2.1-1.5l0.8-0.4c0.2,0.6,0.7,1.1,1.3,1.1s0.9-0.3,0.9-0.9c0-1-2.6-0.7-2.6-2.5c0-0.9,0.6-1.5,1.6-1.5
		C192.5,296.6,193,296.9,193.4,297.4z"/>
</g>
<rect x="46.3" y="575.5" class="st9" width="632" height="1"/>
<rect x="46.3" y="315.5" class="st9" width="632" height="1"/>
<rect x="46.3" y="523.5" class="st9" width="632" height="1"/>
<rect x="72.3" y="367.5" class="st9" width="606" height="1"/>
<g class="st7">
	<path class="st8" d="M92.5,334.5c-0.5,1.8-1.9,3.2-4.1,3.2c-2.4,0-4.7-1.8-4.7-5.4s2.3-5.4,4.7-5.4c2.2,0,3.6,1.3,4.1,3.2l-1.3,0.4
		c-0.5-1.5-1.5-2.3-2.8-2.3c-1.9,0-3.4,1.4-3.4,4.1s1.4,4.1,3.4,4.1c1.4,0,2.4-0.8,2.8-2.3L92.5,334.5z"/>
</g>
<g class="st7">
	<path class="st8" d="M95.6,326.9v10.6h-1.3v-10.6H95.6z"/>
</g>
<g class="st7">
	<path class="st8" d="M98.4,326.9c0.5,0,0.9,0.4,0.9,1c0,0.5-0.4,0.9-0.9,0.9s-0.9-0.4-0.9-0.9C97.4,327.3,97.8,326.9,98.4,326.9z
		 M99,330v7.6h-1.3V330H99z"/>
</g>
<g class="st7">
	<path class="st8" d="M107.1,337.5h-1.3v-5c0-1-0.5-1.5-1.3-1.5c-1.1,0-2.2,1.3-2.2,3.4v3.2H101V330h1.3v1.4c0.6-1,1.5-1.5,2.5-1.5
		c1.4,0,2.2,0.9,2.2,2.4v5.2H107.1z"/>
</g>
<g class="st7">
	<path class="st8" d="M110,326.9c0.5,0,0.9,0.4,0.9,1c0,0.5-0.4,0.9-0.9,0.9s-0.9-0.4-0.9-0.9C109.1,327.3,109.5,326.9,110,326.9z
		 M110.7,330v7.6h-1.3V330H110.7z"/>
</g>
<g class="st7">
	<path class="st8" d="M119.1,335.6c-0.6,1.4-1.6,2.1-3.2,2.1c-2.3,0-3.4-1.9-3.4-3.9s1.1-3.9,3.4-3.9c1.6,0,2.6,0.7,3.2,2.1
		l-1.1,0.5c-0.4-0.9-1-1.4-2.1-1.4c-1.5,0-2.1,1.2-2.1,2.8c0,1.5,0.7,2.8,2.1,2.8c1,0,1.7-0.5,2.1-1.4L119.1,335.6z"/>
</g>
<g class="st7">
	<path class="st10" d="M127.4,326.3c-1,1.6-1.6,3.4-1.6,6s0.6,4.4,1.6,6h-1.3c-0.9-1.4-1.6-3.2-1.6-6s0.7-4.6,1.6-6H127.4z"/>
	<path class="st10" d="M132.1,327v10.5h-1.2v-8.6L129,330v-1.4l2.7-1.6H132.1z"/>
	<path class="st10" d="M135.2,326.3c0.9,1.4,1.6,3.2,1.6,6s-0.7,4.6-1.6,6H134c1-1.6,1.6-3.4,1.6-6s-0.6-4.4-1.6-6H135.2z"/>
</g>
<g class="st7">
	<path class="st3" d="M86,350.6h-1.2v3.6h-1v-7.7h2.6c1.4,0,2.3,0.7,2.3,2c0,1.1-0.6,1.8-1.6,2l2.3,3.7h-1.1L86,350.6z M84.9,347.4
		v2.2h1.6c0.8,0,1.2-0.3,1.2-1.1c0-0.8-0.4-1.1-1.2-1.1H84.9z"/>
</g>
<g class="st7">
	<path class="st3" d="M95.2,351.6h-4.1c0.1,1,0.6,1.8,1.6,1.8c0.8,0,1.2-0.4,1.5-1.1l0.8,0.4c-0.5,1.1-1.2,1.5-2.4,1.5
		c-1.7,0-2.5-1.4-2.5-2.9s0.8-2.9,2.5-2.9c1.6,0,2.5,1.3,2.5,2.6L95.2,351.6L95.2,351.6z M91.2,350.8h3c-0.2-0.8-0.6-1.4-1.5-1.4
		C91.8,349.4,91.3,350,91.2,350.8z"/>
</g>
<g class="st7">
	<path class="st3" d="M99.9,349.4l-0.6,0.5c-0.4-0.4-0.6-0.5-1-0.5s-0.7,0.3-0.7,0.7c0,1,2.6,0.8,2.6,2.4c0,1.1-0.7,1.8-1.8,1.8
		c-1.1,0-1.8-0.7-2.1-1.5l0.8-0.4c0.2,0.6,0.7,1.1,1.3,1.1c0.6,0,0.9-0.3,0.9-0.9c0-1-2.6-0.7-2.6-2.5c0-0.9,0.6-1.5,1.6-1.5
		C98.9,348.6,99.5,348.9,99.9,349.4z"/>
</g>
<g class="st7">
	<path class="st3" d="M101.5,348.7h0.9v3.7c0,0.8,0.3,1.1,1,1.1c0.8,0,1.6-0.9,1.6-2.5v-2.3h0.9v5.5H105v-1
		c-0.4,0.7-1.1,1.1-1.8,1.1c-1,0-1.6-0.6-1.6-1.7L101.5,348.7L101.5,348.7z"/>
</g>
<g class="st7">
	<path class="st3" d="M108.6,346.4v7.8h-0.9v-7.8H108.6z"/>
</g>
<g class="st7">
	<path class="st3" d="M110.1,348.7h1V347l0.9-0.6v2.2h1.5v0.8H112v3c0,0.6,0.3,0.9,0.7,0.9c0.2,0,0.4,0,0.6-0.2l0.2,0.8
		c-0.3,0.2-0.6,0.2-0.9,0.2c-0.9,0-1.6-0.6-1.6-1.8v-3h-1v-0.6H110.1z"/>
</g>
<g class="st7">
	<path class="st3" d="M118.1,349.4l-0.6,0.5c-0.4-0.4-0.6-0.5-1-0.5s-0.7,0.3-0.7,0.7c0,1,2.6,0.8,2.6,2.4c0,1.1-0.7,1.8-1.8,1.8
		c-1.1,0-1.8-0.7-2.1-1.5l0.8-0.4c0.2,0.6,0.7,1.1,1.3,1.1c0.6,0,0.9-0.3,0.9-0.9c0-1-2.6-0.7-2.6-2.5c0-0.9,0.6-1.5,1.6-1.5
		C117.2,348.6,117.7,348.9,118.1,349.4z"/>
</g>
<g class="st7">
	<path class="st8" d="M124.1,345.2v9.6h-1v-9.6H124.1z"/>
</g>
<g class="st7">
	<path class="st3" d="M134.5,346.5l-2.7,7.7h-1l-2.7-7.7h1l2.1,6.3l2.1-6.3H134.5z"/>
</g>
<g class="st7">
	<path class="st3" d="M136,346.4c0.4,0,0.7,0.3,0.7,0.7c0,0.4-0.3,0.7-0.7,0.7s-0.7-0.3-0.7-0.7C135.3,346.7,135.6,346.4,136,346.4z
		 M136.4,348.7v5.5h-0.9v-5.5H136.4z"/>
</g>
<g class="st7">
	<path class="st3" d="M142.9,351.6h-4.1c0.1,1,0.6,1.8,1.6,1.8c0.8,0,1.2-0.4,1.5-1.1l0.8,0.4c-0.5,1.1-1.2,1.5-2.4,1.5
		c-1.7,0-2.5-1.4-2.5-2.9s0.8-2.9,2.5-2.9c1.6,0,2.5,1.3,2.5,2.6L142.9,351.6L142.9,351.6z M138.9,350.8h3c-0.2-0.8-0.6-1.4-1.5-1.4
		C139.6,349.4,139.1,350,138.9,350.8z"/>
</g>
<g class="st7">
	<path class="st3" d="M151.1,348.7l-1.7,5.5h-0.9l-1.1-4.2l-1.1,4.2h-0.9l-1.7-5.5h1l1.1,4.3l1.1-4.3h0.9l1.1,4.3l1.1-4.3H151.1z"/>
	<path class="st3" d="M162,350.3c0,1-0.3,1.9-0.7,2.5l0.7,0.7l-0.7,0.7l-0.7-0.7c-0.6,0.5-1.3,0.7-2.1,0.7c-1.8,0-3.5-1.4-3.5-3.9
		s1.6-3.9,3.5-3.9S162,347.8,162,350.3z M159.7,351.3l0.8,0.8c0.3-0.5,0.4-1.1,0.4-1.8c0-2-1.1-3-2.5-3s-2.5,1-2.5,3s1.1,3,2.5,3
		c0.5,0,1-0.1,1.4-0.5L159,352L159.7,351.3z"/>
</g>
<g class="st7">
	<path class="st3" d="M163.5,348.7h0.9v3.7c0,0.8,0.3,1.1,1,1.1c0.8,0,1.6-0.9,1.6-2.5v-2.3h0.9v5.5H167v-1
		c-0.4,0.7-1.1,1.1-1.8,1.1c-1,0-1.6-0.6-1.6-1.7L163.5,348.7L163.5,348.7z"/>
</g>
<g class="st7">
	<path class="st3" d="M174.4,351.6h-4.1c0.1,1,0.6,1.8,1.6,1.8c0.8,0,1.2-0.4,1.5-1.1l0.8,0.4c-0.5,1.1-1.2,1.5-2.4,1.5
		c-1.7,0-2.5-1.4-2.5-2.9s0.8-2.9,2.5-2.9c1.6,0,2.5,1.3,2.5,2.6L174.4,351.6L174.4,351.6z M170.4,350.8h3c-0.2-0.8-0.6-1.4-1.5-1.4
		C171.1,349.4,170.6,350,170.4,350.8z"/>
</g>
<g class="st7">
	<path class="st3" d="M179.1,349.4l-0.6,0.5c-0.4-0.4-0.6-0.5-1-0.5s-0.7,0.3-0.7,0.7c0,1,2.6,0.8,2.6,2.4c0,1.1-0.7,1.8-1.8,1.8
		s-1.8-0.7-2.1-1.5l0.8-0.4c0.2,0.6,0.7,1.1,1.3,1.1s0.9-0.3,0.9-0.9c0-1-2.6-0.7-2.6-2.5c0-0.9,0.6-1.5,1.6-1.5
		C178.2,348.6,178.7,348.9,179.1,349.4z"/>
</g>
<g class="st7">
	<path class="st3" d="M180.2,348.7h1V347l0.9-0.6v2.2h1.5v0.8H182v3c0,0.6,0.3,0.9,0.7,0.9c0.2,0,0.4,0,0.6-0.2l0.2,0.8
		c-0.3,0.2-0.6,0.2-0.9,0.2c-0.9,0-1.6-0.6-1.6-1.8v-3h-1v-0.6H180.2z"/>
</g>
<g class="st7">
	<path class="st3" d="M185.5,346.4c0.4,0,0.7,0.3,0.7,0.7c0,0.4-0.3,0.7-0.7,0.7s-0.7-0.3-0.7-0.7
		C184.8,346.7,185.1,346.4,185.5,346.4z M186,348.7v5.5h-1v-5.5H186z"/>
</g>
<g class="st7">
	<path class="st3" d="M190.1,348.6c1.7,0,2.7,1.4,2.7,2.9s-1,2.9-2.7,2.9s-2.7-1.4-2.7-2.9S188.4,348.6,190.1,348.6z M190.1,353.4
		c1.1,0,1.7-1,1.7-2s-0.6-2-1.7-2c-1.1,0-1.7,1-1.7,2S189,353.4,190.1,353.4z"/>
</g>
<g class="st7">
	<path class="st3" d="M198.7,354.2h-0.9v-3.7c0-0.8-0.3-1.1-1-1.1c-0.8,0-1.6,0.9-1.6,2.5v2.3h-0.9v-5.5h0.9v1
		c0.4-0.7,1.1-1.1,1.8-1.1c1,0,1.6,0.6,1.6,1.7L198.7,354.2L198.7,354.2z"/>
</g>
<rect x="72.3" y="367.5" class="st9" width="606" height="1"/>
<rect x="72.6" y="368.5" class="st12" width="606" height="51"/>
<rect x="72.3" y="419.5" class="st9" width="606" height="1"/>
<g class="st7">
	<path class="st8" d="M91.8,379v10.5h-1.3v-5h-4.8v5h-1.3V379h1.3v4.3h4.8V379H91.8z"/>
</g>
<g class="st7">
	<path class="st8" d="M97.3,381.9c2.3,0,3.6,1.8,3.6,3.9s-1.4,3.9-3.6,3.9c-2.3,0-3.6-1.8-3.6-3.9C93.7,383.7,95,381.9,97.3,381.9z
		 M97.3,388.5c1.5,0,2.3-1.4,2.3-2.8s-0.8-2.8-2.3-2.8s-2.3,1.4-2.3,2.8C95,387.2,95.8,388.5,97.3,388.5z"/>
</g>
<g class="st7">
	<path class="st8" d="M107.2,383l-0.9,0.7c-0.5-0.5-0.9-0.8-1.4-0.8s-0.9,0.3-0.9,1c0,1.4,3.5,1.1,3.5,3.3c0,1.5-1,2.4-2.5,2.4
		s-2.4-1-2.8-2l1.1-0.6c0.3,0.8,0.9,1.5,1.8,1.5c0.8,0,1.2-0.4,1.2-1.2c0-1.4-3.5-0.9-3.5-3.4c0-1.2,0.9-2.1,2.2-2.1
		C105.9,381.9,106.7,382.3,107.2,383z"/>
</g>
<g class="st7">
	<path class="st8" d="M112.8,389.7c-1,0-1.9-0.6-2.2-1v4h-1.3V382h1.3v0.9c0.4-0.6,1.3-1,2.2-1c2.2,0,3.4,1.6,3.4,3.9
		C116.2,388,115,389.7,112.8,389.7z M112.7,383c-1.4,0-2.2,1.1-2.2,2.8c0,1.6,0.8,2.8,2.2,2.8c1.3,0,2.2-1.1,2.2-2.8
		C114.9,384.1,114,383,112.7,383z"/>
</g>
<g class="st7">
	<path class="st8" d="M118.7,378.9c0.5,0,0.9,0.4,0.9,1c0,0.5-0.4,0.9-0.9,0.9s-0.9-0.4-0.9-0.9
		C117.8,379.3,118.2,378.9,118.7,378.9z M119.3,382v7.6H118V382H119.3z"/>
</g>
<g class="st7">
	<path class="st8" d="M120.9,382h1.3v-2.3l1.3-0.8v3.1h2v1.1h-2v4.2c0,0.8,0.4,1.2,1,1.2c0.3,0,0.6-0.1,0.9-0.2l0.3,1.1
		c-0.4,0.2-0.8,0.3-1.2,0.3c-1.3,0-2.2-0.8-2.2-2.5v-4H121V382H120.9z"/>
</g>
<g class="st7">
	<path class="st8" d="M132.8,389.5h-1l-0.2-1.1c-0.5,0.7-1.2,1.2-2.4,1.2c-1.3,0-2.3-0.7-2.3-2.3s1.4-2.5,3.4-2.5h1.2v-0.3
		c0-1.2-0.7-1.6-1.6-1.6c-0.8,0-1.4,0.4-1.6,1.2l-1.1-0.3c0.2-1.3,1.3-2.1,2.7-2.1c1.7,0,2.9,0.8,2.9,2.8L132.8,389.5L132.8,389.5z
		 M129.4,388.5c1,0,2.1-0.6,2.1-2.3V386h-1.4c-1.3,0-2,0.5-2,1.3C128.2,388.1,128.6,388.5,129.4,388.5z"/>
</g>
<g class="st7">
	<path class="st8" d="M136.2,378.9v10.6h-1.3v-10.6H136.2z"/>
</g>
<g class="st7">
	<path class="st10" d="M145.1,378.3c-1,1.6-1.6,3.4-1.6,6s0.6,4.4,1.6,6h-1.3c-0.9-1.4-1.6-3.2-1.6-6s0.7-4.6,1.6-6H145.1z"/>
	<path class="st10" d="M146.6,389l4-5.1c0.7-0.9,0.9-1.3,0.9-2c0-0.5-0.1-0.9-0.4-1.2c-0.3-0.3-0.7-0.5-1.3-0.5
		c-1,0-1.6,0.8-1.7,1.8l-1.3-0.2c0.1-1.5,1.3-2.8,3-2.8c1,0,1.8,0.4,2.3,0.9c0.4,0.5,0.7,1.2,0.7,2c0,0.9-0.3,1.6-0.8,2.3l-3.3,4.2
		h4.3v1.2h-6.3L146.6,389L146.6,389z"/>
	<path class="st10" d="M155.8,378.3c0.9,1.4,1.6,3.2,1.6,6s-0.7,4.6-1.6,6h-1.3c1-1.6,1.6-3.4,1.6-6s-0.6-4.4-1.6-6H155.8z"/>
</g>
<g class="st7">
	<path class="st3" d="M86,402.6h-1.2v3.6h-1v-7.7h2.6c1.4,0,2.3,0.7,2.3,2c0,1.1-0.6,1.8-1.6,2l2.3,3.7h-1.1L86,402.6z M84.9,399.4
		v2.2h1.6c0.8,0,1.2-0.3,1.2-1.1c0-0.8-0.4-1.1-1.2-1.1H84.9z"/>
</g>
<g class="st7">
	<path class="st3" d="M95.2,403.6h-4.1c0.1,1,0.6,1.8,1.6,1.8c0.8,0,1.2-0.4,1.5-1.1l0.8,0.4c-0.5,1.1-1.2,1.5-2.4,1.5
		c-1.7,0-2.5-1.4-2.5-2.9s0.8-2.9,2.5-2.9c1.6,0,2.5,1.3,2.5,2.6L95.2,403.6L95.2,403.6z M91.2,402.8h3c-0.2-0.8-0.6-1.4-1.5-1.4
		C91.8,401.4,91.3,402,91.2,402.8z"/>
</g>
<g class="st7">
	<path class="st3" d="M99.9,401.4l-0.6,0.5c-0.4-0.4-0.6-0.5-1-0.5s-0.7,0.3-0.7,0.7c0,1,2.6,0.8,2.6,2.4c0,1.1-0.7,1.8-1.8,1.8
		c-1.1,0-1.8-0.7-2.1-1.5l0.8-0.4c0.2,0.6,0.7,1.1,1.3,1.1c0.6,0,0.9-0.3,0.9-0.9c0-1-2.6-0.7-2.6-2.5c0-0.9,0.6-1.5,1.6-1.5
		C98.9,400.6,99.5,400.9,99.9,401.4z"/>
</g>
<g class="st7">
	<path class="st3" d="M101.5,400.7h0.9v3.7c0,0.8,0.3,1.1,1,1.1c0.8,0,1.6-0.9,1.6-2.5v-2.3h0.9v5.5H105v-1
		c-0.4,0.7-1.1,1.1-1.8,1.1c-1,0-1.6-0.6-1.6-1.7L101.5,400.7L101.5,400.7z"/>
</g>
<g class="st7">
	<path class="st3" d="M108.6,398.4v7.8h-0.9v-7.8H108.6z"/>
</g>
<g class="st7">
	<path class="st3" d="M110.1,400.7h1V399l0.9-0.6v2.2h1.5v0.8H112v3c0,0.6,0.3,0.9,0.7,0.9c0.2,0,0.4,0,0.6-0.2l0.2,0.8
		c-0.3,0.2-0.6,0.2-0.9,0.2c-0.9,0-1.6-0.6-1.6-1.8v-3h-1v-0.6H110.1z"/>
</g>
<g class="st7">
	<path class="st3" d="M118.1,401.4l-0.6,0.5c-0.4-0.4-0.6-0.5-1-0.5s-0.7,0.3-0.7,0.7c0,1,2.6,0.8,2.6,2.4c0,1.1-0.7,1.8-1.8,1.8
		c-1.1,0-1.8-0.7-2.1-1.5l0.8-0.4c0.2,0.6,0.7,1.1,1.3,1.1c0.6,0,0.9-0.3,0.9-0.9c0-1-2.6-0.7-2.6-2.5c0-0.9,0.6-1.5,1.6-1.5
		C117.2,400.6,117.7,400.9,118.1,401.4z"/>
</g>
<g class="st7">
	<path class="st8" d="M124.1,397.2v9.6h-1v-9.6H124.1z"/>
</g>
<g class="st7">
	<path class="st3" d="M134.5,398.5l-2.7,7.7h-1l-2.7-7.7h1l2.1,6.3l2.1-6.3H134.5z"/>
</g>
<g class="st7">
	<path class="st3" d="M136,398.4c0.4,0,0.7,0.3,0.7,0.7c0,0.4-0.3,0.7-0.7,0.7s-0.7-0.3-0.7-0.7C135.3,398.7,135.6,398.4,136,398.4z
		 M136.4,400.7v5.5h-0.9v-5.5H136.4z"/>
</g>
<g class="st7">
	<path class="st3" d="M142.9,403.6h-4.1c0.1,1,0.6,1.8,1.6,1.8c0.8,0,1.2-0.4,1.5-1.1l0.8,0.4c-0.5,1.1-1.2,1.5-2.4,1.5
		c-1.7,0-2.5-1.4-2.5-2.9s0.8-2.9,2.5-2.9c1.6,0,2.5,1.3,2.5,2.6L142.9,403.6L142.9,403.6z M138.9,402.8h3c-0.2-0.8-0.6-1.4-1.5-1.4
		C139.6,401.4,139.1,402,138.9,402.8z"/>
</g>
<g class="st7">
	<path class="st3" d="M151.1,400.7l-1.7,5.5h-0.9l-1.1-4.2l-1.1,4.2h-0.9l-1.7-5.5h1l1.1,4.3l1.1-4.3h0.9l1.1,4.3l1.1-4.3H151.1z"/>
	<path class="st3" d="M162,402.3c0,1-0.3,1.9-0.7,2.5l0.7,0.7l-0.7,0.7l-0.7-0.7c-0.6,0.5-1.3,0.7-2.1,0.7c-1.8,0-3.5-1.4-3.5-3.9
		s1.6-3.9,3.5-3.9S162,399.8,162,402.3z M159.7,403.3l0.8,0.8c0.3-0.5,0.4-1.1,0.4-1.8c0-2-1.1-3-2.5-3s-2.5,1-2.5,3s1.1,3,2.5,3
		c0.5,0,1-0.1,1.4-0.5L159,404L159.7,403.3z"/>
</g>
<g class="st7">
	<path class="st3" d="M163.5,400.7h0.9v3.7c0,0.8,0.3,1.1,1,1.1c0.8,0,1.6-0.9,1.6-2.5v-2.3h0.9v5.5H167v-1
		c-0.4,0.7-1.1,1.1-1.8,1.1c-1,0-1.6-0.6-1.6-1.7L163.5,400.7L163.5,400.7z"/>
</g>
<g class="st7">
	<path class="st3" d="M174.4,403.6h-4.1c0.1,1,0.6,1.8,1.6,1.8c0.8,0,1.2-0.4,1.5-1.1l0.8,0.4c-0.5,1.1-1.2,1.5-2.4,1.5
		c-1.7,0-2.5-1.4-2.5-2.9s0.8-2.9,2.5-2.9c1.6,0,2.5,1.3,2.5,2.6L174.4,403.6L174.4,403.6z M170.4,402.8h3c-0.2-0.8-0.6-1.4-1.5-1.4
		C171.1,401.4,170.6,402,170.4,402.8z"/>
</g>
<g class="st7">
	<path class="st3" d="M179.1,401.4l-0.6,0.5c-0.4-0.4-0.6-0.5-1-0.5s-0.7,0.3-0.7,0.7c0,1,2.6,0.8,2.6,2.4c0,1.1-0.7,1.8-1.8,1.8
		s-1.8-0.7-2.1-1.5l0.8-0.4c0.2,0.6,0.7,1.1,1.3,1.1s0.9-0.3,0.9-0.9c0-1-2.6-0.7-2.6-2.5c0-0.9,0.6-1.5,1.6-1.5
		C178.2,400.6,178.7,400.9,179.1,401.4z"/>
</g>
<g class="st7">
	<path class="st3" d="M180.2,400.7h1V399l0.9-0.6v2.2h1.5v0.8H182v3c0,0.6,0.3,0.9,0.7,0.9c0.2,0,0.4,0,0.6-0.2l0.2,0.8
		c-0.3,0.2-0.6,0.2-0.9,0.2c-0.9,0-1.6-0.6-1.6-1.8v-3h-1v-0.6H180.2z"/>
</g>
<g class="st7">
	<path class="st3" d="M185.5,398.4c0.4,0,0.7,0.3,0.7,0.7c0,0.4-0.3,0.7-0.7,0.7s-0.7-0.3-0.7-0.7
		C184.8,398.7,185.1,398.4,185.5,398.4z M186,400.7v5.5h-1v-5.5H186z"/>
</g>
<g class="st7">
	<path class="st3" d="M190.1,400.6c1.7,0,2.7,1.4,2.7,2.9s-1,2.9-2.7,2.9s-2.7-1.4-2.7-2.9S188.4,400.6,190.1,400.6z M190.1,405.4
		c1.1,0,1.7-1,1.7-2s-0.6-2-1.7-2c-1.1,0-1.7,1-1.7,2S189,405.4,190.1,405.4z"/>
</g>
<g class="st7">
	<path class="st3" d="M198.7,406.2h-0.9v-3.7c0-0.8-0.3-1.1-1-1.1c-0.8,0-1.6,0.9-1.6,2.5v2.3h-0.9v-5.5h0.9v1
		c0.4-0.7,1.1-1.1,1.8-1.1c1,0,1.6,0.6,1.6,1.7L198.7,406.2L198.7,406.2z"/>
</g>
<g class="st7">
	<path class="st3" d="M203.6,401.4l-0.6,0.5c-0.4-0.4-0.6-0.5-1-0.5s-0.7,0.3-0.7,0.7c0,1,2.6,0.8,2.6,2.4c0,1.1-0.7,1.8-1.8,1.8
		s-1.8-0.7-2.1-1.5l0.8-0.4c0.2,0.6,0.7,1.1,1.3,1.1s0.9-0.3,0.9-0.9c0-1-2.6-0.7-2.6-2.5c0-0.9,0.6-1.5,1.6-1.5
		C202.7,400.6,203.2,400.9,203.6,401.4z"/>
</g>
<rect x="72.3" y="471.5" class="st9" width="606" height="1"/>
<g class="st7">
	<path class="st8" d="M85.6,437v4.5h-1.3V431H88c2,0,3.1,1.2,3.1,3s-1.2,3-3.1,3H85.6z M89.7,434c0-1.1-0.6-1.7-1.7-1.7h-2.4v3.5H88
		C89.1,435.8,89.7,435.1,89.7,434z"/>
</g>
<g class="st7">
	<path class="st8" d="M97,435.2c-0.3-0.1-0.6-0.2-0.9-0.2c-1,0-2.1,1.2-2.1,3.7v2.9h-1.3V434H94v1.3c0.5-0.8,1.4-1.4,2.2-1.4
		c0.4,0,0.8,0.1,1,0.2L97,435.2z"/>
</g>
<g class="st7">
	<path class="st8" d="M99.3,430.9c0.5,0,0.9,0.4,0.9,1c0,0.5-0.4,0.9-0.9,0.9s-0.9-0.4-0.9-0.9C98.4,431.3,98.8,430.9,99.3,430.9z
		 M99.9,434v7.6h-1.3V434H99.9z"/>
</g>
<g class="st7">
	<path class="st8" d="M107.9,434l-2.5,7.6h-1.3l-2.5-7.6h1.3l1.8,6l1.8-6H107.9z"/>
</g>
<g class="st7">
	<path class="st8" d="M114.6,441.5h-1l-0.2-1.1c-0.5,0.7-1.2,1.2-2.4,1.2c-1.3,0-2.3-0.7-2.3-2.3s1.4-2.5,3.4-2.5h1.2v-0.3
		c0-1.2-0.7-1.6-1.6-1.6c-0.8,0-1.4,0.4-1.6,1.2l-1.1-0.3c0.2-1.3,1.3-2.1,2.7-2.1c1.7,0,2.9,0.8,2.9,2.8V441.5z M111.3,440.5
		c1,0,2.1-0.6,2.1-2.3V438H112c-1.3,0-2,0.5-2,1.3C110,440.1,110.5,440.5,111.3,440.5z"/>
</g>
<g class="st7">
	<path class="st8" d="M116,434h1.3v-2.3l1.3-0.8v3.1h2v1.1h-2v4.2c0,0.8,0.4,1.2,1,1.2c0.3,0,0.6-0.1,0.9-0.2l0.3,1.1
		c-0.4,0.2-0.8,0.3-1.2,0.3c-1.3,0-2.2-0.8-2.2-2.5v-4H116V434z"/>
</g>
<g class="st7">
	<path class="st8" d="M128.7,438h-5.5c0.1,1.4,0.8,2.5,2.1,2.5c1.1,0,1.7-0.5,2.1-1.4l1.1,0.5c-0.7,1.5-1.6,2.1-3.2,2.1
		c-2.3,0-3.4-1.9-3.4-3.9s1.1-3.9,3.4-3.9c2.2,0,3.4,1.7,3.4,3.6V438z M123.2,436.9h4.2c-0.2-1.1-0.9-1.9-2.1-1.9
		S123.4,435.8,123.2,436.9z"/>
</g>
<g class="st7">
	<path class="st8" d="M135.9,437v4.5h-1.3V431h3.7c2,0,3.1,1.2,3.1,3s-1.2,3-3.1,3H135.9z M140,434c0-1.1-0.6-1.7-1.7-1.7h-2.4v3.5
		h2.4C139.4,435.8,140,435.1,140,434z"/>
</g>
<g class="st7">
	<path class="st8" d="M147.3,435.2c-0.3-0.1-0.6-0.2-0.9-0.2c-1,0-2.1,1.2-2.1,3.7v2.9H143V434h1.3v1.3c0.5-0.8,1.4-1.4,2.2-1.4
		c0.4,0,0.8,0.1,1,0.2L147.3,435.2z"/>
</g>
<g class="st7">
	<path class="st8" d="M154.3,441.5h-1l-0.2-1.1c-0.5,0.7-1.2,1.2-2.4,1.2c-1.3,0-2.3-0.7-2.3-2.3s1.4-2.5,3.4-2.5h1.2v-0.3
		c0-1.2-0.7-1.6-1.6-1.6c-0.8,0-1.4,0.4-1.6,1.2l-1.1-0.3c0.2-1.3,1.3-2.1,2.7-2.1c1.7,0,2.9,0.8,2.9,2.8L154.3,441.5L154.3,441.5z
		 M150.9,440.5c1,0,2.1-0.6,2.1-2.3V438h-1.4c-1.3,0-2,0.5-2,1.3C149.7,440.1,150.1,440.5,150.9,440.5z"/>
</g>
<g class="st7">
	<path class="st8" d="M162.7,439.6c-0.6,1.4-1.6,2.1-3.2,2.1c-2.3,0-3.4-1.9-3.4-3.9s1.1-3.9,3.4-3.9c1.6,0,2.6,0.7,3.2,2.1
		l-1.1,0.5c-0.4-0.9-1-1.4-2.1-1.4c-1.5,0-2.1,1.2-2.1,2.8c0,1.5,0.7,2.8,2.1,2.8c1,0,1.7-0.5,2.1-1.4L162.7,439.6z"/>
</g>
<g class="st7">
	<path class="st8" d="M163.8,434h1.3v-2.3l1.3-0.8v3.1h2v1.1h-2v4.2c0,0.8,0.4,1.2,1,1.2c0.3,0,0.6-0.1,0.9-0.2l0.3,1.1
		c-0.4,0.2-0.8,0.3-1.2,0.3c-1.3,0-2.2-0.8-2.2-2.5v-4h-1.3V434H163.8z"/>
</g>
<g class="st7">
	<path class="st8" d="M170.9,430.9c0.5,0,0.9,0.4,0.9,1c0,0.5-0.4,0.9-0.9,0.9s-0.9-0.4-0.9-0.9C170,431.3,170.4,430.9,170.9,430.9z
		 M171.6,434v7.6h-1.3V434H171.6z"/>
</g>
<g class="st7">
	<path class="st8" d="M180,439.6c-0.6,1.4-1.6,2.1-3.2,2.1c-2.3,0-3.4-1.9-3.4-3.9s1.1-3.9,3.4-3.9c1.6,0,2.6,0.7,3.2,2.1l-1.1,0.5
		c-0.4-0.9-1-1.4-2.1-1.4c-1.5,0-2.1,1.2-2.1,2.8c0,1.5,0.7,2.8,2.1,2.8c1,0,1.7-0.5,2.1-1.4L180,439.6z"/>
</g>
<g class="st7">
	<path class="st8" d="M188.2,438h-5.5c0.1,1.4,0.8,2.5,2.1,2.5c1.1,0,1.7-0.5,2.1-1.4l1.1,0.5c-0.7,1.5-1.6,2.1-3.2,2.1
		c-2.3,0-3.4-1.9-3.4-3.9s1.1-3.9,3.4-3.9c2.2,0,3.4,1.7,3.4,3.6L188.2,438L188.2,438z M182.8,436.9h4.2c-0.2-1.1-0.9-1.9-2.1-1.9
		C183.6,435,183,435.8,182.8,436.9z"/>
</g>
<g class="st7">
	<path class="st10" d="M196.6,430.3c-1,1.6-1.6,3.4-1.6,6s0.6,4.4,1.6,6h-1.3c-0.9-1.4-1.6-3.2-1.6-6s0.7-4.6,1.6-6H196.6z"/>
	<path class="st10" d="M199.5,438.6c0.1,1.3,0.9,1.9,1.9,1.9c1.3,0,2-0.9,2-2.3s-0.7-2.3-2-2.3c-0.9,0-1.6,0.5-2.1,1.2l-0.8-0.2
		l0.6-5.7h5v1.2h-3.9l-0.4,3c0.4-0.4,1.1-0.7,1.7-0.7c2,0,3.2,1.5,3.2,3.5s-1.3,3.5-3.3,3.5c-1.7,0-3-0.9-3.2-2.9L199.5,438.6z"/>
	<path class="st10" d="M207.5,430.3c0.9,1.4,1.6,3.2,1.6,6s-0.7,4.6-1.6,6h-1.3c1-1.6,1.6-3.4,1.6-6s-0.6-4.4-1.6-6H207.5z"/>
</g>
<g class="st7">
	<path class="st3" d="M86,454.6h-1.2v3.6h-1v-7.7h2.6c1.4,0,2.3,0.7,2.3,2c0,1.1-0.6,1.8-1.6,2l2.3,3.7h-1.1L86,454.6z M84.9,451.4
		v2.2h1.6c0.8,0,1.2-0.3,1.2-1.1c0-0.8-0.4-1.1-1.2-1.1H84.9z"/>
</g>
<g class="st7">
	<path class="st3" d="M95.2,455.6h-4.1c0.1,1,0.6,1.8,1.6,1.8c0.8,0,1.2-0.4,1.5-1.1l0.8,0.4c-0.5,1.1-1.2,1.5-2.4,1.5
		c-1.7,0-2.5-1.4-2.5-2.9s0.8-2.9,2.5-2.9c1.6,0,2.5,1.3,2.5,2.6L95.2,455.6L95.2,455.6z M91.2,454.8h3c-0.2-0.8-0.6-1.4-1.5-1.4
		C91.8,453.4,91.3,454,91.2,454.8z"/>
</g>
<g class="st7">
	<path class="st3" d="M99.9,453.4l-0.6,0.5c-0.4-0.4-0.6-0.5-1-0.5s-0.7,0.3-0.7,0.7c0,1,2.6,0.8,2.6,2.4c0,1.1-0.7,1.8-1.8,1.8
		c-1.1,0-1.8-0.7-2.1-1.5l0.8-0.4c0.2,0.6,0.7,1.1,1.3,1.1c0.6,0,0.9-0.3,0.9-0.9c0-1-2.6-0.7-2.6-2.5c0-0.9,0.6-1.5,1.6-1.5
		C98.9,452.6,99.5,452.9,99.9,453.4z"/>
</g>
<g class="st7">
	<path class="st3" d="M101.5,452.7h0.9v3.7c0,0.8,0.3,1.1,1,1.1c0.8,0,1.6-0.9,1.6-2.5v-2.3h0.9v5.5H105v-1
		c-0.4,0.7-1.1,1.1-1.8,1.1c-1,0-1.6-0.6-1.6-1.7L101.5,452.7L101.5,452.7z"/>
</g>
<g class="st7">
	<path class="st3" d="M108.6,450.4v7.8h-0.9v-7.8H108.6z"/>
</g>
<g class="st7">
	<path class="st3" d="M110.1,452.7h1V451l0.9-0.6v2.2h1.5v0.8H112v3c0,0.6,0.3,0.9,0.7,0.9c0.2,0,0.4,0,0.6-0.2l0.2,0.8
		c-0.3,0.2-0.6,0.2-0.9,0.2c-0.9,0-1.6-0.6-1.6-1.8v-3h-1v-0.6H110.1z"/>
</g>
<g class="st7">
	<path class="st3" d="M118.1,453.4l-0.6,0.5c-0.4-0.4-0.6-0.5-1-0.5s-0.7,0.3-0.7,0.7c0,1,2.6,0.8,2.6,2.4c0,1.1-0.7,1.8-1.8,1.8
		c-1.1,0-1.8-0.7-2.1-1.5l0.8-0.4c0.2,0.6,0.7,1.1,1.3,1.1c0.6,0,0.9-0.3,0.9-0.9c0-1-2.6-0.7-2.6-2.5c0-0.9,0.6-1.5,1.6-1.5
		C117.2,452.6,117.7,452.9,118.1,453.4z"/>
</g>
<g class="st7">
	<path class="st8" d="M124.1,449.2v9.6h-1v-9.6H124.1z"/>
</g>
<g class="st7">
	<path class="st3" d="M134.5,450.5l-2.7,7.7h-1l-2.7-7.7h1l2.1,6.3l2.1-6.3H134.5z"/>
</g>
<g class="st7">
	<path class="st3" d="M136,450.4c0.4,0,0.7,0.3,0.7,0.7c0,0.4-0.3,0.7-0.7,0.7s-0.7-0.3-0.7-0.7C135.3,450.7,135.6,450.4,136,450.4z
		 M136.4,452.7v5.5h-0.9v-5.5H136.4z"/>
</g>
<g class="st7">
	<path class="st3" d="M142.9,455.6h-4.1c0.1,1,0.6,1.8,1.6,1.8c0.8,0,1.2-0.4,1.5-1.1l0.8,0.4c-0.5,1.1-1.2,1.5-2.4,1.5
		c-1.7,0-2.5-1.4-2.5-2.9s0.8-2.9,2.5-2.9c1.6,0,2.5,1.3,2.5,2.6L142.9,455.6L142.9,455.6z M138.9,454.8h3c-0.2-0.8-0.6-1.4-1.5-1.4
		C139.6,453.4,139.1,454,138.9,454.8z"/>
</g>
<g class="st7">
	<path class="st3" d="M151.1,452.7l-1.7,5.5h-0.9l-1.1-4.2l-1.1,4.2h-0.9l-1.7-5.5h1l1.1,4.3l1.1-4.3h0.9l1.1,4.3l1.1-4.3H151.1z"/>
	<path class="st3" d="M162,454.3c0,1-0.3,1.9-0.7,2.5l0.7,0.7l-0.7,0.7l-0.7-0.7c-0.6,0.5-1.3,0.7-2.1,0.7c-1.8,0-3.5-1.4-3.5-3.9
		s1.6-3.9,3.5-3.9S162,451.8,162,454.3z M159.7,455.3l0.8,0.8c0.3-0.5,0.4-1.1,0.4-1.8c0-2-1.1-3-2.5-3s-2.5,1-2.5,3s1.1,3,2.5,3
		c0.5,0,1-0.1,1.4-0.5L159,456L159.7,455.3z"/>
</g>
<g class="st7">
	<path class="st3" d="M163.5,452.7h0.9v3.7c0,0.8,0.3,1.1,1,1.1c0.8,0,1.6-0.9,1.6-2.5v-2.3h0.9v5.5H167v-1
		c-0.4,0.7-1.1,1.1-1.8,1.1c-1,0-1.6-0.6-1.6-1.7L163.5,452.7L163.5,452.7z"/>
</g>
<g class="st7">
	<path class="st3" d="M174.4,455.6h-4.1c0.1,1,0.6,1.8,1.6,1.8c0.8,0,1.2-0.4,1.5-1.1l0.8,0.4c-0.5,1.1-1.2,1.5-2.4,1.5
		c-1.7,0-2.5-1.4-2.5-2.9s0.8-2.9,2.5-2.9c1.6,0,2.5,1.3,2.5,2.6L174.4,455.6L174.4,455.6z M170.4,454.8h3c-0.2-0.8-0.6-1.4-1.5-1.4
		C171.1,453.4,170.6,454,170.4,454.8z"/>
</g>
<g class="st7">
	<path class="st3" d="M179.1,453.4l-0.6,0.5c-0.4-0.4-0.6-0.5-1-0.5s-0.7,0.3-0.7,0.7c0,1,2.6,0.8,2.6,2.4c0,1.1-0.7,1.8-1.8,1.8
		s-1.8-0.7-2.1-1.5l0.8-0.4c0.2,0.6,0.7,1.1,1.3,1.1s0.9-0.3,0.9-0.9c0-1-2.6-0.7-2.6-2.5c0-0.9,0.6-1.5,1.6-1.5
		C178.2,452.6,178.7,452.9,179.1,453.4z"/>
</g>
<g class="st7">
	<path class="st3" d="M180.2,452.7h1V451l0.9-0.6v2.2h1.5v0.8H182v3c0,0.6,0.3,0.9,0.7,0.9c0.2,0,0.4,0,0.6-0.2l0.2,0.8
		c-0.3,0.2-0.6,0.2-0.9,0.2c-0.9,0-1.6-0.6-1.6-1.8v-3h-1v-0.6H180.2z"/>
</g>
<g class="st7">
	<path class="st3" d="M185.5,450.4c0.4,0,0.7,0.3,0.7,0.7c0,0.4-0.3,0.7-0.7,0.7s-0.7-0.3-0.7-0.7
		C184.8,450.7,185.1,450.4,185.5,450.4z M186,452.7v5.5h-1v-5.5H186z"/>
</g>
<g class="st7">
	<path class="st3" d="M190.1,452.6c1.7,0,2.7,1.4,2.7,2.9s-1,2.9-2.7,2.9s-2.7-1.4-2.7-2.9S188.4,452.6,190.1,452.6z M190.1,457.4
		c1.1,0,1.7-1,1.7-2s-0.6-2-1.7-2c-1.1,0-1.7,1-1.7,2S189,457.4,190.1,457.4z"/>
</g>
<g class="st7">
	<path class="st3" d="M198.7,458.2h-0.9v-3.7c0-0.8-0.3-1.1-1-1.1c-0.8,0-1.6,0.9-1.6,2.5v2.3h-0.9v-5.5h0.9v1
		c0.4-0.7,1.1-1.1,1.8-1.1c1,0,1.6,0.6,1.6,1.7L198.7,458.2L198.7,458.2z"/>
</g>
<g class="st7">
	<path class="st3" d="M203.6,453.4l-0.6,0.5c-0.4-0.4-0.6-0.5-1-0.5s-0.7,0.3-0.7,0.7c0,1,2.6,0.8,2.6,2.4c0,1.1-0.7,1.8-1.8,1.8
		s-1.8-0.7-2.1-1.5l0.8-0.4c0.2,0.6,0.7,1.1,1.3,1.1s0.9-0.3,0.9-0.9c0-1-2.6-0.7-2.6-2.5c0-0.9,0.6-1.5,1.6-1.5
		C202.7,452.6,203.2,452.9,203.6,453.4z"/>
</g>
<rect x="72.6" y="472.5" class="st12" width="606" height="51"/>
<g class="st7">
	<path class="st8" d="M93.1,488.3c0,3.5-2.2,5.4-4.7,5.4s-4.7-1.9-4.7-5.4s2.2-5.4,4.7-5.4S93.1,484.8,93.1,488.3z M85,488.3
		c0,2.7,1.5,4.1,3.3,4.1s3.3-1.4,3.3-4.1s-1.5-4.1-3.3-4.1S85,485.5,85,488.3z"/>
</g>
<g class="st7">
	<path class="st8" d="M94.3,486h1.3v-2.3l1.3-0.8v3.1h2v1.1h-2v4.2c0,0.8,0.4,1.2,1,1.2c0.3,0,0.6-0.1,0.9-0.2l0.3,1.1
		c-0.4,0.2-0.8,0.3-1.2,0.3c-1.3,0-2.2-0.8-2.2-2.5v-4h-1.3V486H94.3z"/>
</g>
<g class="st7">
	<path class="st8" d="M106.8,493.5h-1.3v-5c0-1-0.5-1.5-1.3-1.5c-1.1,0-2.3,1.2-2.3,3.3v3.2h-1.3v-10.6h1.3v4.5
		c0.5-0.9,1.5-1.5,2.6-1.5c1.4,0,2.2,0.8,2.2,2.4v5.2H106.8z"/>
</g>
<g class="st7">
	<path class="st8" d="M115.4,490h-5.5c0.1,1.4,0.8,2.5,2.1,2.5c1.1,0,1.7-0.5,2.1-1.4l1.1,0.5c-0.7,1.5-1.6,2.1-3.2,2.1
		c-2.3,0-3.4-1.9-3.4-3.9s1.1-3.9,3.4-3.9c2.2,0,3.4,1.7,3.4,3.6V490z M109.9,488.9h4.2c-0.2-1.1-0.9-1.9-2.1-1.9
		S110.1,487.8,109.9,488.9z"/>
</g>
<g class="st7">
	<path class="st8" d="M121.4,487.2c-0.3-0.1-0.6-0.2-0.9-0.2c-1,0-2.1,1.2-2.1,3.7v2.9h-1.3V486h1.3v1.3c0.5-0.8,1.4-1.4,2.2-1.4
		c0.4,0,0.8,0.1,1,0.2L121.4,487.2z"/>
</g>
<g class="st7">
	<path class="st10" d="M129.6,482.3c-1,1.6-1.6,3.4-1.6,6s0.6,4.4,1.6,6h-1.3c-0.9-1.4-1.6-3.2-1.6-6s0.7-4.6,1.6-6H129.6z"/>
	<path class="st10" d="M135.6,491.3H131v-0.5l4.4-7.7h1.4v7.1h1.3v1.2h-1.3v2.2h-1.3v-2.3H135.6z M135.6,490.1V485l-2.8,5.1H135.6z"
		/>
	<path class="st10" d="M140.7,482.3c0.9,1.4,1.6,3.2,1.6,6s-0.7,4.6-1.6,6h-1.3c1-1.6,1.6-3.4,1.6-6s-0.6-4.4-1.6-6H140.7z"/>
</g>
<g class="st7">
	<path class="st3" d="M86,506.6h-1.2v3.6h-1v-7.7h2.6c1.4,0,2.3,0.7,2.3,2c0,1.1-0.6,1.8-1.6,2l2.3,3.7h-1.1L86,506.6z M84.9,503.4
		v2.2h1.6c0.8,0,1.2-0.3,1.2-1.1c0-0.8-0.4-1.1-1.2-1.1H84.9z"/>
</g>
<g class="st7">
	<path class="st3" d="M95.2,507.6h-4.1c0.1,1,0.6,1.8,1.6,1.8c0.8,0,1.2-0.4,1.5-1.1l0.8,0.4c-0.5,1.1-1.2,1.5-2.4,1.5
		c-1.7,0-2.5-1.4-2.5-2.9s0.8-2.9,2.5-2.9c1.6,0,2.5,1.3,2.5,2.6L95.2,507.6L95.2,507.6z M91.2,506.8h3c-0.2-0.8-0.6-1.4-1.5-1.4
		C91.8,505.4,91.3,506,91.2,506.8z"/>
</g>
<g class="st7">
	<path class="st3" d="M99.9,505.4l-0.6,0.5c-0.4-0.4-0.6-0.5-1-0.5s-0.7,0.3-0.7,0.7c0,1,2.6,0.8,2.6,2.4c0,1.1-0.7,1.8-1.8,1.8
		c-1.1,0-1.8-0.7-2.1-1.5l0.8-0.4c0.2,0.6,0.7,1.1,1.3,1.1c0.6,0,0.9-0.3,0.9-0.9c0-1-2.6-0.7-2.6-2.5c0-0.9,0.6-1.5,1.6-1.5
		C98.9,504.6,99.5,504.9,99.9,505.4z"/>
</g>
<g class="st7">
	<path class="st3" d="M101.5,504.7h0.9v3.7c0,0.8,0.3,1.1,1,1.1c0.8,0,1.6-0.9,1.6-2.5v-2.3h0.9v5.5H105v-1
		c-0.4,0.7-1.1,1.1-1.8,1.1c-1,0-1.6-0.6-1.6-1.7L101.5,504.7L101.5,504.7z"/>
</g>
<g class="st7">
	<path class="st3" d="M108.6,502.4v7.8h-0.9v-7.8H108.6z"/>
</g>
<g class="st7">
	<path class="st3" d="M110.1,504.7h1V503l0.9-0.6v2.2h1.5v0.8H112v3c0,0.6,0.3,0.9,0.7,0.9c0.2,0,0.4,0,0.6-0.2l0.2,0.8
		c-0.3,0.2-0.6,0.2-0.9,0.2c-0.9,0-1.6-0.6-1.6-1.8v-3h-1v-0.6H110.1z"/>
</g>
<g class="st7">
	<path class="st3" d="M118.1,505.4l-0.6,0.5c-0.4-0.4-0.6-0.5-1-0.5s-0.7,0.3-0.7,0.7c0,1,2.6,0.8,2.6,2.4c0,1.1-0.7,1.8-1.8,1.8
		c-1.1,0-1.8-0.7-2.1-1.5l0.8-0.4c0.2,0.6,0.7,1.1,1.3,1.1c0.6,0,0.9-0.3,0.9-0.9c0-1-2.6-0.7-2.6-2.5c0-0.9,0.6-1.5,1.6-1.5
		C117.2,504.6,117.7,504.9,118.1,505.4z"/>
</g>
<g class="st7">
	<path class="st8" d="M124.1,501.2v9.6h-1v-9.6H124.1z"/>
</g>
<g class="st7">
	<path class="st3" d="M134.5,502.5l-2.7,7.7h-1l-2.7-7.7h1l2.1,6.3l2.1-6.3H134.5z"/>
</g>
<g class="st7">
	<path class="st3" d="M136,502.4c0.4,0,0.7,0.3,0.7,0.7c0,0.4-0.3,0.7-0.7,0.7s-0.7-0.3-0.7-0.7C135.3,502.7,135.6,502.4,136,502.4z
		 M136.4,504.7v5.5h-0.9v-5.5H136.4z"/>
</g>
<g class="st7">
	<path class="st3" d="M142.9,507.6h-4.1c0.1,1,0.6,1.8,1.6,1.8c0.8,0,1.2-0.4,1.5-1.1l0.8,0.4c-0.5,1.1-1.2,1.5-2.4,1.5
		c-1.7,0-2.5-1.4-2.5-2.9s0.8-2.9,2.5-2.9c1.6,0,2.5,1.3,2.5,2.6L142.9,507.6L142.9,507.6z M138.9,506.8h3c-0.2-0.8-0.6-1.4-1.5-1.4
		C139.6,505.4,139.1,506,138.9,506.8z"/>
</g>
<g class="st7">
	<path class="st3" d="M151.1,504.7l-1.7,5.5h-0.9l-1.1-4.2l-1.1,4.2h-0.9l-1.7-5.5h1l1.1,4.3l1.1-4.3h0.9l1.1,4.3l1.1-4.3H151.1z"/>
	<path class="st3" d="M162,506.3c0,1-0.3,1.9-0.7,2.5l0.7,0.7l-0.7,0.7l-0.7-0.7c-0.6,0.5-1.3,0.7-2.1,0.7c-1.8,0-3.5-1.4-3.5-3.9
		s1.6-3.9,3.5-3.9S162,503.8,162,506.3z M159.7,507.3l0.8,0.8c0.3-0.5,0.4-1.1,0.4-1.8c0-2-1.1-3-2.5-3s-2.5,1-2.5,3s1.1,3,2.5,3
		c0.5,0,1-0.1,1.4-0.5L159,508L159.7,507.3z"/>
</g>
<g class="st7">
	<path class="st3" d="M163.5,504.7h0.9v3.7c0,0.8,0.3,1.1,1,1.1c0.8,0,1.6-0.9,1.6-2.5v-2.3h0.9v5.5H167v-1
		c-0.4,0.7-1.1,1.1-1.8,1.1c-1,0-1.6-0.6-1.6-1.7L163.5,504.7L163.5,504.7z"/>
</g>
<g class="st7">
	<path class="st3" d="M174.4,507.6h-4.1c0.1,1,0.6,1.8,1.6,1.8c0.8,0,1.2-0.4,1.5-1.1l0.8,0.4c-0.5,1.1-1.2,1.5-2.4,1.5
		c-1.7,0-2.5-1.4-2.5-2.9s0.8-2.9,2.5-2.9c1.6,0,2.5,1.3,2.5,2.6L174.4,507.6L174.4,507.6z M170.4,506.8h3c-0.2-0.8-0.6-1.4-1.5-1.4
		C171.1,505.4,170.6,506,170.4,506.8z"/>
</g>
<g class="st7">
	<path class="st3" d="M179.1,505.4l-0.6,0.5c-0.4-0.4-0.6-0.5-1-0.5s-0.7,0.3-0.7,0.7c0,1,2.6,0.8,2.6,2.4c0,1.1-0.7,1.8-1.8,1.8
		s-1.8-0.7-2.1-1.5l0.8-0.4c0.2,0.6,0.7,1.1,1.3,1.1s0.9-0.3,0.9-0.9c0-1-2.6-0.7-2.6-2.5c0-0.9,0.6-1.5,1.6-1.5
		C178.2,504.6,178.7,504.9,179.1,505.4z"/>
</g>
<g class="st7">
	<path class="st3" d="M180.2,504.7h1V503l0.9-0.6v2.2h1.5v0.8H182v3c0,0.6,0.3,0.9,0.7,0.9c0.2,0,0.4,0,0.6-0.2l0.2,0.8
		c-0.3,0.2-0.6,0.2-0.9,0.2c-0.9,0-1.6-0.6-1.6-1.8v-3h-1v-0.6H180.2z"/>
</g>
<g class="st7">
	<path class="st3" d="M185.5,502.4c0.4,0,0.7,0.3,0.7,0.7c0,0.4-0.3,0.7-0.7,0.7s-0.7-0.3-0.7-0.7
		C184.8,502.7,185.1,502.4,185.5,502.4z M186,504.7v5.5h-1v-5.5H186z"/>
</g>
<g class="st7">
	<path class="st3" d="M190.1,504.6c1.7,0,2.7,1.4,2.7,2.9s-1,2.9-2.7,2.9s-2.7-1.4-2.7-2.9S188.4,504.6,190.1,504.6z M190.1,509.4
		c1.1,0,1.7-1,1.7-2s-0.6-2-1.7-2c-1.1,0-1.7,1-1.7,2S189,509.4,190.1,509.4z"/>
</g>
<g class="st7">
	<path class="st3" d="M198.7,510.2h-0.9v-3.7c0-0.8-0.3-1.1-1-1.1c-0.8,0-1.6,0.9-1.6,2.5v2.3h-0.9v-5.5h0.9v1
		c0.4-0.7,1.1-1.1,1.8-1.1c1,0,1.6,0.6,1.6,1.7L198.7,510.2L198.7,510.2z"/>
</g>
<g class="st7">
	<path class="st3" d="M203.6,505.4l-0.6,0.5c-0.4-0.4-0.6-0.5-1-0.5s-0.7,0.3-0.7,0.7c0,1,2.6,0.8,2.6,2.4c0,1.1-0.7,1.8-1.8,1.8
		s-1.8-0.7-2.1-1.5l0.8-0.4c0.2,0.6,0.7,1.1,1.3,1.1s0.9-0.3,0.9-0.9c0-1-2.6-0.7-2.6-2.5c0-0.9,0.6-1.5,1.6-1.5
		C202.7,504.6,203.2,504.9,203.6,505.4z"/>
</g>
<g class="st7">
	<path class="st8" d="M75.4,541v4.5h-1.3V535h3.7c2,0,3.1,1.2,3.1,3s-1.2,3-3.1,3H75.4z M79.5,538c0-1.1-0.6-1.7-1.7-1.7h-2.4v3.5
		h2.4C78.9,539.8,79.5,539.1,79.5,538z"/>
</g>
<g class="st7">
	<path class="st8" d="M86.8,539.2c-0.3-0.1-0.6-0.2-0.9-0.2c-1,0-2.1,1.2-2.1,3.7v2.9h-1.3V538h1.3v1.3c0.5-0.8,1.4-1.4,2.2-1.4
		c0.4,0,0.8,0.1,1,0.2L86.8,539.2z"/>
</g>
<g class="st7">
	<path class="st8" d="M91.3,537.9c2.3,0,3.6,1.8,3.6,3.9c0,2.1-1.4,3.9-3.6,3.9c-2.3,0-3.6-1.8-3.6-3.9
		C87.7,539.7,89.1,537.9,91.3,537.9z M91.3,544.5c1.5,0,2.3-1.4,2.3-2.8c0-1.4-0.8-2.8-2.3-2.8s-2.3,1.4-2.3,2.8
		C89,543.2,89.8,544.5,91.3,544.5z"/>
</g>
<g class="st7">
	<path class="st8" d="M102.9,543.6c-0.6,1.4-1.6,2.1-3.2,2.1c-2.3,0-3.4-1.9-3.4-3.9s1.1-3.9,3.4-3.9c1.6,0,2.6,0.7,3.2,2.1
		l-1.1,0.5c-0.4-0.9-1-1.4-2.1-1.4c-1.5,0-2.1,1.2-2.1,2.8c0,1.5,0.7,2.8,2.1,2.8c1,0,1.7-0.5,2.1-1.4L102.9,543.6z"/>
</g>
<g class="st7">
	<path class="st8" d="M111.1,542h-5.5c0.1,1.4,0.8,2.5,2.1,2.5c1.1,0,1.7-0.5,2.1-1.4l1.1,0.5c-0.7,1.5-1.6,2.1-3.2,2.1
		c-2.3,0-3.4-1.9-3.4-3.9s1.1-3.9,3.4-3.9c2.2,0,3.4,1.7,3.4,3.6V542z M105.6,540.9h4.2c-0.2-1.1-0.9-1.9-2.1-1.9
		S105.8,539.8,105.6,540.9z"/>
</g>
<g class="st7">
	<path class="st8" d="M116.1,537.9c1,0,1.9,0.6,2.2,1v-4h1.3v10.6h-1.3v-0.9c-0.4,0.6-1.3,1-2.2,1c-2.2,0-3.4-1.6-3.4-3.9
		C112.7,539.5,113.8,537.9,116.1,537.9z M116.2,544.5c1.4,0,2.2-1.1,2.2-2.8c0-1.6-0.8-2.8-2.2-2.8c-1.3,0-2.2,1.1-2.2,2.8
		S114.8,544.5,116.2,544.5z"/>
</g>
<g class="st7">
	<path class="st8" d="M121.7,538h1.3v5c0,1,0.5,1.5,1.3,1.5c1.1,0,2.2-1.3,2.2-3.4V538h1.3v7.6h-1.3v-1.4c-0.6,1-1.5,1.5-2.5,1.5
		c-1.4,0-2.2-0.9-2.2-2.4V538H121.7z"/>
</g>
<g class="st7">
	<path class="st8" d="M134.2,539.2c-0.3-0.1-0.6-0.2-0.9-0.2c-1,0-2.1,1.2-2.1,3.7v2.9h-1.3V538h1.3v1.3c0.5-0.8,1.4-1.4,2.2-1.4
		c0.4,0,0.8,0.1,1,0.2L134.2,539.2z"/>
</g>
<g class="st7">
	<path class="st8" d="M141.9,542h-5.5c0.1,1.4,0.8,2.5,2.1,2.5c1.1,0,1.7-0.5,2.1-1.4l1.1,0.5c-0.7,1.5-1.6,2.1-3.2,2.1
		c-2.3,0-3.4-1.9-3.4-3.9s1.1-3.9,3.4-3.9c2.2,0,3.4,1.7,3.4,3.6L141.9,542L141.9,542z M136.5,540.9h4.2c-0.2-1.1-0.9-1.9-2.1-1.9
		C137.4,539,136.7,539.8,136.5,540.9z"/>
</g>
<g class="st7">
	<path class="st8" d="M148.2,539l-0.9,0.7c-0.5-0.5-0.9-0.8-1.4-0.8s-0.9,0.3-0.9,1c0,1.4,3.5,1.1,3.5,3.3c0,1.5-1,2.4-2.5,2.4
		s-2.4-1-2.8-2l1.1-0.6c0.3,0.8,0.9,1.5,1.8,1.5c0.8,0,1.2-0.4,1.2-1.2c0-1.4-3.5-0.9-3.5-3.4c0-1.2,0.9-2.1,2.2-2.1
		C146.9,537.9,147.7,538.3,148.2,539z"/>
</g>
<g class="st7">
	<path class="st10" d="M157,534.3c-1,1.6-1.6,3.4-1.6,6s0.6,4.4,1.6,6h-1.3c-0.9-1.4-1.6-3.2-1.6-6s0.7-4.6,1.6-6H157z"/>
</g>
<g class="st7">
	<path class="st10" d="M161.6,535v10.5h-1.2v-8.6l-1.9,1.1v-1.4l2.7-1.6H161.6z"/>
</g>
<g class="st7">
	<path class="st10" d="M163.8,545l4-5.1c0.7-0.9,0.9-1.3,0.9-2c0-0.5-0.1-0.9-0.4-1.2c-0.3-0.3-0.7-0.5-1.3-0.5
		c-1,0-1.6,0.8-1.7,1.8l-1.3-0.2c0.1-1.5,1.3-2.8,3-2.8c1,0,1.8,0.4,2.3,0.9c0.4,0.5,0.7,1.2,0.7,2c0,0.9-0.3,1.6-0.8,2.3l-3.3,4.2
		h4.3v1.2h-6.3L163.8,545L163.8,545z"/>
	<path class="st10" d="M173,534.3c0.9,1.4,1.6,3.2,1.6,6s-0.7,4.6-1.6,6h-1.3c1-1.6,1.6-3.4,1.6-6s-0.6-4.4-1.6-6H173z"/>
</g>
<polygon class="st11" points="63.7,540.5 58.4,545.9 56.5,544 60,540.5 56.5,537.1 58.4,535.2 "/>
<g class="st7">
	<path class="st3" d="M75.8,558.6h-1.2v3.6h-1v-7.7h2.6c1.4,0,2.3,0.7,2.3,2c0,1.1-0.6,1.8-1.6,2l2.3,3.7h-1.1L75.8,558.6z
		 M74.7,555.4v2.2h1.6c0.8,0,1.2-0.3,1.2-1.1s-0.4-1.1-1.2-1.1L74.7,555.4L74.7,555.4z"/>
</g>
<g class="st7">
	<path class="st3" d="M84.9,559.6h-4.1c0.1,1,0.6,1.8,1.6,1.8c0.8,0,1.2-0.4,1.5-1.1l0.8,0.4c-0.5,1.1-1.2,1.5-2.4,1.5
		c-1.7,0-2.5-1.4-2.5-2.9s0.8-2.9,2.5-2.9c1.6,0,2.5,1.3,2.5,2.6L84.9,559.6L84.9,559.6z M80.9,558.8h3c-0.2-0.8-0.6-1.4-1.5-1.4
		C81.6,557.4,81.1,558,80.9,558.8z"/>
</g>
<g class="st7">
	<path class="st3" d="M89.6,557.4l-0.6,0.5c-0.4-0.4-0.6-0.5-1-0.5s-0.7,0.3-0.7,0.7c0,1,2.6,0.8,2.6,2.4c0,1.1-0.7,1.8-1.8,1.8
		c-1.1,0-1.8-0.7-2.1-1.5l0.8-0.4c0.2,0.6,0.7,1.1,1.3,1.1c0.6,0,0.9-0.3,0.9-0.9c0-1-2.6-0.7-2.6-2.5c0-0.9,0.6-1.5,1.6-1.5
		C88.7,556.6,89.2,556.9,89.6,557.4z"/>
</g>
<g class="st7">
	<path class="st3" d="M91.3,556.7h0.9v3.7c0,0.8,0.3,1.1,1,1.1c0.8,0,1.6-0.9,1.6-2.5v-2.3h0.9v5.5h-0.9v-1
		c-0.4,0.7-1.1,1.1-1.8,1.1c-1,0-1.6-0.6-1.6-1.7L91.3,556.7L91.3,556.7z"/>
</g>
<g class="st7">
	<path class="st3" d="M98.4,554.4v7.8h-0.9v-7.8H98.4z"/>
</g>
<g class="st7">
	<path class="st3" d="M99.9,556.7h1V555l0.9-0.6v2.2h1.5v0.8h-1.5v3c0,0.6,0.3,0.9,0.7,0.9c0.2,0,0.4,0,0.6-0.2l0.2,0.8
		c-0.3,0.2-0.6,0.2-0.9,0.2c-0.9,0-1.6-0.6-1.6-1.8v-3h-1v-0.6H99.9z"/>
</g>
<g class="st7">
	<path class="st3" d="M107.9,557.4l-0.6,0.5c-0.4-0.4-0.6-0.5-1-0.5s-0.7,0.3-0.7,0.7c0,1,2.6,0.8,2.6,2.4c0,1.1-0.7,1.8-1.8,1.8
		c-1.1,0-1.8-0.7-2.1-1.5l0.8-0.4c0.2,0.6,0.7,1.1,1.3,1.1c0.6,0,0.9-0.3,0.9-0.9c0-1-2.6-0.7-2.6-2.5c0-0.9,0.6-1.5,1.6-1.5
		C107,556.6,107.5,556.9,107.9,557.4z"/>
</g>
<g class="st7">
	<path class="st8" d="M113.8,553.2v9.6h-1v-9.6H113.8z"/>
</g>
<g class="st7">
	<path class="st3" d="M124.3,554.5l-2.7,7.7h-1l-2.7-7.7h1l2.1,6.3l2.1-6.3H124.3z"/>
</g>
<g class="st7">
	<path class="st3" d="M125.8,554.4c0.4,0,0.7,0.3,0.7,0.7s-0.3,0.7-0.7,0.7s-0.7-0.3-0.7-0.7C125.1,554.7,125.4,554.4,125.8,554.4z
		 M126.2,556.7v5.5h-0.9v-5.5H126.2z"/>
</g>
<g class="st7">
	<path class="st3" d="M132.7,559.6h-4.1c0.1,1,0.6,1.8,1.6,1.8c0.8,0,1.2-0.4,1.5-1.1l0.8,0.4c-0.5,1.1-1.2,1.5-2.4,1.5
		c-1.7,0-2.5-1.4-2.5-2.9s0.8-2.9,2.5-2.9c1.6,0,2.5,1.3,2.5,2.6L132.7,559.6L132.7,559.6z M128.7,558.8h3c-0.2-0.8-0.6-1.4-1.5-1.4
		C129.3,557.4,128.8,558,128.7,558.8z"/>
</g>
<g class="st7">
	<path class="st3" d="M140.9,556.7l-1.7,5.5h-0.9l-1.1-4.2l-1.1,4.2h-0.9l-1.7-5.5h1l1.1,4.3l1.1-4.3h0.9l1.1,4.3l1.1-4.3H140.9z"/>
	<path class="st3" d="M151.7,558.3c0,1-0.3,1.9-0.7,2.5l0.7,0.7l-0.7,0.7l-0.7-0.7c-0.6,0.5-1.3,0.7-2.1,0.7c-1.8,0-3.5-1.4-3.5-3.9
		s1.6-3.9,3.5-3.9S151.7,555.8,151.7,558.3z M149.5,559.3l0.8,0.8c0.3-0.5,0.4-1.1,0.4-1.8c0-2-1.1-3-2.5-3s-2.5,1-2.5,3
		s1.1,3,2.5,3c0.5,0,1-0.1,1.4-0.5l-0.9-0.9L149.5,559.3z"/>
</g>
<g class="st7">
	<path class="st3" d="M153.3,556.7h0.9v3.7c0,0.8,0.3,1.1,1,1.1c0.8,0,1.6-0.9,1.6-2.5v-2.3h0.9v5.5h-0.9v-1
		c-0.4,0.7-1.1,1.1-1.8,1.1c-1,0-1.6-0.6-1.6-1.7L153.3,556.7L153.3,556.7z"/>
</g>
<g class="st7">
	<path class="st3" d="M164.2,559.6h-4.1c0.1,1,0.6,1.8,1.6,1.8c0.8,0,1.2-0.4,1.5-1.1l0.8,0.4c-0.5,1.1-1.2,1.5-2.4,1.5
		c-1.7,0-2.5-1.4-2.5-2.9s0.8-2.9,2.5-2.9c1.6,0,2.5,1.3,2.5,2.6L164.2,559.6L164.2,559.6z M160.2,558.8h3c-0.2-0.8-0.6-1.4-1.5-1.4
		C160.8,557.4,160.4,558,160.2,558.8z"/>
</g>
<g class="st7">
	<path class="st3" d="M168.9,557.4l-0.6,0.5c-0.4-0.4-0.6-0.5-1-0.5s-0.7,0.3-0.7,0.7c0,1,2.6,0.8,2.6,2.4c0,1.1-0.7,1.8-1.8,1.8
		s-1.8-0.7-2.1-1.5l0.8-0.4c0.2,0.6,0.7,1.1,1.3,1.1s0.9-0.3,0.9-0.9c0-1-2.6-0.7-2.6-2.5c0-0.9,0.6-1.5,1.6-1.5
		C168,556.6,168.5,556.9,168.9,557.4z"/>
</g>
<g class="st7">
	<path class="st3" d="M169.9,556.7h1V555l0.9-0.6v2.2h1.5v0.8h-1.5v3c0,0.6,0.3,0.9,0.7,0.9c0.2,0,0.4,0,0.6-0.2l0.2,0.8
		c-0.3,0.2-0.6,0.2-0.9,0.2c-0.9,0-1.6-0.6-1.6-1.8v-3h-1v-0.6H169.9z"/>
</g>
<g class="st7">
	<path class="st3" d="M175.3,554.4c0.4,0,0.7,0.3,0.7,0.7s-0.3,0.7-0.7,0.7s-0.7-0.3-0.7-0.7S174.9,554.4,175.3,554.4z M175.7,556.7
		v5.5h-0.9v-5.5H175.7z"/>
</g>
<g class="st7">
	<path class="st3" d="M179.9,556.6c1.7,0,2.7,1.4,2.7,2.9s-1,2.9-2.7,2.9s-2.7-1.4-2.7-2.9S178.2,556.6,179.9,556.6z M179.9,561.4
		c1.1,0,1.7-1,1.7-2s-0.6-2-1.7-2c-1.1,0-1.7,1-1.7,2S178.7,561.4,179.9,561.4z"/>
</g>
<g class="st7">
	<path class="st3" d="M188.4,562.2h-0.9v-3.7c0-0.8-0.3-1.1-1-1.1c-0.8,0-1.6,0.9-1.6,2.5v2.3H184v-5.5h0.9v1
		c0.4-0.7,1.1-1.1,1.8-1.1c1,0,1.6,0.6,1.6,1.7L188.4,562.2L188.4,562.2z"/>
</g>
<g class="st7">
	<path class="st3" d="M193.4,557.4l-0.6,0.5c-0.4-0.4-0.6-0.5-1-0.5s-0.7,0.3-0.7,0.7c0,1,2.6,0.8,2.6,2.4c0,1.1-0.7,1.8-1.8,1.8
		s-1.8-0.7-2.1-1.5l0.8-0.4c0.2,0.6,0.7,1.1,1.3,1.1s0.9-0.3,0.9-0.9c0-1-2.6-0.7-2.6-2.5c0-0.9,0.6-1.5,1.6-1.5
		C192.5,556.6,193,556.9,193.4,557.4z"/>
</g>
<rect x="46.3" y="576.5" class="st12" width="632" height="51"/>
<rect x="46.3" y="627.5" class="st9" width="632" height="1"/>
<g class="st7">
	<path class="st8" d="M82.9,592.3c0,3.5-2.2,5.4-4.7,5.4s-4.7-1.9-4.7-5.4s2.2-5.4,4.7-5.4S82.9,588.8,82.9,592.3z M74.8,592.3
		c0,2.7,1.5,4.1,3.3,4.1s3.3-1.4,3.3-4.1s-1.5-4.1-3.3-4.1S74.8,589.5,74.8,592.3z"/>
</g>
<g class="st7">
	<path class="st8" d="M84,590h1.3v-2.3l1.3-0.8v3.1h2v1.1h-2v4.2c0,0.8,0.4,1.2,1,1.2c0.3,0,0.6-0.1,0.9-0.2l0.3,1.1
		c-0.4,0.2-0.8,0.3-1.2,0.3c-1.3,0-2.2-0.8-2.2-2.5v-4H84V590z"/>
</g>
<g class="st7">
	<path class="st8" d="M96.6,597.5h-1.3v-5c0-1-0.5-1.5-1.3-1.5c-1.1,0-2.3,1.2-2.3,3.3v3.2h-1.3v-10.6h1.3v4.5
		c0.5-0.9,1.5-1.5,2.6-1.5c1.4,0,2.2,0.8,2.2,2.4v5.2H96.6z"/>
</g>
<g class="st7">
	<path class="st8" d="M105.2,594h-5.5c0.1,1.4,0.8,2.5,2.1,2.5c1.1,0,1.7-0.5,2.1-1.4l1.1,0.5c-0.7,1.5-1.6,2.1-3.2,2.1
		c-2.3,0-3.4-1.9-3.4-3.9s1.1-3.9,3.4-3.9c2.2,0,3.4,1.7,3.4,3.6V594z M99.7,592.9h4.2c-0.2-1.1-0.9-1.9-2.1-1.9
		S99.9,591.8,99.7,592.9z"/>
</g>
<g class="st7">
	<path class="st8" d="M111.2,591.2c-0.3-0.1-0.6-0.2-0.9-0.2c-1,0-2.1,1.2-2.1,3.7v2.9h-1.3V590h1.3v1.3c0.5-0.8,1.4-1.4,2.2-1.4
		c0.4,0,0.8,0.1,1,0.2L111.2,591.2z"/>
</g>
<g class="st7">
	<path class="st10" d="M119.4,586.3c-1,1.6-1.6,3.4-1.6,6s0.6,4.4,1.6,6h-1.3c-0.9-1.4-1.6-3.2-1.6-6s0.7-4.6,1.6-6H119.4z"/>
	<path class="st10" d="M127.6,594.2c0,1.9-1.4,3.4-3.3,3.4s-3.3-1.5-3.3-3.4c0-0.7,0.2-1.3,0.5-1.9l3.1-5.4h1.4l-2.3,4
		c0.2-0.1,0.4-0.1,0.5-0.1C126.3,590.8,127.6,592.3,127.6,594.2z M122.3,594.2c0,1.3,0.8,2.2,2,2.2s2-0.9,2-2.2c0-1.4-0.8-2.2-2-2.2
		C123.1,592,122.3,592.9,122.3,594.2z"/>
	<path class="st10" d="M130.2,586.3c0.9,1.4,1.6,3.2,1.6,6s-0.7,4.6-1.6,6H129c1-1.6,1.6-3.4,1.6-6s-0.6-4.4-1.6-6H130.2z"/>
</g>
<polygon class="st11" points="63.7,592.5 58.4,597.9 56.5,596 60,592.5 56.5,589.1 58.4,587.2 "/>
<g class="st7">
	<path class="st3" d="M75.8,610.6h-1.2v3.6h-1v-7.7h2.6c1.4,0,2.3,0.7,2.3,2c0,1.1-0.6,1.8-1.6,2l2.3,3.7h-1.1L75.8,610.6z
		 M74.7,607.4v2.2h1.6c0.8,0,1.2-0.3,1.2-1.1s-0.4-1.1-1.2-1.1L74.7,607.4L74.7,607.4z"/>
</g>
<g class="st7">
	<path class="st3" d="M84.9,611.6h-4.1c0.1,1,0.6,1.8,1.6,1.8c0.8,0,1.2-0.4,1.5-1.1l0.8,0.4c-0.5,1.1-1.2,1.5-2.4,1.5
		c-1.7,0-2.5-1.4-2.5-2.9s0.8-2.9,2.5-2.9c1.6,0,2.5,1.3,2.5,2.6L84.9,611.6L84.9,611.6z M80.9,610.8h3c-0.2-0.8-0.6-1.4-1.5-1.4
		C81.6,609.4,81.1,610,80.9,610.8z"/>
</g>
<g class="st7">
	<path class="st3" d="M89.6,609.4l-0.6,0.5c-0.4-0.4-0.6-0.5-1-0.5s-0.7,0.3-0.7,0.7c0,1,2.6,0.8,2.6,2.4c0,1.1-0.7,1.8-1.8,1.8
		c-1.1,0-1.8-0.7-2.1-1.5l0.8-0.4c0.2,0.6,0.7,1.1,1.3,1.1c0.6,0,0.9-0.3,0.9-0.9c0-1-2.6-0.7-2.6-2.5c0-0.9,0.6-1.5,1.6-1.5
		C88.7,608.6,89.2,608.9,89.6,609.4z"/>
</g>
<g class="st7">
	<path class="st3" d="M91.3,608.7h0.9v3.7c0,0.8,0.3,1.1,1,1.1c0.8,0,1.6-0.9,1.6-2.5v-2.3h0.9v5.5h-0.9v-1
		c-0.4,0.7-1.1,1.1-1.8,1.1c-1,0-1.6-0.6-1.6-1.7L91.3,608.7L91.3,608.7z"/>
</g>
<g class="st7">
	<path class="st3" d="M98.4,606.4v7.8h-0.9v-7.8H98.4z"/>
</g>
<g class="st7">
	<path class="st3" d="M99.9,608.7h1V607l0.9-0.6v2.2h1.5v0.8h-1.5v3c0,0.6,0.3,0.9,0.7,0.9c0.2,0,0.4,0,0.6-0.2l0.2,0.8
		c-0.3,0.2-0.6,0.2-0.9,0.2c-0.9,0-1.6-0.6-1.6-1.8v-3h-1v-0.6H99.9z"/>
</g>
<g class="st7">
	<path class="st3" d="M107.9,609.4l-0.6,0.5c-0.4-0.4-0.6-0.5-1-0.5s-0.7,0.3-0.7,0.7c0,1,2.6,0.8,2.6,2.4c0,1.1-0.7,1.8-1.8,1.8
		c-1.1,0-1.8-0.7-2.1-1.5l0.8-0.4c0.2,0.6,0.7,1.1,1.3,1.1c0.6,0,0.9-0.3,0.9-0.9c0-1-2.6-0.7-2.6-2.5c0-0.9,0.6-1.5,1.6-1.5
		C107,608.6,107.5,608.9,107.9,609.4z"/>
</g>
<g class="st7">
	<path class="st8" d="M113.8,605.2v9.6h-1v-9.6H113.8z"/>
</g>
<g class="st7">
	<path class="st3" d="M124.3,606.5l-2.7,7.7h-1l-2.7-7.7h1l2.1,6.3l2.1-6.3H124.3z"/>
</g>
<g class="st7">
	<path class="st3" d="M125.8,606.4c0.4,0,0.7,0.3,0.7,0.7s-0.3,0.7-0.7,0.7s-0.7-0.3-0.7-0.7C125.1,606.7,125.4,606.4,125.8,606.4z
		 M126.2,608.7v5.5h-0.9v-5.5H126.2z"/>
</g>
<g class="st7">
	<path class="st3" d="M132.7,611.6h-4.1c0.1,1,0.6,1.8,1.6,1.8c0.8,0,1.2-0.4,1.5-1.1l0.8,0.4c-0.5,1.1-1.2,1.5-2.4,1.5
		c-1.7,0-2.5-1.4-2.5-2.9s0.8-2.9,2.5-2.9c1.6,0,2.5,1.3,2.5,2.6L132.7,611.6L132.7,611.6z M128.7,610.8h3c-0.2-0.8-0.6-1.4-1.5-1.4
		C129.3,609.4,128.8,610,128.7,610.8z"/>
</g>
<g class="st7">
	<path class="st3" d="M140.9,608.7l-1.7,5.5h-0.9l-1.1-4.2l-1.1,4.2h-0.9l-1.7-5.5h1l1.1,4.3l1.1-4.3h0.9l1.1,4.3l1.1-4.3H140.9z"/>
	<path class="st3" d="M151.7,610.3c0,1-0.3,1.9-0.7,2.5l0.7,0.7l-0.7,0.7l-0.7-0.7c-0.6,0.5-1.3,0.7-2.1,0.7c-1.8,0-3.5-1.4-3.5-3.9
		s1.6-3.9,3.5-3.9S151.7,607.8,151.7,610.3z M149.5,611.3l0.8,0.8c0.3-0.5,0.4-1.1,0.4-1.8c0-2-1.1-3-2.5-3s-2.5,1-2.5,3
		s1.1,3,2.5,3c0.5,0,1-0.1,1.4-0.5l-0.9-0.9L149.5,611.3z"/>
</g>
<g class="st7">
	<path class="st3" d="M153.3,608.7h0.9v3.7c0,0.8,0.3,1.1,1,1.1c0.8,0,1.6-0.9,1.6-2.5v-2.3h0.9v5.5h-0.9v-1
		c-0.4,0.7-1.1,1.1-1.8,1.1c-1,0-1.6-0.6-1.6-1.7L153.3,608.7L153.3,608.7z"/>
</g>
<g class="st7">
	<path class="st3" d="M164.2,611.6h-4.1c0.1,1,0.6,1.8,1.6,1.8c0.8,0,1.2-0.4,1.5-1.1l0.8,0.4c-0.5,1.1-1.2,1.5-2.4,1.5
		c-1.7,0-2.5-1.4-2.5-2.9s0.8-2.9,2.5-2.9c1.6,0,2.5,1.3,2.5,2.6L164.2,611.6L164.2,611.6z M160.2,610.8h3c-0.2-0.8-0.6-1.4-1.5-1.4
		C160.8,609.4,160.4,610,160.2,610.8z"/>
</g>
<g class="st7">
	<path class="st3" d="M168.9,609.4l-0.6,0.5c-0.4-0.4-0.6-0.5-1-0.5s-0.7,0.3-0.7,0.7c0,1,2.6,0.8,2.6,2.4c0,1.1-0.7,1.8-1.8,1.8
		s-1.8-0.7-2.1-1.5l0.8-0.4c0.2,0.6,0.7,1.1,1.3,1.1s0.9-0.3,0.9-0.9c0-1-2.6-0.7-2.6-2.5c0-0.9,0.6-1.5,1.6-1.5
		C168,608.6,168.5,608.9,168.9,609.4z"/>
</g>
<g class="st7">
	<path class="st3" d="M169.9,608.7h1V607l0.9-0.6v2.2h1.5v0.8h-1.5v3c0,0.6,0.3,0.9,0.7,0.9c0.2,0,0.4,0,0.6-0.2l0.2,0.8
		c-0.3,0.2-0.6,0.2-0.9,0.2c-0.9,0-1.6-0.6-1.6-1.8v-3h-1v-0.6H169.9z"/>
</g>
<g class="st7">
	<path class="st3" d="M175.3,606.4c0.4,0,0.7,0.3,0.7,0.7s-0.3,0.7-0.7,0.7s-0.7-0.3-0.7-0.7S174.9,606.4,175.3,606.4z M175.7,608.7
		v5.5h-0.9v-5.5H175.7z"/>
</g>
<g class="st7">
	<path class="st3" d="M179.9,608.6c1.7,0,2.7,1.4,2.7,2.9s-1,2.9-2.7,2.9s-2.7-1.4-2.7-2.9S178.2,608.6,179.9,608.6z M179.9,613.4
		c1.1,0,1.7-1,1.7-2s-0.6-2-1.7-2c-1.1,0-1.7,1-1.7,2S178.7,613.4,179.9,613.4z"/>
</g>
<g class="st7">
	<path class="st3" d="M188.4,614.2h-0.9v-3.7c0-0.8-0.3-1.1-1-1.1c-0.8,0-1.6,0.9-1.6,2.5v2.3H184v-5.5h0.9v1
		c0.4-0.7,1.1-1.1,1.8-1.1c1,0,1.6,0.6,1.6,1.7L188.4,614.2L188.4,614.2z"/>
</g>
<g class="st7">
	<path class="st3" d="M193.4,609.4l-0.6,0.5c-0.4-0.4-0.6-0.5-1-0.5s-0.7,0.3-0.7,0.7c0,1,2.6,0.8,2.6,2.4c0,1.1-0.7,1.8-1.8,1.8
		s-1.8-0.7-2.1-1.5l0.8-0.4c0.2,0.6,0.7,1.1,1.3,1.1s0.9-0.3,0.9-0.9c0-1-2.6-0.7-2.6-2.5c0-0.9,0.6-1.5,1.6-1.5
		C192.5,608.6,193,608.9,193.4,609.4z"/>
</g>
<rect x="46.3" y="315.5" class="st9" width="1" height="2"/>
<path class="st9" d="M47.3,520.5h-1v-4h1V520.5z M47.3,513.5h-1v-4h1V513.5z M47.3,506.5h-1v-4h1V506.5z M47.3,499.5h-1v-4h1V499.5z
	 M47.3,492.5h-1v-4h1V492.5z M47.3,485.5h-1v-4h1V485.5z M47.3,478.5h-1v-4h1V478.5z M47.3,471.5h-1v-4h1V471.5z M47.3,464.5h-1v-4
	h1V464.5z M47.3,457.5h-1v-4h1V457.5z M47.3,450.5h-1v-4h1V450.5z M47.3,443.5h-1v-4h1V443.5z M47.3,436.5h-1v-4h1V436.5z
	 M47.3,429.5h-1v-4h1V429.5z M47.3,422.5h-1v-4h1V422.5z M47.3,415.5h-1v-4h1V415.5z M47.3,408.5h-1v-4h1V408.5z M47.3,401.5h-1v-4
	h1V401.5z M47.3,394.5h-1v-4h1V394.5z M47.3,387.5h-1v-4h1V387.5z M47.3,380.5h-1v-4h1V380.5z M47.3,373.5h-1v-4h1V373.5z
	 M47.3,366.5h-1v-4h1V366.5z M47.3,359.5h-1v-4h1V359.5z M47.3,352.5h-1v-4h1V352.5z M47.3,345.5h-1v-4h1V345.5z M47.3,338.5h-1v-4
	h1V338.5z M47.3,331.5h-1v-4h1V331.5z M47.3,324.5h-1v-4h1V324.5z"/>
<rect x="46.3" y="522.5" class="st9" width="1" height="2"/>
<linearGradient id="SVGID_1_" gradientUnits="userSpaceOnUse" x1="526.5" y1="10522.5" x2="526.5" y2="10857.7998" gradientTransform="matrix(1 0 0 -1 0 11213)">
	<stop  offset="0.2327" style="stop-color:#FFFFFF"/>
	<stop  offset="0.75" style="stop-color:#FFFFFF;stop-opacity:0"/>
</linearGradient>
<rect x="0.5" y="355.2" class="st13" width="1052" height="335.3"/>
<g>
	<rect class="st14" width="1052" height="115"/>
	<g class="st7">
		<path class="st4" d="M555.8,57.2c0,1.4-0.4,2.5-0.9,3.4l1,1l-1,1l-1-1c-0.8,0.6-1.8,1-2.9,1c-2.5,0-4.7-1.9-4.7-5.4
			s2.2-5.4,4.7-5.4S555.8,53.7,555.8,57.2z M552.7,58.5l1.1,1.2c0.3-0.6,0.5-1.5,0.5-2.4c0-2.7-1.5-4.1-3.3-4.1s-3.3,1.4-3.3,4.1
			s1.5,4.1,3.3,4.1c0.7,0,1.4-0.2,1.9-0.6l-1.2-1.2L552.7,58.5z"/>
	</g>
	<g class="st7">
		<path class="st4" d="M557.7,52h1.3v7c0,1.3,0.8,2.3,2.4,2.3c1.5,0,2.4-1,2.4-2.3v-7h1.3v6.9c0,2.4-1.7,3.7-3.7,3.7
			s-3.7-1.3-3.7-3.7V52z"/>
	</g>
	<g class="st7">
		<path class="st4" d="M573.4,52v1.3h-4.7v3h3.8v1.3h-3.8v3.7h4.9v1.3h-6.2V52H573.4z"/>
	</g>
	<g class="st7">
		<path class="st4" d="M579.8,54.2c-0.5-0.9-1-1.1-1.7-1.1s-1.3,0.6-1.3,1.3c0,1,0.9,1.5,2,2c1.2,0.6,2.5,1.3,2.5,3
			c0,0.9-0.3,1.6-0.8,2.1c-0.6,0.6-1.4,1-2.3,1c-1.7,0-3-1.2-3.4-2.8l1.1-0.7c0.3,1.2,0.9,2.3,2.2,2.3c0.5,0,1.1-0.2,1.4-0.6
			c0.3-0.3,0.4-0.8,0.4-1.2c0-1-1-1.6-2-2c-1.4-0.6-2.5-1.3-2.5-2.9c0-1.6,1.2-2.7,2.6-2.7c1.5,0,2.2,0.7,2.7,1.7L579.8,54.2z"/>
	</g>
	<g class="st7">
		<path class="st4" d="M582.3,52h7.4v1.3h-3v9.2h-1.3v-9.2h-3V52H582.3z"/>
	</g>
	<g class="st7">
		<path class="st4" d="M592.7,52v10.5h-1.3V52H592.7z"/>
	</g>
	<g class="st7">
		<path class="st4" d="M604.3,57.2c0,3.5-2.2,5.4-4.7,5.4s-4.7-1.9-4.7-5.4s2.2-5.4,4.7-5.4C602.1,51.9,604.3,53.7,604.3,57.2z
			 M596.3,57.2c0,2.7,1.5,4.1,3.3,4.1c1.9,0,3.3-1.4,3.3-4.1s-1.5-4.1-3.3-4.1C597.7,53.1,596.3,54.5,596.3,57.2z"/>
	</g>
	<g class="st7">
		<path class="st4" d="M613.9,52v10.5h-1.5l-4.7-8.4v8.4h-1.3V52h1.5l4.7,8.4V52H613.9z"/>
	</g>
	<g class="st7">
		<path class="st4" d="M620.8,54.2c-0.5-0.9-1-1.1-1.7-1.1c-0.8,0-1.3,0.6-1.3,1.3c0,1,0.9,1.5,2,2c1.2,0.6,2.5,1.3,2.5,3
			c0,0.9-0.3,1.6-0.8,2.1c-0.6,0.6-1.4,1-2.3,1c-1.7,0-3-1.2-3.4-2.8l1.1-0.7c0.3,1.2,0.9,2.3,2.2,2.3c0.5,0,1.1-0.2,1.4-0.6
			c0.3-0.3,0.4-0.8,0.4-1.2c0-1-1-1.6-2-2c-1.4-0.6-2.6-1.3-2.6-2.9c0-1.6,1.2-2.7,2.6-2.7c1.5,0,2.2,0.7,2.7,1.7L620.8,54.2z"/>
	</g>
	<g class="st15">
		<g class="st7">
			<path class="st4" d="M663.7,57.2h3.5v5.3h-1.1L666,61c-0.5,0.9-1.5,1.6-3,1.6c-2.4,0-4.7-1.7-4.7-5.4c0-3.6,2.3-5.4,4.7-5.4
				c2.2,0,3.7,1.3,4.1,3.2l-1.3,0.4c-0.5-1.5-1.5-2.3-2.8-2.3c-1.9,0-3.4,1.4-3.4,4.1s1.4,4.1,3.4,4.1c1.8,0,2.8-1.2,2.9-2.9h-2.3
				L663.7,57.2L663.7,57.2z"/>
		</g>
		<g class="st7">
			<path class="st4" d="M672.4,57.5h-1.6v5h-1.3V52h3.5c1.9,0,3.1,1,3.1,2.8c0,1.5-0.8,2.4-2.2,2.7l3.1,5h-1.6L672.4,57.5z
				 M670.8,53.2v3h2.2c1.1,0,1.7-0.5,1.7-1.5s-0.6-1.5-1.7-1.5H670.8z"/>
		</g>
		<g class="st7">
			<path class="st4" d="M687.2,57.2c0,3.5-2.2,5.4-4.7,5.4s-4.7-1.9-4.7-5.4s2.2-5.4,4.7-5.4C684.9,51.9,687.2,53.7,687.2,57.2z
				 M679.1,57.2c0,2.7,1.5,4.1,3.3,4.1c1.9,0,3.3-1.4,3.3-4.1s-1.5-4.1-3.3-4.1C680.6,53.1,679.1,54.5,679.1,57.2z"/>
		</g>
		<g class="st7">
			<path class="st4" d="M689.1,52h1.3v7c0,1.3,0.8,2.3,2.4,2.3s2.4-1,2.4-2.3v-7h1.3v6.9c0,2.4-1.6,3.7-3.7,3.7s-3.7-1.3-3.7-3.7V52
				z"/>
		</g>
		<g class="st7">
			<path class="st4" d="M700.1,58v4.5h-1.3V52h3.7c2,0,3.1,1.2,3.1,3s-1.2,3-3.1,3H700.1z M704.2,55c0-1.1-0.6-1.7-1.7-1.7h-2.4v3.5
				h2.4C703.6,56.7,704.2,56.1,704.2,55z"/>
			<path class="st4" d="M711.6,54.2c-0.5-0.9-1-1.1-1.7-1.1c-0.8,0-1.3,0.6-1.3,1.3c0,1,0.9,1.5,2,2c1.2,0.6,2.5,1.3,2.5,3
				c0,0.9-0.3,1.6-0.8,2.1c-0.6,0.6-1.4,1-2.3,1c-1.7,0-3-1.2-3.4-2.8l1.1-0.7c0.3,1.2,0.9,2.3,2.2,2.3c0.5,0,1.1-0.2,1.4-0.6
				c0.3-0.3,0.4-0.8,0.4-1.2c0-1-1-1.6-2-2c-1.4-0.6-2.5-1.3-2.5-2.9c0-1.6,1.2-2.7,2.6-2.7c1.5,0,2.2,0.7,2.7,1.7L711.6,54.2z"/>
		</g>
	</g>
	<g class="st15">
		<g class="st7">
			<path class="st4" d="M751.2,54.2c-0.5-0.9-1-1.1-1.7-1.1s-1.3,0.6-1.3,1.3c0,1,0.9,1.5,2,2c1.2,0.6,2.5,1.3,2.5,3
				c0,0.9-0.3,1.6-0.8,2.1c-0.6,0.6-1.4,1-2.3,1c-1.7,0-3-1.2-3.4-2.8l1.1-0.7c0.3,1.2,0.9,2.3,2.2,2.3c0.5,0,1.1-0.2,1.4-0.6
				c0.3-0.3,0.4-0.8,0.4-1.2c0-1-1-1.6-2-2c-1.4-0.6-2.5-1.3-2.5-2.9c0-1.6,1.2-2.7,2.6-2.7c1.5,0,2.2,0.7,2.7,1.7L751.2,54.2z"/>
		</g>
		<g class="st7">
			<path class="st4" d="M756.1,52v10.5h-1.3V52H756.1z"/>
		</g>
		<g class="st7">
			<path class="st4" d="M763.6,57.2h3.5v5.3H766l-0.1-1.4c-0.5,0.9-1.5,1.6-3,1.6c-2.4,0-4.7-1.7-4.7-5.4c0-3.6,2.3-5.4,4.7-5.4
				c2.2,0,3.7,1.3,4.1,3.2l-1.3,0.4c-0.5-1.5-1.5-2.3-2.8-2.3c-1.9,0-3.4,1.4-3.4,4.1s1.4,4.1,3.4,4.1c1.8,0,2.8-1.2,2.9-2.9h-2.3
				L763.6,57.2L763.6,57.2z"/>
		</g>
		<g class="st7">
			<path class="st4" d="M777.1,52v10.5h-1.5l-4.7-8.4v8.4h-1.3V52h1.5l4.7,8.4V52H777.1z"/>
		</g>
		<g class="st7">
			<path class="st4" d="M792.8,57.2c0,3.5-2.2,5.4-4.7,5.4s-4.7-1.9-4.7-5.4s2.2-5.4,4.7-5.4C790.6,51.9,792.8,53.7,792.8,57.2z
				 M784.7,57.2c0,2.7,1.5,4.1,3.3,4.1c1.9,0,3.3-1.4,3.3-4.1s-1.5-4.1-3.3-4.1C786.2,53.1,784.7,54.5,784.7,57.2z"/>
		</g>
		<g class="st7">
			<path class="st4" d="M794.7,52h1.3v7c0,1.3,0.8,2.3,2.4,2.3c1.5,0,2.4-1,2.4-2.3v-7h1.3v6.9c0,2.4-1.7,3.7-3.7,3.7
				s-3.7-1.3-3.7-3.7V52z"/>
		</g>
		<g class="st7">
			<path class="st4" d="M803.7,52h7.4v1.3h-3v9.2h-1.3v-9.2h-3V52H803.7z"/>
		</g>
	</g>
	<g>
		<path class="st16" d="M854.6,46.6v21.8c0,2.2,1.8,4,4,4H1002c2.2,0,4-1.8,4-4V46.6c0-2.2-1.8-4-4-4H858.6
			C856.4,42.6,854.6,44.4,854.6,46.6z"/>
		<g class="st7">
			<path class="st17" d="M877.4,59.3c-0.5,1.8-1.9,3.2-4.1,3.2c-2.4,0-4.7-1.8-4.7-5.4s2.3-5.4,4.7-5.4c2.2,0,3.6,1.3,4.1,3.2
				l-1.3,0.4c-0.5-1.5-1.5-2.3-2.8-2.3c-1.9,0-3.4,1.4-3.4,4.1s1.4,4.1,3.4,4.1c1.4,0,2.4-0.8,2.8-2.3L877.4,59.3z"/>
		</g>
		<g class="st7">
			<path class="st17" d="M882.2,57.4h-1.6v5h-1.3V51.9h3.5c1.9,0,3.1,1,3.1,2.8c0,1.5-0.8,2.4-2.2,2.7l3.1,5h-1.6L882.2,57.4z
				 M880.7,53.2v3h2.2c1.1,0,1.7-0.5,1.7-1.5s-0.6-1.5-1.7-1.5H880.7z"/>
		</g>
		<g class="st7">
			<path class="st17" d="M894.2,51.9v1.3h-4.7v3h3.8v1.3h-3.8v3.7h4.9v1.3h-6.2V51.9H894.2z"/>
		</g>
		<g class="st7">
			<path class="st17" d="M899.2,51.9h1.3l3.6,10.5h-1.3l-0.9-2.8h-4l-0.9,2.8h-1.3L899.2,51.9z M901.4,58.3l-1.6-4.7l-1.6,4.7H901.4
				z"/>
		</g>
		<g class="st7">
			<path class="st17" d="M903.5,51.9h7.4v1.3h-3v9.2h-1.3v-9.2h-3v-1.3H903.5z"/>
		</g>
		<g class="st7">
			<path class="st17" d="M918.5,51.9v1.3h-4.7v3h3.8v1.3h-3.8v3.7h4.9v1.3h-6.2V51.9H918.5z"/>
		</g>
		<g class="st7">
			<path class="st17" d="M933.7,57.1c0,1.4-0.4,2.5-0.9,3.4l1,1l-1,1l-1-1c-0.8,0.6-1.8,1-2.8,1c-2.5,0-4.7-1.9-4.7-5.4
				s2.2-5.4,4.7-5.4S933.7,53.7,933.7,57.1z M930.7,58.4l1.1,1.2c0.3-0.6,0.5-1.5,0.5-2.4c0-2.7-1.5-4.1-3.3-4.1s-3.3,1.4-3.3,4.1
				s1.5,4.1,3.3,4.1c0.7,0,1.4-0.2,1.9-0.6l-1.2-1.2L930.7,58.4z"/>
		</g>
		<g class="st7">
			<path class="st17" d="M935.6,51.9h1.3v7c0,1.3,0.8,2.3,2.4,2.3c1.5,0,2.4-1,2.4-2.3v-7h1.3v6.9c0,2.4-1.6,3.7-3.7,3.7
				c-2,0-3.7-1.3-3.7-3.7V51.9z"/>
		</g>
		<g class="st7">
			<path class="st17" d="M951.3,51.9v1.3h-4.7v3h3.8v1.3h-3.8v3.7h4.9v1.3h-6.2V51.9H951.3z"/>
		</g>
		<g class="st7">
			<path class="st17" d="M957.6,54.1c-0.5-0.9-1-1.1-1.7-1.1c-0.8,0-1.3,0.6-1.3,1.3c0,1,0.9,1.5,2,2c1.2,0.6,2.5,1.3,2.5,3
				c0,0.9-0.3,1.6-0.8,2.1c-0.6,0.6-1.4,1-2.3,1c-1.7,0-3-1.2-3.4-2.8l1.1-0.7c0.3,1.2,0.9,2.3,2.2,2.3c0.5,0,1.1-0.2,1.4-0.6
				c0.3-0.3,0.4-0.8,0.4-1.2c0-1-1-1.6-2-2c-1.4-0.6-2.6-1.3-2.6-2.9c0-1.6,1.2-2.7,2.6-2.7c1.5,0,2.2,0.7,2.7,1.7L957.6,54.1z"/>
		</g>
		<g class="st7">
			<path class="st17" d="M960,51.9h7.4v1.3h-3v9.2h-1.3v-9.2h-3v-1.3H960z"/>
		</g>
		<g class="st7">
			<path class="st17" d="M970.4,51.9v10.5h-1.3V51.9H970.4z"/>
		</g>
		<g class="st7">
			<path class="st17" d="M982,57.1c0,3.5-2.2,5.4-4.7,5.4s-4.7-1.9-4.7-5.4s2.2-5.4,4.7-5.4S982,53.7,982,57.1z M973.9,57.1
				c0,2.7,1.5,4.1,3.3,4.1s3.3-1.4,3.3-4.1S979,53,977.2,53S973.9,54.4,973.9,57.1z"/>
		</g>
		<g class="st7">
			<path class="st17" d="M991.5,51.9v10.5H990l-4.7-8.4v8.4H984V51.9h1.5l4.7,8.4v-8.4H991.5z"/>
		</g>
	</g>
	<g>
		<path class="st4" d="M87.4,58.6v-8h5.4v15.9h-5.4v-1.9c-1.2,1.5-3,2.3-4.9,2.3c-4.3,0-6-2.9-6-7.2v-9h5.4v9c0,1.9,0.7,2.9,2.4,2.9
			S87.3,60.7,87.4,58.6C87.3,58.6,87.4,58.6,87.4,58.6z"/>
		<path class="st4" d="M99.9,42c1.8,0,3.2,1.4,3.2,3.2s-1.4,3.2-3.2,3.2s-3.2-1.4-3.2-3.2S98.2,42,99.9,42L99.9,42z"/>
		<rect x="97.2" y="50.6" class="st4" width="5.4" height="15.9"/>
		<polygon class="st4" points="114.1,62.2 121.8,62.2 121.8,66.5 105.1,66.5 113.5,54.7 105.9,54.7 105.9,50.6 121.8,50.6 		"/>
		<polygon class="st4" points="132.3,62.2 140,62.2 140,66.5 123.3,66.5 131.6,54.7 124,54.7 124,50.6 139.9,50.6 		"/>
		<rect x="142.7" y="39.5" class="st4" width="5.4" height="27"/>
		<polygon class="st4" points="168.3,50.6 162.3,66.5 158.8,75.5 153.2,75.5 156.8,66.5 155.9,66.5 149.9,50.6 155.3,50.6 159.1,62 
			162.9,50.6 		"/>
		<path class="st4" d="M74.7,62.2v4.6H59.2v-0.1C52.8,66,48,60.6,48,54.2c0-7,5.6-12.6,12.6-12.6s12.6,5.6,12.6,12.6
			c-0.1,3-1.1,5.8-3,8C70.2,62.2,74.7,62.2,74.7,62.2z M60.6,61.4c4,0,7.2-3.2,7.2-7.2c0-3.9-3.3-7.2-7.2-7.2s-7.2,3.2-7.2,7.2
			C53.5,58.2,56.7,61.3,60.6,61.4z"/>
	</g>
</g>
</svg>
