<svg xmlns="http://www.w3.org/2000/svg" viewBox="0 0 360 466">
  <title>Asset 1</title>
  <g id="Layer_2" data-name="Layer 2">
    <g id="Login_Questions_Create" data-name="Login/Questions/Create">
      <rect width="360" height="466" rx="6" ry="6" style="fill: #fff"/>
      <path d="M348.5,18.53589a.82564.82564,0,0,1-.25.60718l-1.21387,1.21411a.86174.86174,0,0,1-1.21387,0l-2.625-2.625-2.625,2.625a.86292.86292,0,0,1-1.21484,0l-1.21387-1.21411a.86233.86233,0,0,1,0-1.21436l2.625-2.625-2.625-2.625a.86233.86233,0,0,1,0-1.21436L339.35742,10.25a.86292.86292,0,0,1,1.21484,0l2.625,2.625,2.625-2.625a.86174.86174,0,0,1,1.21387,0L348.25,11.46436a.86233.86233,0,0,1,0,1.21436l-2.625,2.625,2.625,2.625A.82564.82564,0,0,1,348.5,18.53589Z" style="fill: #5e696d"/>
      <rect x="19.99996" y="105.43847" width="320" height="30" rx="4" ry="4" style="fill: #fff;stroke: #dedede;stroke-miterlimit: 10"/>
      <g>
        <path d="M35.40621,114.59558v1.09277h-4.082v2.6123H34.625v1.09277H31.32418v3.21094h4.21094v1.0918H30.17965v-9.10059Z" style="fill: #9e9f9f"/>
        <path d="M42.45113,123.69617h-1.0918v-4.3291c0-.89746-.40234-1.33887-1.13086-1.33887-.97461,0-1.87207,1.10449-1.87207,2.9248v2.74316H37.26363v-6.55273h1.09277v1.21a2.44614,2.44614,0,0,1,2.1709-1.31348,1.81751,1.81751,0,0,1,1.92383,2.041Z" style="fill: #9e9f9f"/>
        <path d="M43.72652,117.14344h1.13086v-1.96289l1.0918-.68848v2.65137H47.665v.98828H45.94918v3.60156c0,.70215.32422,1.0791.87109,1.0791a1.22931,1.22931,0,0,0,.74023-.208l.25977.94922a2.11212,2.11212,0,0,1-1.06543.24609c-1.10449,0-1.89746-.67578-1.89746-2.15723v-3.51074H43.72652Z" style="fill: #9e9f9f"/>
        <path d="M54.69723,120.65418H49.88668c.06641,1.209.66406,2.1582,1.84668,2.1582a1.80751,1.80751,0,0,0,1.82031-1.248l.96191.416a2.77867,2.77867,0,0,1-2.78223,1.81934c-1.98926,0-2.96387-1.625-2.96387-3.37988s.97461-3.37988,2.96387-3.37988a2.90819,2.90819,0,0,1,2.96387,3.10742Zm-4.74414-.98828h3.60059a1.81215,1.81215,0,0,0-1.82031-1.6377A1.7904,1.7904,0,0,0,49.95309,119.6659Z" style="fill: #9e9f9f"/>
        <path d="M59.92379,118.20984a1.70853,1.70853,0,0,0-.76758-.18164c-.89648,0-1.832,1.05273-1.832,3.18457v2.4834h-1.0918v-6.55273h1.0918v1.11816a2.32236,2.32236,0,0,1,1.92383-1.22168,2.03474,2.03474,0,0,1,.89648.19531Z" style="fill: #9e9f9f"/>
        <path d="M63.95406,117.14344h1.13086v-1.96289l1.09277-.68848v2.65137h1.71484v.98828H66.17769v3.60156c0,.70215.32422,1.0791.87012,1.0791a1.23226,1.23226,0,0,0,.74121-.208l.25977.94922a2.12056,2.12056,0,0,1-1.06641.24609c-1.10449,0-1.89746-.67578-1.89746-2.15723v-3.51074H63.95406Z" style="fill: #9e9f9f"/>
        <path d="M74.92574,120.65418H70.11519c.06641,1.209.66406,2.1582,1.84668,2.1582a1.80751,1.80751,0,0,0,1.82031-1.248l.96191.416a2.77867,2.77867,0,0,1-2.78223,1.81934c-1.98926,0-2.96387-1.625-2.96387-3.37988s.97461-3.37988,2.96387-3.37988a2.90819,2.90819,0,0,1,2.96387,3.10742Zm-4.74414-.98828h3.60059a1.81215,1.81215,0,0,0-1.82031-1.6377A1.7904,1.7904,0,0,0,70.1816,119.6659Z" style="fill: #9e9f9f"/>
        <path d="M77.09762,117.14344l1.25977,2.06738,1.26172-2.06738h1.27344l-1.91016,3.09473,2.11914,3.458H79.82711l-1.46973-2.43066-1.46875,2.43066H75.61519l2.11914-3.458-1.91211-3.09473Z" style="fill: #9e9f9f"/>
        <path d="M81.69918,117.14344H82.83v-1.96289l1.0918-.68848v2.65137h1.71582v.98828H83.92184v3.60156c0,.70215.32422,1.0791.87109,1.0791a1.22931,1.22931,0,0,0,.74023-.208l.25977.94922a2.11212,2.11212,0,0,1-1.06543.24609c-1.10449,0-1.89746-.67578-1.89746-2.15723v-3.51074H81.69918Z" style="fill: #9e9f9f"/>
        <path d="M95.999,123.69617H94.90621v-4.3291c0-.89746-.40234-1.33887-1.13086-1.33887-.96094,0-1.97559,1.0791-1.97559,2.88574v2.78223H90.707v-9.2041h1.09277v3.874a2.52588,2.52588,0,0,1,2.27441-1.32617c1.19727,0,1.9248.71484,1.9248,2.10645Z" style="fill: #9e9f9f"/>
        <path d="M103.4482,120.65418H98.63863c.06445,1.209.66211,2.1582,1.8457,2.1582a1.80911,1.80911,0,0,0,1.82031-1.248l.96094.416a2.77745,2.77745,0,0,1-2.78125,1.81934c-1.98926,0-2.96484-1.625-2.96484-3.37988s.97559-3.37988,2.96484-3.37988a2.90819,2.90819,0,0,1,2.96387,3.10742Zm-4.74512-.98828h3.60156a1.81284,1.81284,0,0,0-1.82031-1.6377A1.7927,1.7927,0,0,0,98.70309,119.6659Z" style="fill: #9e9f9f"/>
        <path d="M108.67379,118.20984a1.70853,1.70853,0,0,0-.76758-.18164c-.89648,0-1.832,1.05273-1.832,3.18457v2.4834h-1.0918v-6.55273h1.0918v1.11816a2.32236,2.32236,0,0,1,1.92383-1.22168,2.03474,2.03474,0,0,1,.89648.19531Z" style="fill: #9e9f9f"/>
        <path d="M115.39547,120.65418H110.5859c.06445,1.209.66211,2.1582,1.8457,2.1582a1.80911,1.80911,0,0,0,1.82031-1.248l.96094.416a2.77745,2.77745,0,0,1-2.78125,1.81934c-1.98926,0-2.96484-1.625-2.96484-3.37988s.97559-3.37988,2.96484-3.37988a2.90819,2.90819,0,0,1,2.96387,3.10742Zm-4.74512-.98828h3.60156a1.81284,1.81284,0,0,0-1.82031-1.6377A1.7927,1.7927,0,0,0,110.65035,119.6659Z" style="fill: #9e9f9f"/>
        <path d="M121.25777,122.11023a.81524.81524,0,0,1,.81836.81934.81885.81885,0,1,1-.81836-.81934Zm3.44531,0a.81524.81524,0,0,1,.81836.81934.81885.81885,0,1,1-.81836-.81934Zm3.44531,0a.81524.81524,0,0,1,.81836.81934.81934.81934,0,1,1-.81836-.81934Z" style="fill: #9e9f9f"/>
      </g>
      <g>
        <path d="M28.87887,92.14637a5.2148,5.2148,0,0,1-.81836,2.95117l.88379.87012-.832.832-.84473-.84473a3.92005,3.92005,0,0,1-2.4707.84473c-2.1709,0-4.082-1.625-4.082-4.65332,0-3.0293,1.91113-4.6543,4.082-4.6543C26.96871,87.49207,28.87887,89.11707,28.87887,92.14637Zm-2.63867,1.11816.98828,1.001a4.41437,4.41437,0,0,0,.46777-2.11914c0-2.37988-1.28711-3.5625-2.89941-3.5625-1.61133,0-2.89844,1.18262-2.89844,3.5625,0,2.37891,1.28711,3.56152,2.89844,3.56152a2.69206,2.69206,0,0,0,1.67773-.5332l-1.06641-1.07812Z" style="fill: #444"/>
        <path d="M30.582,90.14344h1.0918v4.33008c0,.89648.40332,1.33887,1.13086,1.33887.97559,0,1.873-1.10547,1.873-2.92578V90.14344h1.0918v6.55273h-1.0918v-1.209a2.44852,2.44852,0,0,1-2.17187,1.3125,1.81751,1.81751,0,0,1-1.92383-2.041Z" style="fill: #444"/>
        <path d="M43.36129,93.65418H38.55074c.06543,1.209.66309,2.1582,1.8457,2.1582a1.80592,1.80592,0,0,0,1.82031-1.248l.96289.416a2.77988,2.77988,0,0,1-2.7832,1.81934c-1.98828,0-2.96289-1.625-2.96289-3.37988s.97461-3.37988,2.96289-3.37988a2.90841,2.90841,0,0,1,2.96484,3.10742Zm-4.74512-.98828h3.60059a1.81215,1.81215,0,0,0-1.82031-1.6377A1.79109,1.79109,0,0,0,38.61617,92.6659Z" style="fill: #444"/>
        <path d="M48.76851,91.0409l-.74121.63672A1.521,1.521,0,0,0,46.832,91.0282a.768.768,0,0,0-.79395.832c0,1.18262,3.042.93555,3.042,2.85938a1.96457,1.96457,0,0,1-2.1709,2.08008,2.5625,2.5625,0,0,1-2.44434-1.76758l.92383-.50684a1.76138,1.76138,0,0,0,1.52051,1.28711A.93405.93405,0,0,0,47.96285,94.785c0-1.22168-3.0166-.80566-3.0166-2.93848a1.78735,1.78735,0,0,1,1.92383-1.80664A2.21658,2.21658,0,0,1,48.76851,91.0409Z" style="fill: #444"/>
        <path d="M49.874,90.14344h1.13086V88.18055l1.0918-.68848v2.65137h1.71582v.98828H52.09664v3.60156c0,.70215.3252,1.0791.87109,1.0791a1.23226,1.23226,0,0,0,.74121-.208l.25977.94922a2.11817,2.11817,0,0,1-1.06641.24609c-1.10449,0-1.89746-.67578-1.89746-2.15723V91.13172H49.874Z" style="fill: #444"/>
        <path d="M56.06246,87.49207a.81033.81033,0,0,1,.81836.832.819.819,0,0,1-1.6377,0A.81054.81054,0,0,1,56.06246,87.49207Zm.5459,2.65137v6.55273H55.51559V90.14344Z" style="fill: #444"/>
        <path d="M61.35348,90.03992A3.38854,3.38854,0,1,1,58.207,93.4198,3.178,3.178,0,0,1,61.35348,90.03992Zm0,5.77246a2.42471,2.42471,0,1,0-2.02832-2.39258A2.15658,2.15658,0,0,0,61.35348,95.81238Z" style="fill: #444"/>
        <path d="M71.36324,96.69617H70.27047v-4.3291c0-.89746-.40332-1.33887-1.13086-1.33887-.97559,0-1.87207,1.10449-1.87207,2.9248v2.74316h-1.0918V90.14344h1.0918v1.21a2.44614,2.44614,0,0,1,2.1709-1.31348,1.81821,1.81821,0,0,1,1.9248,2.041Z" style="fill: #444"/>
        <path d="M76.02926,90.14344h1.13086V88.18055l1.09277-.68848v2.65137h1.71582v.98828H78.25289v3.60156c0,.70215.3252,1.0791.87012,1.0791a1.23332,1.23332,0,0,0,.74219-.208l.25977.94922a2.12056,2.12056,0,0,1-1.06641.24609c-1.10547,0-1.89844-.67578-1.89844-2.15723V91.13172H76.02926Z" style="fill: #444"/>
        <path d="M87.00191,93.65418H82.19234c.06543,1.209.66309,2.1582,1.8457,2.1582a1.80751,1.80751,0,0,0,1.82031-1.248l.96191.416A2.77867,2.77867,0,0,1,84.038,96.79969c-1.98926,0-2.96387-1.625-2.96387-3.37988s.97461-3.37988,2.96387-3.37988a2.90819,2.90819,0,0,1,2.96387,3.10742Zm-4.74414-.98828h3.60059A1.81215,1.81215,0,0,0,84.038,91.0282,1.79109,1.79109,0,0,0,82.25777,92.6659Z" style="fill: #444"/>
        <path d="M89.17281,90.14344l1.26074,2.06738,1.26172-2.06738h1.27344l-1.91113,3.09473,2.11914,3.458H91.9023l-1.46875-2.43066L88.9648,96.69617H87.69039l2.11914-3.458L87.8984,90.14344Z" style="fill: #444"/>
        <path d="M93.77535,90.14344h1.13086V88.18055l1.0918-.68848v2.65137h1.71582v.98828H95.998v3.60156c0,.70215.32422,1.0791.87109,1.0791a1.22931,1.22931,0,0,0,.74023-.208l.26074.94922a2.12056,2.12056,0,0,1-1.06641.24609c-1.10449,0-1.89746-.67578-1.89746-2.15723V91.13172H93.77535Z" style="fill: #444"/>
      </g>
      <g>
        <path d="M20.19527,297.89637h6.39648v1.09277h-2.627V306.997H22.82125v-8.00781h-2.626Z" style="fill: #444"/>
        <path d="M31.375,306.997h-.85742l-.18262-.92285a2.376,2.376,0,0,1-2.05371,1.02637,1.85076,1.85076,0,0,1-2.02832-1.98828c0-1.4043,1.16992-2.14551,2.96387-2.14551h1.06641v-.28613c0-1.01367-.63672-1.35156-1.42969-1.35156a1.31483,1.31483,0,0,0-1.36523,1.02637l-.96289-.2207a2.17977,2.17977,0,0,1,2.32813-1.79395,2.26355,2.26355,0,0,1,2.52148,2.46973Zm-2.9248-.88379a1.79639,1.79639,0,0,0,1.833-2.002V303.955H29.11324c-1.11816,0-1.74219.416-1.74219,1.15723A.95238.95238,0,0,0,28.45016,306.11316Z" style="fill: #444"/>
        <path d="M36.78316,301.51062a1.70853,1.70853,0,0,0-.76758-.18164c-.89648,0-1.832,1.05273-1.832,3.18457v2.4834H33.09078v-6.55273h1.09277v1.11816a2.32236,2.32236,0,0,1,1.92383-1.22168,2.03474,2.03474,0,0,1,.89648.19531Z" style="fill: #444"/>
        <path d="M40.54,300.3407a2.5759,2.5759,0,0,1,1.18262.29883l1.16992-.66309.49414.89746-.88281.49414a2.17962,2.17962,0,0,1,.32422,1.18262A2.12973,2.12973,0,0,1,40.54,304.73523a2.62208,2.62208,0,0,1-1.13086-.23437.65913.65913,0,0,0-.42871.63672c0,.35156.25977.5459.74023.5459h1.54688c1.22266,0,2.05469.61133,2.05469,1.80762,0,1.6123-1.27344,2.26172-2.76953,2.26172-1.66406,0-2.78125-.793-2.78125-2.1582a1.76079,1.76079,0,0,1,.61035-1.36426,1.30309,1.30309,0,0,1-.44238-1.04,1.32219,1.32219,0,0,1,.793-1.209,2.20725,2.20725,0,0,1-.48047-1.43066A2.15726,2.15726,0,0,1,40.54,300.3407Zm-.7666,6.2793c-.16992,0-.33789-.0127-.48145-.02637a1.14335,1.14335,0,0,0-.42871.96191c0,.72852.57227,1.23535,1.68945,1.23535,1.14453,0,1.65137-.51953,1.65137-1.19629,0-.72754-.46777-.97461-1.10449-.97461Zm.7666-2.82129a1.16563,1.16563,0,0,0,1.22168-1.248,1.22277,1.22277,0,1,0-2.44336,0A1.16563,1.16563,0,0,0,40.54,303.79871Z" style="fill: #444"/>
        <path d="M50.25094,303.955H45.44039c.06543,1.209.66309,2.1582,1.84668,2.1582a1.80831,1.80831,0,0,0,1.82031-1.248l.96094.416a2.77745,2.77745,0,0,1-2.78125,1.81934c-1.98926,0-2.96484-1.625-2.96484-3.37988s.97559-3.37988,2.96484-3.37988a2.90819,2.90819,0,0,1,2.96387,3.10742Zm-4.74512-.98828h3.60156a1.81284,1.81284,0,0,0-1.82031-1.6377A1.792,1.792,0,0,0,45.50582,302.96668Z" style="fill: #444"/>
        <path d="M51.17379,300.44422h1.13086v-1.96289l1.0918-.68848v2.65137h1.7168v.98828h-1.7168v3.60156c0,.70215.3252,1.0791.87109,1.0791a1.23037,1.23037,0,0,0,.74121-.208l.25977.94922a2.11451,2.11451,0,0,1-1.06543.24609c-1.10547,0-1.89844-.67578-1.89844-2.15723V301.4325H51.17379Z" style="fill: #444"/>
        <path d="M64.35543,302.40808h3.05469V306.997h-.97461l-.11719-1.248a2.855,2.855,0,0,1-2.56055,1.35156c-2.06738,0-4.05664-1.49414-4.05664-4.65332s1.98926-4.6543,4.1084-4.6543a3.46362,3.46362,0,0,1,3.5752,2.75586l-1.10547.3252a2.52606,2.52606,0,0,0-2.46973-1.98926c-1.67676,0-2.9248,1.209-2.9248,3.5625,0,2.35254,1.248,3.56152,2.9248,3.56152a2.4161,2.4161,0,0,0,2.50879-2.50879H64.35543Z" style="fill: #444"/>
        <path d="M72.832,301.51062a1.70853,1.70853,0,0,0-.76758-.18164c-.89648,0-1.833,1.05273-1.833,3.18457v2.4834h-1.0918v-6.55273h1.0918v1.11816a2.32365,2.32365,0,0,1,1.92383-1.22168,2.03608,2.03608,0,0,1,.89746.19531Z" style="fill: #444"/>
        <path d="M76.77047,300.3407a3.38861,3.38861,0,1,1-3.14551,3.37988A3.178,3.178,0,0,1,76.77047,300.3407Zm0,5.77246a2.42471,2.42471,0,1,0-2.02832-2.39258A2.1567,2.1567,0,0,0,76.77047,306.11316Z" style="fill: #444"/>
        <path d="M81.51559,300.44422h1.0918v4.33008c0,.89648.40332,1.33887,1.13086,1.33887.97559,0,1.873-1.10547,1.873-2.92578v-2.74316h1.0918V306.997h-1.0918v-1.209a2.44852,2.44852,0,0,1-2.17187,1.3125,1.81751,1.81751,0,0,1-1.92383-2.041Z" style="fill: #444"/>
        <path d="M91.74605,307.10047a2.53328,2.53328,0,0,1-1.91016-.88379v3.43262H88.74312v-9.20508H89.8359v.80664a2.43225,2.43225,0,0,1,1.91016-.91016c1.92383,0,2.91211,1.417,2.91211,3.37988S93.66988,307.10047,91.74605,307.10047Zm-.10352-5.77148c-1.19629,0-1.89844.98828-1.89844,2.3916,0,1.4043.70215,2.39258,1.89844,2.39258,1.15723,0,1.89844-.98828,1.89844-2.39258C93.541,302.31726,92.79976,301.329,91.64254,301.329Z" style="fill: #444"/>
      </g>
      <g>
        <path d="M106.914,421.34363a1.73462,1.73462,0,0,0-1.66406-1.10937,1.2763,1.2763,0,0,0-1.25977,1.30469c0,1.03516.91406,1.46973,2.02441,2.02539,1.18457.59961,2.50488,1.31934,2.50488,3.01465a3.07072,3.07072,0,0,1-3.15039,3.13477,3.43033,3.43033,0,0,1-3.38867-2.835l1.13867-.69043c.3457,1.24512.90039,2.26563,2.25,2.26563a1.88774,1.88774,0,0,0,1.42578-.60059,1.99636,1.99636,0,0,0,.4043-1.24512c0-1.01953-.959-1.55957-1.97949-2.03906-1.36426-.64551-2.5498-1.30566-2.5498-2.9248a2.59978,2.59978,0,0,1,2.58008-2.66992,2.77139,2.77139,0,0,1,2.72949,1.67969Z" style="fill: #9e9f9f"/>
        <path d="M115.82418,429.59363h-.99023l-.209-1.06543a2.743,2.743,0,0,1-2.37109,1.18555,2.13523,2.13523,0,0,1-2.33984-2.29492c0-1.62012,1.35059-2.47461,3.41992-2.47461h1.23047v-.33008c0-1.16992-.73437-1.56055-1.65039-1.56055a1.51716,1.51716,0,0,0-1.57422,1.18555l-1.11035-.25488a2.51334,2.51334,0,0,1,2.68457-2.07031,2.61123,2.61123,0,0,1,2.91016,2.84961Zm-3.375-1.01953a2.07314,2.07314,0,0,0,2.11523-2.31055v-.17969H113.2148c-1.29,0-2.00977.47949-2.00977,1.335A1.09875,1.09875,0,0,0,112.44918,428.5741Z" style="fill: #9e9f9f"/>
        <path d="M123.25,422.03406l-2.49023,7.55957h-1.29l-2.48926-7.55957h1.28906l1.8457,5.95508,1.84375-5.95508Z" style="fill: #9e9f9f"/>
        <path d="M130.92965,426.08387h-5.55078c.0752,1.39453.76563,2.49023,2.13086,2.49023a2.085,2.085,0,0,0,2.09961-1.44043l1.10938.48047a3.20581,3.20581,0,0,1-3.209,2.09961c-2.29492,0-3.41992-1.875-3.41992-3.90039,0-2.02441,1.125-3.89941,3.41992-3.89941a3.35528,3.35528,0,0,1,3.41992,3.585Zm-5.47559-1.13965h4.15527a2.09075,2.09075,0,0,0-2.09961-1.89062A2.06931,2.06931,0,0,0,125.45406,424.94422Z" style="fill: #9e9f9f"/>
        <path d="M142.1484,429.59363h-.98926l-.21-1.06543a2.74123,2.74123,0,0,1-2.37012,1.18555,2.13523,2.13523,0,0,1-2.33984-2.29492c0-1.62012,1.35059-2.47461,3.41992-2.47461h1.22949v-.33008c0-1.16992-.73437-1.56055-1.64941-1.56055a1.51823,1.51823,0,0,0-1.5752,1.18555l-1.10937-.25488a2.512,2.512,0,0,1,2.68457-2.07031,2.61094,2.61094,0,0,1,2.90918,2.84961Zm-3.374-1.01953a2.07248,2.07248,0,0,0,2.11426-2.31055v-.17969H139.539c-1.28906,0-2.00977.47949-2.00977,1.335A1.09953,1.09953,0,0,0,138.77437,428.5741Z" style="fill: #9e9f9f"/>
        <path d="M148.64449,423.06922l-.85449.73438a1.75489,1.75489,0,0,0-1.37988-.75.88679.88679,0,0,0-.915.96c0,1.36523,3.50977,1.08008,3.50977,3.2998A2.26742,2.26742,0,0,1,146.5,429.71375a2.958,2.958,0,0,1-2.82031-2.04l1.06543-.585A2.03472,2.03472,0,0,0,146.5,428.5741a1.0776,1.0776,0,0,0,1.21484-1.18555c0-1.41016-3.48047-.92969-3.48047-3.38965a2.06284,2.06284,0,0,1,2.2207-2.085A2.55738,2.55738,0,0,1,148.64449,423.06922Z" style="fill: #9e9f9f"/>
        <path d="M157.71969,421.91394a2.92315,2.92315,0,0,1,2.2041,1.01953v-3.959h1.26074v10.61914h-1.26074v-.92969a2.80863,2.80863,0,0,1-2.2041,1.0498c-2.21973,0-3.36035-1.63477-3.36035-3.90039C154.35934,423.54871,155.5,421.91394,157.71969,421.91394Zm.12012,6.66016c1.37988,0,2.18945-1.14062,2.18945-2.76074,0-1.61914-.80957-2.75977-2.18945-2.75977-1.335,0-2.18945,1.14063-2.18945,2.75977C155.65035,427.43348,156.50484,428.5741,157.8398,428.5741Z" style="fill: #9e9f9f"/>
        <path d="M167.72457,423.26355a1.9743,1.9743,0,0,0-.88477-.21c-1.03516,0-2.11523,1.21484-2.11523,3.6748v2.86523H163.4648v-7.55957h1.25977v1.29a2.68261,2.68261,0,0,1,2.2207-1.41016,2.36249,2.36249,0,0,1,1.03418.22461Z" style="fill: #9e9f9f"/>
        <path d="M174.7148,429.59363h-.99023l-.209-1.06543a2.743,2.743,0,0,1-2.37109,1.18555,2.13523,2.13523,0,0,1-2.33984-2.29492c0-1.62012,1.35059-2.47461,3.41992-2.47461H173.455v-.33008c0-1.16992-.73437-1.56055-1.65039-1.56055a1.51716,1.51716,0,0,0-1.57422,1.18555l-1.11035-.25488a2.51334,2.51334,0,0,1,2.68457-2.07031,2.61123,2.61123,0,0,1,2.91016,2.84961Zm-3.375-1.01953a2.07314,2.07314,0,0,0,2.11523-2.31055v-.17969h-1.34961c-1.29,0-2.00977.47949-2.00977,1.335A1.09875,1.09875,0,0,0,171.3398,428.5741Z" style="fill: #9e9f9f"/>
        <path d="M176.09566,422.03406h1.08008v-.49512a2.24343,2.24343,0,0,1,2.44531-2.56445,2.39482,2.39482,0,0,1,1.0791.23926l-.25488,1.11035a1.93371,1.93371,0,0,0-.83984-.21c-.8252,0-1.16992.4502-1.16992,1.4248v.49512h1.74023v1.13965h-1.74023v6.41992h-1.25977v-6.41992h-1.08008Z" style="fill: #9e9f9f"/>
        <path d="M181.34566,422.03406h1.30469v-2.26465l1.25977-.79492v3.05957h1.98047v1.13965h-1.98047V427.329c0,.80957.375,1.24512,1.00488,1.24512a1.42226,1.42226,0,0,0,.85449-.24023l.30078,1.09473a2.44166,2.44166,0,0,1-1.23047.28516c-1.27539,0-2.18945-.78027-2.18945-2.49023v-4.0498h-1.30469Z" style="fill: #9e9f9f"/>
      </g>
      <rect x="19.99996" y="173.43847" width="320" height="30" rx="4" ry="4" style="fill: #fff;stroke: #dedede;stroke-miterlimit: 10"/>
      <g>
        <path d="M32.22066,182.59558h1.0918l3.14648,9.10059H35.31441l-.80566-2.43066H31.02437l-.80566,2.43066H29.07418Zm1.92383,5.57715L32.76656,184.078l-1.37793,4.09473Z" style="fill: #444"/>
        <path d="M42.86715,191.69617h-1.0918v-4.3291c0-.89746-.40234-1.33887-1.13086-1.33887-.97461,0-1.87207,1.10449-1.87207,2.9248v2.74316H37.67965v-6.55273h1.09277v1.21a2.44614,2.44614,0,0,1,2.1709-1.31348,1.81751,1.81751,0,0,1,1.92383,2.041Z" style="fill: #444"/>
        <path d="M50.33,188.65418H45.51949c.06543,1.209.66309,2.1582,1.8457,2.1582a1.80592,1.80592,0,0,0,1.82031-1.248l.96289.416a2.77988,2.77988,0,0,1-2.7832,1.81934c-1.98828,0-2.96289-1.625-2.96289-3.37988s.97461-3.37988,2.96289-3.37988A2.90841,2.90841,0,0,1,50.33,188.14734Zm-4.74512-.98828h3.60059a1.81215,1.81215,0,0,0-1.82031-1.6377A1.79109,1.79109,0,0,0,45.58492,187.6659Z" style="fill: #444"/>
        <path d="M60.91207,191.69617H59.8193v-4.38086c0-.8457-.36426-1.28711-1.05273-1.28711-.94922,0-1.74219,1.06543-1.74219,2.97656v2.69141H55.9316v-4.38086c0-.8457-.36328-1.28711-1.05273-1.28711-.94922,0-1.74219,1.06543-1.74219,2.97656v2.69141h-1.0918v-6.55273h1.0918v1.21a2.23236,2.23236,0,0,1,2.041-1.31348,1.69584,1.69584,0,0,1,1.75586,1.36523,2.37272,2.37272,0,0,1,2.13184-1.36523c1.19629,0,1.84668.78027,1.84668,2.041Z" style="fill: #444"/>
        <path d="M63.53707,182.49207a.81054.81054,0,0,1,.81934.832.819.819,0,0,1-1.6377,0A.81033.81033,0,0,1,63.53707,182.49207Zm.54688,2.65137v6.55273H62.99117v-6.55273Z" style="fill: #444"/>
        <path d="M70.93453,191.69617h-.8584l-.18164-.92285a2.37651,2.37651,0,0,1-2.05469,1.02637,1.85,1.85,0,0,1-2.02734-1.98828c0-1.4043,1.16992-2.14551,2.96484-2.14551h1.06543v-.28613c0-1.01367-.6377-1.35156-1.43066-1.35156a1.31625,1.31625,0,0,0-1.36523,1.02637l-.96094-.2207a2.17772,2.17772,0,0,1,2.32617-1.79395,2.26385,2.26385,0,0,1,2.52246,2.46973Zm-2.9248-.88379a1.79639,1.79639,0,0,0,1.833-2.002v-.15625h-1.1709c-1.11719,0-1.74121.416-1.74121,1.15723A.95238.95238,0,0,0,68.00973,190.81238Z" style="fill: #444"/>
      </g>
      <g>
        <path d="M22.40523,155.59558v8.00879H26.539v1.0918H21.26168v-9.10059Z" style="fill: #444"/>
        <path d="M32.49312,164.69617h-.8584l-.18164-.92285a2.376,2.376,0,0,1-2.05371,1.02637,1.85032,1.85032,0,0,1-2.02832-1.98828c0-1.4043,1.16992-2.14551,2.96387-2.14551h1.06641v-.28613c0-1.01367-.6377-1.35156-1.43066-1.35156a1.31625,1.31625,0,0,0-1.36523,1.02637l-.96094-.2207a2.17772,2.17772,0,0,1,2.32617-1.79395,2.26385,2.26385,0,0,1,2.52246,2.46973Zm-2.9248-.88379a1.79639,1.79639,0,0,0,1.833-2.002v-.15625H30.23141c-1.11816,0-1.74219.416-1.74219,1.15723A.95238.95238,0,0,0,29.56832,163.81238Z" style="fill: #444"/>
        <path d="M37.291,164.79969a2.44029,2.44029,0,0,1-1.91211-.90918v.80566h-1.0918v-9.2041h1.0918v3.43164a2.53975,2.53975,0,0,1,1.91211-.88379c1.92383,0,2.91211,1.417,2.91211,3.37988S39.2148,164.79969,37.291,164.79969Zm-.10449-5.77148c-1.19629,0-1.89746.98828-1.89746,2.3916,0,1.4043.70117,2.39258,1.89746,2.39258,1.15723,0,1.89746-.98828,1.89746-2.39258C39.08394,160.01648,38.34371,159.0282,37.18648,159.0282Z" style="fill: #444"/>
        <path d="M47.26168,161.65418H42.45113c.06445,1.209.66211,2.1582,1.8457,2.1582a1.80751,1.80751,0,0,0,1.82031-1.248l.96191.416a2.77867,2.77867,0,0,1-2.78223,1.81934c-1.98828,0-2.96387-1.625-2.96387-3.37988s.97559-3.37988,2.96387-3.37988a2.90841,2.90841,0,0,1,2.96484,3.10742Zm-4.74609-.98828h3.60156a1.81284,1.81284,0,0,0-1.82031-1.6377A1.7927,1.7927,0,0,0,42.51559,160.6659Z" style="fill: #444"/>
        <path d="M49.9648,155.49207v9.2041H48.873v-9.2041Z" style="fill: #444"/>
        <path d="M54.89254,158.14344h.93555v-.42871a1.94486,1.94486,0,0,1,2.11914-2.22266,2.06921,2.06921,0,0,1,.93555.208l-.2207.96191a1.67344,1.67344,0,0,0-.72754-.18262c-.71582,0-1.01465.39063-1.01465,1.23535v.42871h1.50781v.98828H56.91988v5.56445h-1.0918v-5.56445h-.93555Z" style="fill: #444"/>
        <path d="M62.47066,158.03992a3.38854,3.38854,0,1,1-3.14648,3.37988A3.17875,3.17875,0,0,1,62.47066,158.03992Zm0,5.77246a2.42471,2.42471,0,1,0-2.02832-2.39258A2.1567,2.1567,0,0,0,62.47066,163.81238Z" style="fill: #444"/>
        <path d="M70.81637,159.20984a1.70443,1.70443,0,0,0-.7666-.18164c-.89746,0-1.833,1.05273-1.833,3.18457v2.4834H67.125v-6.55273h1.0918v1.11816a2.325,2.325,0,0,1,1.92383-1.22168,2.03608,2.03608,0,0,1,.89746.19531Z" style="fill: #444"/>
        <path d="M77.82418,155.59558H78.916l3.14648,9.10059H80.91793l-.80566-2.43066H76.62789l-.80566,2.43066H74.67769Zm1.92383,5.57715L78.37008,157.078l-1.37793,4.09473Z" style="fill: #444"/>
        <path d="M88.47066,164.69617h-1.0918v-4.3291c0-.89746-.40332-1.33887-1.13086-1.33887-.97559,0-1.873,1.10449-1.873,2.9248v2.74316h-1.0918v-6.55273H84.375v1.21a2.4476,2.4476,0,0,1,2.17188-1.31348,1.818,1.818,0,0,1,1.92383,2.041Z" style="fill: #444"/>
        <path d="M95.93355,161.65418H91.123c.06445,1.209.66211,2.1582,1.8457,2.1582a1.80751,1.80751,0,0,0,1.82031-1.248l.96191.416a2.77867,2.77867,0,0,1-2.78223,1.81934c-1.98828,0-2.96387-1.625-2.96387-3.37988s.97559-3.37988,2.96387-3.37988a2.90841,2.90841,0,0,1,2.96484,3.10742Zm-4.74609-.98828H94.789a1.81284,1.81284,0,0,0-1.82031-1.6377A1.7927,1.7927,0,0,0,91.18746,160.6659Z" style="fill: #444"/>
        <path d="M106.51559,164.69617h-1.09277v-4.38086c0-.8457-.36426-1.28711-1.05273-1.28711-.94922,0-1.74219,1.06543-1.74219,2.97656v2.69141h-1.09277v-4.38086c0-.8457-.36328-1.28711-1.05273-1.28711-.94922,0-1.74219,1.06543-1.74219,2.97656v2.69141H97.6484v-6.55273h1.0918v1.21a2.23236,2.23236,0,0,1,2.041-1.31348,1.69514,1.69514,0,0,1,1.75586,1.36523,2.37272,2.37272,0,0,1,2.13184-1.36523c1.19629,0,1.84668.78027,1.84668,2.041Z" style="fill: #444"/>
        <path d="M109.14059,155.49207a.81054.81054,0,0,1,.81934.832.819.819,0,0,1-1.6377,0A.81033.81033,0,0,1,109.14059,155.49207Zm.54688,2.65137v6.55273h-1.09277v-6.55273Z" style="fill: #444"/>
        <path d="M116.53707,164.69617h-.85742l-.18164-.92285a2.37775,2.37775,0,0,1-2.05469,1.02637,1.85,1.85,0,0,1-2.02734-1.98828c0-1.4043,1.16992-2.14551,2.96387-2.14551h1.06543v-.28613c0-1.01367-.63672-1.35156-1.42969-1.35156a1.31554,1.31554,0,0,0-1.36523,1.02637l-.96191-.2207a2.1794,2.1794,0,0,1,2.32715-1.79395,2.26313,2.26313,0,0,1,2.52148,2.46973Zm-2.92383-.88379a1.79619,1.79619,0,0,0,1.832-2.002v-.15625h-1.16992c-1.11719,0-1.74219.416-1.74219,1.15723A.95315.95315,0,0,0,113.61324,163.81238Z" style="fill: #444"/>
      </g>
      <rect x="19.99996" y="237.43847" width="320" height="30" rx="4" ry="4" style="fill: #fff;stroke: #dedede;stroke-miterlimit: 10"/>
      <g>
        <path d="M37.30367,253.04383a3.50749,3.50749,0,0,1-3.56152,2.75586c-2.11914,0-4.10937-1.54687-4.10937-4.65332,0-3.10742,1.99023-4.6543,4.10938-4.6543a3.50843,3.50843,0,0,1,3.56152,2.75586l-1.10449.3252a2.5235,2.5235,0,0,0-2.457-1.98926c-1.67773,0-2.92578,1.209-2.92578,3.5625,0,2.35254,1.248,3.56152,2.92578,3.56152a2.5235,2.5235,0,0,0,2.457-1.98926Z" style="fill: #444"/>
        <path d="M41.47652,249.03992A3.38854,3.38854,0,1,1,38.33,252.4198,3.17875,3.17875,0,0,1,41.47652,249.03992Zm0,5.77246a2.4249,2.4249,0,1,0-2.02734-2.39258A2.156,2.156,0,0,0,41.47652,254.81238Z" style="fill: #444"/>
        <path d="M51.08394,255.69617h-.8584l-.18262-.92285a2.37414,2.37414,0,0,1-2.05273,1.02637,1.851,1.851,0,0,1-2.0293-1.98828c0-1.4043,1.16992-2.14551,2.96484-2.14551h1.06641v-.28613c0-1.01367-.6377-1.35156-1.43066-1.35156a1.31554,1.31554,0,0,0-1.36523,1.02637l-.96191-.2207a2.17809,2.17809,0,0,1,2.32715-1.79395,2.26426,2.26426,0,0,1,2.52246,2.46973Zm-2.92578-.88379a1.79659,1.79659,0,0,0,1.834-2.002v-.15625H48.82223c-1.11914,0-1.74219.416-1.74219,1.15723A.95161.95161,0,0,0,48.15816,254.81238Z" style="fill: #444"/>
        <path d="M55.3984,249.03992a2.57992,2.57992,0,0,1,1.18359.29883l1.16992-.66309.49414.89746-.88379.49414a2.17171,2.17171,0,0,1,.3252,1.18262,2.13053,2.13053,0,0,1-2.28906,2.18457,2.62516,2.62516,0,0,1-1.13086-.23437.65913.65913,0,0,0-.42871.63672c0,.35156.26074.5459.74121.5459h1.54688c1.22266,0,2.05469.61133,2.05469,1.80762,0,1.6123-1.27441,2.26172-2.76953,2.26172-1.66406,0-2.78223-.793-2.78223-2.1582a1.764,1.764,0,0,1,.61035-1.36426,1.30252,1.30252,0,0,1-.44141-1.04,1.32219,1.32219,0,0,1,.793-1.209,2.20725,2.20725,0,0,1-.48047-1.43066A2.15646,2.15646,0,0,1,55.3984,249.03992Zm-.7666,6.2793c-.16895,0-.33789-.0127-.48145-.02637a1.14255,1.14255,0,0,0-.42773.96191c0,.72852.57129,1.23535,1.68945,1.23535,1.14453,0,1.65039-.51953,1.65039-1.19629,0-.72754-.4668-.97461-1.10449-.97461Zm.7666-2.82129a1.16587,1.16587,0,0,0,1.22266-1.248,1.22277,1.22277,0,1,0-2.44336,0A1.16539,1.16539,0,0,0,55.3984,252.49793Z" style="fill: #444"/>
        <path d="M59.61129,249.14344h1.0918v4.33008c0,.89648.40234,1.33887,1.13086,1.33887.97461,0,1.87207-1.10547,1.87207-2.92578v-2.74316h1.0918v6.55273H63.706v-1.209a2.447,2.447,0,0,1-2.1709,1.3125,1.81706,1.81706,0,0,1-1.92383-2.041Z" style="fill: #444"/>
        <path d="M67.85348,246.49207v9.2041H66.7607v-9.2041Z" style="fill: #444"/>
        <path d="M72.54586,249.03992a3.38861,3.38861,0,1,1-3.14551,3.37988A3.178,3.178,0,0,1,72.54586,249.03992Zm0,5.77246a2.42471,2.42471,0,1,0-2.02832-2.39258A2.1567,2.1567,0,0,0,72.54586,254.81238Z" style="fill: #444"/>
        <path d="M80.46285,255.79969a2.53975,2.53975,0,0,1-1.91211-.88379v3.43262h-1.0918v-9.20508h1.0918v.80664a2.43794,2.43794,0,0,1,1.91211-.91016c1.92383,0,2.91211,1.417,2.91211,3.37988S82.38668,255.79969,80.46285,255.79969Zm-.10449-5.77148c-1.19629,0-1.89746.98828-1.89746,2.3916,0,1.4043.70117,2.39258,1.89746,2.39258,1.15723,0,1.89746-.98828,1.89746-2.39258C82.25582,251.01648,81.51559,250.0282,80.35836,250.0282Z" style="fill: #444"/>
        <path d="M89.8359,255.69617h-.8584l-.18262-.92285a2.37414,2.37414,0,0,1-2.05273,1.02637,1.851,1.851,0,0,1-2.0293-1.98828c0-1.4043,1.16992-2.14551,2.96484-2.14551H88.7441v-.28613c0-1.01367-.6377-1.35156-1.43066-1.35156a1.31554,1.31554,0,0,0-1.36523,1.02637l-.96191-.2207a2.17809,2.17809,0,0,1,2.32715-1.79395,2.26426,2.26426,0,0,1,2.52246,2.46973Zm-2.92578-.88379a1.79659,1.79659,0,0,0,1.834-2.002v-.15625H87.57418c-1.11914,0-1.74219.416-1.74219,1.15723A.95161.95161,0,0,0,86.91012,254.81238Z" style="fill: #444"/>
        <path d="M91.01851,249.14344h1.13086v-1.96289l1.09277-.68848v2.65137H94.957v.98828H93.24215v3.60156c0,.70215.32422,1.0791.87012,1.0791a1.23226,1.23226,0,0,0,.74121-.208l.25977.94922a2.12056,2.12056,0,0,1-1.06641.24609c-1.10449,0-1.89746-.67578-1.89746-2.15723v-3.51074H91.01851Z" style="fill: #444"/>
        <path d="M101.874,255.69617h-1.09277v-4.3291c0-.89746-.40234-1.33887-1.13086-1.33887-.96094,0-1.97559,1.0791-1.97559,2.88574v2.78223H96.582v-9.2041h1.09277v3.874a2.52588,2.52588,0,0,1,2.27441-1.32617c1.19727,0,1.9248.71484,1.9248,2.10645Z" style="fill: #444"/>
        <path d="M108.582,249.14344l-3.25,9.20508h-1.11914l1.041-2.92578-2.30176-6.2793h1.19629l1.66406,4.73242,1.625-4.73242Z" style="fill: #444"/>
      </g>
      <g>
        <path d="M22.40523,219.59558v8.00879H26.539v1.0918H21.26168v-9.10059Z" style="fill: #444"/>
        <path d="M32.49312,228.69617h-.8584l-.18164-.92285a2.376,2.376,0,0,1-2.05371,1.02637,1.85032,1.85032,0,0,1-2.02832-1.98828c0-1.4043,1.16992-2.14551,2.96387-2.14551h1.06641v-.28613c0-1.01367-.6377-1.35156-1.43066-1.35156a1.31625,1.31625,0,0,0-1.36523,1.02637l-.96094-.2207a2.17772,2.17772,0,0,1,2.32617-1.79395,2.26385,2.26385,0,0,1,2.52246,2.46973Zm-2.9248-.88379a1.79639,1.79639,0,0,0,1.833-2.002v-.15625H30.23141c-1.11816,0-1.74219.416-1.74219,1.15723A.95238.95238,0,0,0,29.56832,227.81238Z" style="fill: #444"/>
        <path d="M37.291,228.79969a2.44029,2.44029,0,0,1-1.91211-.90918v.80566h-1.0918v-9.2041h1.0918v3.43164a2.53975,2.53975,0,0,1,1.91211-.88379c1.92383,0,2.91211,1.417,2.91211,3.37988S39.2148,228.79969,37.291,228.79969Zm-.10449-5.77148c-1.19629,0-1.89746.98828-1.89746,2.3916,0,1.4043.70117,2.39258,1.89746,2.39258,1.15723,0,1.89746-.98828,1.89746-2.39258C39.08394,224.01648,38.34371,223.0282,37.18648,223.0282Z" style="fill: #444"/>
        <path d="M47.26168,225.65418H42.45113c.06445,1.209.66211,2.1582,1.8457,2.1582a1.80751,1.80751,0,0,0,1.82031-1.248l.96191.416a2.77867,2.77867,0,0,1-2.78223,1.81934c-1.98828,0-2.96387-1.625-2.96387-3.37988s.97559-3.37988,2.96387-3.37988a2.90841,2.90841,0,0,1,2.96484,3.10742Zm-4.74609-.98828h3.60156a1.81284,1.81284,0,0,0-1.82031-1.6377A1.7927,1.7927,0,0,0,42.51559,224.6659Z" style="fill: #444"/>
        <path d="M49.9648,219.49207v9.2041H48.873v-9.2041Z" style="fill: #444"/>
        <path d="M54.89254,222.14344h.93555v-.42871a1.94486,1.94486,0,0,1,2.11914-2.22266,2.06921,2.06921,0,0,1,.93555.208l-.2207.96191a1.67344,1.67344,0,0,0-.72754-.18262c-.71582,0-1.01465.39063-1.01465,1.23535v.42871h1.50781v.98828H56.91988v5.56445h-1.0918v-5.56445h-.93555Z" style="fill: #444"/>
        <path d="M62.47066,222.03992a3.38854,3.38854,0,1,1-3.14648,3.37988A3.17875,3.17875,0,0,1,62.47066,222.03992Zm0,5.77246a2.42471,2.42471,0,1,0-2.02832-2.39258A2.1567,2.1567,0,0,0,62.47066,227.81238Z" style="fill: #444"/>
        <path d="M70.81637,223.20984a1.70443,1.70443,0,0,0-.7666-.18164c-.89746,0-1.833,1.05273-1.833,3.18457v2.4834H67.125v-6.55273h1.0918v1.11816a2.325,2.325,0,0,1,1.92383-1.22168,2.03608,2.03608,0,0,1,.89746.19531Z" style="fill: #444"/>
        <path d="M82.90719,226.04383a3.50749,3.50749,0,0,1-3.56152,2.75586c-2.11914,0-4.10937-1.54687-4.10937-4.65332,0-3.10742,1.99023-4.6543,4.10938-4.6543a3.50843,3.50843,0,0,1,3.56152,2.75586l-1.10449.3252a2.5235,2.5235,0,0,0-2.457-1.98926c-1.67773,0-2.92578,1.209-2.92578,3.5625,0,2.35254,1.248,3.56152,2.92578,3.56152a2.5235,2.5235,0,0,0,2.457-1.98926Z" style="fill: #444"/>
        <path d="M87.08,222.03992a3.38854,3.38854,0,1,1-3.14648,3.37988A3.178,3.178,0,0,1,87.08,222.03992Zm0,5.77246a2.42471,2.42471,0,1,0-2.02832-2.39258A2.15658,2.15658,0,0,0,87.08,227.81238Z" style="fill: #444"/>
        <path d="M96.68648,228.69617h-.8584l-.18164-.92285a2.376,2.376,0,0,1-2.05371,1.02637,1.85032,1.85032,0,0,1-2.02832-1.98828c0-1.4043,1.16992-2.14551,2.96387-2.14551h1.06641v-.28613c0-1.01367-.6377-1.35156-1.43066-1.35156a1.31625,1.31625,0,0,0-1.36523,1.02637l-.96094-.2207a2.17772,2.17772,0,0,1,2.32617-1.79395,2.26385,2.26385,0,0,1,2.52246,2.46973Zm-2.9248-.88379a1.79639,1.79639,0,0,0,1.833-2.002v-.15625H94.42476c-1.11816,0-1.74219.416-1.74219,1.15723A.95238.95238,0,0,0,93.76168,227.81238Z" style="fill: #444"/>
        <path d="M101.00191,222.03992a2.57992,2.57992,0,0,1,1.18359.29883l1.16992-.66309.49414.89746-.88379.49414a2.17171,2.17171,0,0,1,.3252,1.18262,2.13053,2.13053,0,0,1-2.28906,2.18457,2.62208,2.62208,0,0,1-1.13086-.23437.65913.65913,0,0,0-.42871.63672c0,.35156.26074.5459.74121.5459h1.54688c1.22266,0,2.05469.61133,2.05469,1.80762,0,1.6123-1.27441,2.26172-2.76953,2.26172-1.66406,0-2.78223-.793-2.78223-2.1582a1.76143,1.76143,0,0,1,.61133-1.36426,1.30006,1.30006,0,0,1-.44238-1.04,1.32219,1.32219,0,0,1,.793-1.209,2.20725,2.20725,0,0,1-.48047-1.43066A2.15646,2.15646,0,0,1,101.00191,222.03992Zm-.7666,6.2793c-.16895,0-.33789-.0127-.48145-.02637a1.14255,1.14255,0,0,0-.42773.96191c0,.72852.57129,1.23535,1.68945,1.23535,1.14453,0,1.65039-.51953,1.65039-1.19629,0-.72754-.4668-.97461-1.10449-.97461Zm.7666-2.82129a1.16587,1.16587,0,0,0,1.22266-1.248,1.22324,1.22324,0,1,0-2.44434,0A1.16612,1.16612,0,0,0,101.00191,225.49793Z" style="fill: #444"/>
        <path d="M105.2148,222.14344h1.0918v4.33008c0,.89648.40234,1.33887,1.13086,1.33887.97461,0,1.87207-1.10547,1.87207-2.92578v-2.74316h1.0918v6.55273h-1.0918v-1.209a2.447,2.447,0,0,1-2.1709,1.3125,1.81706,1.81706,0,0,1-1.92383-2.041Z" style="fill: #444"/>
        <path d="M113.456,219.49207v9.2041h-1.09277v-9.2041Z" style="fill: #444"/>
        <path d="M118.14937,222.03992a3.38861,3.38861,0,1,1-3.14551,3.37988A3.178,3.178,0,0,1,118.14937,222.03992Zm0,5.77246a2.42471,2.42471,0,1,0-2.02832-2.39258A2.1567,2.1567,0,0,0,118.14937,227.81238Z" style="fill: #444"/>
        <path d="M126.06637,228.79969a2.5374,2.5374,0,0,1-1.91113-.88379v3.43262h-1.0918v-9.20508h1.0918v.80664a2.43433,2.43433,0,0,1,1.91113-.91016c1.92383,0,2.91211,1.417,2.91211,3.37988S127.99019,228.79969,126.06637,228.79969Zm-.10352-5.77148c-1.19727,0-1.89844.98828-1.89844,2.3916,0,1.4043.70117,2.39258,1.89844,2.39258,1.15625,0,1.89746-.98828,1.89746-2.39258C127.86031,224.01648,127.1191,223.0282,125.96285,223.0282Z" style="fill: #444"/>
        <path d="M135.43941,228.69617h-.8584l-.18262-.92285a2.3747,2.3747,0,0,1-2.05371,1.02637,1.85076,1.85076,0,0,1-2.02832-1.98828c0-1.4043,1.16992-2.14551,2.96484-2.14551h1.06641v-.28613c0-1.01367-.6377-1.35156-1.43066-1.35156a1.31625,1.31625,0,0,0-1.36523,1.02637l-.96191-.2207a2.17809,2.17809,0,0,1,2.32715-1.79395,2.26426,2.26426,0,0,1,2.52246,2.46973Zm-2.92578-.88379a1.79659,1.79659,0,0,0,1.834-2.002v-.15625h-1.1709c-1.11816,0-1.74121.416-1.74121,1.15723A.95205.95205,0,0,0,132.51363,227.81238Z" style="fill: #444"/>
        <path d="M136.62105,222.14344h1.13086v-1.96289l1.09277-.68848v2.65137h1.71582v.98828h-1.71582v3.60156c0,.70215.3252,1.0791.87012,1.0791a1.23332,1.23332,0,0,0,.74219-.208l.25977.94922a2.12056,2.12056,0,0,1-1.06641.24609c-1.10547,0-1.89844-.67578-1.89844-2.15723v-3.51074h-1.13086Z" style="fill: #444"/>
        <path d="M147.47652,228.69617h-1.0918v-4.3291c0-.89746-.40234-1.33887-1.13086-1.33887-.96191,0-1.97656,1.0791-1.97656,2.88574v2.78223h-1.0918v-9.2041h1.0918v3.874a2.52742,2.52742,0,0,1,2.27539-1.32617c1.19629,0,1.92383.71484,1.92383,2.10645Z" style="fill: #444"/>
        <path d="M154.18551,222.14344l-3.25,9.20508h-1.11914l1.041-2.92578-2.30176-6.2793h1.19629l1.66406,4.73242,1.625-4.73242Z" style="fill: #444"/>
      </g>
      <g>
        <path d="M24.91988,49.454l4.48828,11.833,4.48828-11.833h2.59277V66.25525h-2.1123V54.014L30.1523,64.71912H28.664L24.44039,54.014V66.25525h-2.1123V49.454Z" style="fill: #444"/>
        <path d="M49.06441,66.25525h-1.584l-.33594-1.7041a4.38538,4.38538,0,0,1-3.792,1.896,3.41654,3.41654,0,0,1-3.74414-3.67236c0-2.59229,2.16016-3.96,5.47168-3.96h1.96875V58.2865c0-1.87207-1.17578-2.49609-2.64062-2.49609a2.42743,2.42743,0,0,0-2.51953,1.896l-1.77637-.40771a4.0206,4.0206,0,0,1,4.2959-3.3125c2.66406,0,4.65625,1.34424,4.65625,4.56055ZM43.664,64.62293c1.56055,0,3.38477-.96,3.38477-3.69629v-.28809H44.88863c-2.06445,0-3.2168.76807-3.2168,2.13623A1.75885,1.75885,0,0,0,43.664,64.62293Z" style="fill: #444"/>
        <path d="M59.457,55.81433,58.08883,56.9906a2.809,2.809,0,0,0-2.209-1.2002A1.41814,1.41814,0,0,0,54.416,57.32654c0,2.18408,5.61621,1.728,5.61621,5.28027,0,2.42432-1.55957,3.84033-4.00781,3.84033a4.73006,4.73006,0,0,1-4.5127-3.26416l1.7041-.936c.52832,1.2959,1.46484,2.376,2.80859,2.376a1.72383,1.72383,0,0,0,1.94434-1.896c0-2.25635-5.56836-1.48828-5.56836-5.42432a3.30007,3.30007,0,0,1,3.55176-3.33643A4.0934,4.0934,0,0,1,59.457,55.81433Z" style="fill: #444"/>
        <path d="M61.49605,54.15808h2.08789v-3.624l2.0166-1.27246v4.89648h3.168V55.9823h-3.168v6.64844c0,1.29639.60059,1.99219,1.6084,1.99219a2.27637,2.27637,0,0,0,1.36816-.38379l.47949,1.752a3.90335,3.90335,0,0,1-1.96777.45605c-2.04,0-3.50488-1.248-3.50488-3.98437V55.9823H61.49605Z" style="fill: #444"/>
        <path d="M81.75387,60.63855H72.873c.12012,2.23242,1.22363,3.98438,3.4082,3.98438a3.33479,3.33479,0,0,0,3.36035-2.3042l1.77539.76807a5.12852,5.12852,0,0,1-5.13574,3.36035c-3.67285,0-5.47266-3-5.47266-6.24023s1.7998-6.24072,5.47266-6.24072c3.57617,0,5.47266,2.73633,5.47266,5.73633Zm-8.76074-1.82373h6.64844a3.3456,3.3456,0,0,0-3.36035-3.02441C74.40914,55.79041,73.3525,57.06238,72.99312,58.81482Z" style="fill: #444"/>
        <path d="M91.40133,56.12635a3.1598,3.1598,0,0,0-1.416-.33594c-1.65625,0-3.38477,1.94434-3.38477,5.88037v4.58447h-2.0166V54.15808h2.0166v2.06445a4.28854,4.28854,0,0,1,3.55273-2.25635,3.76432,3.76432,0,0,1,1.65527.35986Z" style="fill: #444"/>
        <path d="M114.63277,57.85437a9.62537,9.62537,0,0,1-1.51172,5.44873l1.63184,1.60791-1.53613,1.53613-1.56055-1.56006a7.238,7.238,0,0,1-4.55957,1.56006c-4.00879,0-7.53711-3-7.53711-8.59277,0-5.59229,3.52832-8.59277,7.53711-8.59277C111.10445,49.2616,114.63277,52.26209,114.63277,57.85437Zm-4.87207,2.06445,1.82422,1.84814a8.14226,8.14226,0,0,0,.86328-3.9126c0-4.39209-2.376-6.57617-5.35156-6.57617-2.97656,0-5.35254,2.18408-5.35254,6.57617,0,4.39258,2.376,6.57666,5.35254,6.57666a4.9712,4.9712,0,0,0,3.0957-.98389L108.22457,61.455Z" style="fill: #444"/>
        <path d="M117.77535,54.15808h2.0166v7.99268c0,1.65625.74414,2.47217,2.08789,2.47217,1.80078,0,3.457-2.04,3.457-5.40039V54.15808h2.01563V66.25525h-2.01562V64.02283a4.5188,4.5188,0,0,1-4.00879,2.42432c-2.208,0-3.55273-1.36816-3.55273-3.76807Z" style="fill: #444"/>
        <path d="M141.36812,60.63855h-8.88086c.12012,2.23242,1.22461,3.98438,3.4082,3.98438a3.33479,3.33479,0,0,0,3.36035-2.3042l1.77637.76807a5.12973,5.12973,0,0,1-5.13672,3.36035c-3.67187,0-5.47266-3-5.47266-6.24023s1.80078-6.24072,5.47266-6.24072c3.57617,0,5.47266,2.73633,5.47266,5.73633Zm-8.76074-1.82373h6.64844a3.34491,3.34491,0,0,0-3.36035-3.02441C134.0234,55.79041,132.96773,57.06238,132.60738,58.81482Z" style="fill: #444"/>
        <path d="M151.3525,55.81433l-1.36816,1.17627a2.809,2.809,0,0,0-2.209-1.2002,1.41814,1.41814,0,0,0-1.46387,1.53613c0,2.18408,5.61621,1.728,5.61621,5.28027,0,2.42432-1.55957,3.84033-4.00781,3.84033a4.73006,4.73006,0,0,1-4.5127-3.26416l1.7041-.936c.52832,1.2959,1.46484,2.376,2.80859,2.376a1.72383,1.72383,0,0,0,1.94434-1.896c0-2.25635-5.56836-1.48828-5.56836-5.42432a3.30007,3.30007,0,0,1,3.55176-3.33643A4.0934,4.0934,0,0,1,151.3525,55.81433Z" style="fill: #444"/>
        <path d="M153.39156,54.15808h2.08789v-3.624l2.0166-1.27246v4.89648h3.168V55.9823h-3.168v6.64844c0,1.29639.60059,1.99219,1.6084,1.99219a2.27637,2.27637,0,0,0,1.36816-.38379l.47949,1.752a3.90335,3.90335,0,0,1-1.96777.45605c-2.04,0-3.50488-1.248-3.50488-3.98437V55.9823h-2.08789Z" style="fill: #444"/>
        <path d="M164.81539,49.2616a1.49708,1.49708,0,0,1,1.5127,1.53613,1.5124,1.5124,0,0,1-3.02441,0A1.49628,1.49628,0,0,1,164.81539,49.2616Zm1.00879,4.89648V66.25525h-2.0166V54.15808Z" style="fill: #444"/>
        <path d="M174.58394,53.96619c3.625,0,5.80859,2.95215,5.80859,6.24072,0,3.28809-2.18359,6.24023-5.80859,6.24023-3.624,0-5.80859-2.95215-5.80859-6.24023C168.77535,56.91834,170.95992,53.96619,174.58394,53.96619Zm0,10.65674c2.47266,0,3.74512-2.18408,3.74512-4.416,0-2.23242-1.27246-4.4165-3.74512-4.4165-2.47168,0-3.74414,2.18408-3.74414,4.4165C170.8398,62.43885,172.11226,64.62293,174.58394,64.62293Z" style="fill: #444"/>
        <path d="M193.06539,66.25525h-2.0166V58.26258c0-1.65625-.74414-2.47217-2.08789-2.47217-1.80078,0-3.457,2.04-3.457,5.40039v5.06445h-2.01562V54.15808h2.01563v2.23242a4.51974,4.51974,0,0,1,4.00879-2.42432c2.208,0,3.55273,1.36816,3.55273,3.76855Z" style="fill: #444"/>
      </g>
      <g>
        <rect x="19.99996" y="409.66397" width="71.38" height="30" rx="4" ry="4" style="fill: #fad46b"/>
        <g>
          <path d="M34.47457,425.09363v4.5H33.164v-10.5h3.63281a3.00154,3.00154,0,1,1,0,6Zm4.06445-3a1.54434,1.54434,0,0,0-1.668-1.73926H34.47457v3.47949h2.39648A1.54465,1.54465,0,0,0,38.539,422.09363Z" style="fill: #414042"/>
          <path d="M41.58,422.03406h1.252v4.99512c0,1.03418.46094,1.54492,1.29492,1.54492,1.11719,0,2.14453-1.27539,2.14453-3.375v-3.165h1.252v7.55957h-1.252V428.1991a2.79994,2.79994,0,0,1-2.48633,1.51465A2.0912,2.0912,0,0,1,41.58,427.35828Z" style="fill: #414042"/>
          <path d="M53.37887,429.71375a2.78524,2.78524,0,0,1-2.18945-1.0498v.92969h-1.251V418.97449h1.251v3.959a2.90049,2.90049,0,0,1,2.18945-1.01953c2.20313,0,3.33594,1.63477,3.33594,3.89941C56.7148,428.079,55.582,429.71375,53.37887,429.71375Zm-.11914-6.66016c-1.37109,0-2.17383,1.14063-2.17383,2.75977,0,1.62012.80273,2.76074,2.17383,2.76074,1.3252,0,2.17383-1.14062,2.17383-2.76074C55.43355,424.19422,54.58492,423.05359,53.25973,423.05359Z" style="fill: #414042"/>
          <path d="M59.875,418.97449v10.61914H58.624V418.97449Z" style="fill: #414042"/>
          <path d="M62.707,418.97449a.932.932,0,0,1,.9375.96.93852.93852,0,0,1-1.877,0A.9324.9324,0,0,1,62.707,418.97449Zm.625,3.05957v7.55957H62.08v-7.55957Z" style="fill: #414042"/>
          <path d="M70.04976,423.06922l-.84863.73438a1.74155,1.74155,0,0,0-1.37109-.75.88374.88374,0,0,0-.9082.96c0,1.36523,3.48535,1.08008,3.48535,3.2998a2.25837,2.25837,0,0,1-2.4873,2.40039,2.93737,2.93737,0,0,1-2.79883-2.04l1.05664-.585a2.02413,2.02413,0,0,0,1.74219,1.48535,1.07393,1.07393,0,0,0,1.207-1.18555c0-1.41016-3.45508-.92969-3.45508-3.38965a2.05333,2.05333,0,0,1,2.20313-2.085A2.53352,2.53352,0,0,1,70.04976,423.06922Z" style="fill: #414042"/>
          <path d="M78.42184,429.59363h-1.25v-4.99512c0-1.03418-.46289-1.54492-1.29687-1.54492-1.10156,0-2.26367,1.24512-2.26367,3.33008v3.21h-1.25V418.97449h1.25v4.46973a2.89238,2.89238,0,0,1,2.60742-1.53027c1.36914,0,2.20313.8252,2.20313,2.42969Z" style="fill: #414042"/>
        </g>
      </g>
      <g>
        <path d="M24.42574,34.25379a1.389,1.389,0,0,0-1.33105-.8877,1.02059,1.02059,0,0,0-1.00781,1.04346c0,.82764.73145,1.17529,1.61914,1.61914.94727.47949,2.00293,1.05518,2.00293,2.41064a2.45382,2.45382,0,0,1-2.51855,2.50635,2.74417,2.74417,0,0,1-2.71094-2.2666l.91211-.55176c.27539.99561.71973,1.811,1.79883,1.811A1.51348,1.51348,0,0,0,24.33,39.45887a1.60234,1.60234,0,0,0,.32324-.99561c0-.81543-.76758-1.24707-1.583-1.63086-1.0918-.51611-2.03906-1.04346-2.03906-2.33887a2.07959,2.07959,0,0,1,2.06348-2.13477A2.21761,2.21761,0,0,1,25.2773,33.702Z" style="fill: #b2c6cd"/>
        <path d="M26.456,32.45447h5.90137v1.00781H29.93453V40.85H28.87887v-7.3877H26.456Z" style="fill: #b2c6cd"/>
        <path d="M38.52437,32.45447v1.00781H34.75875v2.41064h3.0459v1.00732h-3.0459v2.9624h3.88574V40.85H33.70309V32.45447Z" style="fill: #b2c6cd"/>
        <path d="M41.55074,37.25183V40.85H40.49508V32.45447h2.92676a2.40051,2.40051,0,1,1,0,4.79736Zm3.27441-2.39844a1.239,1.239,0,0,0-1.34375-1.39111H41.55074v2.78223h1.93066A1.23922,1.23922,0,0,0,44.82516,34.8534Z" style="fill: #b2c6cd"/>
        <path d="M51.29488,38.41541a1.68676,1.68676,0,1,0,1.667-1.979,1.66648,1.66648,0,0,0-.74414.15576l-.41895-.56348,1.91895-2.61475H50.68258v-.95947h4.55762v.32373l-2.13477,2.89063a1.52367,1.52367,0,0,1,.33594-.03613,2.31919,2.31919,0,0,1,2.23047,2.57861,2.701,2.701,0,0,1-5.38477.33594Z" style="fill: #b2c6cd"/>
      </g>
      <path d="M329.46258,185.42679a6.03312,6.03312,0,0,1,0,6.02336,5.97789,5.97789,0,0,1-2.18285,2.18285,6.03312,6.03312,0,0,1-6.02336,0,5.97236,5.97236,0,0,1-2.184-2.18285,6.04053,6.04053,0,0,1,0-6.02336,5.96378,5.96378,0,0,1,2.184-2.18285,6.03312,6.03312,0,0,1,6.02336,0A5.96929,5.96929,0,0,1,329.46258,185.42679Zm-2.21817,4.777a.48694.48694,0,0,0-.14811-.352l-1.415-1.4127,1.415-1.415a.48253.48253,0,0,0,.14811-.3509.49365.49365,0,0,0-.14811-.36l-.70407-.70293a.48668.48668,0,0,0-.35887-.14811.48062.48062,0,0,0-.352.14811l-1.41384,1.41384-1.41384-1.41384a.47994.47994,0,0,0-.3509-.14811.48922.48922,0,0,0-.36.14811l-.70293.70293a.48922.48922,0,0,0-.14811.36.47811.47811,0,0,0,.14811.3509l1.41384,1.415-1.41384,1.4127a.50057.50057,0,0,0,0,.71091l.70293.70407a.49365.49365,0,0,0,.36.14811.4844.4844,0,0,0,.3509-.14811l1.41384-1.415,1.41384,1.415a.48506.48506,0,0,0,.352.14811.49109.49109,0,0,0,.35887-.14811l.70407-.70407A.49108.49108,0,0,0,327.24441,190.20378Z" style="fill: #889ba8"/>
      <path d="M329.46258,249.42679a6.03312,6.03312,0,0,1,0,6.02336,5.97789,5.97789,0,0,1-2.18285,2.18285,6.03312,6.03312,0,0,1-6.02336,0,5.97236,5.97236,0,0,1-2.184-2.18285,6.04053,6.04053,0,0,1,0-6.02336,5.96378,5.96378,0,0,1,2.184-2.18285,6.03312,6.03312,0,0,1,6.02336,0A5.96929,5.96929,0,0,1,329.46258,249.42679Zm-2.21817,4.777a.48694.48694,0,0,0-.14811-.352l-1.415-1.4127,1.415-1.415a.48253.48253,0,0,0,.14811-.3509.49365.49365,0,0,0-.14811-.36l-.70407-.70293a.48668.48668,0,0,0-.35887-.14811.48062.48062,0,0,0-.352.14811l-1.41384,1.41384-1.41384-1.41384a.47994.47994,0,0,0-.3509-.14811.48922.48922,0,0,0-.36.14811l-.70293.70293a.48922.48922,0,0,0-.14811.36.47811.47811,0,0,0,.14811.3509l1.41384,1.415-1.41384,1.4127a.50057.50057,0,0,0,0,.71091l.70293.70407a.49365.49365,0,0,0,.36.14811.4844.4844,0,0,0,.3509-.14811l1.41384-1.415,1.41384,1.415a.48506.48506,0,0,0,.352.14811.49108.49108,0,0,0,.35887-.14811l.70407-.70407A.49108.49108,0,0,0,327.24441,254.20378Z" style="fill: #889ba8"/>
      <rect x="19.99996" y="317.25585" width="319.4155" height="30" rx="4" ry="4" style="fill: #ee4011"/>
      <g>
        <path d="M38.30367,332.86121a3.50749,3.50749,0,0,1-3.56152,2.75586c-2.11914,0-4.10937-1.54687-4.10937-4.65332,0-3.10742,1.99023-4.6543,4.10938-4.6543a3.50843,3.50843,0,0,1,3.56152,2.75586l-1.10449.3252a2.5235,2.5235,0,0,0-2.457-1.98926c-1.67773,0-2.92578,1.209-2.92578,3.5625,0,2.35254,1.248,3.56152,2.92578,3.56152a2.5235,2.5235,0,0,0,2.457-1.98926Z" style="fill: #fff"/>
        <path d="M42.60641,328.8573a3.38861,3.38861,0,1,1-3.14551,3.37988A3.178,3.178,0,0,1,42.60641,328.8573Zm0,5.77246a2.42471,2.42471,0,1,0-2.02832-2.39258A2.1567,2.1567,0,0,0,42.60641,334.62976Z" style="fill: #fff"/>
        <path d="M47.48141,328.96082h1.0918v4.33008c0,.89648.40332,1.33887,1.13184,1.33887.97461,0,1.87109-1.10547,1.87109-2.92578v-2.74316h1.0918v6.55273h-1.0918v-1.209a2.446,2.446,0,0,1-2.1709,1.3125,1.81706,1.81706,0,0,1-1.92383-2.041Z" style="fill: #fff"/>
        <path d="M60.05269,335.51355H58.9609v-4.3291c0-.89746-.40332-1.33887-1.13086-1.33887-.97559,0-1.873,1.10449-1.873,2.9248v2.74316h-1.0918v-6.55273H55.957v1.21a2.4476,2.4476,0,0,1,2.17188-1.31348,1.818,1.818,0,0,1,1.92383,2.041Z" style="fill: #fff"/>
        <path d="M61.457,328.96082h1.13086v-1.96289l1.0918-.68848v2.65137h1.71582v.98828H63.67965v3.60156c0,.70215.32422,1.0791.87109,1.0791a1.22931,1.22931,0,0,0,.74023-.208l.25977.94922a2.11212,2.11212,0,0,1-1.06543.24609c-1.10449,0-1.89746-.67578-1.89746-2.15723V329.9491H61.457Z" style="fill: #fff"/>
        <path d="M70.93355,330.02723a1.70853,1.70853,0,0,0-.76758-.18164c-.89648,0-1.832,1.05273-1.832,3.18457v2.4834h-1.0918v-6.55273h1.0918V330.079a2.32236,2.32236,0,0,1,1.92383-1.22168,2.03474,2.03474,0,0,1,.89648.19531Z" style="fill: #fff"/>
        <path d="M77.69332,328.96082l-3.25,9.20508H73.32613l1.03906-2.92578-2.30078-6.2793H73.2607l1.66406,4.73242,1.625-4.73242Z" style="fill: #fff"/>
      </g>
      <path d="M329.53856,330.21l-4.96875,4.96216a.42154.42154,0,0,1-.60352,0L318.99754,330.21a.4291.4291,0,0,1,0-.60937l1.1123-1.105a.42038.42038,0,0,1,.60254,0l3.55566,3.55591,3.55566-3.55591a.42038.42038,0,0,1,.60254,0l1.1123,1.105a.4291.4291,0,0,1,0,.60938Z" style="fill: #fff"/>
      <g>
        <rect x="19.99996" y="357.25585" width="319.4155" height="30" rx="4" ry="4" style="fill: #ee4011"/>
        <g>
          <path d="M34.71578,368.36316a1.50581,1.50581,0,0,0-1.44336-.96191,1.10654,1.10654,0,0,0-1.0918,1.13086c0,.89746.793,1.27441,1.75488,1.75488,1.02734.52051,2.17188,1.14453,2.17188,2.61328a2.66119,2.66119,0,0,1-2.73047,2.7168,2.974,2.974,0,0,1-2.93848-2.457l.9873-.59766c.2998,1.0791.78125,1.96289,1.95117,1.96289a1.635,1.635,0,0,0,1.23438-.51953,1.73475,1.73475,0,0,0,.35156-1.0791c0-.88379-.832-1.35254-1.7168-1.76855-1.18262-.55859-2.209-1.13086-2.209-2.53516a2.253,2.253,0,0,1,2.23535-2.31348,2.40178,2.40178,0,0,1,2.36621,1.45605Z" style="fill: #fff"/>
          <path d="M40.7607,375.61707a2.53562,2.53562,0,0,1-1.91113-.88379v3.43262h-1.0918v-9.20508h1.0918v.80664a2.43587,2.43587,0,0,1,1.91113-.91016c1.92383,0,2.91211,1.417,2.91211,3.37988S42.68453,375.61707,40.7607,375.61707Zm-.10449-5.77148c-1.19531,0-1.89746.98828-1.89746,2.3916,0,1.4043.70215,2.39258,1.89746,2.39258,1.1582,0,1.89844-.98828,1.89844-2.39258C42.55465,370.83387,41.81441,369.84558,40.65621,369.84558Z" style="fill: #fff"/>
          <path d="M50.86129,372.47156H46.05074c.06641,1.209.66406,2.1582,1.84668,2.1582a1.80751,1.80751,0,0,0,1.82031-1.248l.96191.416a2.77867,2.77867,0,0,1-2.78223,1.81934c-1.98926,0-2.96387-1.625-2.96387-3.37988s.97461-3.37988,2.96387-3.37988a2.90819,2.90819,0,0,1,2.96387,3.10742Zm-4.74414-.98828h3.60059a1.81215,1.81215,0,0,0-1.82031-1.6377A1.7904,1.7904,0,0,0,46.11715,371.48328Z" style="fill: #fff"/>
          <path d="M58.1025,373.81043a2.72148,2.72148,0,0,1-2.74316,1.80664c-2.002,0-2.97656-1.625-2.97656-3.37988s.97461-3.37988,2.97656-3.37988a2.72148,2.72148,0,0,1,2.74316,1.80664l-.94922.39063a1.79038,1.79038,0,0,0-1.79395-1.209c-1.27344,0-1.85937,1.0791-1.85937,2.3916,0,1.31348.58594,2.39258,1.85938,2.39258a1.79038,1.79038,0,0,0,1.79395-1.209Z" style="fill: #fff"/>
          <path d="M60.36422,366.30945a.81113.81113,0,0,1,.81934.832.81945.81945,0,0,1-1.63867,0A.81113.81113,0,0,1,60.36422,366.30945Zm.5459,2.65137v6.55273h-1.0918v-6.55273Z" style="fill: #fff"/>
          <path d="M67.89059,375.51355h-.85742l-.18164-.92285a2.37775,2.37775,0,0,1-2.05469,1.02637,1.85,1.85,0,0,1-2.02734-1.98828c0-1.4043,1.16992-2.14551,2.96289-2.14551h1.06641v-.28613c0-1.01367-.63672-1.35156-1.42969-1.35156a1.31554,1.31554,0,0,0-1.36523,1.02637l-.96191-.2207a2.1794,2.1794,0,0,1,2.32715-1.79395,2.26313,2.26313,0,0,1,2.52148,2.46973Zm-2.92383-.88379a1.79619,1.79619,0,0,0,1.832-2.002v-.15625H65.62887c-1.11719,0-1.74219.416-1.74219,1.15723A.95315.95315,0,0,0,64.96676,374.62976Z" style="fill: #fff"/>
          <path d="M70.95894,366.30945v9.2041h-1.0918v-9.2041Z" style="fill: #fff"/>
          <path d="M72.67574,368.96082H73.8066v-1.96289l1.0918-.68848v2.65137h1.71582v.98828H74.8984v3.60156c0,.70215.32422,1.0791.87109,1.0791a1.22931,1.22931,0,0,0,.74023-.208l.25977.94922a2.11212,2.11212,0,0,1-1.06543.24609c-1.10449,0-1.89746-.67578-1.89746-2.15723V369.9491H72.67574Z" style="fill: #fff"/>
          <path d="M83.29684,368.96082l-3.25,9.20508H78.92769l1.041-2.92578-2.30176-6.2793h1.19629l1.66406,4.73242,1.625-4.73242Z" style="fill: #fff"/>
        </g>
        <path d="M329.53856,370.21l-4.96875,4.96216a.42154.42154,0,0,1-.60352,0L318.99754,370.21a.4291.4291,0,0,1,0-.60937l1.1123-1.105a.42038.42038,0,0,1,.60254,0l3.55566,3.55591,3.55566-3.55591a.42038.42038,0,0,1,.60254,0l1.1123,1.105a.4291.4291,0,0,1,0,.60938Z" style="fill: #fff"/>
      </g>
    </g>
  </g>
</svg>
