<?xml version="1.0" encoding="utf-8"?>
<!-- Generator: Adobe Illustrator 21.1.0, SVG Export Plug-In . SVG Version: 6.00 Build 0)  -->
<svg version="1.1" id="Layer_1" xmlns="http://www.w3.org/2000/svg" xmlns:xlink="http://www.w3.org/1999/xlink" x="0px" y="0px"
	 viewBox="0 0 1053 690.5" style="enable-background:new 0 0 1053 690.5;" xml:space="preserve">
<style type="text/css">
	.st0{opacity:0.5;fill:#F6F6F6;stroke:#BAC4CC;stroke-miterlimit:10;enable-background:new    ;}
	.st1{opacity:0.5;fill:#CBF0FE;stroke:#BAC4CC;stroke-miterlimit:10;enable-background:new    ;}
	.st2{enable-background:new    ;}
	.st3{fill:#414042;}
	.st4{fill:#FAD46B;}
	.st5{fill:#0084D8;}
	.st6{fill:#FFFFFF;}
	.st7{fill:#FFFFFF;stroke:#CCCCCC;stroke-miterlimit:10;}
	.st8{fill:#9E9F9F;}
	.st9{fill:#EE4011;}
	.st10{opacity:0.8;}
	.st11{fill:#FFFFFF;stroke:#C2C2C2;stroke-miterlimit:10;}
	.st12{fill:#444444;}
	.st13{font-family:'Apercu-Regular';}
	.st14{font-size:32px;}
	.st15{fill:#BAC4CC;}
	.st16{font-size:15px;}
	.st17{fill:#5E696D;}
	.st18{font-size:11px;}
	.st19{font-size:12px;}
	.st20{fill:#EBF8FC;}
	.st21{fill:url(#SVGID_1_);}
</style>
<symbol  id="Create_Attribute" viewBox="-152.7 -84.9 305.4 169.8">
	<path class="st0" d="M-152.2-54h304.4l0,0V80.4c0,2.2-1.8,4-4,4h-296.4c-2.2,0-4-1.8-4-4V-54L-152.2-54z"/>
	<path class="st1" d="M-148.2-84.4h296.4c2.2,0,4,1.8,4,4V-54l0,0h-304.4l0,0v-26.4C-152.2-82.6-150.4-84.4-148.2-84.4z"/>
	<text transform="matrix(1 0 0 1 -136.2051 -64.1016)" class="st3 st16" style="font-family:'Apercu-Bold';">C</text>
	<text transform="matrix(1 0 0 1 -125.7051 -64.1016)" class="st3 st16" style="font-family:'Apercu-Bold';">r</text>
	<text transform="matrix(1 0 0 1 -119.3447 -64.1016)" class="st3 st16" style="font-family:'Apercu-Bold';">e</text>
	<text transform="matrix(1 0 0 1 -110.8408 -64.1016)" class="st3 st16" style="font-family:'Apercu-Bold';">a</text>
	<text transform="matrix(1 0 0 1 -103.041 -64.1016)" class="st3 st16" style="font-family:'Apercu-Bold';">t</text>
	<text transform="matrix(1 0 0 1 -97.2354 -64.1016)" class="st3 st16" style="font-family:'Apercu-Bold';">e A</text>
	<text transform="matrix(1 0 0 1 -75.9658 -64.1016)" class="st3 st16" style="font-family:'Apercu-Bold';">t</text>
	<text transform="matrix(1 0 0 1 -69.8457 -64.1016)" class="st3 st16" style="font-family:'Apercu-Bold';">t</text>
	<text transform="matrix(1 0 0 1 -63.9658 -64.1016)" class="st3 st16" style="font-family:'Apercu-Bold';">r</text>
	<text transform="matrix(1 0 0 1 -57.3809 -64.1016)" class="st3 st16" style="font-family:'Apercu-Bold';">i</text>
	<text transform="matrix(1 0 0 1 -53.7959 -64.1016)" class="st3 st16" style="font-family:'Apercu-Bold';">b</text>
	<text transform="matrix(1 0 0 1 -44.8555 -64.1016)" class="st3 st16" style="font-family:'Apercu-Bold';">u</text>
	<text transform="matrix(1 0 0 1 -36.0811 -64.1016)" class="st3 st16" style="font-family:'Apercu-Bold';">t</text>
	<text transform="matrix(1 0 0 1 -30.2754 -64.1016)" class="st3 st16" style="font-family:'Apercu-Bold';">e</text>
	<g>
		<path class="st4" d="M-134.2,46h66c1.1,0,2,0.9,2,2v14c0,1.1-0.9,2-2,2h-66c-1.1,0-2-0.9-2-2V48C-136.2,46.9-135.3,46-134.2,46z"
			/>
		<text transform="matrix(1 0 0 1 -128.7363 57.7793)" class="st3 st13" style="font-size:9px;">A</text>
		<text transform="matrix(1 0 0 1 -123.4717 57.7793)" class="st3 st13" style="font-size:9px;">d</text>
		<text transform="matrix(1 0 0 1 -118.2061 57.7793)" class="st3 st13" style="font-size:9px;">d A</text>
		<text transform="matrix(1 0 0 1 -105.1387 57.7793)" class="st3 st13" style="font-size:9px;">t</text>
		<text transform="matrix(1 0 0 1 -101.6914 57.7793)" class="st3 st13" style="font-size:9px;">t</text>
		<text transform="matrix(1 0 0 1 -98.3164 57.7793)" class="st3 st13" style="font-size:9px;">r</text>
		<text transform="matrix(1 0 0 1 -94.7168 57.7793)" class="st3 st13" style="font-size:9px;">i</text>
		<text transform="matrix(1 0 0 1 -92.4932 57.7793)" class="st3 st13" style="font-size:9px;">b</text>
		<text transform="matrix(1 0 0 1 -87.1748 57.7793)" class="st3 st13" style="font-size:9px;">u</text>
		<text transform="matrix(1 0 0 1 -81.9814 57.7793)" class="st3 st13" style="font-size:9px;">t</text>
		<text transform="matrix(1 0 0 1 -78.6875 57.7793)" class="st3 st13" style="font-size:9px;">e</text>
	</g>
	<path class="st5" d="M-132.2,6h261c2.2,0,4,1.8,4,4v22c0,2.2-1.8,4-4,4h-261c-2.2,0-4-1.8-4-4V10C-136.2,7.8-134.4,6-132.2,6z"/>
	<text transform="matrix(1 0 0 1 -126.2866 24.2461)" class="st6 st13" style="font-size:13px;">C</text>
	<text transform="matrix(1 0 0 1 -117.3428 24.2461)" class="st6 st13" style="font-size:13px;">h</text>
	<text transform="matrix(1 0 0 1 -109.9067 24.2461)" class="st6 st13" style="font-size:13px;">o</text>
	<text transform="matrix(1 0 0 1 -102.2368 24.2461)" class="st6 st13" style="font-size:13px;">o</text>
	<text transform="matrix(1 0 0 1 -94.6577 24.2461)" class="st6 st13" style="font-size:13px;">s</text>
	<text transform="matrix(1 0 0 1 -88.7036 24.2461)" class="st6 st13" style="font-size:13px;">e </text>
	<text transform="matrix(1 0 0 1 -77.9399 24.2461)" class="st6 st13" style="font-size:13px;">P</text>
	<text transform="matrix(1 0 0 1 -70.5688 24.2461)" class="st6 st13" style="font-size:13px;">a</text>
	<text transform="matrix(1 0 0 1 -64.0688 24.2461)" class="st6 st13" style="font-size:13px;">r</text>
	<text transform="matrix(1 0 0 1 -58.9595 24.2461)" class="st6 st13" style="font-size:13px;">e</text>
	<text transform="matrix(1 0 0 1 -51.6538 24.2461)" class="st6 st13" style="font-size:13px;">n</text>
	<text transform="matrix(1 0 0 1 -44.1914 24.2461)" class="st6 st13" style="font-size:13px;">t </text>
	<text transform="matrix(1 0 0 1 -35.7939 24.2461)" class="st6 st13" style="font-size:13px;">G</text>
	<text transform="matrix(1 0 0 1 -26.707 24.2461)" class="st6 st13" style="font-size:13px;">r</text>
	<text transform="matrix(1 0 0 1 -21.5981 24.2461)" class="st6 st13" style="font-size:13px;">o</text>
	<text transform="matrix(1 0 0 1 -13.9927 24.2461)" class="st6 st13" style="font-size:13px;">u</text>
	<text transform="matrix(1 0 0 1 -6.7129 24.2461)" class="st6 st13" style="font-size:13px;">p</text>
	<path class="st6" d="M122.9,18.9l-5,5c-0.2,0.2-0.4,0.2-0.6,0l0,0l-5-5c-0.2-0.2-0.2-0.4,0-0.6l0,0l1.1-1.1c0.2-0.2,0.4-0.2,0.6,0
		l0,0l3.6,3.6l3.6-3.6c0.2-0.2,0.4-0.2,0.6,0l0,0l1.1,1.1C123.1,18.5,123.1,18.8,122.9,18.9L122.9,18.9L122.9,18.9z"/>
	<path class="st7" d="M-132.2-34h261c2.2,0,4,1.8,4,4v22c0,2.2-1.8,4-4,4h-261c-2.2,0-4-1.8-4-4v-22C-136.2-32.2-134.4-34-132.2-34z
		"/>
	<text transform="matrix(1 0 0 1 -126.873 -15.0098)" class="st8 st13" style="font-size:13px;">A</text>
	<text transform="matrix(1 0 0 1 -119.1772 -15.0098)" class="st8 st13" style="font-size:13px;">t</text>
	<text transform="matrix(1 0 0 1 -114.1592 -15.0098)" class="st8 st13" style="font-size:13px;">t</text>
	<text transform="matrix(1 0 0 1 -109.2456 -15.0098)" class="st8 st13" style="font-size:13px;">r</text>
	<text transform="matrix(1 0 0 1 -104.0063 -15.0098)" class="st8 st13" style="font-size:13px;">i</text>
	<text transform="matrix(1 0 0 1 -100.7563 -15.0098)" class="st8 st13" style="font-size:13px;">b</text>
	<text transform="matrix(1 0 0 1 -93.0342 -15.0098)" class="st8 st13" style="font-size:13px;">u</text>
	<text transform="matrix(1 0 0 1 -85.4946 -15.0098)" class="st8 st13" style="font-size:13px;">t</text>
	<text transform="matrix(1 0 0 1 -80.6973 -15.0098)" class="st8 st13" style="font-size:13px;">e </text>
	<text transform="matrix(1 0 0 1 -69.9336 -15.0098)" class="st8 st13" style="font-size:13px;">Na</text>
	<text transform="matrix(1 0 0 1 -54.4243 -15.0098)" class="st8 st13" style="font-size:13px;">m</text>
	<text transform="matrix(1 0 0 1 -43.3613 -15.0098)" class="st8 st13" style="font-size:13px;">e</text>
</symbol>
<symbol  id="Create_Group" viewBox="-152.7 -64.7 305.4 129.4">
	<path class="st0" d="M-152.2-33.8h304.4l0,0v94c0,2.2-1.8,4-4,4h-296.4c-2.2,0-4-1.8-4-4V-33.8L-152.2-33.8z"/>
	<path class="st1" d="M-148.2-64.2h296.4c2.2,0,4,1.8,4,4v26.4l0,0h-304.4l0,0v-26.4C-152.2-62.4-150.4-64.2-148.2-64.2z"/>
	<path class="st7" d="M-133.2-13.8h258.9c1.7,0,3,1.3,3,3v24c0,1.7-1.3,3-3,3h-258.9c-1.7,0-3-1.3-3-3v-24
		C-136.2-12.4-134.9-13.8-133.2-13.8z"/>
	<text transform="matrix(1 0 0 1 -126.873 5.2148)" class="st8 st13" style="font-size:13px;">G</text>
	<text transform="matrix(1 0 0 1 -117.7861 5.2148)" class="st8 st13" style="font-size:13px;">r</text>
	<text transform="matrix(1 0 0 1 -112.6772 5.2148)" class="st8 st13" style="font-size:13px;">o</text>
	<text transform="matrix(1 0 0 1 -105.0723 5.2148)" class="st8 st13" style="font-size:13px;">u</text>
	<text transform="matrix(1 0 0 1 -97.792 5.2148)" class="st8 st13" style="font-size:13px;">p </text>
	<text transform="matrix(1 0 0 1 -86.4951 5.2148)" class="st8 st13" style="font-size:13px;">Na</text>
	<text transform="matrix(1 0 0 1 -70.9863 5.2148)" class="st8 st13" style="font-size:13px;">m</text>
	<text transform="matrix(1 0 0 1 -59.9229 5.2148)" class="st8 st13" style="font-size:13px;">e</text>
	<text transform="matrix(1 0 0 1 -136.2051 -43.8789)" class="st3 st16" style="font-family:'Apercu-Bold';">C</text>
	<text transform="matrix(1 0 0 1 -125.7051 -43.8789)" class="st3 st16" style="font-family:'Apercu-Bold';">r</text>
	<text transform="matrix(1 0 0 1 -119.3447 -43.8789)" class="st3 st16" style="font-family:'Apercu-Bold';">e</text>
	<text transform="matrix(1 0 0 1 -110.8408 -43.8789)" class="st3 st16" style="font-family:'Apercu-Bold';">a</text>
	<text transform="matrix(1 0 0 1 -103.041 -43.8789)" class="st3 st16" style="font-family:'Apercu-Bold';">t</text>
	<text transform="matrix(1 0 0 1 -97.2354 -43.8789)" class="st3 st16" style="font-family:'Apercu-Bold';">e </text>
	<text transform="matrix(1 0 0 1 -85.1758 -43.8789)" class="st3 st16" style="font-family:'Apercu-Bold';">G</text>
	<text transform="matrix(1 0 0 1 -74.3457 -43.8789)" class="st3 st16" style="font-family:'Apercu-Bold';">r</text>
	<text transform="matrix(1 0 0 1 -67.9854 -43.8789)" class="st3 st16" style="font-family:'Apercu-Bold';">o</text>
	<text transform="matrix(1 0 0 1 -59.0605 -43.8789)" class="st3 st16" style="font-family:'Apercu-Bold';">u</text>
	<text transform="matrix(1 0 0 1 -50.6006 -43.8789)" class="st3 st16" style="font-family:'Apercu-Bold';">p</text>
	<g>
		<path class="st4" d="M-134.2,26.2h50c1.1,0,2,0.9,2,2v14c0,1.1-0.9,2-2,2h-50c-1.1,0-2-0.9-2-2v-14
			C-136.2,27.1-135.3,26.2-134.2,26.2z"/>
		<text transform="matrix(1 0 0 1 -131.0566 38.002)" class="st3 st13" style="font-size:9px;">A</text>
		<text transform="matrix(1 0 0 1 -125.792 38.002)" class="st3 st13" style="font-size:9px;">d</text>
		<text transform="matrix(1 0 0 1 -120.5264 38.002)" class="st3 st13" style="font-size:9px;">d </text>
		<text transform="matrix(1 0 0 1 -112.7598 38.002)" class="st3 st13" style="font-size:9px;">G</text>
		<text transform="matrix(1 0 0 1 -106.4961 38.002)" class="st3 st13" style="font-size:9px;">r</text>
		<text transform="matrix(1 0 0 1 -102.9854 38.002)" class="st3 st13" style="font-size:9px;">o</text>
		<text transform="matrix(1 0 0 1 -97.748 38.002)" class="st3 st13" style="font-size:9px;">u</text>
		<text transform="matrix(1 0 0 1 -92.7344 38.002)" class="st3 st13" style="font-size:9px;">p</text>
	</g>
</symbol>
<symbol  id="nav-groups" viewBox="-526 -57.5 1052 115">
	<rect x="-526" y="-57.5" class="st9" width="1052" height="115"/>
	<g class="st10">
		<text transform="matrix(1 0 0 1 19.5361 4.9727)" class="st6 st13 st16">Q</text>
		<text transform="matrix(1 0 0 1 30.4858 4.9727)" class="st6 st13 st16">U</text>
		<text transform="matrix(1 0 0 1 39.9209 4.9727)" class="st6 st13 st16">E</text>
		<text transform="matrix(1 0 0 1 48.2461 4.9727)" class="st6 st13 st16">S</text>
		<text transform="matrix(1 0 0 1 56.0464 4.9727)" class="st6 st13 st16">T</text>
		<text transform="matrix(1 0 0 1 63.9062 4.9727)" class="st6 st13 st16">I</text>
		<text transform="matrix(1 0 0 1 68.061 4.9727)" class="st6 st13 st16">O</text>
		<text transform="matrix(1 0 0 1 78.8013 4.9727)" class="st6 st13 st16">N</text>
		<text transform="matrix(1 0 0 1 89.2412 4.9727)" class="st6 st13 st16">S</text>
	</g>
	<text transform="matrix(1 0 0 1 131.4985 4.9727)" class="st6 st13 st16">G</text>
	<text transform="matrix(1 0 0 1 142.0435 4.9727)" class="st6 st13 st16">R</text>
	<text transform="matrix(1 0 0 1 150.9087 4.9727)" class="st6 st13 st16">O</text>
	<text transform="matrix(1 0 0 1 161.8584 4.9727)" class="st6 st13 st16">U</text>
	<text transform="matrix(1 0 0 1 171.2935 4.9727)" class="st6 st13 st16">PS</text>
	<g class="st10">
		<text transform="matrix(1 0 0 1 219.7031 4.9727)" class="st6 st13 st16">S</text>
		<text transform="matrix(1 0 0 1 227.293 4.9727)" class="st6 st13 st16">I</text>
		<text transform="matrix(1 0 0 1 231.4482 4.9727)" class="st6 st13 st16">G</text>
		<text transform="matrix(1 0 0 1 241.9932 4.9727)" class="st6 st13 st16">N </text>
		<text transform="matrix(1 0 0 1 256.5278 4.9727)" class="st6 st13 st16">O</text>
		<text transform="matrix(1 0 0 1 267.478 4.9727)" class="st6 st13 st16">U</text>
		<text transform="matrix(1 0 0 1 277.4375 4.9727)" class="st6 st13 st16">T</text>
	</g>
	<g>
		<path class="st4" d="M332.6-14.9H476c2.2,0,4,1.8,4,4v21.8c0,2.2-1.8,4-4,4H332.6c-2.2,0-4-1.8-4-4v-21.8
			C328.6-13.1,330.4-14.9,332.6-14.9z"/>
		<text transform="matrix(1 0 0 1 341.7222 4.8965)" class="st3 st13 st16">C</text>
		<text transform="matrix(1 0 0 1 351.877 4.8965)" class="st3 st13 st16">R</text>
		<text transform="matrix(1 0 0 1 360.7271 4.8965)" class="st3 st13 st16">E</text>
		<text transform="matrix(1 0 0 1 369.397 4.8965)" class="st3 st13 st16">A</text>
		<text transform="matrix(1 0 0 1 377.2422 4.8965)" class="st3 st13 st16">T</text>
		<text transform="matrix(1 0 0 1 385.0566 4.8965)" class="st3 st13 st16">E </text>
		<text transform="matrix(1 0 0 1 397.4766 4.8965)" class="st3 st13 st16">Q</text>
		<text transform="matrix(1 0 0 1 408.3813 4.8965)" class="st3 st13 st16">U</text>
		<text transform="matrix(1 0 0 1 417.7715 4.8965)" class="st3 st13 st16">E</text>
		<text transform="matrix(1 0 0 1 426.0518 4.8965)" class="st3 st13 st16">S</text>
		<text transform="matrix(1 0 0 1 433.8066 4.8965)" class="st3 st13 st16">T</text>
		<text transform="matrix(1 0 0 1 441.6216 4.8965)" class="st3 st13 st16">I</text>
		<text transform="matrix(1 0 0 1 445.7314 4.8965)" class="st3 st13 st16">O</text>
		<text transform="matrix(1 0 0 1 456.4268 4.8965)" class="st3 st13 st16">N</text>
	</g>
	<g>
		<path class="st6" d="M-438.7,1.1c0,2.1-1.3,4-3,4s-2.4-1-2.4-2.9v-9h-5.4v9c0,4.3,1.7,7.2,6,7.2c1.9,0,3.7-0.8,4.9-2.3V9h5.4V-6.9
			h-5.4v8H-438.7z"/>
		<path class="st6" d="M-426.1-15.5c-1.7,0-3.2,1.4-3.2,3.2s1.4,3.2,3.2,3.2s3.2-1.4,3.2-3.2S-424.3-15.5-426.1-15.5L-426.1-15.5z"
			/>
		<rect x="-428.8" y="-6.9" class="st6" width="5.4" height="15.9"/>
		<polygon class="st6" points="-404.2,-6.9 -420.1,-6.9 -420.1,-2.8 -412.5,-2.8 -420.9,9 -404.2,9 -404.2,4.7 -411.9,4.7 		"/>
		<polygon class="st6" points="-386.1,-6.9 -402,-6.9 -402,-2.8 -394.4,-2.8 -402.7,9 -386,9 -386,4.7 -393.7,4.7 		"/>
		<rect x="-383.3" y="-18" class="st6" width="5.4" height="27"/>
		<polygon class="st6" points="-363.1,-6.9 -366.9,4.5 -370.7,-6.9 -376.1,-6.9 -370.1,9 -369.2,9 -372.8,18 -367.2,18 -363.7,9 
			-357.7,-6.9 		"/>
		<path class="st6" d="M-455.8,4.7c1.9-2.2,2.9-5,3-8c0-7-5.6-12.6-12.6-12.6S-478-10.3-478-3.3c0,6.4,4.8,11.8,11.2,12.5v0.1h15.5
			V4.7H-455.8z M-472.6-3.3c0-4,3.3-7.2,7.2-7.2s7.2,3.3,7.2,7.2c0,4-3.2,7.2-7.2,7.2C-469.3,3.8-472.5,0.7-472.6-3.3z"/>
	</g>
</symbol>
<title>Asset 1</title>
<rect x="0.5" y="0.5" class="st11" width="1052" height="688"/>
<use xlink:href="#Create_Group"  width="305.4" height="129.4" x="-152.7" y="-64.7" transform="matrix(1 0 0 1 855.5325 275.7124)" style="overflow:visible;"/>
<use xlink:href="#Create_Attribute"  width="305.4" height="169.8" id="Create_Attribute-3" x="-152.7" y="-84.9" transform="matrix(1 0 0 1 855.5325 445.4691)" style="overflow:visible;"/>
<text transform="matrix(1 0 0 1 46.3277 175.2386)" class="st12 st13 st14">G</text>
<text transform="matrix(1 0 0 1 68.3755 175.2386)" class="st12 st13 st14">r</text>
<text transform="matrix(1 0 0 1 80.6314 175.2386)" class="st12 st13 st14">o</text>
<text transform="matrix(1 0 0 1 99.0318 175.2386)" class="st12 st13 st14">u</text>
<text transform="matrix(1 0 0 1 116.6319 175.2386)" class="st12 st13 st14">p</text>
<text transform="matrix(1 0 0 1 135.2559 175.2386)" class="st12 st13 st14">s</text>
<use xlink:href="#nav-groups"  width="1052" height="115" id="nav-groups-3" x="-526" y="-57.5" transform="matrix(1 0 0 1 526.5 57.9999)" style="overflow:visible;"/>
<rect x="46.3" y="263.5" class="st15" width="632" height="1"/>
<rect x="46.3" y="211.5" class="st15" width="632" height="1"/>
<text transform="matrix(1 0 0 1 72.6291 233.5389)" class="st12 st13 st16">C</text>
<text transform="matrix(1 0 0 1 82.6789 233.5389)" class="st12 st13 st16">o</text>
<text transform="matrix(1 0 0 1 91.3039 233.5389)" class="st12 st13 st16">n</text>
<text transform="matrix(1 0 0 1 99.6291 233.5389)" class="st12 st13 st16">d</text>
<text transform="matrix(1 0 0 1 108.134 233.5389)" class="st12 st13 st16">i</text>
<text transform="matrix(1 0 0 1 111.9894 233.5389)" class="st12 st13 st16">t</text>
<text transform="matrix(1 0 0 1 117.4787 233.5389)" class="st12 st13 st16">i</text>
<text transform="matrix(1 0 0 1 121.1691 233.5389)" class="st12 st13 st16">o</text>
<text transform="matrix(1 0 0 1 129.7941 233.5389)" class="st12 st13 st16">n</text>
<text transform="matrix(1 0 0 1 138.0295 233.5389)" class="st12 st13 st16">s </text>
<text transform="matrix(1 0 0 1 148.6642 233.5389)" class="st8 st13 st16">(</text>
<text transform="matrix(1 0 0 1 152.8937 233.5389)" class="st8 st13 st16">1</text>
<text transform="matrix(1 0 0 1 158.5783 233.5389)" class="st8 st13 st16">7)</text>
<polygon class="st17" points="63.7,228.5 58.4,233.9 56.5,232 60,228.5 56.5,225.1 58.4,223.2 "/>
<text transform="matrix(1 0 0 1 72.6294 250.1962)" class="st5 st13 st18">R</text>
<text transform="matrix(1 0 0 1 79.3281 250.1962)" class="st5 st13 st18">e</text>
<text transform="matrix(1 0 0 1 85.4223 250.1962)" class="st5 st13 st18">s</text>
<text transform="matrix(1 0 0 1 90.3725 250.1962)" class="st5 st13 st18">u</text>
<text transform="matrix(1 0 0 1 96.4882 250.1962)" class="st5 st13 st18">l</text>
<text transform="matrix(1 0 0 1 99.5795 250.1962)" class="st5 st13 st18">t</text>
<text transform="matrix(1 0 0 1 103.7045 250.1962)" class="st5 st13 st18">s</text>
<text transform="matrix(1 0 0 1 108.7753 250.1962)" class="st12 st13 st18"> </text>
<text transform="matrix(1 0 0 1 111.7231 250.1962)" class="st12 st13 st19">|</text>
<text transform="matrix(1 0 0 1 115.0112 250.1962)" class="st12 st13 st18"> </text>
<text transform="matrix(1 0 0 1 117.9589 250.1962)" class="st5 st13 st18">V</text>
<text transform="matrix(1 0 0 1 124.2729 250.1962)" class="st5 st13 st18">i</text>
<text transform="matrix(1 0 0 1 127.0888 250.1962)" class="st5 st13 st18">e</text>
<text transform="matrix(1 0 0 1 133.1499 250.1962)" class="st5 st13 st18">w Q</text>
<text transform="matrix(1 0 0 1 152.3339 250.1962)" class="st5 st13 st18">u</text>
<text transform="matrix(1 0 0 1 158.5927 250.1962)" class="st5 st13 st18">e</text>
<text transform="matrix(1 0 0 1 164.687 250.1962)" class="st5 st13 st18">s</text>
<text transform="matrix(1 0 0 1 169.6586 250.1962)" class="st5 st13 st18">t</text>
<text transform="matrix(1 0 0 1 173.7949 250.1962)" class="st5 st13 st18">i</text>
<text transform="matrix(1 0 0 1 176.6108 250.1962)" class="st5 st13 st18">o</text>
<text transform="matrix(1 0 0 1 183.0459 250.1962)" class="st5 st13 st18">n</text>
<text transform="matrix(1 0 0 1 189.1948 250.1962)" class="st5 st13 st18">s</text>
<rect x="46.3" y="264.5" class="st20" width="632" height="51"/>
<rect x="46.3" y="315.5" class="st15" width="632" height="1"/>
<rect x="46.3" y="263.5" class="st15" width="632" height="1"/>
<text transform="matrix(1 0 0 1 72.6291 285.5391)" class="st12 st13 st16">P</text>
<text transform="matrix(1 0 0 1 81.1496 285.5391)" class="st12 st13 st16">r</text>
<text transform="matrix(1 0 0 1 87.0295 285.5391)" class="st12 st13 st16">a</text>
<text transform="matrix(1 0 0 1 94.7687 285.5391)" class="st12 st13 st16">c</text>
<text transform="matrix(1 0 0 1 102.9142 285.5391)" class="st12 st13 st16">t</text>
<text transform="matrix(1 0 0 1 108.4035 285.5391)" class="st12 st13 st16">i</text>
<text transform="matrix(1 0 0 1 112.0939 285.5391)" class="st12 st13 st16">c</text>
<text transform="matrix(1 0 0 1 120.0734 285.5391)" class="st12 st13 st16">e S</text>
<text transform="matrix(1 0 0 1 139.8888 285.5391)" class="st12 st13 st16">e</text>
<text transform="matrix(1 0 0 1 148.2287 285.5391)" class="st12 st13 st16">t</text>
<text transform="matrix(1 0 0 1 153.8683 285.5391)" class="st12 st13 st16">t</text>
<text transform="matrix(1 0 0 1 159.3576 285.5391)" class="st12 st13 st16">i</text>
<text transform="matrix(1 0 0 1 162.7326 285.5391)" class="st12 st13 st16">n</text>
<text transform="matrix(1 0 0 1 171.0431 285.5391)" class="st12 st13 st16">g </text>
<text transform="matrix(1 0 0 1 182.3674 285.5391)" class="st8 st13 st16">(4)</text>
<polygon class="st17" points="60.1,284.1 54.8,278.8 56.6,276.9 60.1,280.4 63.6,276.9 65.4,278.8 "/>
<text transform="matrix(1 0 0 1 72.6294 302.1963)" class="st5 st13 st18">R</text>
<text transform="matrix(1 0 0 1 79.3281 302.1963)" class="st5 st13 st18">e</text>
<text transform="matrix(1 0 0 1 85.4223 302.1963)" class="st5 st13 st18">s</text>
<text transform="matrix(1 0 0 1 90.3725 302.1963)" class="st5 st13 st18">u</text>
<text transform="matrix(1 0 0 1 96.4882 302.1963)" class="st5 st13 st18">l</text>
<text transform="matrix(1 0 0 1 99.5795 302.1963)" class="st5 st13 st18">t</text>
<text transform="matrix(1 0 0 1 103.7045 302.1963)" class="st5 st13 st18">s</text>
<text transform="matrix(1 0 0 1 108.7753 302.1963)" class="st12 st13 st18"> </text>
<text transform="matrix(1 0 0 1 111.7231 302.1963)" class="st12 st13 st19">|</text>
<text transform="matrix(1 0 0 1 115.0112 302.1963)" class="st12 st13 st18"> </text>
<text transform="matrix(1 0 0 1 117.9589 302.1963)" class="st5 st13 st18">V</text>
<text transform="matrix(1 0 0 1 124.2729 302.1963)" class="st5 st13 st18">i</text>
<text transform="matrix(1 0 0 1 127.0888 302.1963)" class="st5 st13 st18">e</text>
<text transform="matrix(1 0 0 1 133.1499 302.1963)" class="st5 st13 st18">w Q</text>
<text transform="matrix(1 0 0 1 152.3339 302.1963)" class="st5 st13 st18">u</text>
<text transform="matrix(1 0 0 1 158.5927 302.1963)" class="st5 st13 st18">e</text>
<text transform="matrix(1 0 0 1 164.687 302.1963)" class="st5 st13 st18">s</text>
<text transform="matrix(1 0 0 1 169.6586 302.1963)" class="st5 st13 st18">t</text>
<text transform="matrix(1 0 0 1 173.7949 302.1963)" class="st5 st13 st18">i</text>
<text transform="matrix(1 0 0 1 176.6108 302.1963)" class="st5 st13 st18">o</text>
<text transform="matrix(1 0 0 1 183.0459 302.1963)" class="st5 st13 st18">n</text>
<text transform="matrix(1 0 0 1 189.1948 302.1963)" class="st5 st13 st18">s</text>
<rect x="46.3" y="575.5" class="st15" width="632" height="1"/>
<rect x="46.3" y="315.5" class="st15" width="632" height="1"/>
<rect x="46.3" y="523.5" class="st15" width="632" height="1"/>
<rect x="72.3" y="367.5" class="st15" width="606" height="1"/>
<text transform="matrix(1 0 0 1 82.8569 337.539)" class="st12 st13 st16">C</text>
<text transform="matrix(1 0 0 1 93.0268 337.539)" class="st12 st13 st16">l</text>
<text transform="matrix(1 0 0 1 96.3569 337.539)" class="st12 st13 st16">i</text>
<text transform="matrix(1 0 0 1 99.7319 337.539)" class="st12 st13 st16">n</text>
<text transform="matrix(1 0 0 1 108.0121 337.539)" class="st12 st13 st16">i</text>
<text transform="matrix(1 0 0 1 111.7016 337.539)" class="st12 st13 st16">c </text>
<text transform="matrix(1 0 0 1 123.4916 337.539)" class="st8 st13 st16">(1)</text>
<text transform="matrix(1 0 0 1 82.8571 354.1962)" class="st5 st13 st18">R</text>
<text transform="matrix(1 0 0 1 89.5558 354.1962)" class="st5 st13 st18">e</text>
<text transform="matrix(1 0 0 1 95.6501 354.1962)" class="st5 st13 st18">s</text>
<text transform="matrix(1 0 0 1 100.6003 354.1962)" class="st5 st13 st18">u</text>
<text transform="matrix(1 0 0 1 106.716 354.1962)" class="st5 st13 st18">l</text>
<text transform="matrix(1 0 0 1 109.8073 354.1962)" class="st5 st13 st18">t</text>
<text transform="matrix(1 0 0 1 113.9323 354.1962)" class="st5 st13 st18">s</text>
<text transform="matrix(1 0 0 1 119.0031 354.1962)" class="st12 st13 st18"> </text>
<text transform="matrix(1 0 0 1 121.9509 354.1962)" class="st12 st13 st19">|</text>
<text transform="matrix(1 0 0 1 125.239 354.1962)" class="st12 st13 st18"> </text>
<text transform="matrix(1 0 0 1 128.1867 354.1962)" class="st5 st13 st18">V</text>
<text transform="matrix(1 0 0 1 134.5007 354.1962)" class="st5 st13 st18">i</text>
<text transform="matrix(1 0 0 1 137.3166 354.1962)" class="st5 st13 st18">e</text>
<text transform="matrix(1 0 0 1 143.3776 354.1962)" class="st5 st13 st18">w Q</text>
<text transform="matrix(1 0 0 1 162.5617 354.1962)" class="st5 st13 st18">u</text>
<text transform="matrix(1 0 0 1 168.8205 354.1962)" class="st5 st13 st18">e</text>
<text transform="matrix(1 0 0 1 174.9147 354.1962)" class="st5 st13 st18">s</text>
<text transform="matrix(1 0 0 1 179.8864 354.1962)" class="st5 st13 st18">t</text>
<text transform="matrix(1 0 0 1 184.0226 354.1962)" class="st5 st13 st18">i</text>
<text transform="matrix(1 0 0 1 186.8386 354.1962)" class="st5 st13 st18">o</text>
<text transform="matrix(1 0 0 1 193.2736 354.1962)" class="st5 st13 st18">n</text>
<rect x="72.3" y="367.5" class="st15" width="606" height="1"/>
<rect x="72.6" y="368.5" class="st20" width="606" height="51"/>
<rect x="72.3" y="419.5" class="st15" width="606" height="1"/>
<text transform="matrix(1 0 0 1 82.8569 389.539)" class="st12 st13 st16">H</text>
<text transform="matrix(1 0 0 1 92.8617 389.539)" class="st12 st13 st16">o</text>
<text transform="matrix(1 0 0 1 101.4574 389.539)" class="st12 st13 st16">s</text>
<text transform="matrix(1 0 0 1 107.9819 389.539)" class="st12 st13 st16">p</text>
<text transform="matrix(1 0 0 1 116.6821 389.539)" class="st12 st13 st16">i</text>
<text transform="matrix(1 0 0 1 120.5375 389.539)" class="st12 st13 st16">t</text>
<text transform="matrix(1 0 0 1 126.0268 389.539)" class="st12 st13 st16">a</text>
<text transform="matrix(1 0 0 1 133.5571 389.539)" class="st12 st13 st16">l </text>
<text transform="matrix(1 0 0 1 141.1469 389.539)" class="st8 st13 st16">(2)</text>
<text transform="matrix(1 0 0 1 82.8571 406.1962)" class="st5 st13 st18">R</text>
<text transform="matrix(1 0 0 1 89.5558 406.1962)" class="st5 st13 st18">e</text>
<text transform="matrix(1 0 0 1 95.6501 406.1962)" class="st5 st13 st18">s</text>
<text transform="matrix(1 0 0 1 100.6003 406.1962)" class="st5 st13 st18">u</text>
<text transform="matrix(1 0 0 1 106.716 406.1962)" class="st5 st13 st18">l</text>
<text transform="matrix(1 0 0 1 109.8073 406.1962)" class="st5 st13 st18">t</text>
<text transform="matrix(1 0 0 1 113.9323 406.1962)" class="st5 st13 st18">s</text>
<text transform="matrix(1 0 0 1 119.0031 406.1962)" class="st12 st13 st18"> </text>
<text transform="matrix(1 0 0 1 121.9509 406.1962)" class="st12 st13 st19">|</text>
<text transform="matrix(1 0 0 1 125.239 406.1962)" class="st12 st13 st18"> </text>
<text transform="matrix(1 0 0 1 128.1867 406.1962)" class="st5 st13 st18">V</text>
<text transform="matrix(1 0 0 1 134.5007 406.1962)" class="st5 st13 st18">i</text>
<text transform="matrix(1 0 0 1 137.3166 406.1962)" class="st5 st13 st18">e</text>
<text transform="matrix(1 0 0 1 143.3776 406.1962)" class="st5 st13 st18">w Q</text>
<text transform="matrix(1 0 0 1 162.5617 406.1962)" class="st5 st13 st18">u</text>
<text transform="matrix(1 0 0 1 168.8205 406.1962)" class="st5 st13 st18">e</text>
<text transform="matrix(1 0 0 1 174.9147 406.1962)" class="st5 st13 st18">s</text>
<text transform="matrix(1 0 0 1 179.8864 406.1962)" class="st5 st13 st18">t</text>
<text transform="matrix(1 0 0 1 184.0226 406.1962)" class="st5 st13 st18">i</text>
<text transform="matrix(1 0 0 1 186.8386 406.1962)" class="st5 st13 st18">o</text>
<text transform="matrix(1 0 0 1 193.2736 406.1962)" class="st5 st13 st18">n</text>
<text transform="matrix(1 0 0 1 199.4225 406.1962)" class="st5 st13 st18">s</text>
<rect x="72.3" y="471.5" class="st15" width="606" height="1"/>
<text transform="matrix(1 0 0 1 82.8569 441.539)" class="st12 st13 st16">P</text>
<text transform="matrix(1 0 0 1 91.3774 441.539)" class="st12 st13 st16">r</text>
<text transform="matrix(1 0 0 1 97.2719 441.539)" class="st12 st13 st16">i</text>
<text transform="matrix(1 0 0 1 101.3217 441.539)" class="st12 st13 st16">v</text>
<text transform="matrix(1 0 0 1 107.892 441.539)" class="st12 st13 st16">a</text>
<text transform="matrix(1 0 0 1 115.6313 441.539)" class="st12 st13 st16">t</text>
<text transform="matrix(1 0 0 1 121.016 441.539)" class="st12 st13 st16">e </text>
<text transform="matrix(1 0 0 1 133.1362 441.539)" class="st12 st13 st16">P</text>
<text transform="matrix(1 0 0 1 141.6567 441.539)" class="st12 st13 st16">r</text>
<text transform="matrix(1 0 0 1 147.5365 441.539)" class="st12 st13 st16">a</text>
<text transform="matrix(1 0 0 1 155.2758 441.539)" class="st12 st13 st16">c</text>
<text transform="matrix(1 0 0 1 163.4213 441.539)" class="st12 st13 st16">t</text>
<text transform="matrix(1 0 0 1 168.9106 441.539)" class="st12 st13 st16">i</text>
<text transform="matrix(1 0 0 1 172.601 441.539)" class="st12 st13 st16">c</text>
<text transform="matrix(1 0 0 1 180.5805 441.539)" class="st12 st13 st16">e </text>
<text transform="matrix(1 0 0 1 192.7006 441.539)" class="st8 st13 st16">(5)</text>
<text transform="matrix(1 0 0 1 82.8571 458.1962)" class="st5 st13 st18">R</text>
<text transform="matrix(1 0 0 1 89.5558 458.1962)" class="st5 st13 st18">e</text>
<text transform="matrix(1 0 0 1 95.6501 458.1962)" class="st5 st13 st18">s</text>
<text transform="matrix(1 0 0 1 100.6003 458.1962)" class="st5 st13 st18">u</text>
<text transform="matrix(1 0 0 1 106.716 458.1962)" class="st5 st13 st18">l</text>
<text transform="matrix(1 0 0 1 109.8073 458.1962)" class="st5 st13 st18">t</text>
<text transform="matrix(1 0 0 1 113.9323 458.1962)" class="st5 st13 st18">s</text>
<text transform="matrix(1 0 0 1 119.0031 458.1962)" class="st12 st13 st18"> </text>
<text transform="matrix(1 0 0 1 121.9509 458.1962)" class="st12 st13 st19">|</text>
<text transform="matrix(1 0 0 1 125.239 458.1962)" class="st12 st13 st18"> </text>
<text transform="matrix(1 0 0 1 128.1867 458.1962)" class="st5 st13 st18">V</text>
<text transform="matrix(1 0 0 1 134.5007 458.1962)" class="st5 st13 st18">i</text>
<text transform="matrix(1 0 0 1 137.3166 458.1962)" class="st5 st13 st18">e</text>
<text transform="matrix(1 0 0 1 143.3776 458.1962)" class="st5 st13 st18">w Q</text>
<text transform="matrix(1 0 0 1 162.5617 458.1962)" class="st5 st13 st18">u</text>
<text transform="matrix(1 0 0 1 168.8205 458.1962)" class="st5 st13 st18">e</text>
<text transform="matrix(1 0 0 1 174.9147 458.1962)" class="st5 st13 st18">s</text>
<text transform="matrix(1 0 0 1 179.8864 458.1962)" class="st5 st13 st18">t</text>
<text transform="matrix(1 0 0 1 184.0226 458.1962)" class="st5 st13 st18">i</text>
<text transform="matrix(1 0 0 1 186.8386 458.1962)" class="st5 st13 st18">o</text>
<text transform="matrix(1 0 0 1 193.2736 458.1962)" class="st5 st13 st18">n</text>
<text transform="matrix(1 0 0 1 199.4225 458.1962)" class="st5 st13 st18">s</text>
<rect x="72.6" y="472.5" class="st20" width="606" height="51"/>
<text transform="matrix(1 0 0 1 82.8569 493.539)" class="st12 st13 st16">O</text>
<text transform="matrix(1 0 0 1 93.8969 493.539)" class="st12 st13 st16">t</text>
<text transform="matrix(1 0 0 1 99.3119 493.539)" class="st12 st13 st16">h</text>
<text transform="matrix(1 0 0 1 107.7416 493.539)" class="st12 st13 st16">e</text>
<text transform="matrix(1 0 0 1 115.7817 493.539)" class="st12 st13 st16">r </text>
<text transform="matrix(1 0 0 1 125.6967 493.539)" class="st8 st13 st16">(4)</text>
<text transform="matrix(1 0 0 1 82.8571 510.1962)" class="st5 st13 st18">R</text>
<text transform="matrix(1 0 0 1 89.5558 510.1962)" class="st5 st13 st18">e</text>
<text transform="matrix(1 0 0 1 95.6501 510.1962)" class="st5 st13 st18">s</text>
<text transform="matrix(1 0 0 1 100.6003 510.1962)" class="st5 st13 st18">u</text>
<text transform="matrix(1 0 0 1 106.716 510.1962)" class="st5 st13 st18">l</text>
<text transform="matrix(1 0 0 1 109.8073 510.1962)" class="st5 st13 st18">t</text>
<text transform="matrix(1 0 0 1 113.9323 510.1962)" class="st5 st13 st18">s</text>
<text transform="matrix(1 0 0 1 119.0031 510.1962)" class="st12 st13 st18"> </text>
<text transform="matrix(1 0 0 1 121.9509 510.1962)" class="st12 st13 st19">|</text>
<text transform="matrix(1 0 0 1 125.239 510.1962)" class="st12 st13 st18"> </text>
<text transform="matrix(1 0 0 1 128.1867 510.1962)" class="st5 st13 st18">V</text>
<text transform="matrix(1 0 0 1 134.5007 510.1962)" class="st5 st13 st18">i</text>
<text transform="matrix(1 0 0 1 137.3166 510.1962)" class="st5 st13 st18">e</text>
<text transform="matrix(1 0 0 1 143.3776 510.1962)" class="st5 st13 st18">w Q</text>
<text transform="matrix(1 0 0 1 162.5617 510.1962)" class="st5 st13 st18">u</text>
<text transform="matrix(1 0 0 1 168.8205 510.1962)" class="st5 st13 st18">e</text>
<text transform="matrix(1 0 0 1 174.9147 510.1962)" class="st5 st13 st18">s</text>
<text transform="matrix(1 0 0 1 179.8864 510.1962)" class="st5 st13 st18">t</text>
<text transform="matrix(1 0 0 1 184.0226 510.1962)" class="st5 st13 st18">i</text>
<text transform="matrix(1 0 0 1 186.8386 510.1962)" class="st5 st13 st18">o</text>
<text transform="matrix(1 0 0 1 193.2736 510.1962)" class="st5 st13 st18">n</text>
<text transform="matrix(1 0 0 1 199.4225 510.1962)" class="st5 st13 st18">s</text>
<text transform="matrix(1 0 0 1 72.6291 545.539)" class="st12 st13 st16">P</text>
<text transform="matrix(1 0 0 1 81.1496 545.539)" class="st12 st13 st16">r</text>
<text transform="matrix(1 0 0 1 86.8937 545.539)" class="st12 st13 st16">o</text>
<text transform="matrix(1 0 0 1 95.4592 545.539)" class="st12 st13 st16">c</text>
<text transform="matrix(1 0 0 1 103.4396 545.539)" class="st12 st13 st16">e</text>
<text transform="matrix(1 0 0 1 111.884 545.539)" class="st12 st13 st16">d</text>
<text transform="matrix(1 0 0 1 120.3888 545.539)" class="st12 st13 st16">u</text>
<text transform="matrix(1 0 0 1 128.549 545.539)" class="st12 st13 st16">r</text>
<text transform="matrix(1 0 0 1 134.2941 545.539)" class="st12 st13 st16">e</text>
<text transform="matrix(1 0 0 1 142.4543 545.539)" class="st12 st13 st16">s </text>
<text transform="matrix(1 0 0 1 153.089 545.539)" class="st8 st13 st16">(</text>
<text transform="matrix(1 0 0 1 157.3185 545.539)" class="st8 st13 st16">1</text>
<text transform="matrix(1 0 0 1 162.7189 545.539)" class="st8 st13 st16">2)</text>
<polygon class="st17" points="63.7,540.5 58.4,545.9 56.5,544 60,540.5 56.5,537.1 58.4,535.2 "/>
<text transform="matrix(1 0 0 1 72.6294 562.1962)" class="st5 st13 st18">R</text>
<text transform="matrix(1 0 0 1 79.3281 562.1962)" class="st5 st13 st18">e</text>
<text transform="matrix(1 0 0 1 85.4223 562.1962)" class="st5 st13 st18">s</text>
<text transform="matrix(1 0 0 1 90.3725 562.1962)" class="st5 st13 st18">u</text>
<text transform="matrix(1 0 0 1 96.4882 562.1962)" class="st5 st13 st18">l</text>
<text transform="matrix(1 0 0 1 99.5795 562.1962)" class="st5 st13 st18">t</text>
<text transform="matrix(1 0 0 1 103.7045 562.1962)" class="st5 st13 st18">s</text>
<text transform="matrix(1 0 0 1 108.7753 562.1962)" class="st12 st13 st18"> </text>
<text transform="matrix(1 0 0 1 111.7231 562.1962)" class="st12 st13 st19">|</text>
<text transform="matrix(1 0 0 1 115.0112 562.1962)" class="st12 st13 st18"> </text>
<text transform="matrix(1 0 0 1 117.9589 562.1962)" class="st5 st13 st18">V</text>
<text transform="matrix(1 0 0 1 124.2729 562.1962)" class="st5 st13 st18">i</text>
<text transform="matrix(1 0 0 1 127.0888 562.1962)" class="st5 st13 st18">e</text>
<text transform="matrix(1 0 0 1 133.1499 562.1962)" class="st5 st13 st18">w Q</text>
<text transform="matrix(1 0 0 1 152.3339 562.1962)" class="st5 st13 st18">u</text>
<text transform="matrix(1 0 0 1 158.5927 562.1962)" class="st5 st13 st18">e</text>
<text transform="matrix(1 0 0 1 164.687 562.1962)" class="st5 st13 st18">s</text>
<text transform="matrix(1 0 0 1 169.6586 562.1962)" class="st5 st13 st18">t</text>
<text transform="matrix(1 0 0 1 173.7949 562.1962)" class="st5 st13 st18">i</text>
<text transform="matrix(1 0 0 1 176.6108 562.1962)" class="st5 st13 st18">o</text>
<text transform="matrix(1 0 0 1 183.0459 562.1962)" class="st5 st13 st18">n</text>
<text transform="matrix(1 0 0 1 189.1948 562.1962)" class="st5 st13 st18">s</text>
<rect x="46.3" y="576.5" class="st20" width="632" height="51"/>
<rect x="46.3" y="627.5" class="st15" width="632" height="1"/>
<text transform="matrix(1 0 0 1 72.6291 597.539)" class="st12 st13 st16">O</text>
<text transform="matrix(1 0 0 1 83.6691 597.539)" class="st12 st13 st16">t</text>
<text transform="matrix(1 0 0 1 89.0842 597.539)" class="st12 st13 st16">h</text>
<text transform="matrix(1 0 0 1 97.5138 597.539)" class="st12 st13 st16">e</text>
<text transform="matrix(1 0 0 1 105.5539 597.539)" class="st12 st13 st16">r </text>
<text transform="matrix(1 0 0 1 115.4689 597.539)" class="st8 st13 st16">(6)</text>
<polygon class="st17" points="63.7,592.5 58.4,597.9 56.5,596 60,592.5 56.5,589.1 58.4,587.2 "/>
<text transform="matrix(1 0 0 1 72.6294 614.1962)" class="st5 st13 st18">R</text>
<text transform="matrix(1 0 0 1 79.3281 614.1962)" class="st5 st13 st18">e</text>
<text transform="matrix(1 0 0 1 85.4223 614.1962)" class="st5 st13 st18">s</text>
<text transform="matrix(1 0 0 1 90.3725 614.1962)" class="st5 st13 st18">u</text>
<text transform="matrix(1 0 0 1 96.4882 614.1962)" class="st5 st13 st18">l</text>
<text transform="matrix(1 0 0 1 99.5795 614.1962)" class="st5 st13 st18">t</text>
<text transform="matrix(1 0 0 1 103.7045 614.1962)" class="st5 st13 st18">s</text>
<text transform="matrix(1 0 0 1 108.7753 614.1962)" class="st12 st13 st18"> </text>
<text transform="matrix(1 0 0 1 111.7231 614.1962)" class="st12 st13 st19">|</text>
<text transform="matrix(1 0 0 1 115.0112 614.1962)" class="st12 st13 st18"> </text>
<text transform="matrix(1 0 0 1 117.9589 614.1962)" class="st5 st13 st18">V</text>
<text transform="matrix(1 0 0 1 124.2729 614.1962)" class="st5 st13 st18">i</text>
<text transform="matrix(1 0 0 1 127.0888 614.1962)" class="st5 st13 st18">e</text>
<text transform="matrix(1 0 0 1 133.1499 614.1962)" class="st5 st13 st18">w Q</text>
<text transform="matrix(1 0 0 1 152.3339 614.1962)" class="st5 st13 st18">u</text>
<text transform="matrix(1 0 0 1 158.5927 614.1962)" class="st5 st13 st18">e</text>
<text transform="matrix(1 0 0 1 164.687 614.1962)" class="st5 st13 st18">s</text>
<text transform="matrix(1 0 0 1 169.6586 614.1962)" class="st5 st13 st18">t</text>
<text transform="matrix(1 0 0 1 173.7949 614.1962)" class="st5 st13 st18">i</text>
<text transform="matrix(1 0 0 1 176.6108 614.1962)" class="st5 st13 st18">o</text>
<text transform="matrix(1 0 0 1 183.0459 614.1962)" class="st5 st13 st18">n</text>
<text transform="matrix(1 0 0 1 189.1948 614.1962)" class="st5 st13 st18">s</text>
<rect x="46.3" y="315.5" class="st15" width="1" height="2"/>
<path class="st15" d="M47.3,520.5h-1v-4h1V520.5z M47.3,513.5h-1v-4h1V513.5z M47.3,506.5h-1v-4h1V506.5z M47.3,499.5h-1v-4h1V499.5
	z M47.3,492.5h-1v-4h1V492.5z M47.3,485.5h-1v-4h1V485.5z M47.3,478.5h-1v-4h1V478.5z M47.3,471.5h-1v-4h1V471.5z M47.3,464.5h-1v-4
	h1V464.5z M47.3,457.5h-1v-4h1V457.5z M47.3,450.5h-1v-4h1V450.5z M47.3,443.5h-1v-4h1V443.5z M47.3,436.5h-1v-4h1V436.5z
	 M47.3,429.5h-1v-4h1V429.5z M47.3,422.5h-1v-4h1V422.5z M47.3,415.5h-1v-4h1V415.5z M47.3,408.5h-1v-4h1V408.5z M47.3,401.5h-1v-4
	h1V401.5z M47.3,394.5h-1v-4h1V394.5z M47.3,387.5h-1v-4h1V387.5z M47.3,380.5h-1v-4h1V380.5z M47.3,373.5h-1v-4h1V373.5z
	 M47.3,366.5h-1v-4h1V366.5z M47.3,359.5h-1v-4h1V359.5z M47.3,352.5h-1v-4h1V352.5z M47.3,345.5h-1v-4h1V345.5z M47.3,338.5h-1v-4
	h1V338.5z M47.3,331.5h-1v-4h1V331.5z M47.3,324.5h-1v-4h1V324.5z"/>
<rect x="46.3" y="522.5" class="st15" width="1" height="2"/>
<linearGradient id="SVGID_1_" gradientUnits="userSpaceOnUse" x1="526.5" y1="10674.498" x2="526.5" y2="11009.7988" gradientTransform="matrix(1 0 0 -1 0 11365)">
	<stop  offset="0.2327" style="stop-color:#FFFFFF"/>
	<stop  offset="0.75" style="stop-color:#FFFFFF;stop-opacity:0"/>
</linearGradient>
<rect x="0.5" y="355.2" class="st21" width="1052" height="335.3"/>
</svg>
