<svg width="606" height="222" viewBox="0 0 606 222" fill="none" xmlns="http://www.w3.org/2000/svg">
<g filter="url(#filter0_d_4534_4953)">
<g clip-path="url(#clip0_4534_4953)">
<g filter="url(#filter1_d_4534_4953)">
<rect x="4" y="33" width="598" height="185" fill="white" shape-rendering="crispEdges"/>
<rect width="150" height="24" transform="translate(12 45)" fill="#395370"/>
<path d="M43.611 61V52.54H48.987V53.548H44.859V56.248H48.735V57.256H44.859V61H43.611ZM52.4448 61.108C51.8528 61.108 51.3408 60.984 50.9088 60.736C50.4768 60.488 50.1408 60.14 49.9008 59.692C49.6688 59.236 49.5528 58.696 49.5528 58.072C49.5528 57.448 49.6688 56.912 49.9008 56.464C50.1408 56.008 50.4768 55.656 50.9088 55.408C51.3408 55.16 51.8528 55.036 52.4448 55.036C53.0208 55.036 53.5248 55.16 53.9568 55.408C54.3888 55.656 54.7248 56.008 54.9648 56.464C55.2048 56.912 55.3248 57.448 55.3248 58.072C55.3248 58.696 55.2048 59.236 54.9648 59.692C54.7248 60.14 54.3888 60.488 53.9568 60.736C53.5248 60.984 53.0208 61.108 52.4448 61.108ZM52.4448 60.172C52.9408 60.172 53.3408 59.992 53.6448 59.632C53.9488 59.272 54.1008 58.752 54.1008 58.072C54.1008 57.392 53.9488 56.876 53.6448 56.524C53.3408 56.164 52.9408 55.984 52.4448 55.984C51.9408 55.984 51.5368 56.164 51.2328 56.524C50.9288 56.876 50.7768 57.392 50.7768 58.072C50.7768 58.752 50.9288 59.272 51.2328 59.632C51.5368 59.992 51.9408 60.172 52.4448 60.172ZM56.686 61V55.144H57.862V56.188C58.166 55.492 58.798 55.104 59.758 55.024L60.154 55L60.238 56.032L59.506 56.104C58.442 56.208 57.91 56.756 57.91 57.748V61H56.686ZM64.3389 61V55.144H65.5149V56.092C65.6909 55.756 65.9349 55.496 66.2469 55.312C66.5589 55.128 66.9229 55.036 67.3389 55.036C68.2349 55.036 68.8149 55.428 69.0789 56.212C69.2629 55.844 69.5269 55.556 69.8709 55.348C70.2149 55.14 70.6069 55.036 71.0469 55.036C72.3589 55.036 73.0149 55.82 73.0149 57.388V61H71.8029V57.448C71.8029 56.952 71.7149 56.588 71.5389 56.356C71.3709 56.124 71.0909 56.008 70.6989 56.008C70.2589 56.008 69.9109 56.164 69.6549 56.476C69.3989 56.78 69.2709 57.196 69.2709 57.724V61H68.0589V57.448C68.0589 56.952 67.9749 56.588 67.8069 56.356C67.6389 56.124 67.3589 56.008 66.9669 56.008C66.5269 56.008 66.1789 56.164 65.9229 56.476C65.6749 56.78 65.5509 57.196 65.5509 57.724V61H64.3389ZM75.2508 63.16L76.2948 60.844L73.8468 55.144H75.1428L76.9428 59.596L78.7668 55.144H80.0148L76.5228 63.16H75.2508ZM86.6175 61.108C86.0175 61.108 85.4975 60.984 85.0575 60.736C84.6255 60.48 84.2895 60.124 84.0495 59.668C83.8095 59.204 83.6895 58.66 83.6895 58.036C83.6895 57.108 83.9535 56.376 84.4815 55.84C85.0095 55.304 85.7215 55.036 86.6175 55.036C86.9855 55.036 87.3495 55.1 87.7095 55.228C88.0695 55.356 88.3655 55.532 88.5975 55.756L88.2135 56.608C87.9895 56.4 87.7415 56.248 87.4695 56.152C87.2055 56.048 86.9535 55.996 86.7135 55.996C86.1455 55.996 85.7055 56.176 85.3935 56.536C85.0895 56.888 84.9375 57.392 84.9375 58.048C84.9375 58.704 85.0895 59.22 85.3935 59.596C85.7055 59.964 86.1455 60.148 86.7135 60.148C86.9535 60.148 87.2055 60.1 87.4695 60.004C87.7415 59.9 87.9895 59.744 88.2135 59.536L88.5975 60.4C88.3655 60.616 88.0655 60.788 87.6975 60.916C87.3375 61.044 86.9775 61.108 86.6175 61.108ZM91.4642 61.108C91.0562 61.108 90.6922 61.028 90.3722 60.868C90.0522 60.708 89.7962 60.492 89.6042 60.22C89.4202 59.948 89.3282 59.64 89.3282 59.296C89.3282 58.864 89.4362 58.524 89.6522 58.276C89.8762 58.028 90.2402 57.848 90.7442 57.736C91.2562 57.624 91.9442 57.568 92.8082 57.568H93.2162V57.256C93.2162 56.8 93.1202 56.472 92.9282 56.272C92.7362 56.072 92.4202 55.972 91.9802 55.972C91.6442 55.972 91.3082 56.024 90.9722 56.128C90.6362 56.224 90.2922 56.38 89.9402 56.596L89.5682 55.744C89.8722 55.528 90.2522 55.356 90.7082 55.228C91.1642 55.1 91.6002 55.036 92.0162 55.036C92.8162 55.036 93.4082 55.228 93.7922 55.612C94.1762 55.988 94.3682 56.58 94.3682 57.388V61H93.2282V60.028C93.0842 60.364 92.8602 60.628 92.5562 60.82C92.2522 61.012 91.8882 61.108 91.4642 61.108ZM91.7042 60.244C92.1362 60.244 92.4962 60.092 92.7842 59.788C93.0722 59.484 93.2162 59.1 93.2162 58.636V58.312H92.8202C92.2362 58.312 91.7762 58.34 91.4402 58.396C91.1122 58.452 90.8762 58.548 90.7322 58.684C90.5962 58.812 90.5282 58.992 90.5282 59.224C90.5282 59.528 90.6322 59.776 90.8402 59.968C91.0482 60.152 91.3362 60.244 91.7042 60.244ZM98.0895 61.108C97.6095 61.108 97.1615 61.048 96.7455 60.928C96.3295 60.8 95.9815 60.624 95.7015 60.4L96.0495 59.584C96.3455 59.792 96.6695 59.952 97.0215 60.064C97.3815 60.176 97.7415 60.232 98.1015 60.232C98.5255 60.232 98.8455 60.156 99.0615 60.004C99.2775 59.852 99.3855 59.648 99.3855 59.392C99.3855 59.184 99.3135 59.024 99.1695 58.912C99.0255 58.792 98.8095 58.7 98.5215 58.636L97.3815 58.408C96.3735 58.2 95.8695 57.68 95.8695 56.848C95.8695 56.296 96.0895 55.856 96.5295 55.528C96.9695 55.2 97.5455 55.036 98.2575 55.036C98.6655 55.036 99.0535 55.096 99.4215 55.216C99.7975 55.336 100.11 55.516 100.358 55.756L100.01 56.572C99.7695 56.364 99.4935 56.204 99.1815 56.092C98.8695 55.98 98.5615 55.924 98.2575 55.924C97.8415 55.924 97.5255 56.004 97.3095 56.164C97.0935 56.316 96.9855 56.524 96.9855 56.788C96.9855 57.188 97.2495 57.444 97.7775 57.556L98.9175 57.784C99.4375 57.888 99.8295 58.064 100.094 58.312C100.366 58.56 100.502 58.896 100.502 59.32C100.502 59.88 100.282 60.32 99.8415 60.64C99.4015 60.952 98.8175 61.108 98.0895 61.108ZM104.598 61.108C103.638 61.108 102.882 60.84 102.33 60.304C101.778 59.76 101.502 59.02 101.502 58.084C101.502 57.484 101.622 56.956 101.862 56.5C102.11 56.036 102.45 55.676 102.882 55.42C103.314 55.164 103.81 55.036 104.37 55.036C105.178 55.036 105.814 55.296 106.278 55.816C106.742 56.328 106.974 57.036 106.974 57.94V58.348H102.678C102.766 59.564 103.41 60.172 104.61 60.172C104.946 60.172 105.274 60.12 105.594 60.016C105.922 59.912 106.23 59.74 106.518 59.5L106.878 60.34C106.614 60.58 106.274 60.768 105.858 60.904C105.442 61.04 105.022 61.108 104.598 61.108ZM104.418 55.888C103.914 55.888 103.514 56.044 103.218 56.356C102.922 56.668 102.742 57.084 102.678 57.604H105.954C105.93 57.06 105.786 56.64 105.522 56.344C105.258 56.04 104.89 55.888 104.418 55.888ZM110.203 61.108C109.563 61.108 109.083 60.928 108.763 60.568C108.451 60.208 108.295 59.68 108.295 58.984V52.54H109.507V58.912C109.507 59.704 109.831 60.1 110.479 60.1C110.575 60.1 110.663 60.096 110.743 60.088C110.831 60.08 110.919 60.064 111.007 60.04L110.983 61.012C110.711 61.076 110.451 61.108 110.203 61.108ZM114.449 61.108C113.857 61.108 113.345 60.984 112.913 60.736C112.481 60.488 112.145 60.14 111.905 59.692C111.673 59.236 111.557 58.696 111.557 58.072C111.557 57.448 111.673 56.912 111.905 56.464C112.145 56.008 112.481 55.656 112.913 55.408C113.345 55.16 113.857 55.036 114.449 55.036C115.025 55.036 115.529 55.16 115.961 55.408C116.393 55.656 116.729 56.008 116.969 56.464C117.209 56.912 117.329 57.448 117.329 58.072C117.329 58.696 117.209 59.236 116.969 59.692C116.729 60.14 116.393 60.488 115.961 60.736C115.529 60.984 115.025 61.108 114.449 61.108ZM114.449 60.172C114.945 60.172 115.345 59.992 115.649 59.632C115.953 59.272 116.105 58.752 116.105 58.072C116.105 57.392 115.953 56.876 115.649 56.524C115.345 56.164 114.945 55.984 114.449 55.984C113.945 55.984 113.541 56.164 113.237 56.524C112.933 56.876 112.781 57.392 112.781 58.072C112.781 58.752 112.933 59.272 113.237 59.632C113.541 59.992 113.945 60.172 114.449 60.172ZM120.562 61.108C120.154 61.108 119.79 61.028 119.47 60.868C119.15 60.708 118.894 60.492 118.702 60.22C118.518 59.948 118.426 59.64 118.426 59.296C118.426 58.864 118.534 58.524 118.75 58.276C118.974 58.028 119.338 57.848 119.842 57.736C120.354 57.624 121.042 57.568 121.906 57.568H122.314V57.256C122.314 56.8 122.218 56.472 122.026 56.272C121.834 56.072 121.518 55.972 121.078 55.972C120.742 55.972 120.406 56.024 120.07 56.128C119.734 56.224 119.39 56.38 119.038 56.596L118.666 55.744C118.97 55.528 119.35 55.356 119.806 55.228C120.262 55.1 120.698 55.036 121.114 55.036C121.914 55.036 122.506 55.228 122.89 55.612C123.274 55.988 123.466 56.58 123.466 57.388V61H122.326V60.028C122.182 60.364 121.958 60.628 121.654 60.82C121.35 61.012 120.986 61.108 120.562 61.108ZM120.802 60.244C121.234 60.244 121.594 60.092 121.882 59.788C122.17 59.484 122.314 59.1 122.314 58.636V58.312H121.918C121.334 58.312 120.874 58.34 120.538 58.396C120.21 58.452 119.974 58.548 119.83 58.684C119.694 58.812 119.626 58.992 119.626 59.224C119.626 59.528 119.73 59.776 119.938 59.968C120.146 60.152 120.434 60.244 120.802 60.244ZM127.367 61.108C126.855 61.108 126.403 60.988 126.011 60.748C125.627 60.5 125.327 60.148 125.111 59.692C124.895 59.236 124.787 58.696 124.787 58.072C124.787 57.448 124.895 56.912 125.111 56.464C125.327 56.008 125.627 55.656 126.011 55.408C126.395 55.16 126.847 55.036 127.367 55.036C127.807 55.036 128.199 55.132 128.543 55.324C128.887 55.516 129.143 55.776 129.311 56.104V52.54H130.523V61H129.335V59.98C129.167 60.332 128.907 60.608 128.555 60.808C128.211 61.008 127.815 61.108 127.367 61.108ZM127.679 60.172C128.175 60.172 128.575 59.992 128.879 59.632C129.183 59.272 129.335 58.752 129.335 58.072C129.335 57.392 129.183 56.876 128.879 56.524C128.575 56.164 128.175 55.984 127.679 55.984C127.175 55.984 126.771 56.164 126.467 56.524C126.163 56.876 126.011 57.392 126.011 58.072C126.011 58.752 126.163 59.272 126.467 59.632C126.771 59.992 127.175 60.172 127.679 60.172Z" fill="white"/>
<path d="M168.904 61.108C168.424 61.108 167.976 61.048 167.56 60.928C167.144 60.8 166.796 60.624 166.516 60.4L166.864 59.584C167.16 59.792 167.484 59.952 167.836 60.064C168.196 60.176 168.556 60.232 168.916 60.232C169.34 60.232 169.66 60.156 169.876 60.004C170.092 59.852 170.2 59.648 170.2 59.392C170.2 59.184 170.128 59.024 169.984 58.912C169.84 58.792 169.624 58.7 169.336 58.636L168.196 58.408C167.188 58.2 166.684 57.68 166.684 56.848C166.684 56.296 166.904 55.856 167.344 55.528C167.784 55.2 168.36 55.036 169.072 55.036C169.48 55.036 169.868 55.096 170.236 55.216C170.612 55.336 170.924 55.516 171.172 55.756L170.824 56.572C170.584 56.364 170.308 56.204 169.996 56.092C169.684 55.98 169.376 55.924 169.072 55.924C168.656 55.924 168.34 56.004 168.124 56.164C167.908 56.316 167.8 56.524 167.8 56.788C167.8 57.188 168.064 57.444 168.592 57.556L169.732 57.784C170.252 57.888 170.644 58.064 170.908 58.312C171.18 58.56 171.316 58.896 171.316 59.32C171.316 59.88 171.096 60.32 170.656 60.64C170.216 60.952 169.632 61.108 168.904 61.108ZM172.665 61V52.54H173.877V56.056C174.077 55.72 174.345 55.468 174.681 55.3C175.025 55.124 175.409 55.036 175.833 55.036C177.217 55.036 177.909 55.82 177.909 57.388V61H176.697V57.46C176.697 56.956 176.597 56.588 176.397 56.356C176.205 56.124 175.901 56.008 175.485 56.008C174.997 56.008 174.605 56.164 174.309 56.476C174.021 56.78 173.877 57.184 173.877 57.688V61H172.665ZM182.123 61.108C181.531 61.108 181.019 60.984 180.587 60.736C180.155 60.488 179.819 60.14 179.579 59.692C179.347 59.236 179.231 58.696 179.231 58.072C179.231 57.448 179.347 56.912 179.579 56.464C179.819 56.008 180.155 55.656 180.587 55.408C181.019 55.16 181.531 55.036 182.123 55.036C182.699 55.036 183.203 55.16 183.635 55.408C184.067 55.656 184.403 56.008 184.643 56.464C184.883 56.912 185.003 57.448 185.003 58.072C185.003 58.696 184.883 59.236 184.643 59.692C184.403 60.14 184.067 60.488 183.635 60.736C183.203 60.984 182.699 61.108 182.123 61.108ZM182.123 60.172C182.619 60.172 183.019 59.992 183.323 59.632C183.627 59.272 183.779 58.752 183.779 58.072C183.779 57.392 183.627 56.876 183.323 56.524C183.019 56.164 182.619 55.984 182.123 55.984C181.619 55.984 181.215 56.164 180.911 56.524C180.607 56.876 180.455 57.392 180.455 58.072C180.455 58.752 180.607 59.272 180.911 59.632C181.215 59.992 181.619 60.172 182.123 60.172ZM187.842 61L185.61 55.144H186.858L188.43 59.584L190.05 55.144H190.986L192.582 59.608L194.178 55.144H195.366L193.134 61H192.03L190.482 56.812L188.946 61H187.842ZM202.139 61.108C201.539 61.108 201.019 60.984 200.579 60.736C200.147 60.48 199.811 60.124 199.571 59.668C199.331 59.204 199.211 58.66 199.211 58.036C199.211 57.108 199.475 56.376 200.003 55.84C200.531 55.304 201.243 55.036 202.139 55.036C202.507 55.036 202.871 55.1 203.231 55.228C203.591 55.356 203.887 55.532 204.119 55.756L203.735 56.608C203.511 56.4 203.263 56.248 202.991 56.152C202.727 56.048 202.475 55.996 202.235 55.996C201.667 55.996 201.227 56.176 200.915 56.536C200.611 56.888 200.459 57.392 200.459 58.048C200.459 58.704 200.611 59.22 200.915 59.596C201.227 59.964 201.667 60.148 202.235 60.148C202.475 60.148 202.727 60.1 202.991 60.004C203.263 59.9 203.511 59.744 203.735 59.536L204.119 60.4C203.887 60.616 203.587 60.788 203.219 60.916C202.859 61.044 202.499 61.108 202.139 61.108ZM206.986 61.108C206.578 61.108 206.214 61.028 205.894 60.868C205.574 60.708 205.318 60.492 205.126 60.22C204.942 59.948 204.85 59.64 204.85 59.296C204.85 58.864 204.958 58.524 205.174 58.276C205.398 58.028 205.762 57.848 206.266 57.736C206.778 57.624 207.466 57.568 208.33 57.568H208.738V57.256C208.738 56.8 208.642 56.472 208.45 56.272C208.258 56.072 207.942 55.972 207.502 55.972C207.166 55.972 206.83 56.024 206.494 56.128C206.158 56.224 205.814 56.38 205.462 56.596L205.09 55.744C205.394 55.528 205.774 55.356 206.23 55.228C206.686 55.1 207.122 55.036 207.538 55.036C208.338 55.036 208.93 55.228 209.314 55.612C209.698 55.988 209.89 56.58 209.89 57.388V61H208.75V60.028C208.606 60.364 208.382 60.628 208.078 60.82C207.774 61.012 207.41 61.108 206.986 61.108ZM207.226 60.244C207.658 60.244 208.018 60.092 208.306 59.788C208.594 59.484 208.738 59.1 208.738 58.636V58.312H208.342C207.758 58.312 207.298 58.34 206.962 58.396C206.634 58.452 206.398 58.548 206.254 58.684C206.118 58.812 206.05 58.992 206.05 59.224C206.05 59.528 206.154 59.776 206.362 59.968C206.57 60.152 206.858 60.244 207.226 60.244ZM211.559 61V55.144H212.735V56.188C213.039 55.492 213.671 55.104 214.631 55.024L215.027 55L215.111 56.032L214.379 56.104C213.315 56.208 212.783 56.756 212.783 57.748V61H211.559ZM218.702 61.108C217.742 61.108 216.986 60.84 216.434 60.304C215.882 59.76 215.606 59.02 215.606 58.084C215.606 57.484 215.726 56.956 215.966 56.5C216.214 56.036 216.554 55.676 216.986 55.42C217.418 55.164 217.914 55.036 218.474 55.036C219.282 55.036 219.918 55.296 220.382 55.816C220.846 56.328 221.078 57.036 221.078 57.94V58.348H216.782C216.87 59.564 217.514 60.172 218.714 60.172C219.05 60.172 219.378 60.12 219.698 60.016C220.026 59.912 220.334 59.74 220.622 59.5L220.982 60.34C220.718 60.58 220.378 60.768 219.962 60.904C219.546 61.04 219.126 61.108 218.702 61.108ZM218.522 55.888C218.018 55.888 217.618 56.044 217.322 56.356C217.026 56.668 216.846 57.084 216.782 57.604H220.058C220.034 57.06 219.89 56.64 219.626 56.344C219.362 56.04 218.994 55.888 218.522 55.888ZM228.047 61.108C227.311 61.108 226.763 60.92 226.403 60.544C226.043 60.168 225.863 59.624 225.863 58.912V56.08H224.723V55.144H225.863V53.38H227.075V55.144H228.887V56.08H227.075V58.816C227.075 59.24 227.163 59.56 227.339 59.776C227.523 59.992 227.819 60.1 228.227 60.1C228.355 60.1 228.479 60.088 228.599 60.064C228.719 60.032 228.839 59.996 228.959 59.956L229.151 60.868C229.031 60.94 228.863 60.996 228.647 61.036C228.439 61.084 228.239 61.108 228.047 61.108ZM232.623 61.108C231.663 61.108 230.907 60.84 230.355 60.304C229.803 59.76 229.527 59.02 229.527 58.084C229.527 57.484 229.647 56.956 229.887 56.5C230.135 56.036 230.475 55.676 230.907 55.42C231.339 55.164 231.835 55.036 232.395 55.036C233.203 55.036 233.839 55.296 234.303 55.816C234.767 56.328 234.999 57.036 234.999 57.94V58.348H230.703C230.791 59.564 231.435 60.172 232.635 60.172C232.971 60.172 233.299 60.12 233.619 60.016C233.947 59.912 234.255 59.74 234.543 59.5L234.903 60.34C234.639 60.58 234.299 60.768 233.883 60.904C233.467 61.04 233.047 61.108 232.623 61.108ZM232.443 55.888C231.939 55.888 231.539 56.044 231.243 56.356C230.947 56.668 230.767 57.084 230.703 57.604H233.979C233.955 57.06 233.811 56.64 233.547 56.344C233.283 56.04 232.915 55.888 232.443 55.888ZM238.193 61.108C237.785 61.108 237.421 61.028 237.101 60.868C236.781 60.708 236.525 60.492 236.333 60.22C236.149 59.948 236.057 59.64 236.057 59.296C236.057 58.864 236.165 58.524 236.381 58.276C236.605 58.028 236.969 57.848 237.473 57.736C237.985 57.624 238.673 57.568 239.537 57.568H239.945V57.256C239.945 56.8 239.849 56.472 239.657 56.272C239.465 56.072 239.149 55.972 238.709 55.972C238.373 55.972 238.037 56.024 237.701 56.128C237.365 56.224 237.021 56.38 236.669 56.596L236.297 55.744C236.601 55.528 236.981 55.356 237.437 55.228C237.893 55.1 238.329 55.036 238.745 55.036C239.545 55.036 240.137 55.228 240.521 55.612C240.905 55.988 241.097 56.58 241.097 57.388V61H239.957V60.028C239.813 60.364 239.589 60.628 239.285 60.82C238.981 61.012 238.617 61.108 238.193 61.108ZM238.433 60.244C238.865 60.244 239.225 60.092 239.513 59.788C239.801 59.484 239.945 59.1 239.945 58.636V58.312H239.549C238.965 58.312 238.505 58.34 238.169 58.396C237.841 58.452 237.605 58.548 237.461 58.684C237.325 58.812 237.257 58.992 237.257 59.224C237.257 59.528 237.361 59.776 237.569 59.968C237.777 60.152 238.065 60.244 238.433 60.244ZM242.79 61V55.144H243.966V56.092C244.142 55.756 244.386 55.496 244.698 55.312C245.01 55.128 245.374 55.036 245.79 55.036C246.686 55.036 247.266 55.428 247.53 56.212C247.714 55.844 247.978 55.556 248.322 55.348C248.666 55.14 249.058 55.036 249.498 55.036C250.81 55.036 251.466 55.82 251.466 57.388V61H250.254V57.448C250.254 56.952 250.166 56.588 249.99 56.356C249.822 56.124 249.542 56.008 249.15 56.008C248.71 56.008 248.362 56.164 248.106 56.476C247.85 56.78 247.722 57.196 247.722 57.724V61H246.51V57.448C246.51 56.952 246.426 56.588 246.258 56.356C246.09 56.124 245.81 56.008 245.418 56.008C244.978 56.008 244.63 56.164 244.374 56.476C244.126 56.78 244.002 57.196 244.002 57.724V61H242.79ZM255.213 61.108C254.733 61.108 254.285 61.048 253.869 60.928C253.453 60.8 253.105 60.624 252.825 60.4L253.173 59.584C253.469 59.792 253.793 59.952 254.145 60.064C254.505 60.176 254.865 60.232 255.225 60.232C255.649 60.232 255.969 60.156 256.185 60.004C256.401 59.852 256.509 59.648 256.509 59.392C256.509 59.184 256.437 59.024 256.293 58.912C256.149 58.792 255.933 58.7 255.645 58.636L254.505 58.408C253.497 58.2 252.993 57.68 252.993 56.848C252.993 56.296 253.213 55.856 253.653 55.528C254.093 55.2 254.669 55.036 255.381 55.036C255.789 55.036 256.177 55.096 256.545 55.216C256.921 55.336 257.233 55.516 257.481 55.756L257.133 56.572C256.893 56.364 256.617 56.204 256.305 56.092C255.993 55.98 255.685 55.924 255.381 55.924C254.965 55.924 254.649 56.004 254.433 56.164C254.217 56.316 254.109 56.524 254.109 56.788C254.109 57.188 254.373 57.444 254.901 57.556L256.041 57.784C256.561 57.888 256.953 58.064 257.217 58.312C257.489 58.56 257.625 58.896 257.625 59.32C257.625 59.88 257.405 60.32 256.965 60.64C256.525 60.952 255.941 61.108 255.213 61.108Z" fill="#1F2D3D"/>
<rect x="12" y="81" width="582" height="1" fill="#C1CCD4"/>
<rect x="12" y="94" width="150" height="24" fill="#395370"/>
<path d="M40.979 110L38.747 104.144H39.995L41.567 108.584L43.187 104.144H44.123L45.719 108.608L47.315 104.144H48.503L46.271 110H45.167L43.619 105.812L42.083 110H40.979ZM49.5434 110V101.54H50.7554V105.056C50.9554 104.72 51.2234 104.468 51.5594 104.3C51.9034 104.124 52.2874 104.036 52.7114 104.036C54.0954 104.036 54.7874 104.82 54.7874 106.388V110H53.5754V106.46C53.5754 105.956 53.4754 105.588 53.2754 105.356C53.0834 105.124 52.7794 105.008 52.3634 105.008C51.8754 105.008 51.4834 105.164 51.1874 105.476C50.8994 105.78 50.7554 106.184 50.7554 106.688V110H49.5434ZM59.2055 110.108C58.2455 110.108 57.4895 109.84 56.9375 109.304C56.3855 108.76 56.1095 108.02 56.1095 107.084C56.1095 106.484 56.2295 105.956 56.4695 105.5C56.7175 105.036 57.0575 104.676 57.4895 104.42C57.9215 104.164 58.4175 104.036 58.9775 104.036C59.7855 104.036 60.4215 104.296 60.8855 104.816C61.3495 105.328 61.5815 106.036 61.5815 106.94V107.348H57.2855C57.3735 108.564 58.0175 109.172 59.2175 109.172C59.5535 109.172 59.8815 109.12 60.2015 109.016C60.5295 108.912 60.8375 108.74 61.1255 108.5L61.4855 109.34C61.2215 109.58 60.8815 109.768 60.4655 109.904C60.0495 110.04 59.6295 110.108 59.2055 110.108ZM59.0255 104.888C58.5215 104.888 58.1215 105.044 57.8255 105.356C57.5295 105.668 57.3495 106.084 57.2855 106.604H60.5615C60.5375 106.06 60.3935 105.64 60.1295 105.344C59.8655 105.04 59.4975 104.888 59.0255 104.888ZM62.9028 110V104.144H64.0788V105.188C64.3828 104.492 65.0148 104.104 65.9748 104.024L66.3708 104L66.4548 105.032L65.7228 105.104C64.6588 105.208 64.1268 105.756 64.1268 106.748V110H62.9028ZM70.0453 110.108C69.0853 110.108 68.3293 109.84 67.7773 109.304C67.2253 108.76 66.9493 108.02 66.9493 107.084C66.9493 106.484 67.0693 105.956 67.3093 105.5C67.5573 105.036 67.8973 104.676 68.3293 104.42C68.7613 104.164 69.2573 104.036 69.8173 104.036C70.6253 104.036 71.2613 104.296 71.7253 104.816C72.1893 105.328 72.4213 106.036 72.4213 106.94V107.348H68.1253C68.2133 108.564 68.8573 109.172 70.0573 109.172C70.3933 109.172 70.7213 109.12 71.0413 109.016C71.3693 108.912 71.6773 108.74 71.9653 108.5L72.3253 109.34C72.0613 109.58 71.7213 109.768 71.3053 109.904C70.8893 110.04 70.4693 110.108 70.0453 110.108ZM69.8653 104.888C69.3613 104.888 68.9613 105.044 68.6653 105.356C68.3693 105.668 68.1893 106.084 68.1253 106.604H71.4013C71.3773 106.06 71.2333 105.64 70.9693 105.344C70.7053 105.04 70.3373 104.888 69.8653 104.888ZM79.475 110.108C78.875 110.108 78.355 109.984 77.915 109.736C77.483 109.48 77.147 109.124 76.907 108.668C76.667 108.204 76.547 107.66 76.547 107.036C76.547 106.108 76.811 105.376 77.339 104.84C77.867 104.304 78.579 104.036 79.475 104.036C79.843 104.036 80.207 104.1 80.567 104.228C80.927 104.356 81.223 104.532 81.455 104.756L81.071 105.608C80.847 105.4 80.599 105.248 80.327 105.152C80.063 105.048 79.811 104.996 79.571 104.996C79.003 104.996 78.563 105.176 78.251 105.536C77.947 105.888 77.795 106.392 77.795 107.048C77.795 107.704 77.947 108.22 78.251 108.596C78.563 108.964 79.003 109.148 79.571 109.148C79.811 109.148 80.063 109.1 80.327 109.004C80.599 108.9 80.847 108.744 81.071 108.536L81.455 109.4C81.223 109.616 80.923 109.788 80.555 109.916C80.195 110.044 79.835 110.108 79.475 110.108ZM84.3217 110.108C83.9137 110.108 83.5497 110.028 83.2297 109.868C82.9097 109.708 82.6537 109.492 82.4617 109.22C82.2777 108.948 82.1857 108.64 82.1857 108.296C82.1857 107.864 82.2937 107.524 82.5097 107.276C82.7337 107.028 83.0977 106.848 83.6017 106.736C84.1137 106.624 84.8017 106.568 85.6657 106.568H86.0737V106.256C86.0737 105.8 85.9777 105.472 85.7857 105.272C85.5937 105.072 85.2777 104.972 84.8377 104.972C84.5017 104.972 84.1657 105.024 83.8297 105.128C83.4937 105.224 83.1497 105.38 82.7977 105.596L82.4257 104.744C82.7297 104.528 83.1097 104.356 83.5657 104.228C84.0217 104.1 84.4577 104.036 84.8737 104.036C85.6737 104.036 86.2657 104.228 86.6497 104.612C87.0337 104.988 87.2257 105.58 87.2257 106.388V110H86.0857V109.028C85.9417 109.364 85.7177 109.628 85.4137 109.82C85.1097 110.012 84.7457 110.108 84.3217 110.108ZM84.5617 109.244C84.9937 109.244 85.3537 109.092 85.6417 108.788C85.9297 108.484 86.0737 108.1 86.0737 107.636V107.312H85.6777C85.0937 107.312 84.6337 107.34 84.2977 107.396C83.9697 107.452 83.7337 107.548 83.5897 107.684C83.4537 107.812 83.3857 107.992 83.3857 108.224C83.3857 108.528 83.4897 108.776 83.6977 108.968C83.9057 109.152 84.1937 109.244 84.5617 109.244ZM88.895 110V104.144H90.071V105.188C90.375 104.492 91.007 104.104 91.967 104.024L92.363 104L92.447 105.032L91.715 105.104C90.651 105.208 90.119 105.756 90.119 106.748V110H88.895ZM96.0375 110.108C95.0775 110.108 94.3215 109.84 93.7695 109.304C93.2175 108.76 92.9415 108.02 92.9415 107.084C92.9415 106.484 93.0615 105.956 93.3015 105.5C93.5495 105.036 93.8895 104.676 94.3215 104.42C94.7535 104.164 95.2495 104.036 95.8095 104.036C96.6175 104.036 97.2535 104.296 97.7175 104.816C98.1815 105.328 98.4135 106.036 98.4135 106.94V107.348H94.1175C94.2055 108.564 94.8495 109.172 96.0495 109.172C96.3855 109.172 96.7135 109.12 97.0335 109.016C97.3615 108.912 97.6695 108.74 97.9575 108.5L98.3175 109.34C98.0535 109.58 97.7135 109.768 97.2975 109.904C96.8815 110.04 96.4615 110.108 96.0375 110.108ZM95.8575 104.888C95.3535 104.888 94.9535 105.044 94.6575 105.356C94.3615 105.668 94.1815 106.084 94.1175 106.604H97.3935C97.3695 106.06 97.2255 105.64 96.9615 105.344C96.6975 105.04 96.3295 104.888 95.8575 104.888ZM105.383 110.108C104.647 110.108 104.099 109.92 103.739 109.544C103.379 109.168 103.199 108.624 103.199 107.912V105.08H102.059V104.144H103.199V102.38H104.411V104.144H106.223V105.08H104.411V107.816C104.411 108.24 104.499 108.56 104.675 108.776C104.859 108.992 105.155 109.1 105.563 109.1C105.691 109.1 105.815 109.088 105.935 109.064C106.055 109.032 106.175 108.996 106.295 108.956L106.487 109.868C106.367 109.94 106.199 109.996 105.983 110.036C105.775 110.084 105.575 110.108 105.383 110.108ZM109.959 110.108C108.999 110.108 108.243 109.84 107.691 109.304C107.139 108.76 106.863 108.02 106.863 107.084C106.863 106.484 106.983 105.956 107.223 105.5C107.471 105.036 107.811 104.676 108.243 104.42C108.675 104.164 109.171 104.036 109.731 104.036C110.539 104.036 111.175 104.296 111.639 104.816C112.103 105.328 112.335 106.036 112.335 106.94V107.348H108.039C108.127 108.564 108.771 109.172 109.971 109.172C110.307 109.172 110.635 109.12 110.955 109.016C111.283 108.912 111.591 108.74 111.879 108.5L112.239 109.34C111.975 109.58 111.635 109.768 111.219 109.904C110.803 110.04 110.383 110.108 109.959 110.108ZM109.779 104.888C109.275 104.888 108.875 105.044 108.579 105.356C108.283 105.668 108.103 106.084 108.039 106.604H111.315C111.291 106.06 111.147 105.64 110.883 105.344C110.619 105.04 110.251 104.888 109.779 104.888ZM115.529 110.108C115.121 110.108 114.757 110.028 114.437 109.868C114.117 109.708 113.861 109.492 113.669 109.22C113.485 108.948 113.393 108.64 113.393 108.296C113.393 107.864 113.501 107.524 113.717 107.276C113.941 107.028 114.305 106.848 114.809 106.736C115.321 106.624 116.009 106.568 116.873 106.568H117.281V106.256C117.281 105.8 117.185 105.472 116.993 105.272C116.801 105.072 116.485 104.972 116.045 104.972C115.709 104.972 115.373 105.024 115.037 105.128C114.701 105.224 114.357 105.38 114.005 105.596L113.633 104.744C113.937 104.528 114.317 104.356 114.773 104.228C115.229 104.1 115.665 104.036 116.081 104.036C116.881 104.036 117.473 104.228 117.857 104.612C118.241 104.988 118.433 105.58 118.433 106.388V110H117.293V109.028C117.149 109.364 116.925 109.628 116.621 109.82C116.317 110.012 115.953 110.108 115.529 110.108ZM115.769 109.244C116.201 109.244 116.561 109.092 116.849 108.788C117.137 108.484 117.281 108.1 117.281 107.636V107.312H116.885C116.301 107.312 115.841 107.34 115.505 107.396C115.177 107.452 114.941 107.548 114.797 107.684C114.661 107.812 114.593 107.992 114.593 108.224C114.593 108.528 114.697 108.776 114.905 108.968C115.113 109.152 115.401 109.244 115.769 109.244ZM120.126 110V104.144H121.302V105.092C121.478 104.756 121.722 104.496 122.034 104.312C122.346 104.128 122.71 104.036 123.126 104.036C124.022 104.036 124.602 104.428 124.866 105.212C125.05 104.844 125.314 104.556 125.658 104.348C126.002 104.14 126.394 104.036 126.834 104.036C128.146 104.036 128.802 104.82 128.802 106.388V110H127.59V106.448C127.59 105.952 127.502 105.588 127.326 105.356C127.158 105.124 126.878 105.008 126.486 105.008C126.046 105.008 125.698 105.164 125.442 105.476C125.186 105.78 125.058 106.196 125.058 106.724V110H123.846V106.448C123.846 105.952 123.762 105.588 123.594 105.356C123.426 105.124 123.146 105.008 122.754 105.008C122.314 105.008 121.966 105.164 121.71 105.476C121.462 105.78 121.338 106.196 121.338 106.724V110H120.126ZM132.549 110.108C132.069 110.108 131.621 110.048 131.205 109.928C130.789 109.8 130.441 109.624 130.161 109.4L130.509 108.584C130.805 108.792 131.129 108.952 131.481 109.064C131.841 109.176 132.201 109.232 132.561 109.232C132.985 109.232 133.305 109.156 133.521 109.004C133.737 108.852 133.845 108.648 133.845 108.392C133.845 108.184 133.773 108.024 133.629 107.912C133.485 107.792 133.269 107.7 132.981 107.636L131.841 107.408C130.833 107.2 130.329 106.68 130.329 105.848C130.329 105.296 130.549 104.856 130.989 104.528C131.429 104.2 132.005 104.036 132.717 104.036C133.125 104.036 133.513 104.096 133.881 104.216C134.257 104.336 134.569 104.516 134.817 104.756L134.469 105.572C134.229 105.364 133.953 105.204 133.641 105.092C133.329 104.98 133.021 104.924 132.717 104.924C132.301 104.924 131.985 105.004 131.769 105.164C131.553 105.316 131.445 105.524 131.445 105.788C131.445 106.188 131.709 106.444 132.237 106.556L133.377 106.784C133.897 106.888 134.289 107.064 134.553 107.312C134.825 107.56 134.961 107.896 134.961 108.32C134.961 108.88 134.741 109.32 134.301 109.64C133.861 109.952 133.277 110.108 132.549 110.108Z" fill="white"/>
<rect x="166.5" y="94.5" width="391" height="23" rx="3.5" fill="white" stroke="#C1CCD4"/>
<path d="M541.977 105H548C548.422 105 548.633 105.516 548.328 105.82L545.328 108.82C545.141 109.008 544.836 109.008 544.648 108.82L541.648 105.82C541.344 105.516 541.555 105 541.977 105Z" fill="#0D131A"/>
<path d="M172.852 110V101.54H174.064V105.056C174.264 104.72 174.532 104.468 174.868 104.3C175.212 104.124 175.596 104.036 176.02 104.036C177.404 104.036 178.096 104.82 178.096 106.388V110H176.884V106.46C176.884 105.956 176.784 105.588 176.584 105.356C176.392 105.124 176.088 105.008 175.672 105.008C175.184 105.008 174.792 105.164 174.496 105.476C174.208 105.78 174.064 106.184 174.064 106.688V110H172.852ZM181.638 110.108C181.23 110.108 180.866 110.028 180.546 109.868C180.226 109.708 179.97 109.492 179.778 109.22C179.594 108.948 179.502 108.64 179.502 108.296C179.502 107.864 179.61 107.524 179.826 107.276C180.05 107.028 180.414 106.848 180.918 106.736C181.43 106.624 182.118 106.568 182.982 106.568H183.39V106.256C183.39 105.8 183.294 105.472 183.102 105.272C182.91 105.072 182.594 104.972 182.154 104.972C181.818 104.972 181.482 105.024 181.146 105.128C180.81 105.224 180.466 105.38 180.114 105.596L179.742 104.744C180.046 104.528 180.426 104.356 180.882 104.228C181.338 104.1 181.774 104.036 182.19 104.036C182.99 104.036 183.582 104.228 183.966 104.612C184.35 104.988 184.542 105.58 184.542 106.388V110H183.402V109.028C183.258 109.364 183.034 109.628 182.73 109.82C182.426 110.012 182.062 110.108 181.638 110.108ZM181.878 109.244C182.31 109.244 182.67 109.092 182.958 108.788C183.246 108.484 183.39 108.1 183.39 107.636V107.312H182.994C182.41 107.312 181.95 107.34 181.614 107.396C181.286 107.452 181.05 107.548 180.906 107.684C180.77 107.812 180.702 107.992 180.702 108.224C180.702 108.528 180.806 108.776 181.014 108.968C181.222 109.152 181.51 109.244 181.878 109.244ZM187.869 110L185.349 104.144H186.657L188.445 108.596L190.281 104.144H191.517L188.961 110H187.869ZM195.03 110.108C194.07 110.108 193.314 109.84 192.762 109.304C192.21 108.76 191.934 108.02 191.934 107.084C191.934 106.484 192.054 105.956 192.294 105.5C192.542 105.036 192.882 104.676 193.314 104.42C193.746 104.164 194.242 104.036 194.802 104.036C195.61 104.036 196.246 104.296 196.71 104.816C197.174 105.328 197.406 106.036 197.406 106.94V107.348H193.11C193.198 108.564 193.842 109.172 195.042 109.172C195.378 109.172 195.706 109.12 196.026 109.016C196.354 108.912 196.662 108.74 196.95 108.5L197.31 109.34C197.046 109.58 196.706 109.768 196.29 109.904C195.874 110.04 195.454 110.108 195.03 110.108ZM194.85 104.888C194.346 104.888 193.946 105.044 193.65 105.356C193.354 105.668 193.174 106.084 193.11 106.604H196.386C196.362 106.06 196.218 105.64 195.954 105.344C195.69 105.04 195.322 104.888 194.85 104.888ZM204.423 110.108C203.831 110.108 203.319 109.984 202.887 109.736C202.455 109.488 202.119 109.14 201.879 108.692C201.647 108.236 201.531 107.696 201.531 107.072C201.531 106.448 201.647 105.912 201.879 105.464C202.119 105.008 202.455 104.656 202.887 104.408C203.319 104.16 203.831 104.036 204.423 104.036C204.999 104.036 205.503 104.16 205.935 104.408C206.367 104.656 206.703 105.008 206.943 105.464C207.183 105.912 207.303 106.448 207.303 107.072C207.303 107.696 207.183 108.236 206.943 108.692C206.703 109.14 206.367 109.488 205.935 109.736C205.503 109.984 204.999 110.108 204.423 110.108ZM204.423 109.172C204.919 109.172 205.319 108.992 205.623 108.632C205.927 108.272 206.079 107.752 206.079 107.072C206.079 106.392 205.927 105.876 205.623 105.524C205.319 105.164 204.919 104.984 204.423 104.984C203.919 104.984 203.515 105.164 203.211 105.524C202.907 105.876 202.755 106.392 202.755 107.072C202.755 107.752 202.907 108.272 203.211 108.632C203.515 108.992 203.919 109.172 204.423 109.172ZM208.665 112.16V104.144H209.853V105.14C210.021 104.804 210.277 104.536 210.621 104.336C210.965 104.136 211.361 104.036 211.809 104.036C212.329 104.036 212.781 104.16 213.165 104.408C213.557 104.656 213.857 105.008 214.065 105.464C214.281 105.912 214.389 106.448 214.389 107.072C214.389 107.696 214.281 108.236 214.065 108.692C213.857 109.148 213.557 109.5 213.165 109.748C212.781 109.988 212.329 110.108 211.809 110.108C211.377 110.108 210.989 110.016 210.645 109.832C210.309 109.64 210.053 109.38 209.877 109.052V112.16H208.665ZM211.509 109.172C212.013 109.172 212.413 108.992 212.709 108.632C213.013 108.272 213.165 107.752 213.165 107.072C213.165 106.392 213.013 105.876 212.709 105.524C212.413 105.164 212.013 104.984 211.509 104.984C211.005 104.984 210.601 105.164 210.297 105.524C210.001 105.876 209.853 106.392 209.853 107.072C209.853 107.752 210.001 108.272 210.297 108.632C210.601 108.992 211.005 109.172 211.509 109.172ZM218.502 110.108C217.542 110.108 216.786 109.84 216.234 109.304C215.682 108.76 215.406 108.02 215.406 107.084C215.406 106.484 215.526 105.956 215.766 105.5C216.014 105.036 216.354 104.676 216.786 104.42C217.218 104.164 217.714 104.036 218.274 104.036C219.082 104.036 219.718 104.296 220.182 104.816C220.646 105.328 220.878 106.036 220.878 106.94V107.348H216.582C216.67 108.564 217.314 109.172 218.514 109.172C218.85 109.172 219.178 109.12 219.498 109.016C219.826 108.912 220.134 108.74 220.422 108.5L220.782 109.34C220.518 109.58 220.178 109.768 219.762 109.904C219.346 110.04 218.926 110.108 218.502 110.108ZM218.322 104.888C217.818 104.888 217.418 105.044 217.122 105.356C216.826 105.668 216.646 106.084 216.582 106.604H219.858C219.834 106.06 219.69 105.64 219.426 105.344C219.162 105.04 218.794 104.888 218.322 104.888ZM222.2 110V104.144H223.376V105.116C223.576 104.764 223.848 104.496 224.192 104.312C224.544 104.128 224.936 104.036 225.368 104.036C226.752 104.036 227.444 104.82 227.444 106.388V110H226.232V106.46C226.232 105.956 226.132 105.588 225.932 105.356C225.74 105.124 225.436 105.008 225.02 105.008C224.532 105.008 224.14 105.164 223.844 105.476C223.556 105.78 223.412 106.184 223.412 106.688V110H222.2ZM234.138 110.108C233.73 110.108 233.366 110.028 233.046 109.868C232.726 109.708 232.47 109.492 232.278 109.22C232.094 108.948 232.002 108.64 232.002 108.296C232.002 107.864 232.11 107.524 232.326 107.276C232.55 107.028 232.914 106.848 233.418 106.736C233.93 106.624 234.618 106.568 235.482 106.568H235.89V106.256C235.89 105.8 235.794 105.472 235.602 105.272C235.41 105.072 235.094 104.972 234.654 104.972C234.318 104.972 233.982 105.024 233.646 105.128C233.31 105.224 232.966 105.38 232.614 105.596L232.242 104.744C232.546 104.528 232.926 104.356 233.382 104.228C233.838 104.1 234.274 104.036 234.69 104.036C235.49 104.036 236.082 104.228 236.466 104.612C236.85 104.988 237.042 105.58 237.042 106.388V110H235.902V109.028C235.758 109.364 235.534 109.628 235.23 109.82C234.926 110.012 234.562 110.108 234.138 110.108ZM234.378 109.244C234.81 109.244 235.17 109.092 235.458 108.788C235.746 108.484 235.89 108.1 235.89 107.636V107.312H235.494C234.91 107.312 234.45 107.34 234.114 107.396C233.786 107.452 233.55 107.548 233.406 107.684C233.27 107.812 233.202 107.992 233.202 108.224C233.202 108.528 233.306 108.776 233.514 108.968C233.722 109.152 234.01 109.244 234.378 109.244ZM240.619 110.108C239.979 110.108 239.499 109.928 239.179 109.568C238.867 109.208 238.711 108.68 238.711 107.984V101.54H239.923V107.912C239.923 108.704 240.247 109.1 240.895 109.1C240.991 109.1 241.079 109.096 241.159 109.088C241.247 109.08 241.335 109.064 241.423 109.04L241.399 110.012C241.127 110.076 240.867 110.108 240.619 110.108ZM245.069 110.108C244.109 110.108 243.353 109.84 242.801 109.304C242.249 108.76 241.973 108.02 241.973 107.084C241.973 106.484 242.093 105.956 242.333 105.5C242.581 105.036 242.921 104.676 243.353 104.42C243.785 104.164 244.281 104.036 244.841 104.036C245.649 104.036 246.285 104.296 246.749 104.816C247.213 105.328 247.445 106.036 247.445 106.94V107.348H243.149C243.237 108.564 243.881 109.172 245.081 109.172C245.417 109.172 245.745 109.12 246.065 109.016C246.393 108.912 246.701 108.74 246.989 108.5L247.349 109.34C247.085 109.58 246.745 109.768 246.329 109.904C245.913 110.04 245.493 110.108 245.069 110.108ZM244.889 104.888C244.385 104.888 243.985 105.044 243.689 105.356C243.393 105.668 243.213 106.084 243.149 106.604H246.425C246.401 106.06 246.257 105.64 245.993 105.344C245.729 105.04 245.361 104.888 244.889 104.888ZM248.766 110V104.144H249.942V105.188C250.246 104.492 250.878 104.104 251.838 104.024L252.234 104L252.318 105.032L251.586 105.104C250.522 105.208 249.99 105.756 249.99 106.748V110H248.766ZM256.067 110.108C255.331 110.108 254.783 109.92 254.423 109.544C254.063 109.168 253.883 108.624 253.883 107.912V105.08H252.743V104.144H253.883V102.38H255.095V104.144H256.907V105.08H255.095V107.816C255.095 108.24 255.183 108.56 255.359 108.776C255.543 108.992 255.839 109.1 256.247 109.1C256.375 109.1 256.499 109.088 256.619 109.064C256.739 109.032 256.859 108.996 256.979 108.956L257.171 109.868C257.051 109.94 256.883 109.996 256.667 110.036C256.459 110.084 256.259 110.108 256.067 110.108ZM260.006 110.108C259.526 110.108 259.078 110.048 258.662 109.928C258.246 109.8 257.898 109.624 257.618 109.4L257.966 108.584C258.262 108.792 258.586 108.952 258.938 109.064C259.298 109.176 259.658 109.232 260.018 109.232C260.442 109.232 260.762 109.156 260.978 109.004C261.194 108.852 261.302 108.648 261.302 108.392C261.302 108.184 261.23 108.024 261.086 107.912C260.942 107.792 260.726 107.7 260.438 107.636L259.298 107.408C258.29 107.2 257.786 106.68 257.786 105.848C257.786 105.296 258.006 104.856 258.446 104.528C258.886 104.2 259.462 104.036 260.174 104.036C260.582 104.036 260.97 104.096 261.338 104.216C261.714 104.336 262.026 104.516 262.274 104.756L261.926 105.572C261.686 105.364 261.41 105.204 261.098 105.092C260.786 104.98 260.478 104.924 260.174 104.924C259.758 104.924 259.442 105.004 259.226 105.164C259.01 105.316 258.902 105.524 258.902 105.788C258.902 106.188 259.166 106.444 259.694 106.556L260.834 106.784C261.354 106.888 261.746 107.064 262.01 107.312C262.282 107.56 262.418 107.896 262.418 108.32C262.418 108.88 262.198 109.32 261.758 109.64C261.318 109.952 260.734 110.108 260.006 110.108Z" fill="#1F2D3D"/>
<rect x="566" y="94" width="24" height="24" rx="2" fill="#F3F3F3"/>
<path d="M573.5 111.375V103.5H582.5V111.375C582.5 112.008 581.984 112.5 581.375 112.5H574.625C573.992 112.5 573.5 112.008 573.5 111.375ZM579.875 105.375V110.625C579.875 110.836 580.039 111 580.25 111C580.438 111 580.625 110.836 580.625 110.625V105.375C580.625 105.188 580.438 105 580.25 105C580.039 105 579.875 105.188 579.875 105.375ZM577.625 105.375V110.625C577.625 110.836 577.789 111 578 111C578.188 111 578.375 110.836 578.375 110.625V105.375C578.375 105.188 578.188 105 578 105C577.789 105 577.625 105.188 577.625 105.375ZM575.375 105.375V110.625C575.375 110.836 575.539 111 575.75 111C575.938 111 576.125 110.836 576.125 110.625V105.375C576.125 105.188 575.938 105 575.75 105C575.539 105 575.375 105.188 575.375 105.375ZM582.875 101.25C583.062 101.25 583.25 101.438 583.25 101.625V102.375C583.25 102.586 583.062 102.75 582.875 102.75H573.125C572.914 102.75 572.75 102.586 572.75 102.375V101.625C572.75 101.438 572.914 101.25 573.125 101.25H575.938L576.148 100.828C576.242 100.641 576.43 100.5 576.641 100.5H579.336C579.547 100.5 579.734 100.641 579.828 100.828L580.062 101.25H582.875Z" fill="#545D7F"/>
<rect x="12" y="130" width="150" height="24" fill="#E5EAED"/>
<path d="M84.7651 146.108C84.1731 146.108 83.6611 145.984 83.2291 145.736C82.7971 145.488 82.4611 145.14 82.2211 144.692C81.9891 144.236 81.8731 143.696 81.8731 143.072C81.8731 142.448 81.9891 141.912 82.2211 141.464C82.4611 141.008 82.7971 140.656 83.2291 140.408C83.6611 140.16 84.1731 140.036 84.7651 140.036C85.3411 140.036 85.8451 140.16 86.2771 140.408C86.7091 140.656 87.0451 141.008 87.2851 141.464C87.5251 141.912 87.6451 142.448 87.6451 143.072C87.6451 143.696 87.5251 144.236 87.2851 144.692C87.0451 145.14 86.7091 145.488 86.2771 145.736C85.8451 145.984 85.3411 146.108 84.7651 146.108ZM84.7651 145.172C85.2611 145.172 85.6611 144.992 85.9651 144.632C86.2691 144.272 86.4211 143.752 86.4211 143.072C86.4211 142.392 86.2691 141.876 85.9651 141.524C85.6611 141.164 85.2611 140.984 84.7651 140.984C84.2611 140.984 83.8571 141.164 83.5531 141.524C83.2491 141.876 83.0971 142.392 83.0971 143.072C83.0971 143.752 83.2491 144.272 83.5531 144.632C83.8571 144.992 84.2611 145.172 84.7651 145.172ZM89.0063 146V140.144H90.1823V141.188C90.4863 140.492 91.1183 140.104 92.0783 140.024L92.4743 140L92.5583 141.032L91.8263 141.104C90.7623 141.208 90.2303 141.756 90.2303 142.748V146H89.0063Z" fill="#0D131A"/>
<rect x="166.5" y="130.5" width="391" height="23" rx="3.5" fill="white" stroke="#C1CCD4"/>
<path d="M541.977 141H548C548.422 141 548.633 141.516 548.328 141.82L545.328 144.82C545.141 145.008 544.836 145.008 544.648 144.82L541.648 141.82C541.344 141.516 541.555 141 541.977 141Z" fill="#0D131A"/>
<path d="M172.852 146V137.54H174.064V141.056C174.264 140.72 174.532 140.468 174.868 140.3C175.212 140.124 175.596 140.036 176.02 140.036C177.404 140.036 178.096 140.82 178.096 142.388V146H176.884V142.46C176.884 141.956 176.784 141.588 176.584 141.356C176.392 141.124 176.088 141.008 175.672 141.008C175.184 141.008 174.792 141.164 174.496 141.476C174.208 141.78 174.064 142.184 174.064 142.688V146H172.852ZM181.638 146.108C181.23 146.108 180.866 146.028 180.546 145.868C180.226 145.708 179.97 145.492 179.778 145.22C179.594 144.948 179.502 144.64 179.502 144.296C179.502 143.864 179.61 143.524 179.826 143.276C180.05 143.028 180.414 142.848 180.918 142.736C181.43 142.624 182.118 142.568 182.982 142.568H183.39V142.256C183.39 141.8 183.294 141.472 183.102 141.272C182.91 141.072 182.594 140.972 182.154 140.972C181.818 140.972 181.482 141.024 181.146 141.128C180.81 141.224 180.466 141.38 180.114 141.596L179.742 140.744C180.046 140.528 180.426 140.356 180.882 140.228C181.338 140.1 181.774 140.036 182.19 140.036C182.99 140.036 183.582 140.228 183.966 140.612C184.35 140.988 184.542 141.58 184.542 142.388V146H183.402V145.028C183.258 145.364 183.034 145.628 182.73 145.82C182.426 146.012 182.062 146.108 181.638 146.108ZM181.878 145.244C182.31 145.244 182.67 145.092 182.958 144.788C183.246 144.484 183.39 144.1 183.39 143.636V143.312H182.994C182.41 143.312 181.95 143.34 181.614 143.396C181.286 143.452 181.05 143.548 180.906 143.684C180.77 143.812 180.702 143.992 180.702 144.224C180.702 144.528 180.806 144.776 181.014 144.968C181.222 145.152 181.51 145.244 181.878 145.244ZM187.869 146L185.349 140.144H186.657L188.445 144.596L190.281 140.144H191.517L188.961 146H187.869ZM195.03 146.108C194.07 146.108 193.314 145.84 192.762 145.304C192.21 144.76 191.934 144.02 191.934 143.084C191.934 142.484 192.054 141.956 192.294 141.5C192.542 141.036 192.882 140.676 193.314 140.42C193.746 140.164 194.242 140.036 194.802 140.036C195.61 140.036 196.246 140.296 196.71 140.816C197.174 141.328 197.406 142.036 197.406 142.94V143.348H193.11C193.198 144.564 193.842 145.172 195.042 145.172C195.378 145.172 195.706 145.12 196.026 145.016C196.354 144.912 196.662 144.74 196.95 144.5L197.31 145.34C197.046 145.58 196.706 145.768 196.29 145.904C195.874 146.04 195.454 146.108 195.03 146.108ZM194.85 140.888C194.346 140.888 193.946 141.044 193.65 141.356C193.354 141.668 193.174 142.084 193.11 142.604H196.386C196.362 142.06 196.218 141.64 195.954 141.344C195.69 141.04 195.322 140.888 194.85 140.888ZM203.967 146.108C202.551 146.108 201.843 145.32 201.843 143.744V140.144H203.055V143.756C203.055 144.228 203.151 144.576 203.343 144.8C203.535 145.024 203.839 145.136 204.255 145.136C204.711 145.136 205.079 144.984 205.359 144.68C205.647 144.376 205.791 143.968 205.791 143.456V140.144H207.003V146H205.827V145.064C205.635 145.408 205.379 145.668 205.059 145.844C204.739 146.02 204.375 146.108 203.967 146.108ZM208.711 146V140.144H209.887V141.116C210.087 140.764 210.359 140.496 210.703 140.312C211.055 140.128 211.447 140.036 211.879 140.036C213.263 140.036 213.955 140.82 213.955 142.388V146H212.743V142.46C212.743 141.956 212.643 141.588 212.443 141.356C212.251 141.124 211.947 141.008 211.531 141.008C211.043 141.008 210.651 141.164 210.355 141.476C210.067 141.78 209.923 142.184 209.923 142.688V146H208.711ZM215.625 146V140.144H216.801V141.188C217.105 140.492 217.737 140.104 218.697 140.024L219.093 140L219.177 141.032L218.445 141.104C217.381 141.208 216.849 141.756 216.849 142.748V146H215.625ZM222.768 146.108C221.808 146.108 221.052 145.84 220.5 145.304C219.948 144.76 219.672 144.02 219.672 143.084C219.672 142.484 219.792 141.956 220.032 141.5C220.28 141.036 220.62 140.676 221.052 140.42C221.484 140.164 221.98 140.036 222.54 140.036C223.348 140.036 223.984 140.296 224.448 140.816C224.912 141.328 225.144 142.036 225.144 142.94V143.348H220.848C220.936 144.564 221.58 145.172 222.78 145.172C223.116 145.172 223.444 145.12 223.764 145.016C224.092 144.912 224.4 144.74 224.688 144.5L225.048 145.34C224.784 145.58 224.444 145.768 224.028 145.904C223.612 146.04 223.192 146.108 222.768 146.108ZM222.588 140.888C222.084 140.888 221.684 141.044 221.388 141.356C221.092 141.668 220.912 142.084 220.848 142.604H224.124C224.1 142.06 223.956 141.64 223.692 141.344C223.428 141.04 223.06 140.888 222.588 140.888ZM228.337 146.108C227.929 146.108 227.565 146.028 227.245 145.868C226.925 145.708 226.669 145.492 226.477 145.22C226.293 144.948 226.201 144.64 226.201 144.296C226.201 143.864 226.309 143.524 226.525 143.276C226.749 143.028 227.113 142.848 227.617 142.736C228.129 142.624 228.817 142.568 229.681 142.568H230.089V142.256C230.089 141.8 229.993 141.472 229.801 141.272C229.609 141.072 229.293 140.972 228.853 140.972C228.517 140.972 228.181 141.024 227.845 141.128C227.509 141.224 227.165 141.38 226.813 141.596L226.441 140.744C226.745 140.528 227.125 140.356 227.581 140.228C228.037 140.1 228.473 140.036 228.889 140.036C229.689 140.036 230.281 140.228 230.665 140.612C231.049 140.988 231.241 141.58 231.241 142.388V146H230.101V145.028C229.957 145.364 229.733 145.628 229.429 145.82C229.125 146.012 228.761 146.108 228.337 146.108ZM228.577 145.244C229.009 145.244 229.369 145.092 229.657 144.788C229.945 144.484 230.089 144.1 230.089 143.636V143.312H229.693C229.109 143.312 228.649 143.34 228.313 143.396C227.985 143.452 227.749 143.548 227.605 143.684C227.469 143.812 227.401 143.992 227.401 144.224C227.401 144.528 227.505 144.776 227.713 144.968C227.921 145.152 228.209 145.244 228.577 145.244ZM235.143 146.108C234.631 146.108 234.179 145.988 233.787 145.748C233.403 145.5 233.103 145.148 232.887 144.692C232.671 144.236 232.563 143.696 232.563 143.072C232.563 142.448 232.671 141.912 232.887 141.464C233.103 141.008 233.403 140.656 233.787 140.408C234.171 140.16 234.623 140.036 235.143 140.036C235.583 140.036 235.975 140.132 236.319 140.324C236.663 140.516 236.919 140.776 237.087 141.104V137.54H238.299V146H237.111V144.98C236.943 145.332 236.683 145.608 236.331 145.808C235.987 146.008 235.591 146.108 235.143 146.108ZM235.455 145.172C235.951 145.172 236.351 144.992 236.655 144.632C236.959 144.272 237.111 143.752 237.111 143.072C237.111 142.392 236.959 141.876 236.655 141.524C236.351 141.164 235.951 140.984 235.455 140.984C234.951 140.984 234.547 141.164 234.243 141.524C233.939 141.876 233.787 142.392 233.787 143.072C233.787 143.752 233.939 144.272 234.243 144.632C234.547 144.992 234.951 145.172 235.455 145.172ZM243.177 146V140.144H244.353V141.092C244.529 140.756 244.773 140.496 245.085 140.312C245.397 140.128 245.761 140.036 246.177 140.036C247.073 140.036 247.653 140.428 247.917 141.212C248.101 140.844 248.365 140.556 248.709 140.348C249.053 140.14 249.445 140.036 249.885 140.036C251.197 140.036 251.853 140.82 251.853 142.388V146H250.641V142.448C250.641 141.952 250.553 141.588 250.377 141.356C250.209 141.124 249.929 141.008 249.537 141.008C249.097 141.008 248.749 141.164 248.493 141.476C248.237 141.78 248.109 142.196 248.109 142.724V146H246.897V142.448C246.897 141.952 246.813 141.588 246.645 141.356C246.477 141.124 246.197 141.008 245.805 141.008C245.365 141.008 245.017 141.164 244.761 141.476C244.513 141.78 244.389 142.196 244.389 142.724V146H243.177ZM256.295 146.108C255.335 146.108 254.579 145.84 254.027 145.304C253.475 144.76 253.199 144.02 253.199 143.084C253.199 142.484 253.319 141.956 253.559 141.5C253.807 141.036 254.147 140.676 254.579 140.42C255.011 140.164 255.507 140.036 256.067 140.036C256.875 140.036 257.511 140.296 257.975 140.816C258.439 141.328 258.671 142.036 258.671 142.94V143.348H254.375C254.463 144.564 255.107 145.172 256.307 145.172C256.643 145.172 256.971 145.12 257.291 145.016C257.619 144.912 257.927 144.74 258.215 144.5L258.575 145.34C258.311 145.58 257.971 145.768 257.555 145.904C257.139 146.04 256.719 146.108 256.295 146.108ZM256.115 140.888C255.611 140.888 255.211 141.044 254.915 141.356C254.619 141.668 254.439 142.084 254.375 142.604H257.651C257.627 142.06 257.483 141.64 257.219 141.344C256.955 141.04 256.587 140.888 256.115 140.888ZM262.045 146.108C261.565 146.108 261.117 146.048 260.701 145.928C260.285 145.8 259.937 145.624 259.657 145.4L260.005 144.584C260.301 144.792 260.625 144.952 260.977 145.064C261.337 145.176 261.697 145.232 262.057 145.232C262.481 145.232 262.801 145.156 263.017 145.004C263.233 144.852 263.341 144.648 263.341 144.392C263.341 144.184 263.269 144.024 263.125 143.912C262.981 143.792 262.765 143.7 262.477 143.636L261.337 143.408C260.329 143.2 259.825 142.68 259.825 141.848C259.825 141.296 260.045 140.856 260.485 140.528C260.925 140.2 261.501 140.036 262.213 140.036C262.621 140.036 263.009 140.096 263.377 140.216C263.753 140.336 264.065 140.516 264.313 140.756L263.965 141.572C263.725 141.364 263.449 141.204 263.137 141.092C262.825 140.98 262.517 140.924 262.213 140.924C261.797 140.924 261.481 141.004 261.265 141.164C261.049 141.316 260.941 141.524 260.941 141.788C260.941 142.188 261.205 142.444 261.733 142.556L262.873 142.784C263.393 142.888 263.785 143.064 264.049 143.312C264.321 143.56 264.457 143.896 264.457 144.32C264.457 144.88 264.237 145.32 263.797 145.64C263.357 145.952 262.773 146.108 262.045 146.108ZM267.857 146.108C267.377 146.108 266.929 146.048 266.513 145.928C266.097 145.8 265.749 145.624 265.469 145.4L265.817 144.584C266.113 144.792 266.437 144.952 266.789 145.064C267.149 145.176 267.509 145.232 267.869 145.232C268.293 145.232 268.613 145.156 268.829 145.004C269.045 144.852 269.153 144.648 269.153 144.392C269.153 144.184 269.081 144.024 268.937 143.912C268.793 143.792 268.577 143.7 268.289 143.636L267.149 143.408C266.141 143.2 265.637 142.68 265.637 141.848C265.637 141.296 265.857 140.856 266.297 140.528C266.737 140.2 267.313 140.036 268.025 140.036C268.433 140.036 268.821 140.096 269.189 140.216C269.565 140.336 269.877 140.516 270.125 140.756L269.777 141.572C269.537 141.364 269.261 141.204 268.949 141.092C268.637 140.98 268.329 140.924 268.025 140.924C267.609 140.924 267.293 141.004 267.077 141.164C266.861 141.316 266.753 141.524 266.753 141.788C266.753 142.188 267.017 142.444 267.545 142.556L268.685 142.784C269.205 142.888 269.597 143.064 269.861 143.312C270.133 143.56 270.269 143.896 270.269 144.32C270.269 144.88 270.049 145.32 269.609 145.64C269.169 145.952 268.585 146.108 267.857 146.108ZM273.49 146.108C273.082 146.108 272.718 146.028 272.398 145.868C272.078 145.708 271.822 145.492 271.63 145.22C271.446 144.948 271.354 144.64 271.354 144.296C271.354 143.864 271.462 143.524 271.678 143.276C271.902 143.028 272.266 142.848 272.77 142.736C273.282 142.624 273.97 142.568 274.834 142.568H275.242V142.256C275.242 141.8 275.146 141.472 274.954 141.272C274.762 141.072 274.446 140.972 274.006 140.972C273.67 140.972 273.334 141.024 272.998 141.128C272.662 141.224 272.318 141.38 271.966 141.596L271.594 140.744C271.898 140.528 272.278 140.356 272.734 140.228C273.19 140.1 273.626 140.036 274.042 140.036C274.842 140.036 275.434 140.228 275.818 140.612C276.202 140.988 276.394 141.58 276.394 142.388V146H275.254V145.028C275.11 145.364 274.886 145.628 274.582 145.82C274.278 146.012 273.914 146.108 273.49 146.108ZM273.73 145.244C274.162 145.244 274.522 145.092 274.81 144.788C275.098 144.484 275.242 144.1 275.242 143.636V143.312H274.846C274.262 143.312 273.802 143.34 273.466 143.396C273.138 143.452 272.902 143.548 272.758 143.684C272.622 143.812 272.554 143.992 272.554 144.224C272.554 144.528 272.658 144.776 272.866 144.968C273.074 145.152 273.362 145.244 273.73 145.244ZM280.715 148.268C280.187 148.268 279.695 148.204 279.239 148.076C278.783 147.956 278.379 147.764 278.027 147.5L278.399 146.636C278.751 146.876 279.111 147.052 279.479 147.164C279.847 147.276 280.231 147.332 280.631 147.332C281.751 147.332 282.311 146.772 282.311 145.652V144.728C282.143 145.08 281.879 145.356 281.519 145.556C281.167 145.756 280.771 145.856 280.331 145.856C279.803 145.856 279.343 145.736 278.951 145.496C278.559 145.248 278.255 144.908 278.039 144.476C277.823 144.036 277.715 143.524 277.715 142.94C277.715 142.364 277.823 141.86 278.039 141.428C278.255 140.988 278.559 140.648 278.951 140.408C279.343 140.16 279.803 140.036 280.331 140.036C280.779 140.036 281.179 140.136 281.531 140.336C281.883 140.536 282.143 140.812 282.311 141.164V140.144H283.487V145.508C283.487 146.428 283.251 147.116 282.779 147.572C282.307 148.036 281.619 148.268 280.715 148.268ZM280.619 144.908C281.131 144.908 281.539 144.732 281.843 144.38C282.147 144.028 282.299 143.548 282.299 142.94C282.299 142.332 282.147 141.856 281.843 141.512C281.539 141.16 281.131 140.984 280.619 140.984C280.107 140.984 279.699 141.16 279.395 141.512C279.091 141.856 278.939 142.332 278.939 142.94C278.939 143.548 279.091 144.028 279.395 144.38C279.699 144.732 280.107 144.908 280.619 144.908ZM287.936 146.108C286.976 146.108 286.22 145.84 285.668 145.304C285.116 144.76 284.84 144.02 284.84 143.084C284.84 142.484 284.96 141.956 285.2 141.5C285.448 141.036 285.788 140.676 286.22 140.42C286.652 140.164 287.148 140.036 287.708 140.036C288.516 140.036 289.152 140.296 289.616 140.816C290.08 141.328 290.312 142.036 290.312 142.94V143.348H286.016C286.104 144.564 286.748 145.172 287.948 145.172C288.284 145.172 288.612 145.12 288.932 145.016C289.26 144.912 289.568 144.74 289.856 144.5L290.216 145.34C289.952 145.58 289.612 145.768 289.196 145.904C288.78 146.04 288.36 146.108 287.936 146.108ZM287.756 140.888C287.252 140.888 286.852 141.044 286.556 141.356C286.26 141.668 286.08 142.084 286.016 142.604H289.292C289.268 142.06 289.124 141.64 288.86 141.344C288.596 141.04 288.228 140.888 287.756 140.888ZM293.685 146.108C293.205 146.108 292.757 146.048 292.341 145.928C291.925 145.8 291.577 145.624 291.297 145.4L291.645 144.584C291.941 144.792 292.265 144.952 292.617 145.064C292.977 145.176 293.337 145.232 293.697 145.232C294.121 145.232 294.441 145.156 294.657 145.004C294.873 144.852 294.981 144.648 294.981 144.392C294.981 144.184 294.909 144.024 294.765 143.912C294.621 143.792 294.405 143.7 294.117 143.636L292.977 143.408C291.969 143.2 291.465 142.68 291.465 141.848C291.465 141.296 291.685 140.856 292.125 140.528C292.565 140.2 293.141 140.036 293.853 140.036C294.261 140.036 294.649 140.096 295.017 140.216C295.393 140.336 295.705 140.516 295.953 140.756L295.605 141.572C295.365 141.364 295.089 141.204 294.777 141.092C294.465 140.98 294.157 140.924 293.853 140.924C293.437 140.924 293.121 141.004 292.905 141.164C292.689 141.316 292.581 141.524 292.581 141.788C292.581 142.188 292.845 142.444 293.373 142.556L294.513 142.784C295.033 142.888 295.425 143.064 295.689 143.312C295.961 143.56 296.097 143.896 296.097 144.32C296.097 144.88 295.877 145.32 295.437 145.64C294.997 145.952 294.413 146.108 293.685 146.108Z" fill="#1F2D3D"/>
<rect x="566" y="130" width="24" height="24" rx="2" fill="#F3F3F3"/>
<path d="M573.5 147.375V139.5H582.5V147.375C582.5 148.008 581.984 148.5 581.375 148.5H574.625C573.992 148.5 573.5 148.008 573.5 147.375ZM579.875 141.375V146.625C579.875 146.836 580.039 147 580.25 147C580.438 147 580.625 146.836 580.625 146.625V141.375C580.625 141.188 580.438 141 580.25 141C580.039 141 579.875 141.188 579.875 141.375ZM577.625 141.375V146.625C577.625 146.836 577.789 147 578 147C578.188 147 578.375 146.836 578.375 146.625V141.375C578.375 141.188 578.188 141 578 141C577.789 141 577.625 141.188 577.625 141.375ZM575.375 141.375V146.625C575.375 146.836 575.539 147 575.75 147C575.938 147 576.125 146.836 576.125 146.625V141.375C576.125 141.188 575.938 141 575.75 141C575.539 141 575.375 141.188 575.375 141.375ZM582.875 137.25C583.062 137.25 583.25 137.438 583.25 137.625V138.375C583.25 138.586 583.062 138.75 582.875 138.75H573.125C572.914 138.75 572.75 138.586 572.75 138.375V137.625C572.75 137.438 572.914 137.25 573.125 137.25H575.938L576.148 136.828C576.242 136.641 576.43 136.5 576.641 136.5H579.336C579.547 136.5 579.734 136.641 579.828 136.828L580.062 137.25H582.875Z" fill="#545D7F"/>
<path d="M21 186.969C24.7461 186.969 27.7812 190.004 27.7812 193.75C27.7812 197.496 24.7461 200.531 21 200.531C17.2539 200.531 14.2188 197.496 14.2188 193.75C14.2188 190.004 17.2539 186.969 21 186.969ZM24.9375 194.516V192.984C24.9375 192.82 24.7734 192.656 24.6094 192.656H22.0938V190.141C22.0938 189.977 21.9297 189.812 21.7656 189.812H20.2344C20.043 189.812 19.9062 189.977 19.9062 190.141V192.656H17.3906C17.1992 192.656 17.0625 192.82 17.0625 192.984V194.516C17.0625 194.707 17.1992 194.844 17.3906 194.844H19.9062V197.359C19.9062 197.551 20.043 197.688 20.2344 197.688H21.7656C21.9297 197.688 22.0938 197.551 22.0938 197.359V194.844H24.6094C24.7734 194.844 24.9375 194.707 24.9375 194.516Z" fill="#41A437"/>
<path d="M35.132 197.5L38.9 189.04H39.932L43.712 197.5H42.44L41.552 195.436H37.268L36.392 197.5H35.132ZM39.404 190.42L37.712 194.428H41.132L39.428 190.42H39.404ZM46.8613 197.608C46.3493 197.608 45.8973 197.488 45.5053 197.248C45.1213 197 44.8213 196.648 44.6053 196.192C44.3893 195.736 44.2813 195.196 44.2813 194.572C44.2813 193.948 44.3893 193.412 44.6053 192.964C44.8213 192.508 45.1213 192.156 45.5053 191.908C45.8893 191.66 46.3413 191.536 46.8613 191.536C47.3013 191.536 47.6933 191.632 48.0373 191.824C48.3813 192.016 48.6373 192.276 48.8053 192.604V189.04H50.0173V197.5H48.8293V196.48C48.6613 196.832 48.4013 197.108 48.0493 197.308C47.7053 197.508 47.3093 197.608 46.8613 197.608ZM47.1733 196.672C47.6693 196.672 48.0693 196.492 48.3733 196.132C48.6773 195.772 48.8293 195.252 48.8293 194.572C48.8293 193.892 48.6773 193.376 48.3733 193.024C48.0693 192.664 47.6693 192.484 47.1733 192.484C46.6693 192.484 46.2653 192.664 45.9613 193.024C45.6573 193.376 45.5053 193.892 45.5053 194.572C45.5053 195.252 45.6573 195.772 45.9613 196.132C46.2653 196.492 46.6693 196.672 47.1733 196.672ZM53.9512 197.608C53.4392 197.608 52.9872 197.488 52.5952 197.248C52.2112 197 51.9112 196.648 51.6952 196.192C51.4792 195.736 51.3712 195.196 51.3712 194.572C51.3712 193.948 51.4792 193.412 51.6952 192.964C51.9112 192.508 52.2112 192.156 52.5952 191.908C52.9792 191.66 53.4312 191.536 53.9512 191.536C54.3912 191.536 54.7832 191.632 55.1272 191.824C55.4712 192.016 55.7272 192.276 55.8952 192.604V189.04H57.1072V197.5H55.9192V196.48C55.7512 196.832 55.4912 197.108 55.1392 197.308C54.7952 197.508 54.3992 197.608 53.9512 197.608ZM54.2632 196.672C54.7592 196.672 55.1592 196.492 55.4632 196.132C55.7672 195.772 55.9192 195.252 55.9192 194.572C55.9192 193.892 55.7672 193.376 55.4632 193.024C55.1592 192.664 54.7592 192.484 54.2632 192.484C53.7592 192.484 53.3552 192.664 53.0512 193.024C52.7472 193.376 52.5952 193.892 52.5952 194.572C52.5952 195.252 52.7472 195.772 53.0512 196.132C53.3552 196.492 53.7592 196.672 54.2632 196.672ZM62.3094 197.5V192.58H61.1694V191.644H62.3094V191.536C62.3094 190.728 62.5134 190.12 62.9214 189.712C63.3374 189.304 63.9734 189.076 64.8294 189.028L65.3574 188.992L65.4414 189.904L64.8894 189.94C64.4014 189.972 64.0494 190.104 63.8334 190.336C63.6254 190.568 63.5214 190.912 63.5214 191.368V191.644H65.1654V192.58H63.5214V197.5H62.3094ZM66.0135 190.288V189.028H67.4295V190.288H66.0135ZM66.1215 197.5V191.644H67.3335V197.5H66.1215ZM70.9475 197.608C70.3075 197.608 69.8275 197.428 69.5075 197.068C69.1955 196.708 69.0395 196.18 69.0395 195.484V189.04H70.2515V195.412C70.2515 196.204 70.5755 196.6 71.2235 196.6C71.3195 196.6 71.4075 196.596 71.4875 196.588C71.5755 196.58 71.6635 196.564 71.7515 196.54L71.7275 197.512C71.4555 197.576 71.1955 197.608 70.9475 197.608ZM75.0746 197.608C74.3386 197.608 73.7906 197.42 73.4306 197.044C73.0706 196.668 72.8906 196.124 72.8906 195.412V192.58H71.7506V191.644H72.8906V189.88H74.1026V191.644H75.9146V192.58H74.1026V195.316C74.1026 195.74 74.1906 196.06 74.3666 196.276C74.5506 196.492 74.8466 196.6 75.2546 196.6C75.3826 196.6 75.5066 196.588 75.6266 196.564C75.7466 196.532 75.8666 196.496 75.9866 196.456L76.1786 197.368C76.0586 197.44 75.8906 197.496 75.6746 197.536C75.4666 197.584 75.2666 197.608 75.0746 197.608ZM79.6508 197.608C78.6908 197.608 77.9348 197.34 77.3828 196.804C76.8308 196.26 76.5548 195.52 76.5548 194.584C76.5548 193.984 76.6748 193.456 76.9148 193C77.1628 192.536 77.5028 192.176 77.9348 191.92C78.3668 191.664 78.8628 191.536 79.4228 191.536C80.2308 191.536 80.8668 191.796 81.3308 192.316C81.7948 192.828 82.0268 193.536 82.0268 194.44V194.848H77.7308C77.8188 196.064 78.4628 196.672 79.6628 196.672C79.9988 196.672 80.3268 196.62 80.6468 196.516C80.9748 196.412 81.2828 196.24 81.5708 196L81.9308 196.84C81.6668 197.08 81.3268 197.268 80.9108 197.404C80.4948 197.54 80.0748 197.608 79.6508 197.608ZM79.4708 192.388C78.9668 192.388 78.5668 192.544 78.2708 192.856C77.9748 193.168 77.7948 193.584 77.7308 194.104H81.0068C80.9828 193.56 80.8388 193.14 80.5748 192.844C80.3108 192.54 79.9428 192.388 79.4708 192.388ZM83.3481 197.5V191.644H84.5241V192.688C84.8281 191.992 85.4601 191.604 86.4201 191.524L86.8161 191.5L86.9001 192.532L86.1681 192.604C85.1041 192.708 84.5721 193.256 84.5721 194.248V197.5H83.3481Z" fill="#41A437"/>
<rect x="4.5" y="33.5" width="597" height="184" stroke="#D1D9DF" shape-rendering="crispEdges"/>
</g>
</g>
<rect x="4.5" y="33.5" width="597" height="184" rx="3.5" stroke="#D1D9DF" shape-rendering="crispEdges"/>
</g>
<rect x="4" width="98" height="29" rx="4" fill="#F3F3F3"/>
<path d="M27.7188 6.5C28.4062 6.5 28.75 7.3125 28.25 7.78125L22.5 13.5625V21.75C22.5 22.375 21.8125 22.7188 21.3125 22.375L18.8125 20.625C18.5938 20.5 18.5 20.25 18.5 20V13.5625L12.7188 7.78125C12.2188 7.3125 12.5625 6.5 13.25 6.5H27.7188Z" fill="#A7B7C2"/>
<path d="M35.312 20L35.312 8.72L42.48 8.72V10.064L36.976 10.064V13.664H42.144V15.008H36.976L36.976 20H35.312ZM43.8514 10.384V8.704H45.7394V10.384H43.8514ZM43.9954 20V12.192H45.6114V20H43.9954ZM50.43 20.144C49.5767 20.144 48.9367 19.904 48.51 19.424C48.094 18.944 47.886 18.24 47.886 17.312V8.72H49.502V17.216C49.502 18.272 49.934 18.8 50.798 18.8C50.926 18.8 51.0433 18.7947 51.15 18.784C51.2673 18.7733 51.3847 18.752 51.502 18.72L51.47 20.016C51.1073 20.1013 50.7607 20.144 50.43 20.144ZM55.9328 20.144C54.9514 20.144 54.2208 19.8933 53.7408 19.392C53.2608 18.8907 53.0208 18.1653 53.0208 17.216V13.44H51.5008V12.192H53.0208V9.84H54.6368V12.192H57.0528V13.44H54.6368V17.088C54.6368 17.6533 54.7541 18.08 54.9888 18.368C55.2341 18.656 55.6288 18.8 56.1727 18.8C56.3434 18.8 56.5088 18.784 56.6688 18.752C56.8288 18.7093 56.9888 18.6613 57.1488 18.608L57.4048 19.824C57.2448 19.92 57.0208 19.9947 56.7328 20.048C56.4554 20.112 56.1888 20.144 55.9328 20.144ZM62.0344 20.144C60.7544 20.144 59.7464 19.7867 59.0104 19.072C58.2744 18.3467 57.9064 17.36 57.9064 16.112C57.9064 15.312 58.0664 14.608 58.3864 14C58.717 13.3813 59.1704 12.9013 59.7464 12.56C60.3224 12.2187 60.9837 12.048 61.7304 12.048C62.8077 12.048 63.6557 12.3947 64.2744 13.088C64.893 13.7707 65.2024 14.7147 65.2024 15.92V16.464H59.4744C59.5917 18.0853 60.4504 18.896 62.0504 18.896C62.4984 18.896 62.9357 18.8267 63.3624 18.688C63.7997 18.5493 64.2104 18.32 64.5944 18L65.0744 19.12C64.7224 19.44 64.269 19.6907 63.7144 19.872C63.1597 20.0533 62.5997 20.144 62.0344 20.144ZM61.7944 13.184C61.1224 13.184 60.589 13.392 60.1944 13.808C59.7997 14.224 59.5597 14.7787 59.4744 15.472H63.8424C63.8104 14.7467 63.6184 14.1867 63.2664 13.792C62.9144 13.3867 62.4237 13.184 61.7944 13.184ZM66.9641 20V12.192H68.5321V13.584C68.9375 12.656 69.7801 12.1387 71.0601 12.032L71.5881 12L71.7001 13.376L70.7241 13.472C69.3055 13.6107 68.5961 14.3413 68.5961 15.664V20H66.9641Z" fill="#1F2D3D"/>
<path d="M89 17.5H80.9688C80.4062 17.5 80.125 16.8438 80.5312 16.4375L84.5312 12.4375C84.7812 12.1875 85.1875 12.1875 85.4375 12.4375L89.4375 16.4375C89.8438 16.8438 89.5625 17.5 89 17.5Z" fill="black"/>
<defs>
<filter id="filter0_d_4534_4953" x="0" y="29" width="606" height="193" filterUnits="userSpaceOnUse" color-interpolation-filters="sRGB">
<feFlood flood-opacity="0" result="BackgroundImageFix"/>
<feColorMatrix in="SourceAlpha" type="matrix" values="0 0 0 0 0 0 0 0 0 0 0 0 0 0 0 0 0 0 127 0" result="hardAlpha"/>
<feOffset/>
<feGaussianBlur stdDeviation="2"/>
<feComposite in2="hardAlpha" operator="out"/>
<feColorMatrix type="matrix" values="0 0 0 0 0 0 0 0 0 0 0 0 0 0 0 0 0 0 0.25 0"/>
<feBlend mode="normal" in2="BackgroundImageFix" result="effect1_dropShadow_4534_4953"/>
<feBlend mode="normal" in="SourceGraphic" in2="effect1_dropShadow_4534_4953" result="shape"/>
</filter>
<filter id="filter1_d_4534_4953" x="0" y="33" width="606" height="193" filterUnits="userSpaceOnUse" color-interpolation-filters="sRGB">
<feFlood flood-opacity="0" result="BackgroundImageFix"/>
<feColorMatrix in="SourceAlpha" type="matrix" values="0 0 0 0 0 0 0 0 0 0 0 0 0 0 0 0 0 0 127 0" result="hardAlpha"/>
<feOffset dy="4"/>
<feGaussianBlur stdDeviation="2"/>
<feComposite in2="hardAlpha" operator="out"/>
<feColorMatrix type="matrix" values="0 0 0 0 0 0 0 0 0 0 0 0 0 0 0 0 0 0 0.25 0"/>
<feBlend mode="normal" in2="BackgroundImageFix" result="effect1_dropShadow_4534_4953"/>
<feBlend mode="normal" in="SourceGraphic" in2="effect1_dropShadow_4534_4953" result="shape"/>
</filter>
<clipPath id="clip0_4534_4953">
<rect x="4" y="33" width="598" height="185" rx="4" fill="white"/>
</clipPath>
</defs>
</svg>
